<?xml version="1.0" encoding="UTF-8" standalone="no"?>
<svg
   xmlns:dc="http://purl.org/dc/elements/1.1/"
   xmlns:cc="http://creativecommons.org/ns#"
   xmlns:rdf="http://www.w3.org/1999/02/22-rdf-syntax-ns#"
   xmlns:svg="http://www.w3.org/2000/svg"
   xmlns="http://www.w3.org/2000/svg"
   xmlns:sodipodi="http://sodipodi.sourceforge.net/DTD/sodipodi-0.dtd"
   xmlns:inkscape="http://www.inkscape.org/namespaces/inkscape"
   width="60mm"
   height="30mm"
   viewBox="-5 -15 60 30"
   version="1.1"
   >

<defs>
	<marker id="dot" viewBox="0 0 10 10" refX="5" refY="5" markerWidth="5" markerHeight="5">
		<circle cx="5" cy="5" r="5" fill="red" />
    </marker>
</defs>
<g transform="scale(1, -1)">
<path d="M -1,-1 L 10 -1 L 16 -1 L 16 1 L 10 1 L -1 1 Z" fill="#FED6BC" stroke="none" class="level0-fill"/>
<path d="M -1,-1 L 10 -1 L 16 -1 M -1,1 L 10 1 L 16 1" fill="none" stroke="black" style="stroke-width:0.25" class="level0-stroke"/>
<path d="M 34,9 L 35 9 A 4 4 0 0 0 39 4.999999999999999 L 39 0 L 39 1.7763568394002505e-15 A 9 9 0 0 0 30 -9 L 24 -9 L 24 -11 L 30 -11 A 11 11 0 0 1 41 1.7763568394002505e-15 L 41 0 L 41 4.999999999999999 A 6 6 0 0 1 35 11 L 34 11 Z" fill="#FED6BC" stroke="none" class="level0-fill"/>
<path d="M 34,9 L 35 9 A 4 4 0 0 0 39 4.999999999999999 L 39 0 L 39 1.7763568394002505e-15 A 9 9 0 0 0 30 -9 L 24 -9 M 34,11 L 35 11 A 6 6 0 0 0 41 4.999999999999999 L 41 0 L 41 1.7763568394002505e-15 A 11 11 0 0 0 30 -11 L 24 -11" fill="none" stroke="black" style="stroke-width:0.25" class="level0-stroke"/>
<path d="M 14,9 L 14.999999999999998 9 A 11.071067811865477 11.071067811865477 0 0 0 22.82842712474619 5.757359312880714 L 24.292893218813454 4.292893218813452 L 25.757359312880716 2.8284271247461916 A 13.071067811865476 13.071067811865476 0 0 1 35 -1 L 36 -1 L 36 1 L 35 1 A 11.071067811865476 11.071067811865476 0 0 0 27.17157287525381 4.242640687119284 L 25.707106781186546 5.707106781186548 L 24.242640687119284 7.171572875253808 A 13.071067811865477 13.071067811865477 0 0 1 15 11 L 14 11 Z" fill="#FED6BC" stroke="none" class="level0-fill"/>
<path d="M 14,9 L 14.999999999999998 9 A 11.071067811865477 11.071067811865477 0 0 0 22.82842712474619 5.757359312880714 L 24.292893218813454 4.292893218813452 L 25.757359312880716 2.8284271247461916 A 13.071067811865476 13.071067811865476 0 0 1 35 -1 L 36 -1 M 14,11 L 15 11 A 13.071067811865477 13.071067811865477 0 0 0 24.242640687119284 7.171572875253808 L 25.707106781186546 5.707106781186548 L 27.17157287525381 4.242640687119284 A 11.071067811865476 11.071067811865476 0 0 1 35 1 L 36 1" fill="none" stroke="black" style="stroke-width:0.25" class="level0-stroke"/>
<path d="M 14,-1 L 15 -1 A 13.071067811865477 13.071067811865477 0 0 1 24.242640687119284 2.8284271247461916 L 25.707106781186546 4.292893218813452 L 27.17157287525381 5.757359312880714 A 11.071067811865477 11.071067811865477 0 0 0 35 9 L 36 9 L 36 11 L 35 11 A 13.071067811865477 13.071067811865477 0 0 1 25.757359312880716 7.171572875253808 L 24.292893218813454 5.707106781186548 L 22.82842712474619 4.242640687119286 A 11.071067811865477 11.071067811865477 0 0 0 14.999999999999998 1 L 14 1 Z" fill="#FED6BC" stroke="none" class="level10-fill"/>
<path d="M 14,-1 L 15 -1 A 13.071067811865477 13.071067811865477 0 0 1 24.242640687119284 2.8284271247461916 L 25.707106781186546 4.292893218813452 L 27.17157287525381 5.757359312880714 A 11.071067811865477 11.071067811865477 0 0 0 35 9 L 36 9 M 14,1 L 14.999999999999998 1 A 11.071067811865477 11.071067811865477 0 0 1 22.82842712474619 4.242640687119286 L 24.292893218813454 5.707106781186548 L 25.757359312880716 7.171572875253808 A 13.071067811865477 13.071067811865477 0 0 0 35 11 L 36 11" fill="none" stroke="black" style="stroke-width:0.25" class="level10-stroke"/>
<path d="M 26,-9 L 20 -9 A 9 9 0 0 0 11 1.7763568394002505e-15 L 11 0 L 11 4.999999999999999 A 4 4 0 0 0 15 9 L 16 9 L 16 11 L 15 11 A 6 6 0 0 1 9 4.999999999999999 L 9 0 L 9 1.7763568394002505e-15 A 11 11 0 0 1 20 -11 L 26 -11 Z" fill="#FED6BC" stroke="none" class="level10-fill"/>
<path d="M 26,-9 L 20 -9 A 9 9 0 0 0 11 1.7763568394002505e-15 L 11 0 L 11 4.999999999999999 A 4 4 0 0 0 15 9 L 16 9 M 26,-11 L 20 -11 A 11 11 0 0 0 9 1.7763568394002505e-15 L 9 0 L 9 4.999999999999999 A 6 6 0 0 0 15 11 L 16 11" fill="none" stroke="black" style="stroke-width:0.25" class="level10-stroke"/>
<path d="M 34,-1 L 40 -1 L 51 -1 L 51 1 L 40 1 L 34 1 Z" fill="#FED6BC" stroke="none" class="level10-fill"/>
<path d="M 34,-1 L 40 -1 L 51 -1 L 51 1 L 40 1 L 34 1" fill="none" stroke="black" style="stroke-width:0.25" class="level10-stroke"/>
</g>
</svg>