<?xml version="1.0" encoding="UTF-8" standalone="no"?>
<svg
   xmlns:dc="http://purl.org/dc/elements/1.1/"
   xmlns:cc="http://creativecommons.org/ns#"
   xmlns:rdf="http://www.w3.org/1999/02/22-rdf-syntax-ns#"
   xmlns:svg="http://www.w3.org/2000/svg"
   xmlns="http://www.w3.org/2000/svg"
   xmlns:sodipodi="http://sodipodi.sourceforge.net/DTD/sodipodi-0.dtd"
   xmlns:inkscape="http://www.inkscape.org/namespaces/inkscape"
   width="60mm"
   height="30mm"
   viewBox="-5 -15 60 30"
   version="1.1"
   >

<defs>
	<marker id="dot" viewBox="0 0 10 10" refX="5" refY="5" markerWidth="5" markerHeight="5">
		<circle cx="5" cy="5" r="5" fill="red" />
    </marker>
</defs>
<g transform="scale(1, -1)">
<path d="M -1,-1 L 10 -1 L 16 -1 L 16 1 L 10 1 L -1 1 Z" fill="#FED6BC" stroke="none" />
<path d="M -1,-1 L 10 -1 L 16 -1 M -1,1 L 10 1 L 16 1" fill="none" stroke="black" style="stroke-width:0.25" />
<path d="M 34,9 L 36.46446609406726 9 A 2.5355339059327378 2.5355339059327378 0 0 0 39 6.464466094067262 L 39 0 L 39 -2.9289321881345236 A 6.0710678118654755 6.0710678118654755 0 0 0 32.928932188134524 -9 L 24 -9 L 24 -11 L 32.928932188134524 -11 A 8.071067811865476 8.071067811865476 0 0 1 41 -2.9289321881345227 L 41 0 L 41 6.464466094067261 A 4.535533905932738 4.535533905932738 0 0 1 36.46446609406726 11 L 34 11 Z" fill="#FED6BC" stroke="none" />
<path d="M 34,9 L 36.46446609406726 9 A 2.5355339059327378 2.5355339059327378 0 0 0 39 6.464466094067262 L 39 0 L 39 -2.9289321881345236 A 6.0710678118654755 6.0710678118654755 0 0 0 32.928932188134524 -9 L 24 -9 M 34,11 L 36.46446609406726 11 A 4.535533905932738 4.535533905932738 0 0 0 41 6.464466094067261 L 41 0 L 41 -2.9289321881345227 A 8.071067811865476 8.071067811865476 0 0 0 32.928932188134524 -11 L 24 -11" fill="none" stroke="black" style="stroke-width:0.25" />
<path d="M 14,9 L 18.08658283817455 9 A 3.619397662556434 3.619397662556434 0 0 0 20.645883469178944 7.93990296844796 L 24.292893218813454 4.292893218813452 L 27.93990296844796 0.6458834691789452 A 5.619397662556434 5.619397662556434 0 0 1 31.91341716182545 -1 L 36 -1 L 36 1 L 31.91341716182545 1 A 3.619397662556434 3.619397662556434 0 0 0 29.354116530821056 2.06009703155204 L 25.707106781186546 5.707106781186548 L 22.06009703155204 9.354116530821054 A 5.619397662556434 5.619397662556434 0 0 1 18.08658283817455 11 L 14 11 Z" fill="#FED6BC" stroke="none" />
<path d="M 14,9 L 18.08658283817455 9 A 3.619397662556434 3.619397662556434 0 0 0 20.645883469178944 7.93990296844796 L 24.292893218813454 4.292893218813452 L 27.93990296844796 0.6458834691789452 A 5.619397662556434 5.619397662556434 0 0 1 31.91341716182545 -1 L 36 -1 M 14,11 L 18.08658283817455 11 A 5.619397662556434 5.619397662556434 0 0 0 22.06009703155204 9.354116530821054 L 25.707106781186546 5.707106781186548 L 29.354116530821056 2.06009703155204 A 3.619397662556434 3.619397662556434 0 0 1 31.91341716182545 1 L 36 1" fill="none" stroke="black" style="stroke-width:0.25" />
<path d="M 14,-1 L 18.08658283817455 -1 A 5.619397662556434 5.619397662556434 0 0 1 22.06009703155204 0.6458834691789452 L 25.707106781186546 4.292893218813452 L 29.354116530821056 7.93990296844796 A 3.619397662556434 3.619397662556434 0 0 0 31.91341716182545 9 L 36 9 L 36 11 L 31.91341716182545 11 A 5.619397662556434 5.619397662556434 0 0 1 27.93990296844796 9.354116530821054 L 24.292893218813454 5.707106781186548 L 20.645883469178944 2.06009703155204 A 3.619397662556434 3.619397662556434 0 0 0 18.08658283817455 1 L 14 1 Z" fill="#FED6BC" stroke="none" />
<path d="M 14,-1 L 18.08658283817455 -1 A 5.619397662556434 5.619397662556434 0 0 1 22.06009703155204 0.6458834691789452 L 25.707106781186546 4.292893218813452 L 29.354116530821056 7.93990296844796 A 3.619397662556434 3.619397662556434 0 0 0 31.91341716182545 9 L 36 9 M 14,1 L 18.08658283817455 1 A 3.619397662556434 3.619397662556434 0 0 1 20.645883469178944 2.06009703155204 L 24.292893218813454 5.707106781186548 L 27.93990296844796 9.354116530821054 A 5.619397662556434 5.619397662556434 0 0 0 31.91341716182545 11 L 36 11" fill="none" stroke="black" style="stroke-width:0.25" />
<path d="M 26,-9 L 17.071067811865476 -9 A 6.071067811865475 6.071067811865475 0 0 0 11 -2.9289321881345245 L 11 0 L 11 6.464466094067262 A 2.5355339059327378 2.5355339059327378 0 0 0 13.535533905932738 9 L 16 9 L 16 11 L 13.535533905932738 11 A 4.535533905932738 4.535533905932738 0 0 1 9 6.464466094067261 L 9 0 L 9 -2.9289321881345227 A 8.071067811865476 8.071067811865476 0 0 1 17.071067811865476 -11 L 26 -11 Z" fill="#FED6BC" stroke="none" />
<path d="M 26,-9 L 17.071067811865476 -9 A 6.071067811865475 6.071067811865475 0 0 0 11 -2.9289321881345245 L 11 0 L 11 6.464466094067262 A 2.5355339059327378 2.5355339059327378 0 0 0 13.535533905932738 9 L 16 9 M 26,-11 L 17.071067811865476 -11 A 8.071067811865476 8.071067811865476 0 0 0 9 -2.9289321881345227 L 9 0 L 9 6.464466094067261 A 4.535533905932738 4.535533905932738 0 0 0 13.535533905932738 11 L 16 11" fill="none" stroke="black" style="stroke-width:0.25" />
<path d="M 34,-1 L 40 -1 L 51 -1 L 51 1 L 40 1 L 34 1 Z" fill="#FED6BC" stroke="none" />
<path d="M 34,-1 L 40 -1 L 51 -1 L 51 1 L 40 1 L 34 1" fill="none" stroke="black" style="stroke-width:0.25" />
</g>
</svg>