<?xml version="1.0" encoding="UTF-8" standalone="no"?>
<svg
   xmlns:dc="http://purl.org/dc/elements/1.1/"
   xmlns:cc="http://creativecommons.org/ns#"
   xmlns:rdf="http://www.w3.org/1999/02/22-rdf-syntax-ns#"
   xmlns:svg="http://www.w3.org/2000/svg"
   xmlns="http://www.w3.org/2000/svg"
   xmlns:sodipodi="http://sodipodi.sourceforge.net/DTD/sodipodi-0.dtd"
   xmlns:inkscape="http://www.inkscape.org/namespaces/inkscape"
   width="50mm"
   height="25mm"
   viewBox="-5 -10 50 25"
   version="1.1"
   >

<defs>
	<marker id="dot" viewBox="0 0 10 10" refX="5" refY="5" markerWidth="5" markerHeight="5">
		<circle cx="5" cy="5" r="5" fill="red" />
    </marker>
</defs>

<path d="M 6.5,-1 l 3.5,0 l 3.5,0 l 0,2 l -3.5,0 l -3.5,0 Z" fill="#FED6BC" stroke="none" />
<path d="M 6.5,-1 l 3.5,0 l 3.5,0 M 6.5,1 l 3.5,0 l 3.5,0" fill="none" stroke="black" style="stroke-width:0.25" />
<path d="M 16.5,-1 l 3.5,0 l 3.5,0 l 0,2 l -3.5,0 l -3.5,0 Z" fill="#FED6BC" stroke="none" />
<path d="M 16.5,-1 l 3.5,0 l 3.5,0 M 16.5,1 l 3.5,0 l 3.5,0" fill="none" stroke="black" style="stroke-width:0.25" />
<path d="M 26.5,-1 l 3.5,0 l 6,0 l 0,12 l -4.5,0 l 0,-2 l 2.5,0 l 0,-8 l -4,0 l -3.5,0 Z" fill="#FED6BC" stroke="none" />
<path d="M 26.5,-1 l 3.5,0 l 6,0 l 0,12 l -4.5,0 M 26.5,1 l 3.5,0 l 4,0 l 0,8 l -2.5,0" fill="none" stroke="black" style="stroke-width:0.25" />
<path d="M 28.5,-4 l -2.5,0 l 0,15 l -4.5,0 l 0,-2 l 2.5,0 l 0,-15 l 4.5,0 Z" fill="#FED6BC" stroke="none" />
<path d="M 28.5,-4 l -2.5,0 l 0,15 l -4.5,0 M 28.5,-6 l -4.5,0 l 0,15 l -2.5,0" fill="none" stroke="black" style="stroke-width:0.25" />
<path d="M 18.5,-4 l -2.5,0 l 0,15 l -4.5,0 l 0,-2 l 2.5,0 l 0,-15 l 4.5,0 Z" fill="#FED6BC" stroke="none" />
<path d="M 18.5,-4 l -2.5,0 l 0,15 l -4.5,0 M 18.5,-6 l -4.5,0 l 0,15 l -2.5,0" fill="none" stroke="black" style="stroke-width:0.25" />
<path d="M 8.5,-4 l -2.5,0 l 0,8 l 4,0 l 3.5,0 l 0,2 l -3.5,0 l -6,0 l 0,-12 l 4.5,0 Z" fill="#FED6BC" stroke="none" />
<path d="M 8.5,-4 l -2.5,0 l 0,8 l 4,0 l 3.5,0 M 8.5,-6 l -4.5,0 l 0,12 l 6,0 l 3.5,0" fill="none" stroke="black" style="stroke-width:0.25" />
<path d="M 16.5,4 l 3.5,0 l 3.5,0 l 0,2 l -3.5,0 l -3.5,0 Z" fill="#FED6BC" stroke="none" />
<path d="M 16.5,4 l 3.5,0 l 3.5,0 M 16.5,6 l 3.5,0 l 3.5,0" fill="none" stroke="black" style="stroke-width:0.25" />
<path d="M 26.5,4 l 3.5,0 l 3.5,0 l 0,2 l -3.5,0 l -3.5,0 Z" fill="#FED6BC" stroke="none" />
<path d="M 26.5,4 l 3.5,0 l 3.5,0 M 26.5,6 l 3.5,0 l 3.5,0" fill="none" stroke="black" style="stroke-width:0.25" />
<path d="M -1,-1 l 6,0 l 3.5,0 l 0,2 l -3.5,0 l -6,0 Z" fill="#FED6BC" stroke="none" />
<path d="M -1,-1 l 6,0 l 3.5,0 M -1,1 l 6,0 l 3.5,0" fill="none" stroke="black" style="stroke-width:0.25" />
<path d="M 11.5,-1 l 3.5,0 l 3.5,0 l 0,2 l -3.5,0 l -3.5,0 Z" fill="#FED6BC" stroke="none" />
<path d="M 11.5,-1 l 3.5,0 l 3.5,0 M 11.5,1 l 3.5,0 l 3.5,0" fill="none" stroke="black" style="stroke-width:0.25" />
<path d="M 21.5,-1 l 3.5,0 l 3.5,0 l 0,2 l -3.5,0 l -3.5,0 Z" fill="#FED6BC" stroke="none" />
<path d="M 21.5,-1 l 3.5,0 l 3.5,0 M 21.5,1 l 3.5,0 l 3.5,0" fill="none" stroke="black" style="stroke-width:0.25" />
<path d="M 33.5,11 l -4.5,0 l 0,-15 l -2.5,0 l 0,-2 l 4.5,0 l 0,15 l 2.5,0 Z" fill="#FED6BC" stroke="none" />
<path d="M 33.5,11 l -4.5,0 l 0,-15 l -2.5,0 M 33.5,9 l -2.5,0 l 0,-15 l -4.5,0" fill="none" stroke="black" style="stroke-width:0.25" />
<path d="M 23.5,11 l -4.5,0 l 0,-15 l -2.5,0 l 0,-2 l 4.5,0 l 0,15 l 2.5,0 Z" fill="#FED6BC" stroke="none" />
<path d="M 23.5,11 l -4.5,0 l 0,-15 l -2.5,0 M 23.5,9 l -2.5,0 l 0,-15 l -4.5,0" fill="none" stroke="black" style="stroke-width:0.25" />
<path d="M 13.5,11 l -4.5,0 l 0,-15 l -2.5,0 l 0,-2 l 4.5,0 l 0,15 l 2.5,0 Z" fill="#FED6BC" stroke="none" />
<path d="M 13.5,11 l -4.5,0 l 0,-15 l -2.5,0 M 13.5,9 l -2.5,0 l 0,-15 l -4.5,0" fill="none" stroke="black" style="stroke-width:0.25" />
<path d="M 11.5,4 l 3.5,0 l 3.5,0 l 0,2 l -3.5,0 l -3.5,0 Z" fill="#FED6BC" stroke="none" />
<path d="M 11.5,4 l 3.5,0 l 3.5,0 M 11.5,6 l 3.5,0 l 3.5,0" fill="none" stroke="black" style="stroke-width:0.25" />
<path d="M 21.5,4 l 3.5,0 l 3.5,0 l 0,2 l -3.5,0 l -3.5,0 Z" fill="#FED6BC" stroke="none" />
<path d="M 21.5,4 l 3.5,0 l 3.5,0 M 21.5,6 l 3.5,0 l 3.5,0" fill="none" stroke="black" style="stroke-width:0.25" />
<path d="M 31.5,4 l 3.5,0 l 6,0 l 0,2 l -6,0 l -3.5,0 Z" fill="#FED6BC" stroke="none" />
<path d="M 31.5,4 l 3.5,0 l 6,0 l 0,2 l -6,0 l -3.5,0" fill="none" stroke="black" style="stroke-width:0.25" />
</svg>