<?xml version="1.0" encoding="UTF-8" standalone="no"?>
<svg
   xmlns:dc="http://purl.org/dc/elements/1.1/"
   xmlns:cc="http://creativecommons.org/ns#"
   xmlns:rdf="http://www.w3.org/1999/02/22-rdf-syntax-ns#"
   xmlns:svg="http://www.w3.org/2000/svg"
   xmlns="http://www.w3.org/2000/svg"
   xmlns:sodipodi="http://sodipodi.sourceforge.net/DTD/sodipodi-0.dtd"
   xmlns:inkscape="http://www.inkscape.org/namespaces/inkscape"
   width="90mm"
   height="40mm"
   viewBox="-5 -25 90 40"
   version="1.1"
   >

<defs>
	<marker id="dot" viewBox="0 0 10 10" refX="5" refY="5" markerWidth="5" markerHeight="5">
		<circle cx="5" cy="5" r="5" fill="red" />
    </marker>
</defs>

<path d="M 64,-1 l 5,0 l 0,-18 l -5,0 l 0,-2 l 7,0 l 0,22 l -7,0 Z" fill="#FFFFFF" stroke="none" />
<path d="M 64,-1 l 5,0 l 0,-18 l -5,0 M 64,1 l 7,0 l 0,-22 l -7,0" fill="none" stroke="black" style="stroke-width:0.25" />
<path d="M 56,11 l -7,0 l 0,-30 l -5,0 l 0,-2 l 7,0 l 0,30 l 5,0 Z" fill="#FFFFFF" stroke="none" />
<path d="M 56,11 l -7,0 l 0,-30 l -5,0 M 56,9 l -5,0 l 0,-30 l -7,0" fill="none" stroke="black" style="stroke-width:0.25" />
<path d="M 36,11 l -7,0 l 0,-30 l -5,0 l 0,-2 l 7,0 l 0,30 l 5,0 Z" fill="#FFFFFF" stroke="none" />
<path d="M 36,11 l -7,0 l 0,-30 l -5,0 M 36,9 l -5,0 l 0,-30 l -7,0" fill="none" stroke="black" style="stroke-width:0.25" />
<path d="M 16,11 l -7,0 l 0,-22 l 7,0 l 0,2 l -5,0 l 0,18 l 5,0 Z" fill="#FFFFFF" stroke="none" />
<path d="M 16,11 l -7,0 l 0,-22 l 7,0 M 16,9 l -5,0 l 0,-18 l 5,0" fill="none" stroke="black" style="stroke-width:0.25" />
<path d="M -1,-1 l 67,0 l 0,2 l -67,0 Z" fill="#FFFFFF" stroke="none" />
<path d="M -1,-1 l 67,0 M -1,1 l 67,0" fill="none" stroke="black" style="stroke-width:0.25" />
<path d="M 14,-11 l 67,0 l 0,2 l -67,0 Z" fill="#FFFFFF" stroke="none" />
<path d="M 14,-11 l 67,0 l 0,2 l -67,0" fill="none" stroke="black" style="stroke-width:0.25" />
<path d="M 66,-19 l -5,0 l 0,30 l -7,0 l 0,-2 l 5,0 l 0,-30 l 7,0 Z" fill="#FFFFFF" stroke="none" />
<path d="M 66,-19 l -5,0 l 0,30 l -7,0 M 66,-21 l -7,0 l 0,30 l -5,0" fill="none" stroke="black" style="stroke-width:0.25" />
<path d="M 46,-19 l -5,0 l 0,30 l -7,0 l 0,-2 l 5,0 l 0,-30 l 7,0 Z" fill="#FFFFFF" stroke="none" />
<path d="M 46,-19 l -5,0 l 0,30 l -7,0 M 46,-21 l -7,0 l 0,30 l -5,0" fill="none" stroke="black" style="stroke-width:0.25" />
<path d="M 26,-19 l -5,0 l 0,30 l -7,0 l 0,-2 l 5,0 l 0,-30 l 7,0 Z" fill="#FFFFFF" stroke="none" />
<path d="M 26,-19 l -5,0 l 0,30 l -7,0 M 26,-21 l -7,0 l 0,30 l -5,0" fill="none" stroke="black" style="stroke-width:0.25" />
</svg>