<?xml version="1.0" encoding="UTF-8" standalone="no"?>
<svg
   xmlns:dc="http://purl.org/dc/elements/1.1/"
   xmlns:cc="http://creativecommons.org/ns#"
   xmlns:rdf="http://www.w3.org/1999/02/22-rdf-syntax-ns#"
   xmlns:svg="http://www.w3.org/2000/svg"
   xmlns="http://www.w3.org/2000/svg"
   xmlns:sodipodi="http://sodipodi.sourceforge.net/DTD/sodipodi-0.dtd"
   xmlns:inkscape="http://www.inkscape.org/namespaces/inkscape"
   width="210mm"
   height="297mm"
   viewBox="0 0 210 297"
   version="1.1"
   id="svg8"
   inkscape:version="1.0 (4035a4fb49, 2020-05-01)"
   sodipodi:docname="blood-knot-2.svg">
  <defs
     id="defs2" />
  <sodipodi:namedview
     inkscape:snap-grids="true"
     id="base"
     pagecolor="#ffffff"
     bordercolor="#666666"
     borderopacity="1.0"
     inkscape:pageopacity="0.0"
     inkscape:pageshadow="2"
     inkscape:zoom="3.959798"
     inkscape:cx="341.24551"
     inkscape:cy="304.68027"
     inkscape:document-units="mm"
     inkscape:current-layer="layer1"
     inkscape:document-rotation="0"
     showgrid="true"
     inkscape:window-width="1648"
     inkscape:window-height="1040"
     inkscape:window-x="192"
     inkscape:window-y="28"
     inkscape:window-maximized="0">
    <inkscape:grid
       id="grid847"
       type="xygrid" />
  </sodipodi:namedview>
  <metadata
     id="metadata5">
    <rdf:RDF>
      <cc:Work
         rdf:about="">
        <dc:format>image/svg+xml</dc:format>
        <dc:type
           rdf:resource="http://purl.org/dc/dcmitype/StillImage" />
        <dc:title />
      </cc:Work>
    </rdf:RDF>
  </metadata>
  <g
     inkscape:label="Слой 1"
     inkscape:groupmode="layer"
     id="layer1">
    <path
       id="path835"
       style="fill:none;stroke:#000000;stroke-width:0.292919px;stroke-linecap:butt;stroke-linejoin:miter;stroke-opacity:1"
       d="m 55,80 c 0,0 5,0 10,0 5,0 5,-6 10,-6 5,0 4.92787,5.917182 9.963935,5.958591 C 90,80 90.059162,74.053967 95.029581,74.026983 100,74 100.05557,79.998068 105.02778,79.999034 110,80 110,74 115,74 c 5,0 5.09043,3.133635 5.04521,11.066817 C 120,93 110,93 90,93 70,93 60,93 60,85 c 0,-8 0,-11 5,-11 5,0 5,6 10,6 5,0 5,-6 10,-6 5,0 5.091331,5.899613 10.045666,5.949807 C 100,80 100,74 105,74 c 5,0 4.85375,6.001738 9.99673,5.940607 C 120.13971,79.879476 125,80 125,80"
       sodipodi:nodetypes="czzzzzzzzzzzzzzzc" />
  </g>
</svg>
