<?xml version="1.0" encoding="UTF-8" standalone="no"?>
<svg
   xmlns:dc="http://purl.org/dc/elements/1.1/"
   xmlns:cc="http://creativecommons.org/ns#"
   xmlns:rdf="http://www.w3.org/1999/02/22-rdf-syntax-ns#"
   xmlns:svg="http://www.w3.org/2000/svg"
   xmlns="http://www.w3.org/2000/svg"
   xmlns:sodipodi="http://sodipodi.sourceforge.net/DTD/sodipodi-0.dtd"
   xmlns:inkscape="http://www.inkscape.org/namespaces/inkscape"
   width="210mm"
   height="297mm"
   viewBox="0 0 210 297"
   version="1.1"
   >
<g style="fill:none;stroke:#000000;stroke-width:0.292919px;stroke-linecap:butt;stroke-linejoin:miter;stroke-opacity:1"><path d="M 10,30c 10,0 0,0 10,0 c 5,0 5,10 10,10 c 20,0 0,-30 20,-30 c 5,0 5,10 10,10 c 5,0 5,-10 10,-10 c 10,0 10,5 10,10 c 0,5 0,10 -10,10 c -10,0 -35,0 -40,0 c -5,0 -5,10 -10,10 c -10,0 -10,-5 -10,-10 c 0,-5 0,-10 10,-10 c 10,0 25,0 30,0 c 5,0 5,-10 10,-10 c 5,0 5,10 10,10 c 10,0 0,0 10,0" /></g>
</svg>