<?xml version="1.0" encoding="UTF-8" standalone="no"?>
<svg
   xmlns:dc="http://purl.org/dc/elements/1.1/"
   xmlns:cc="http://creativecommons.org/ns#"
   xmlns:rdf="http://www.w3.org/1999/02/22-rdf-syntax-ns#"
   xmlns:svg="http://www.w3.org/2000/svg"
   xmlns="http://www.w3.org/2000/svg"
   xmlns:sodipodi="http://sodipodi.sourceforge.net/DTD/sodipodi-0.dtd"
   xmlns:inkscape="http://www.inkscape.org/namespaces/inkscape"
   width="60mm"
   height="40mm"
   viewBox="-5 -15 60 40"
   version="1.1"
   >

<defs>
	<marker id="dot" viewBox="0 0 10 10" refX="5" refY="5" markerWidth="5" markerHeight="5">
		<circle cx="5" cy="5" r="5" fill="red" />
    </marker>
</defs>

<path d="M 16.5,-2.5 l 2.4644660940672622,0 l 10,-10 l 7.035533905932738,0 l 0,5 l -4.964466094067262,0 l -10,10 l -4.535533905932738,0 Z" fill="blue" stroke="none" />
<path d="M 16.5,-2.5 l 2.4644660940672622,0 l 10,-10 l 7.035533905932738,0 M 16.5,2.5 l 4.535533905932738,0 l 10,-10 l 4.964466094067262,0" fill="none" stroke="black" style="stroke-width:0.25" />
<path d="M 36,22.5 l -7.035533905932738,0 l -10,-10 l -2.4644660940672622,0 l 0,-5 l 4.535533905932738,0 l 10,10 l 4.964466094067262,0 Z" fill="blue" stroke="none" />
<path d="M 36,22.5 l -7.035533905932738,0 l -10,-10 l -2.4644660940672622,0 M 36,17.5 l -4.964466094067262,0 l -10,-10 l -4.535533905932738,0" fill="none" stroke="black" style="stroke-width:0.25" />
<path d="M 51,2.5 l -16,0 l -3.5,0 l 0,-5 l 3.5,0 l 16,0 Z" fill="white" stroke="none" />
<path d="M 51,2.5 l -16,0 l -3.5,0 M 51,-2.5 l -16,0 l -3.5,0" fill="none" stroke="black" style="stroke-width:0.25" />
<path d="M 16,-7.5 l -3.5,0 l 0,25 l 3.5,0 l 0,5 l -8.5,0 l 0,-35 l 8.5,0 Z" fill="white" stroke="none" />
<path d="M 16,-7.5 l -3.5,0 l 0,25 l 3.5,0 M 16,-12.5 l -8.5,0 l 0,35 l 8.5,0" fill="none" stroke="black" style="stroke-width:0.25" />
<path d="M 31.5,7.5 l 3.5,0 l 16,0 l 0,5 l -16,0 l -3.5,0 Z" fill="white" stroke="none" />
<path d="M 31.5,7.5 l 3.5,0 l 16,0 l 0,5 l -16,0 l -3.5,0" fill="none" stroke="black" style="stroke-width:0.25" />
<path d="M -1,-2.5 l 16,0 l 3.5,0 l 0,5 l -3.5,0 l -16,0 Z" fill="blue" stroke="none" />
<path d="M -1,-2.5 l 16,0 l 3.5,0 M -1,2.5 l 16,0 l 3.5,0" fill="none" stroke="black" style="stroke-width:0.25" />
<path d="M 34,-12.5 l 8.5,0 l 0,35 l -8.5,0 l 0,-5 l 3.5,0 l 0,-25 l -3.5,0 Z" fill="blue" stroke="none" />
<path d="M 34,-12.5 l 8.5,0 l 0,35 l -8.5,0 M 34,-7.5 l 3.5,0 l 0,25 l -3.5,0" fill="none" stroke="black" style="stroke-width:0.25" />
<path d="M 18.5,12.5 l -3.5,0 l -16,0 l 0,-5 l 16,0 l 3.5,0 Z" fill="blue" stroke="none" />
<path d="M 18.5,12.5 l -3.5,0 l -16,0 l 0,-5 l 16,0 l 3.5,0" fill="none" stroke="black" style="stroke-width:0.25" />
<path d="M 33.5,2.5 l -4.535533905932738,0 l -10,-10 l -4.964466094067262,0 l 0,-5 l 7.035533905932738,0 l 10,10 l 2.4644660940672622,0 Z" fill="white" stroke="none" />
<path d="M 33.5,2.5 l -4.535533905932738,0 l -10,-10 l -4.964466094067262,0 M 33.5,-2.5 l -2.4644660940672622,0 l -10,-10 l -7.035533905932738,0" fill="none" stroke="black" style="stroke-width:0.25" />
<path d="M 14,17.5 l 4.964466094067262,0 l 10,-10 l 4.535533905932738,0 l 0,5 l -2.4644660940672622,0 l -10,10 l -7.035533905932738,0 Z" fill="white" stroke="none" />
<path d="M 14,17.5 l 4.964466094067262,0 l 10,-10 l 4.535533905932738,0 M 14,22.5 l 7.035533905932738,0 l 10,-10 l 2.4644660940672622,0" fill="none" stroke="black" style="stroke-width:0.25" />
</svg>