<?xml version="1.0" encoding="UTF-8" standalone="no"?>
<svg
   xmlns:dc="http://purl.org/dc/elements/1.1/"
   xmlns:cc="http://creativecommons.org/ns#"
   xmlns:rdf="http://www.w3.org/1999/02/22-rdf-syntax-ns#"
   xmlns:svg="http://www.w3.org/2000/svg"
   xmlns="http://www.w3.org/2000/svg"
   xmlns:sodipodi="http://sodipodi.sourceforge.net/DTD/sodipodi-0.dtd"
   xmlns:inkscape="http://www.inkscape.org/namespaces/inkscape"
   sodipodi:docname="blood-knot.svg"
   inkscape:version="1.0 (4035a4fb49, 2020-05-01)"
   width="210mm"
   height="297mm"
   viewBox="0 0 210 297"
   version="1.1"
   id="svg1423">
  <defs
     id="defs1417" />
  <sodipodi:namedview
     inkscape:window-maximized="0"
     inkscape:window-y="7"
     inkscape:window-x="172"
     inkscape:window-height="1040"
     inkscape:window-width="1648"
     showgrid="true"
     inkscape:document-rotation="0"
     inkscape:current-layer="layer1"
     inkscape:document-units="mm"
     inkscape:cy="249.35215"
     inkscape:cx="357.40866"
     inkscape:zoom="1.979899"
     inkscape:pageshadow="2"
     inkscape:pageopacity="0.0"
     borderopacity="1.0"
     bordercolor="#666666"
     pagecolor="#ffffff"
     id="base">
    <inkscape:grid
       id="grid2869"
       type="xygrid" />
  </sodipodi:namedview>
  <metadata
     id="metadata1420">
    <rdf:RDF>
      <cc:Work
         rdf:about="">
        <dc:format>image/svg+xml</dc:format>
        <dc:type
           rdf:resource="http://purl.org/dc/dcmitype/StillImage" />
        <dc:title></dc:title>
      </cc:Work>
    </rdf:RDF>
  </metadata>
  <g
     id="layer1"
     inkscape:groupmode="layer"
     inkscape:label="Слой 1">
    <path
       id="path2860"
       d="m 116.719,79.1822 h 3.017 v 3.9688 h -3.017 z"
       style="fill:#dc9414;stroke:#000000;stroke-width:0.2;stroke-linejoin:round" />
    <path
       id="path2858"
       d="m 113.702,79.1822 h 3.017 v 3.9688 h -3.017 z"
       style="fill:#dc9414;stroke:#000000;stroke-width:0.2;stroke-linejoin:round" />
    <path
       id="path2856"
       d="m 110.685,79.1822 h 3.017 v 3.9688 h -3.017 z"
       style="fill:#dc9414;stroke:#000000;stroke-width:0.2;stroke-linejoin:round" />
    <path
       id="path2854"
       d="m 108.068,79.118 2.617,0.0642 v 3.9688 l -3.401,-0.1436 z"
       style="fill:#dc9414;stroke:#000000;stroke-width:0.2;stroke-linejoin:round" />
    <path
       id="path2852"
       d="m 106.46,78.222 1.608,0.896 -0.784,3.8894 -3.606,-1.9571 z"
       style="fill:#dc9414;stroke:#000000;stroke-width:0.2;stroke-linejoin:round" />
    <path
       id="path2774"
       d="m 100.393,78.7218 1.757,-1.7526 2.996,2.6023 -2.542,2.4449 z"
       style="fill:#dc9414;stroke:#000000;stroke-width:0.2;stroke-linejoin:round" />
    <path
       id="path2776"
       d="m 102.15,76.9692 2.351,-2.3897 2.5,3.079 -1.855,1.913 z"
       style="fill:#dc9414;stroke:#000000;stroke-width:0.2;stroke-linejoin:round" />
    <path
       id="path2850"
       d="m 104.559,76.0862 1.901,2.1358 -2.782,2.8283 -2.115,-2.3618 z"
       style="fill:#dc9414;stroke:#000000;stroke-width:0.2;stroke-linejoin:round" />
    <path
       id="path2848"
       d="m 101.418,73.6905 3.141,2.3957 -2.996,2.6023 -1.561,-1.2918 z"
       style="fill:#dc9414;stroke:#000000;stroke-width:0.2;stroke-linejoin:round" />
    <path
       id="path2846"
       d="m 97.3563,73.3112 4.0617,0.3793 -1.416,3.7062 -1.8614,-0.1962 z"
       style="fill:#dc9414;stroke:#000000;stroke-width:0.2;stroke-linejoin:round" />
    <path
       id="path2844"
       d="m 93.7307,75.2309 3.6256,-1.9197 0.7843,3.8893 -1.6272,0.8587 z"
       style="fill:#dc9414;stroke:#000000;stroke-width:0.2;stroke-linejoin:round" />
    <path
       id="path2842"
       d="m 91.6121,77.5886 2.1186,-2.3577 2.7827,2.8283 -1.906,2.1318 z"
       style="fill:#dc9414;stroke:#000000;stroke-width:0.2;stroke-linejoin:round" />
    <path
       id="path2840"
       d="m 89.9242,78.9706 1.6879,-1.382 2.9953,2.6024 -2.9745,2.3606 z"
       style="fill:#dc9414;stroke:#000000;stroke-width:0.2;stroke-linejoin:round" />
    <path
       id="path2838"
       d="m 88.2134,79.1474 1.7108,-0.1768 1.7087,3.581 -4.2039,0.4851 z"
       style="fill:#dc9414;stroke:#000000;stroke-width:0.2;stroke-linejoin:round" />
    <path
       id="path2836"
       d="m 86.5663,78.3261 1.6471,0.8213 -0.7844,3.8893 -3.6454,-1.8823 z"
       style="fill:#dc9414;stroke:#000000;stroke-width:0.2;stroke-linejoin:round" />
    <path
       id="path2758"
       d="m 80.5158,78.6391 1.7319,-1.782 2.9953,2.6023 -2.5157,2.4742 z"
       style="fill:#dc9414;stroke:#000000;stroke-width:0.2;stroke-linejoin:round" />
    <path
       id="path2760"
       d="m 82.2477,76.8571 2.5195,-2.4698 2.2115,3.2945 -1.7357,1.7776 z"
       style="fill:#dc9414;stroke:#000000;stroke-width:0.2;stroke-linejoin:round" />
    <path
       id="path2834"
       d="m 84.6561,76.1982 1.9102,2.1279 -2.7827,2.8283 -2.1228,-2.3538 z"
       style="fill:#dc9414;stroke:#000000;stroke-width:0.2;stroke-linejoin:round" />
    <path
       id="path2832"
       d="m 81.6999,73.8136 2.9562,2.3846 -2.9953,2.6024 -1.6696,-1.4061 z"
       style="fill:#dc9414;stroke:#000000;stroke-width:0.2;stroke-linejoin:round" />
    <path
       id="path2830"
       d="m 77.6929,73.2471 4.007,0.5665 -1.7087,3.5809 -1.8969,-0.1999 z"
       style="fill:#dc9414;stroke:#000000;stroke-width:0.2;stroke-linejoin:round" />
    <path
       id="path2828"
       d="m 73.7304,75.409 3.9625,-2.1619 0.4014,3.9475 -1.2099,0.6215 z"
       style="fill:#dc9414;stroke:#000000;stroke-width:0.2;stroke-linejoin:round" />
    <path
       id="path2826"
       d="m 72.2324,78.8969 1.498,-3.4879 3.154,2.4071 -0.7997,2.0302 z"
       style="fill:#dc9414;stroke:#000000;stroke-width:0.2;stroke-linejoin:round" />
    <path
       id="path2824"
       d="m 71.8321,82.3071 0.4003,-3.4102 3.8523,0.9494 -0.2859,2.5786 z"
       style="fill:#dc9414;stroke:#000000;stroke-width:0.2;stroke-linejoin:round" />
    <path
       id="path2822"
       d="m 71.7607,85.374 0.0714,-3.0669 3.9667,0.1178 -0.0695,2.9644 z"
       style="fill:#dc9414;stroke:#000000;stroke-width:0.2;stroke-linejoin:round" />
    <path
       id="path2820"
       d="m 71.8936,88.6823 -0.1329,-3.3083 3.9686,0.0153 0.0881,2.7098 z"
       style="fill:#dc9414;stroke:#000000;stroke-width:0.2;stroke-linejoin:round" />
    <path
       id="path2818"
       d="m 73.9011,92.4209 -2.0075,-3.7386 3.9238,-0.5832 0.8416,1.4701 z"
       style="fill:#dc9414;stroke:#000000;stroke-width:0.2;stroke-linejoin:round" />
    <path
       id="path2816"
       d="m 77.0751,94.4182 -3.174,-1.9973 2.7579,-2.8517 1.9101,1.1727 z"
       style="fill:#dc9414;stroke:#000000;stroke-width:0.2;stroke-linejoin:round" />
    <path
       id="path2814"
       d="m 80.3357,95.3562 -3.2606,-0.938 1.494,-3.6763 2.5286,0.7201 z"
       style="fill:#dc9414;stroke:#000000;stroke-width:0.2;stroke-linejoin:round" />
    <path
       id="path2812"
       d="m 83.5135,95.8237 -3.1778,-0.4675 0.762,-3.8942 2.7873,0.4106 z"
       style="fill:#dc9414;stroke:#000000;stroke-width:0.2;stroke-linejoin:round" />
    <path
       id="path2810"
       d="m 86.6547,96.046 -3.1412,-0.2223 0.3715,-3.9511 2.8758,0.2063 z"
       style="fill:#dc9414;stroke:#000000;stroke-width:0.2;stroke-linejoin:round" />
    <path
       id="path2808"
       d="m 89.6703,96.1268 -3.0156,-0.0808 0.1061,-3.9671 3.0156,0.0807 z"
       style="fill:#dc9414;stroke:#000000;stroke-width:0.2;stroke-linejoin:round" />
    <path
       id="path2806"
       d="m 92.7328,96.1473 -3.0625,-0.0205 0.1061,-3.9672 2.9707,0.0191 z"
       style="fill:#dc9414;stroke:#000000;stroke-width:0.2;stroke-linejoin:round" />
    <path
       id="path2804"
       d="m 95.7646,96.143 -3.0318,0.0043 0.0143,-3.9686 3.0018,-0.0044 z"
       style="fill:#dc9414;stroke:#000000;stroke-width:0.2;stroke-linejoin:round" />
    <path
       id="path2802"
       d="m 98.8264,96.098 -3.0618,0.045 -0.0157,-3.9687 2.9707,-0.0433 z"
       style="fill:#dc9414;stroke:#000000;stroke-width:0.2;stroke-linejoin:round" />
    <path
       id="path2800"
       d="m 101.907,95.9852 -3.0806,0.1128 -0.1068,-3.967 2.9474,-0.1071 z"
       style="fill:#dc9414;stroke:#000000;stroke-width:0.2;stroke-linejoin:round" />
    <path
       id="path2798"
       d="m 105.062,95.6953 -3.155,0.2899 -0.24,-3.9613 2.852,-0.2597 z"
       style="fill:#dc9414;stroke:#000000;stroke-width:0.2;stroke-linejoin:round" />
    <path
       id="path2796"
       d="m 108.275,95.097 -3.213,0.5983 -0.543,-3.9311 2.715,-0.4958 z"
       style="fill:#dc9414;stroke:#000000;stroke-width:0.2;stroke-linejoin:round" />
    <path
       id="path2794"
       d="m 111.555,93.8803 -3.28,1.2167 -1.041,-3.8286 2.372,-0.8441 z"
       style="fill:#dc9414;stroke:#000000;stroke-width:0.2;stroke-linejoin:round" />
    <path
       id="path2792"
       d="m 114.497,91.3229 -2.942,2.5574 -1.949,-3.456 1.6,-1.3162 z"
       style="fill:#dc9414;stroke:#000000;stroke-width:0.2;stroke-linejoin:round" />
    <path
       id="path2790"
       d="m 115.71,87.4701 -1.213,3.8528 -3.291,-2.2148 0.541,-1.8249 z"
       style="fill:#dc9414;stroke:#000000;stroke-width:0.2;stroke-linejoin:round" />
    <path
       id="path2788"
       d="m 115.703,84.3015 0.007,3.1686 -3.963,-0.1869 -0.01,-2.864 z"
       style="fill:#dc9414;stroke:#000000;stroke-width:0.2;stroke-linejoin:round" />
    <path
       id="path2786"
       d="m 115.569,81.2076 0.134,3.0939 -3.966,0.1177 -0.126,-2.9327 z"
       style="fill:#dc9414;stroke:#000000;stroke-width:0.2;stroke-linejoin:round" />
    <path
       id="path2784"
       d="m 114.93,77.7281 0.639,3.4795 -3.958,0.2789 -0.425,-2.4453 z"
       style="fill:#dc9414;stroke:#000000;stroke-width:0.2;stroke-linejoin:round" />
    <path
       id="path2782"
       d="m 112.615,74.3191 2.315,3.409 -3.744,1.3131 -0.937,-1.5381 z"
       style="fill:#dc9414;stroke:#000000;stroke-width:0.2;stroke-linejoin:round" />
    <path
       id="path2780"
       d="m 108.489,73.1907 4.126,1.1284 -2.366,3.184 -1.61,-0.3474 z"
       style="fill:#dc9414;stroke:#000000;stroke-width:0.2;stroke-linejoin:round" />
    <path
       id="path2778"
       d="m 104.501,74.5795 3.988,-1.3888 0.15,3.965 -1.638,0.5028 z"
       style="fill:#dc9414;stroke:#000000;stroke-width:0.2;stroke-linejoin:round" />
    <path
       id="path2772"
       d="m 98.713,79.1803 1.68,-0.4585 2.211,3.2946 -4.0412,1.1289 z"
       style="fill:#dc9414;stroke:#000000;stroke-width:0.2;stroke-linejoin:round" />
    <path
       id="path2770"
       d="m 96.9171,78.61 1.7959,0.5703 -0.1502,3.965 -3.8572,-1.2407 z"
       style="fill:#dc9414;stroke:#000000;stroke-width:0.2;stroke-linejoin:round" />
    <path
       id="path2768"
       d="M 95.1943,76.8177 96.9171,78.61 94.7056,81.9046 92.199,79.4201 Z"
       style="fill:#dc9414;stroke:#000000;stroke-width:0.2;stroke-linejoin:round" />
    <path
       id="path2766"
       d="m 92.6657,74.3582 2.5286,2.4595 -2.9953,2.6024 -1.7448,-1.7673 z"
       style="fill:#dc9414;stroke:#000000;stroke-width:0.2;stroke-linejoin:round" />
    <path
       id="path2764"
       d="m 88.637,73.1851 4.0287,1.1731 -2.2115,3.2946 -1.6671,-0.5028 z"
       style="fill:#dc9414;stroke:#000000;stroke-width:0.2;stroke-linejoin:round" />
    <path
       id="path2762"
       d="m 84.7672,74.3873 3.8698,-1.2022 0.1501,3.9649 -1.8084,0.5318 z"
       style="fill:#dc9414;stroke:#000000;stroke-width:0.2;stroke-linejoin:round" />
    <path
       id="path2756"
       d="m 78.7111,79.1823 1.8047,-0.5432 2.2115,3.2945 -3.866,1.2136 z"
       style="fill:#dc9414;stroke:#000000;stroke-width:0.2;stroke-linejoin:round" />
    <path
       id="path2754"
       d="m 75.7694,79.1822 2.9417,1e-4 0.1502,3.9649 -3.0919,0.0038 z"
       style="fill:#dc9414;stroke:#000000;stroke-width:0.2;stroke-linejoin:round" />
    <path
       id="path2752"
       d="m 72.7526,79.1822 h 3.0168 v 3.9688 h -3.0168 z"
       style="fill:#dc9414;stroke:#000000;stroke-width:0.2;stroke-linejoin:round" />
    <path
       id="rect4846"
       d="m 69.7358,79.1822 h 3.0168 v 3.9688 h -3.0168 z"
       style="fill:#dc9414;stroke:#000000;stroke-width:0.2;stroke-linejoin:round" />
  </g>
</svg>
