<?xml version="1.0" encoding="UTF-8" standalone="no"?>
<svg
   xmlns:dc="http://purl.org/dc/elements/1.1/"
   xmlns:cc="http://creativecommons.org/ns#"
   xmlns:rdf="http://www.w3.org/1999/02/22-rdf-syntax-ns#"
   xmlns:svg="http://www.w3.org/2000/svg"
   xmlns="http://www.w3.org/2000/svg"
   xmlns:sodipodi="http://sodipodi.sourceforge.net/DTD/sodipodi-0.dtd"
   xmlns:inkscape="http://www.inkscape.org/namespaces/inkscape"
   sodipodi:docname="eight-like-1-4.svg"
   inkscape:version="1.0 (4035a4fb49, 2020-05-01)"
   width="210mm"
   height="297mm"
   viewBox="0 0 210 297"
   version="1.1"
   id="svg9025">
  <defs
     id="defs9019" />
  <sodipodi:namedview
     inkscape:window-maximized="0"
     inkscape:window-y="0"
     inkscape:window-x="75"
     inkscape:window-height="1040"
     inkscape:window-width="1648"
     showgrid="true"
     inkscape:document-rotation="0"
     inkscape:current-layer="layer1"
     inkscape:document-units="mm"
     inkscape:cy="123.63305"
     inkscape:cx="225.51226"
     inkscape:zoom="2.8"
     inkscape:pageshadow="2"
     inkscape:pageopacity="0.0"
     borderopacity="1.0"
     bordercolor="#666666"
     pagecolor="#ffffff"
     id="base">
    <inkscape:grid
       id="grid9588"
       type="xygrid" />
  </sodipodi:namedview>
  <metadata
     id="metadata9022">
    <rdf:RDF>
      <cc:Work
         rdf:about="">
        <dc:format>image/svg+xml</dc:format>
        <dc:type
           rdf:resource="http://purl.org/dc/dcmitype/StillImage" />
        <dc:title></dc:title>
      </cc:Work>
    </rdf:RDF>
  </metadata>
  <g
     id="layer1"
     inkscape:groupmode="layer"
     inkscape:label="Слой 1">
    <path
       id="path10005"
       d="m 108.2711,25.5327 h 2.004 v 4 h -2.004 z"
       style="fill:#d87408;stroke:#000000;stroke-width:0.2;stroke-linejoin:round" />
    <path
       id="path9775"
       d="m 107.2281,25.0765 0.043,2.0831 -3.999,0.0419 -0.039,-1.9224 z"
       style="fill:#d87408;stroke:#000000;stroke-width:0.2;stroke-linejoin:round" />
    <path
       id="path9777"
       d="m 107.2711,27.1596 -0.014,2.0453 -3.999,-0.0419 0.014,-1.9615 z"
       style="fill:#d87408;stroke:#000000;stroke-width:0.2;stroke-linejoin:round" />
    <path
       id="path9779"
       d="m 107.2571,29.2049 -0.146,2.1782 -3.979,-0.4028 0.126,-1.8173 z"
       style="fill:#d87408;stroke:#000000;stroke-width:0.2;stroke-linejoin:round" />
    <path
       id="path10003"
       d="m 106.2681,25.5327 h 2.003 v 4 h -2.003 z"
       style="fill:#d87408;stroke:#000000;stroke-width:0.2;stroke-linejoin:round" />
    <path
       id="path10001"
       d="m 104.2641,25.5327 h 2.004 v 4 h -2.004 z"
       style="fill:#d87408;stroke:#000000;stroke-width:0.2;stroke-linejoin:round" />
    <path
       id="path9999"
       d="m 102.2611,25.5327 h 2.003 v 4 h -2.003 z"
       style="fill:#d87408;stroke:#000000;stroke-width:0.2;stroke-linejoin:round" />
    <path
       id="path9997"
       d="m 100.2571,25.5327 h 2.004 v 4 h -2.004 z"
       style="fill:#d87408;stroke:#000000;stroke-width:0.2;stroke-linejoin:round" />
    <path
       id="path9995"
       d="m 98.2531,25.5327 h 2.004 v 4 h -2.004 z"
       style="fill:#d87408;stroke:#000000;stroke-width:0.2;stroke-linejoin:round" />
    <path
       id="path9993"
       d="m 96.2501,25.5327 h 2.003 v 4 h -2.003 z"
       style="fill:#d87408;stroke:#000000;stroke-width:0.2;stroke-linejoin:round" />
    <path
       id="path9991"
       d="m 94.9001,25.4821 1.35,0.0506 v 4 l -2.624,-0.2617 z"
       style="fill:#d87408;stroke:#000000;stroke-width:0.2;stroke-linejoin:round" />
    <path
       id="path9989"
       d="m 94.0921,24.9674 0.808,0.5147 -1.274,3.7889 -2.516,-1.6385 z"
       style="fill:#d87408;stroke:#000000;stroke-width:0.2;stroke-linejoin:round" />
    <path
       id="path9987"
       d="m 93.1321,23.6432 0.96,1.3242 -2.982,2.6651 -1.3926,-1.9071 z"
       style="fill:#d87408;stroke:#000000;stroke-width:0.2;stroke-linejoin:round" />
    <path
       id="path9985"
       d="m 92.2501,21.9958 0.882,1.6474 -3.4146,2.0822 -1.0137,-1.8809 z"
       style="fill:#d87408;stroke:#000000;stroke-width:0.2;stroke-linejoin:round" />
    <path
       id="path9983"
       d="m 91.3241,20.2193 0.926,1.7765 -3.5463,1.8487 -0.926,-1.7765 z"
       style="fill:#d87408;stroke:#000000;stroke-width:0.2;stroke-linejoin:round" />
    <path
       id="path9981"
       d="m 90.108,18.2543 1.2161,1.965 -3.5463,1.8487 -0.8856,-1.4382 z"
       style="fill:#d87408;stroke:#000000;stroke-width:0.2;stroke-linejoin:round" />
    <path
       id="path9979"
       d="m 88.1511,16.3668 1.9569,1.8875 -3.2158,2.3755 -0.8888,-0.8909 z"
       style="fill:#d87408;stroke:#000000;stroke-width:0.2;stroke-linejoin:round" />
    <path
       id="path9977"
       d="m 85.0485,15.5444 3.1026,0.8224 -2.1477,3.3721 -0.7031,-0.2052 z"
       style="fill:#d87408;stroke:#000000;stroke-width:0.2;stroke-linejoin:round" />
    <path
       id="path9975"
       d="m 82.2289,16.4752 2.8196,-0.9308 0.2518,3.9893 -0.9237,0.3136 z"
       style="fill:#d87408;stroke:#000000;stroke-width:0.2;stroke-linejoin:round" />
    <path
       id="path9973"
       d="m 80.3223,18.4167 1.9066,-1.9415 2.1477,3.3721 -0.8385,0.9449 z"
       style="fill:#d87408;stroke:#000000;stroke-width:0.2;stroke-linejoin:round" />
    <path
       id="path9735"
       d="m 80.3084,18.5257 1.1719,1.9929 -3.5465,1.8487 -0.8411,-1.4661 z"
       style="fill:#d87408;stroke:#000000;stroke-width:0.2;stroke-linejoin:round" />
    <path
       id="path9737"
       d="m 81.4803,20.5186 0.926,1.7764 -3.5465,1.8487 -0.926,-1.7764 z"
       style="fill:#d87408;stroke:#000000;stroke-width:0.2;stroke-linejoin:round" />
    <path
       id="path9971"
       d="m 79.1326,20.3983 1.1897,-1.9816 3.2158,2.3755 -0.859,1.4548 z"
       style="fill:#d87408;stroke:#000000;stroke-width:0.2;stroke-linejoin:round" />
    <path
       id="path9739"
       d="m 82.4063,22.295 0.9012,1.6363 -3.4144,2.0822 -1.0333,-1.8698 z"
       style="fill:#d87408;stroke:#000000;stroke-width:0.2;stroke-linejoin:round" />
    <path
       id="path9969"
       d="m 78.2066,22.1748 0.926,-1.7765 3.5465,1.8487 -0.926,1.7765 z"
       style="fill:#d87408;stroke:#000000;stroke-width:0.2;stroke-linejoin:round" />
    <path
       id="path9741"
       d="m 83.3075,23.9313 0.9191,1.1577 -2.7643,2.8894 -1.5692,-1.9649 z"
       style="fill:#d87408;stroke:#000000;stroke-width:0.2;stroke-linejoin:round" />
    <path
       id="path9967"
       d="m 77.3133,23.8156 0.8933,-1.6408 3.5465,1.8487 -1.0255,1.8743 z"
       style="fill:#d87408;stroke:#000000;stroke-width:0.2;stroke-linejoin:round" />
    <path
       id="path9965"
       d="m 76.4216,24.9952 0.8917,-1.1796 3.4143,2.0822 -1.5417,1.9869 z"
       style="fill:#d87408;stroke:#000000;stroke-width:0.2;stroke-linejoin:round" />
    <path
       id="path9963"
       d="m 75.7094,25.4714 0.7122,-0.4762 2.7643,2.8895 -2.7082,1.5093 z"
       style="fill:#d87408;stroke:#000000;stroke-width:0.2;stroke-linejoin:round" />
    <path
       id="path9961"
       d="m 74.7598,25.435 0.9496,0.0364 0.7683,3.9226 -2.9914,-0.1701 z"
       style="fill:#d87408;stroke:#000000;stroke-width:0.2;stroke-linejoin:round" />
    <path
       id="path9959"
       d="m 73.9933,24.8571 0.7665,0.5779 -1.2735,3.7889 -2.4746,-1.7017 z"
       style="fill:#d87408;stroke:#000000;stroke-width:0.2;stroke-linejoin:round" />
    <path
       id="path9957"
       d="m 73.0548,23.5169 0.9385,1.3402 -2.9816,2.6651 -1.3713,-1.9231 z"
       style="fill:#d87408;stroke:#000000;stroke-width:0.2;stroke-linejoin:round" />
    <path
       id="path9955"
       d="m 72.1819,21.8645 0.8729,1.6524 -3.4144,2.0822 -1.005,-1.8859 z"
       style="fill:#d87408;stroke:#000000;stroke-width:0.2;stroke-linejoin:round" />
    <path
       id="path9953"
       d="m 71.2559,20.0881 0.926,1.7764 -3.5465,1.8487 -0.926,-1.7764 z"
       style="fill:#d87408;stroke:#000000;stroke-width:0.2;stroke-linejoin:round" />
    <path
       id="path9951"
       d="m 70.0201,18.1354 1.2358,1.9527 -3.5465,1.8487 -0.9051,-1.4259 z"
       style="fill:#d87408;stroke:#000000;stroke-width:0.2;stroke-linejoin:round" />
    <path
       id="path9949"
       d="m 68.0263,16.2873 1.9938,1.8481 -3.2158,2.3755 -0.9257,-0.8515 z"
       style="fill:#d87408;stroke:#000000;stroke-width:0.2;stroke-linejoin:round" />
    <path
       id="path9947"
       d="m 64.9009,15.5537 3.1254,0.7336 -2.1477,3.3721 -0.7259,-0.1164 z"
       style="fill:#d87408;stroke:#000000;stroke-width:0.2;stroke-linejoin:round" />
    <path
       id="path9945"
       d="m 61.9395,16.6842 2.9614,-1.1305 0.2518,3.9893 -0.7245,0.2706 z"
       style="fill:#d87408;stroke:#000000;stroke-width:0.2;stroke-linejoin:round" />
    <path
       id="path9943"
       d="m 60.2344,18.5356 1.7051,-1.8514 2.4887,3.1294 -0.978,1.0976 z"
       style="fill:#d87408;stroke:#000000;stroke-width:0.2;stroke-linejoin:round" />
    <path
       id="path9705"
       d="m 60.2205,18.4067 1.1914,1.9806 -3.5465,1.8487 -0.8606,-1.4538 z"
       style="fill:#d87408;stroke:#000000;stroke-width:0.2;stroke-linejoin:round" />
    <path
       id="path9707"
       d="m 61.4119,20.3873 0.926,1.7765 -3.5465,1.8487 -0.926,-1.7765 z"
       style="fill:#d87408;stroke:#000000;stroke-width:0.2;stroke-linejoin:round" />
    <path
       id="path9941"
       d="m 59.0642,20.5296 1.1702,-1.994 3.2158,2.3756 -0.8395,1.4671 z"
       style="fill:#d87408;stroke:#000000;stroke-width:0.2;stroke-linejoin:round" />
    <path
       id="path9709"
       d="m 62.3379,22.1638 0.8926,1.6412 -3.4144,2.0822 -1.0247,-1.8747 z"
       style="fill:#d87408;stroke:#000000;stroke-width:0.2;stroke-linejoin:round" />
    <path
       id="path9939"
       d="m 58.1382,22.306 0.926,-1.7764 3.5465,1.8487 -0.926,1.7764 z"
       style="fill:#d87408;stroke:#000000;stroke-width:0.2;stroke-linejoin:round" />
    <path
       id="path9711"
       d="m 63.2305,23.805 0.8892,1.1817 -2.7644,2.8894 -1.5392,-1.9889 z"
       style="fill:#d87408;stroke:#000000;stroke-width:0.2;stroke-linejoin:round" />
    <path
       id="path9937"
       d="m 57.2362,23.9419 0.902,-1.6359 3.5465,1.8487 -1.0341,1.8694 z"
       style="fill:#d87408;stroke:#000000;stroke-width:0.2;stroke-linejoin:round" />
    <path
       id="path9935"
       d="m 56.3147,25.0975 0.9215,-1.1556 3.4144,2.0822 -1.5716,1.9629 z"
       style="fill:#d87408;stroke:#000000;stroke-width:0.2;stroke-linejoin:round" />
    <path
       id="path9933"
       d="m 55.5643,25.4998 0.7504,-0.4023 2.7643,2.8895 -2.7465,1.4354 z"
       style="fill:#d87408;stroke:#000000;stroke-width:0.2;stroke-linejoin:round" />
    <path
       id="path9931"
       d="m 53.9504,25.5327 1.6139,-0.0329 0.7682,3.9226 -2.3821,0.1103 z"
       style="fill:#d87408;stroke:#000000;stroke-width:0.2;stroke-linejoin:round" />
    <path
       id="path9929"
       d="m 51.9468,25.5327 h 2.0036 v 4 h -2.0036 z"
       style="fill:#d87408;stroke:#000000;stroke-width:0.2;stroke-linejoin:round" />
    <path
       id="path9927"
       d="m 49.9432,25.5327 h 2.0036 v 4 h -2.0036 z"
       style="fill:#d87408;stroke:#000000;stroke-width:0.2;stroke-linejoin:round" />
    <path
       id="path9925"
       d="m 47.9396,25.5327 h 2.0036 v 4 h -2.0036 z"
       style="fill:#d87408;stroke:#000000;stroke-width:0.2;stroke-linejoin:round" />
    <path
       id="path9923"
       d="m 45.936,25.5327 h 2.0036 v 4 H 45.936 Z"
       style="fill:#d87408;stroke:#000000;stroke-width:0.2;stroke-linejoin:round" />
    <path
       id="path9921"
       d="m 43.9324,25.5327 h 2.0036 v 4 h -2.0036 z"
       style="fill:#d87408;stroke:#000000;stroke-width:0.2;stroke-linejoin:round" />
    <path
       id="path9919"
       d="m 41.9288,25.5327 h 2.0036 v 4 h -2.0036 z"
       style="fill:#d87408;stroke:#000000;stroke-width:0.2;stroke-linejoin:round" />
    <path
       id="path9917"
       d="m 39.9252,25.5327 h 2.0036 v 4 h -2.0036 z"
       style="fill:#d87408;stroke:#000000;stroke-width:0.2;stroke-linejoin:round" />
    <path
       id="path9915"
       d="m 37.9216,25.5327 h 2.0036 v 4 h -2.0036 z"
       style="fill:#d87408;stroke:#000000;stroke-width:0.2;stroke-linejoin:round" />
    <path
       id="path9913"
       d="m 35.918,25.5327 h 2.0036 v 4 H 35.918 Z"
       style="fill:#d87408;stroke:#000000;stroke-width:0.2;stroke-linejoin:round" />
    <path
       id="path9911"
       d="m 33.9144,25.5327 h 2.0036 v 4 h -2.0036 z"
       style="fill:#d87408;stroke:#000000;stroke-width:0.2;stroke-linejoin:round" />
    <path
       id="path9909"
       d="m 31.9108,25.5327 h 2.0036 v 4 h -2.0036 z"
       style="fill:#d87408;stroke:#000000;stroke-width:0.2;stroke-linejoin:round" />
    <path
       id="path9907"
       d="m 29.9072,25.5327 h 2.0036 v 4 h -2.0036 z"
       style="fill:#d87408;stroke:#000000;stroke-width:0.2;stroke-linejoin:round" />
    <path
       id="path9905"
       d="m 27.9036,25.5327 h 2.0036 v 4 h -2.0036 z"
       style="fill:#d87408;stroke:#000000;stroke-width:0.2;stroke-linejoin:round" />
    <path
       id="path9903"
       d="m 25.9,25.5327 h 2.0036 v 4 H 25.9 Z"
       style="fill:#d87408;stroke:#000000;stroke-width:0.2;stroke-linejoin:round" />
    <path
       id="path9901"
       d="M 23.8323,25.5791 25.9,25.5327 v 4 l -1.9374,0.0434 z"
       style="fill:#d87408;stroke:#000000;stroke-width:0.2;stroke-linejoin:round" />
    <path
       id="path9899"
       d="m 21.5563,25.8004 2.276,-0.2213 0.1303,3.997 -1.7094,0.1627 z"
       style="fill:#d87408;stroke:#000000;stroke-width:0.2;stroke-linejoin:round" />
    <path
       id="path9897"
       d="m 19.2916,26.3429 2.2647,-0.5425 0.6969,3.9384 -1.6308,0.3756 z"
       style="fill:#d87408;stroke:#000000;stroke-width:0.2;stroke-linejoin:round" />
    <path
       id="path9895"
       d="m 17.1091,27.3653 2.1825,-1.0224 1.3308,3.7715 -1.4372,0.6688 z"
       style="fill:#d87408;stroke:#000000;stroke-width:0.2;stroke-linejoin:round" />
    <path
       id="path9893"
       d="m 15.0701,29.2581 2.039,-1.8928 2.0761,3.4179 -0.8769,0.8213 z"
       style="fill:#d87408;stroke:#000000;stroke-width:0.2;stroke-linejoin:round" />
    <path
       id="path9891"
       d="m 13.8611,31.6923 1.209,-2.4342 3.2382,2.3464 -0.586,1.1258 z"
       style="fill:#d87408;stroke:#000000;stroke-width:0.2;stroke-linejoin:round" />
    <path
       id="path9889"
       d="m 13.4103,33.9706 0.4508,-2.2783 3.8612,1.038 -0.3329,1.6431 z"
       style="fill:#d87408;stroke:#000000;stroke-width:0.2;stroke-linejoin:round" />
    <path
       id="path9631"
       d="m 12.2787,35.5327 h 2.0036 v 4 h -2.0036 z"
       style="fill:#d87408;stroke:#000000;stroke-width:0.2;stroke-linejoin:round" />
    <path
       id="path9633"
       d="m 14.2823,35.5327 h 2.0036 v 4 h -2.0036 z"
       style="fill:#d87408;stroke:#000000;stroke-width:0.2;stroke-linejoin:round" />
    <path
       id="path9635"
       d="m 16.2859,35.5327 h 2.0036 v 4 h -2.0036 z"
       style="fill:#d87408;stroke:#000000;stroke-width:0.2;stroke-linejoin:round" />
    <path
       id="path9887"
       d="m 13.2896,36.1503 0.1207,-2.1797 3.9791,0.4028 -0.1003,1.8188 z"
       style="fill:#d87408;stroke:#000000;stroke-width:0.2;stroke-linejoin:round" />
    <path
       id="path9885"
       d="m 13.282,38.1955 0.0076,-2.0452 3.9995,0.0419 -0.0075,1.9614 z"
       style="fill:#d87408;stroke:#000000;stroke-width:0.2;stroke-linejoin:round" />
    <path
       id="path9883"
       d="m 13.3369,40.2783 -0.0549,-2.0828 3.9996,-0.0419 0.0498,1.9221 z"
       style="fill:#d87408;stroke:#000000;stroke-width:0.2;stroke-linejoin:round" />
    <path
       id="path9881"
       d="m 13.6744,42.6784 -0.3375,-2.4001 3.9945,-0.2026 0.2041,1.5647 z"
       style="fill:#d87408;stroke:#000000;stroke-width:0.2;stroke-linejoin:round" />
    <path
       id="path9879"
       d="m 14.5201,44.9504 -0.8457,-2.272 3.8611,-1.038 0.5371,1.4733 z"
       style="fill:#d87408;stroke:#000000;stroke-width:0.2;stroke-linejoin:round" />
    <path
       id="path9877"
       d="m 16.2783,47.0892 -1.7582,-2.1388 3.5525,-1.8367 0.7888,0.9229 z"
       style="fill:#d87408;stroke:#000000;stroke-width:0.2;stroke-linejoin:round" />
    <path
       id="path9875"
       d="m 18.4985,48.4226 -2.2202,-1.3334 2.5831,-3.0526 1.2076,0.708 z"
       style="fill:#d87408;stroke:#000000;stroke-width:0.2;stroke-linejoin:round" />
    <path
       id="path9873"
       d="m 20.7506,49.1154 -2.2521,-0.6928 1.5705,-3.678 1.5744,0.4722 z"
       style="fill:#d87408;stroke:#000000;stroke-width:0.2;stroke-linejoin:round" />
    <path
       id="path9871"
       d="m 22.9643,49.4267 -2.2137,-0.3113 0.8928,-3.8986 1.7525,0.2344 z"
       style="fill:#d87408;stroke:#000000;stroke-width:0.2;stroke-linejoin:round" />
    <path
       id="path9869"
       d="m 25.1153,49.5282 -2.151,-0.1015 0.4316,-3.9755 1.8497,0.0799 z"
       style="fill:#d87408;stroke:#000000;stroke-width:0.2;stroke-linejoin:round" />
    <path
       id="path9867"
       d="m 28.1563,48.6953 -3.041,0.8329 0.1303,-3.9971 0.763,-0.2079 z"
       style="fill:#d87408;stroke:#000000;stroke-width:0.2;stroke-linejoin:round" />
    <path
       id="path9865"
       d="m 30.1117,46.8061 -1.9554,1.8892 -2.1477,-3.3721 0.8873,-0.8926 z"
       style="fill:#d87408;stroke:#000000;stroke-width:0.2;stroke-linejoin:round" />
    <path
       id="path9863"
       d="m 31.3271,44.8406 -1.2154,1.9655 -3.2158,-2.3755 0.8848,-1.4387 z"
       style="fill:#d87408;stroke:#000000;stroke-width:0.2;stroke-linejoin:round" />
    <path
       id="path9861"
       d="m 32.2532,43.0641 -0.9261,1.7765 -3.5464,-1.8487 0.926,-1.7765 z"
       style="fill:#d87408;stroke:#000000;stroke-width:0.2;stroke-linejoin:round" />
    <path
       id="path9859"
       d="m 33.1351,41.4169 -0.8819,1.6472 -3.5465,-1.8487 1.014,-1.8807 z"
       style="fill:#d87408;stroke:#000000;stroke-width:0.2;stroke-linejoin:round" />
    <path
       id="path9857"
       d="m 34.0961,40.0934 -0.961,1.3235 -3.4144,-2.0822 1.3937,-1.9064 z"
       style="fill:#d87408;stroke:#000000;stroke-width:0.2;stroke-linejoin:round" />
    <path
       id="path9855"
       d="m 34.9059,39.5813 -0.8098,0.5121 -2.9817,-2.6651 2.518,-1.6359 z"
       style="fill:#d87408;stroke:#000000;stroke-width:0.2;stroke-linejoin:round" />
    <path
       id="path9853"
       d="m 36.2561,39.5327 -1.3502,0.0486 -1.2735,-3.7889 2.6237,-0.2597 z"
       style="fill:#d87408;stroke:#000000;stroke-width:0.2;stroke-linejoin:round" />
    <path
       id="path9851"
       d="m 38.2597,39.5327 h -2.0036 v -4 h 2.0036 z"
       style="fill:#d87408;stroke:#000000;stroke-width:0.2;stroke-linejoin:round" />
    <path
       id="path9849"
       d="m 40.2633,39.5327 h -2.0036 v -4 h 2.0036 z"
       style="fill:#d87408;stroke:#000000;stroke-width:0.2;stroke-linejoin:round" />
    <path
       id="path9847"
       d="m 42.2669,39.5327 h -2.0036 v -4 h 2.0036 z"
       style="fill:#d87408;stroke:#000000;stroke-width:0.2;stroke-linejoin:round" />
    <path
       id="path9671"
       d="m 42.5986,40.8823 0.385,-1.7989 3.9364,0.7054 -0.4554,2.1148 z"
       style="fill:#d87408;stroke:#000000;stroke-width:0.2;stroke-linejoin:round" />
    <path
       id="path9675"
       d="m 43.1638,37.3096 0.0892,-1.9341 3.9976,0.1352 -0.0962,2.0682 z"
       style="fill:#d87408;stroke:#000000;stroke-width:0.2;stroke-linejoin:round" />
    <path
       id="path9673"
       d="m 42.9836,39.0834 0.1802,-1.7738 3.9906,0.2693 -0.2344,2.2099 z"
       style="fill:#d87408;stroke:#000000;stroke-width:0.2;stroke-linejoin:round" />
    <path
       id="path9845"
       d="m 44.2705,39.5327 h -2.0036 v -4 h 2.0036 z"
       style="fill:#d87408;stroke:#000000;stroke-width:0.2;stroke-linejoin:round" />
    <path
       id="path9843"
       d="m 46.2741,39.5327 h -2.0036 v -4 h 2.0036 z"
       style="fill:#d87408;stroke:#000000;stroke-width:0.2;stroke-linejoin:round" />
    <path
       id="path9677"
       d="m 43.253,35.3755 0.0159,-1.9498 3.9998,0.028 -0.0181,2.057 z"
       style="fill:#d87408;stroke:#000000;stroke-width:0.2;stroke-linejoin:round" />
    <path
       id="path9841"
       d="m 48.2777,39.5327 h -2.0036 v -4 h 2.0036 z"
       style="fill:#d87408;stroke:#000000;stroke-width:0.2;stroke-linejoin:round" />
    <path
       id="path9839"
       d="m 50.2813,39.5327 h -2.0036 v -4 h 2.0036 z"
       style="fill:#d87408;stroke:#000000;stroke-width:0.2;stroke-linejoin:round" />
    <path
       id="path9837"
       d="m 52.2849,39.5327 h -2.0036 v -4 h 2.0036 z"
       style="fill:#d87408;stroke:#000000;stroke-width:0.2;stroke-linejoin:round" />
    <path
       id="path9835"
       d="m 54.2885,39.5327 h -2.0036 v -4 h 2.0036 z"
       style="fill:#d87408;stroke:#000000;stroke-width:0.2;stroke-linejoin:round" />
    <path
       id="path9833"
       d="m 56.2921,39.5327 h -2.0036 v -4 h 2.0036 z"
       style="fill:#d87408;stroke:#000000;stroke-width:0.2;stroke-linejoin:round" />
    <path
       id="path9831"
       d="m 58.2957,39.5327 h -2.0036 v -4 h 2.0036 z"
       style="fill:#d87408;stroke:#000000;stroke-width:0.2;stroke-linejoin:round" />
    <path
       id="path9829"
       d="m 60.2993,39.5327 h -2.0036 v -4 h 2.0036 z"
       style="fill:#d87408;stroke:#000000;stroke-width:0.2;stroke-linejoin:round" />
    <path
       id="path9827"
       d="m 62.3029,39.5327 h -2.0036 v -4 h 2.0036 z"
       style="fill:#d87408;stroke:#000000;stroke-width:0.2;stroke-linejoin:round" />
    <path
       id="path9825"
       d="m 64.3065,39.5327 h -2.0036 v -4 h 2.0036 z"
       style="fill:#d87408;stroke:#000000;stroke-width:0.2;stroke-linejoin:round" />
    <path
       id="path9823"
       d="m 66.3101,39.5327 h -2.0036 v -4 h 2.0036 z"
       style="fill:#d87408;stroke:#000000;stroke-width:0.2;stroke-linejoin:round" />
    <path
       id="path9821"
       d="m 68.3136,39.5327 h -2.0035 v -4 h 2.0035 z"
       style="fill:#d87408;stroke:#000000;stroke-width:0.2;stroke-linejoin:round" />
    <path
       id="path9819"
       d="m 70.3172,39.5327 h -2.0036 v -4 h 2.0036 z"
       style="fill:#d87408;stroke:#000000;stroke-width:0.2;stroke-linejoin:round" />
    <path
       id="path9817"
       d="m 72.3208,39.5327 h -2.0036 v -4 h 2.0036 z"
       style="fill:#d87408;stroke:#000000;stroke-width:0.2;stroke-linejoin:round" />
    <path
       id="path9815"
       d="m 74.3244,39.5327 h -2.0036 v -4 h 2.0036 z"
       style="fill:#d87408;stroke:#000000;stroke-width:0.2;stroke-linejoin:round" />
    <path
       id="path9813"
       d="m 76.328,39.5327 h -2.0036 v -4 h 2.0036 z"
       style="fill:#d87408;stroke:#000000;stroke-width:0.2;stroke-linejoin:round" />
    <path
       id="path9811"
       d="M 78.3316,39.5327 H 76.328 v -4 h 2.0036 z"
       style="fill:#d87408;stroke:#000000;stroke-width:0.2;stroke-linejoin:round" />
    <path
       id="path9809"
       d="m 80.3352,39.5327 h -2.0036 v -4 h 2.0036 z"
       style="fill:#d87408;stroke:#000000;stroke-width:0.2;stroke-linejoin:round" />
    <path
       id="path9807"
       d="m 82.3388,39.5327 h -2.0036 v -4 h 2.0036 z"
       style="fill:#d87408;stroke:#000000;stroke-width:0.2;stroke-linejoin:round" />
    <path
       id="path9805"
       d="m 84.3424,39.5327 h -2.0036 v -4 h 2.0036 z"
       style="fill:#d87408;stroke:#000000;stroke-width:0.2;stroke-linejoin:round" />
    <path
       id="path9803"
       d="m 86.346,39.5327 h -2.0036 v -4 h 2.0036 z"
       style="fill:#d87408;stroke:#000000;stroke-width:0.2;stroke-linejoin:round" />
    <path
       id="path9801"
       d="M 88.3496,39.5327 H 86.346 v -4 h 2.0036 z"
       style="fill:#d87408;stroke:#000000;stroke-width:0.2;stroke-linejoin:round" />
    <path
       id="path9799"
       d="m 90.3531,39.5327 h -2.0035 v -4 h 2.0035 z"
       style="fill:#d87408;stroke:#000000;stroke-width:0.2;stroke-linejoin:round" />
    <path
       id="path9797"
       d="m 92.3571,39.5327 h -2.004 v -4 h 2.004 z"
       style="fill:#d87408;stroke:#000000;stroke-width:0.2;stroke-linejoin:round" />
    <path
       id="path9795"
       d="m 94.3601,39.5327 h -2.003 v -4 h 2.003 z"
       style="fill:#d87408;stroke:#000000;stroke-width:0.2;stroke-linejoin:round" />
    <path
       id="path9793"
       d="m 96.4281,39.4958 -2.068,0.0369 v -4 l 1.938,-0.034 z"
       style="fill:#d87408;stroke:#000000;stroke-width:0.2;stroke-linejoin:round" />
    <path
       id="path9791"
       d="m 98.5741,39.3195 -2.146,0.1763 -0.13,-3.9971 1.844,-0.1547 z"
       style="fill:#d87408;stroke:#000000;stroke-width:0.2;stroke-linejoin:round" />
    <path
       id="path9789"
       d="M 100.8681,38.8439 98.5741,39.3195 98.1421,35.344 99.7641,35 Z"
       style="fill:#d87408;stroke:#000000;stroke-width:0.2;stroke-linejoin:round" />
    <path
       id="path9787"
       d="m 103.1931,37.8505 -2.325,0.9934 -1.104,-3.8439 1.353,-0.5674 z"
       style="fill:#d87408;stroke:#000000;stroke-width:0.2;stroke-linejoin:round" />
    <path
       id="path9785"
       d="m 105.2031,36.1598 -2.01,1.6907 -2.076,-3.4179 1.044,-0.8692 z"
       style="fill:#d87408;stroke:#000000;stroke-width:0.2;stroke-linejoin:round" />
    <path
       id="path9783"
       d="m 106.5451,33.8056 -1.342,2.3542 -3.042,-2.5964 0.621,-1.1136 z"
       style="fill:#d87408;stroke:#000000;stroke-width:0.2;stroke-linejoin:round" />
    <path
       id="path9781"
       d="m 107.1111,31.3831 -0.566,2.4225 -3.763,-1.3558 0.35,-1.4695 z"
       style="fill:#d87408;stroke:#000000;stroke-width:0.2;stroke-linejoin:round" />
    <path
       id="path9773"
       d="m 106.9731,22.8496 0.255,2.2269 -3.995,0.2026 -0.2,-1.7495 z"
       style="fill:#d87408;stroke:#000000;stroke-width:0.2;stroke-linejoin:round" />
    <path
       id="path9771"
       d="m 106.1631,20.3724 0.81,2.4772 -3.94,0.68 -0.422,-1.3206 z"
       style="fill:#d87408;stroke:#000000;stroke-width:0.2;stroke-linejoin:round" />
    <path
       id="path9769"
       d="m 104.6111,18.2742 1.552,2.0982 -3.552,1.8366 -0.822,-1.1009 z"
       style="fill:#d87408;stroke:#000000;stroke-width:0.2;stroke-linejoin:round" />
    <path
       id="path9767"
       d="m 102.3181,16.7565 2.293,1.5177 -2.822,2.8339 -1.041,-0.6735 z"
       style="fill:#d87408;stroke:#000000;stroke-width:0.2;stroke-linejoin:round" />
    <path
       id="path9765"
       d="m 100.0821,16.0146 2.236,0.7419 -1.57,3.6781 -1.559,-0.5213 z"
       style="fill:#d87408;stroke:#000000;stroke-width:0.2;stroke-linejoin:round" />
    <path
       id="path9763"
       d="m 97.8741,15.6699 2.208,0.3447 -0.893,3.8987 -1.747,-0.2679 z"
       style="fill:#d87408;stroke:#000000;stroke-width:0.2;stroke-linejoin:round" />
    <path
       id="path9761"
       d="m 95.7241,15.5467 2.15,0.1232 -0.432,3.9755 -1.848,-0.1016 z"
       style="fill:#d87408;stroke:#000000;stroke-width:0.2;stroke-linejoin:round" />
    <path
       id="path9759"
       d="m 92.8491,16.1128 2.875,-0.5661 -0.13,3.9971 -1.006,0.168 z"
       style="fill:#d87408;stroke:#000000;stroke-width:0.2;stroke-linejoin:round" />
    <path
       id="path9757"
       d="m 90.6111,18.0264 2.238,-1.9136 1.739,3.599 -0.762,0.6901 z"
       style="fill:#d87408;stroke:#000000;stroke-width:0.2;stroke-linejoin:round" />
    <path
       id="path9755"
       d="m 89.357,19.9679 1.2541,-1.9415 3.215,2.3755 -0.923,1.4147 z"
       style="fill:#d87408;stroke:#000000;stroke-width:0.2;stroke-linejoin:round" />
    <path
       id="path9753"
       d="m 88.431,21.7443 0.926,-1.7764 3.5461,1.8487 -0.926,1.7764 z"
       style="fill:#d87408;stroke:#000000;stroke-width:0.2;stroke-linejoin:round" />
    <path
       id="path9751"
       d="m 87.566,23.4012 0.865,-1.6569 3.5461,1.8487 -0.997,1.8903 z"
       style="fill:#d87408;stroke:#000000;stroke-width:0.2;stroke-linejoin:round" />
    <path
       id="path9749"
       d="m 86.6472,24.756 0.9188,-1.3548 3.4141,2.0821 -1.3512,1.9378 z"
       style="fill:#d87408;stroke:#000000;stroke-width:0.2;stroke-linejoin:round" />
    <path
       id="path9747"
       d="m 85.9188,25.3918 0.7284,-0.6358 2.9817,2.6651 -2.4366,1.7596 z"
       style="fill:#d87408;stroke:#000000;stroke-width:0.2;stroke-linejoin:round" />
    <path
       id="path9745"
       d="m 84.9737,25.4975 0.9451,-0.1057 1.2735,3.7889 -2.9868,0.2394 z"
       style="fill:#d87408;stroke:#000000;stroke-width:0.2;stroke-linejoin:round" />
    <path
       id="path9743"
       d="m 84.2266,25.089 0.7471,0.4085 -0.7682,3.9226 -2.7432,-1.4417 z"
       style="fill:#d87408;stroke:#000000;stroke-width:0.2;stroke-linejoin:round" />
    <path
       id="path9733"
       d="m 78.601,16.6765 1.7074,1.8492 -3.2157,2.3755 -0.9804,-1.0953 z"
       style="fill:#d87408;stroke:#000000;stroke-width:0.2;stroke-linejoin:round" />
    <path
       id="path9731"
       d="m 75.6369,15.5529 2.9641,1.1236 -2.4887,3.1294 -0.7272,-0.2636 z"
       style="fill:#d87408;stroke:#000000;stroke-width:0.2;stroke-linejoin:round" />
    <path
       id="path9729"
       d="m 72.5134,16.294 3.1235,-0.7411 -0.2518,3.9894 -0.724,0.1238 z"
       style="fill:#d87408;stroke:#000000;stroke-width:0.2;stroke-linejoin:round" />
    <path
       id="path9727"
       d="m 70.5227,18.1453 1.9907,-1.8513 2.1477,3.3721 -0.9226,0.8547 z"
       style="fill:#d87408;stroke:#000000;stroke-width:0.2;stroke-linejoin:round" />
    <path
       id="path9725"
       d="m 69.2886,20.0991 1.2341,-1.9538 3.2158,2.3755 -0.9034,1.427 z"
       style="fill:#d87408;stroke:#000000;stroke-width:0.2;stroke-linejoin:round" />
    <path
       id="path9723"
       d="m 68.3626,21.8755 0.926,-1.7764 3.5465,1.8487 -0.926,1.7764 z"
       style="fill:#d87408;stroke:#000000;stroke-width:0.2;stroke-linejoin:round" />
    <path
       id="path9721"
       d="m 67.489,23.5275 0.8736,-1.652 3.5465,1.8487 -1.0058,1.8855 z"
       style="fill:#d87408;stroke:#000000;stroke-width:0.2;stroke-linejoin:round" />
    <path
       id="path9719"
       d="m 66.5486,24.8663 0.9404,-1.3388 3.4143,2.0822 -1.373,1.9218 z"
       style="fill:#d87408;stroke:#000000;stroke-width:0.2;stroke-linejoin:round" />
    <path
       id="path9717"
       d="m 65.7786,25.4389 0.77,-0.5726 2.9817,2.6652 -2.4782,1.6963 z"
       style="fill:#d87408;stroke:#000000;stroke-width:0.2;stroke-linejoin:round" />
    <path
       id="path9715"
       d="m 64.8286,25.469 0.95,-0.0301 1.2735,3.7889 -2.9917,0.1638 z"
       style="fill:#d87408;stroke:#000000;stroke-width:0.2;stroke-linejoin:round" />
    <path
       id="path9713"
       d="m 64.1197,24.9867 0.7089,0.4823 -0.7682,3.9226 -2.7051,-1.5155 z"
       style="fill:#d87408;stroke:#000000;stroke-width:0.2;stroke-linejoin:round" />
    <path
       id="path9703"
       d="m 58.3108,16.4685 1.9097,1.9382 -3.2157,2.3755 -0.8417,-0.9416 z"
       style="fill:#d87408;stroke:#000000;stroke-width:0.2;stroke-linejoin:round" />
    <path
       id="path9701"
       d="m 55.4893,15.5436 2.8215,0.9249 -2.1477,3.3721 -0.9256,-0.3077 z"
       style="fill:#d87408;stroke:#000000;stroke-width:0.2;stroke-linejoin:round" />
    <path
       id="path9699"
       d="m 53.1018,15.6563 2.3875,-0.1127 -0.2518,3.9893 -1.6107,0.0882 z"
       style="fill:#d87408;stroke:#000000;stroke-width:0.2;stroke-linejoin:round" />
    <path
       id="path9697"
       d="m 50.8876,16.0892 2.2142,-0.4329 0.525,3.9648 -1.7132,0.3335 z"
       style="fill:#d87408;stroke:#000000;stroke-width:0.2;stroke-linejoin:round" />
    <path
       id="path9695"
       d="m 48.6202,17.0219 2.2674,-0.9327 1.026,3.8654 -1.4227,0.6017 z"
       style="fill:#d87408;stroke:#000000;stroke-width:0.2;stroke-linejoin:round" />
    <path
       id="path9693"
       d="m 46.5163,18.6553 2.1039,-1.6334 1.8707,3.5344 -1.044,0.8198 z"
       style="fill:#d87408;stroke:#000000;stroke-width:0.2;stroke-linejoin:round" />
    <path
       id="path9691"
       d="m 45.0759,20.6459 1.4404,-1.9906 2.9306,2.7208 -0.8953,1.2479 z"
       style="fill:#d87408;stroke:#000000;stroke-width:0.2;stroke-linejoin:round" />
    <path
       id="path9689"
       d="M 44.134,22.9787 45.0759,20.6459 48.5516,22.624 48,24 Z"
       style="fill:#d87408;stroke:#000000;stroke-width:0.2;stroke-linejoin:round" />
    <path
       id="path9687"
       d="M 43.6636,25.0901 44.134,22.9787 48,24 47.6,25.7956 Z"
       style="fill:#d87408;stroke:#000000;stroke-width:0.2;stroke-linejoin:round" />
    <path
       id="path9685"
       d="m 43.4085,27.2975 0.2551,-2.2074 3.9364,0.7055 -0.2008,1.7712 z"
       style="fill:#d87408;stroke:#000000;stroke-width:0.2;stroke-linejoin:round" />
    <path
       id="path9683"
       d="m 43.3061,29.3653 0.1024,-2.0678 3.9907,0.2693 -0.0956,1.9337 z"
       style="fill:#d87408;stroke:#000000;stroke-width:0.2;stroke-linejoin:round" />
    <path
       id="path9681"
       d="m 43.2829,31.4222 0.0232,-2.0569 3.9975,0.1352 -0.0209,1.9497 z"
       style="fill:#d87408;stroke:#000000;stroke-width:0.2;stroke-linejoin:round" />
    <path
       id="path9679"
       d="m 43.2689,33.4257 0.014,-2.0035 3.9998,0.028 -0.014,2.0035 z"
       style="fill:#d87408;stroke:#000000;stroke-width:0.2;stroke-linejoin:round" />
    <path
       id="path9669"
       d="m 42.023,42.3925 0.5756,-1.5102 3.866,1.0213 -0.8404,2.2286 z"
       style="fill:#d87408;stroke:#000000;stroke-width:0.2;stroke-linejoin:round" />
    <path
       id="path9667"
       d="m 41.2322,43.5505 0.7908,-1.158 3.6012,1.7397 -1.4614,2.1391 z"
       style="fill:#d87408;stroke:#000000;stroke-width:0.2;stroke-linejoin:round" />
    <path
       id="path9665"
       d="m 40.0788,44.4954 1.1534,-0.9449 2.9306,2.7208 -1.9274,1.5915 z"
       style="fill:#d87408;stroke:#000000;stroke-width:0.2;stroke-linejoin:round" />
    <path
       id="path9663"
       d="m 38.6818,45.0993 1.397,-0.6039 2.1566,3.3674 -2.2545,1.0186 z"
       style="fill:#d87408;stroke:#000000;stroke-width:0.2;stroke-linejoin:round" />
    <path
       id="path9661"
       d="m 37.1113,45.4194 1.5705,-0.3201 1.2991,3.7821 -2.3446,0.5028 z"
       style="fill:#d87408;stroke:#000000;stroke-width:0.2;stroke-linejoin:round" />
    <path
       id="path9659"
       d="m 35.3282,45.5311 1.7831,-0.1117 0.525,3.9648 -2.2124,0.1453 z"
       style="fill:#d87408;stroke:#000000;stroke-width:0.2;stroke-linejoin:round" />
    <path
       id="path9657"
       d="m 34.5468,45.3265 0.7814,0.2046 0.0957,3.9984 -3.0248,-0.8309 z"
       style="fill:#d87408;stroke:#000000;stroke-width:0.2;stroke-linejoin:round" />
    <path
       id="path9655"
       d="m 33.658,44.4356 0.8888,0.8909 -2.1477,3.3721 -1.9569,-1.8875 z"
       style="fill:#d87408;stroke:#000000;stroke-width:0.2;stroke-linejoin:round" />
    <path
       id="path9653"
       d="m 32.7724,42.9974 0.8856,1.4382 -3.2158,2.3755 -1.2163,-1.965 z"
       style="fill:#d87408;stroke:#000000;stroke-width:0.2;stroke-linejoin:round" />
    <path
       id="path9651"
       d="m 31.8464,41.2209 0.926,1.7765 -3.5465,1.8487 -0.926,-1.7765 z"
       style="fill:#d87408;stroke:#000000;stroke-width:0.2;stroke-linejoin:round" />
    <path
       id="path9649"
       d="m 30.8327,39.34 1.0137,1.8809 -3.5465,1.8487 -0.8815,-1.6474 z"
       style="fill:#d87408;stroke:#000000;stroke-width:0.2;stroke-linejoin:round" />
    <path
       id="path9647"
       d="M 29.4399,37.4329 30.8327,39.34 27.4184,41.4222 26.4583,40.098 Z"
       style="fill:#d87408;stroke:#000000;stroke-width:0.2;stroke-linejoin:round" />
    <path
       id="path9645"
       d="m 26.9237,35.7944 2.5162,1.6385 -2.9816,2.6651 -0.8081,-0.5147 z"
       style="fill:#d87408;stroke:#000000;stroke-width:0.2;stroke-linejoin:round" />
    <path
       id="path9643"
       d="m 24.3003,35.5327 2.6234,0.2617 -1.2735,3.7889 -1.3499,-0.0506 z"
       style="fill:#d87408;stroke:#000000;stroke-width:0.2;stroke-linejoin:round" />
    <path
       id="path9641"
       d="m 22.2967,35.5327 h 2.0036 v 4 h -2.0036 z"
       style="fill:#d87408;stroke:#000000;stroke-width:0.2;stroke-linejoin:round" />
    <path
       id="path9639"
       d="m 20.2931,35.5327 h 2.0036 v 4 h -2.0036 z"
       style="fill:#d87408;stroke:#000000;stroke-width:0.2;stroke-linejoin:round" />
    <path
       id="path9637"
       d="m 18.2895,35.5327 h 2.0036 v 4 h -2.0036 z"
       style="fill:#d87408;stroke:#000000;stroke-width:0.2;stroke-linejoin:round" />
    <path
       id="rect9616"
       d="m 10.2751,35.5327 h 2.0036 v 4 h -2.0036 z"
       style="fill:#d87408;stroke:#000000;stroke-width:0.2;stroke-linejoin:round" />
  </g>
</svg>
