<?xml version="1.0" encoding="UTF-8" standalone="no"?>
<svg
   xmlns:dc="http://purl.org/dc/elements/1.1/"
   xmlns:cc="http://creativecommons.org/ns#"
   xmlns:rdf="http://www.w3.org/1999/02/22-rdf-syntax-ns#"
   xmlns:svg="http://www.w3.org/2000/svg"
   xmlns="http://www.w3.org/2000/svg"
   xmlns:sodipodi="http://sodipodi.sourceforge.net/DTD/sodipodi-0.dtd"
   xmlns:inkscape="http://www.inkscape.org/namespaces/inkscape"
   sodipodi:docname="eight-like-2-2.svg"
   inkscape:version="1.0 (4035a4fb49, 2020-05-01)"
   width="210mm"
   height="297mm"
   viewBox="0 0 210 297"
   version="1.1"
   id="svg10013">
  <defs
     id="defs10007" />
  <sodipodi:namedview
     inkscape:window-maximized="0"
     inkscape:window-y="0"
     inkscape:window-x="175"
     inkscape:window-height="1040"
     inkscape:window-width="1648"
     showgrid="true"
     inkscape:document-rotation="0"
     inkscape:current-layer="layer1"
     inkscape:document-units="mm"
     inkscape:cy="195.80376"
     inkscape:cx="278.80016"
     inkscape:zoom="3.959798"
     inkscape:pageshadow="2"
     inkscape:pageopacity="0.0"
     borderopacity="1.0"
     bordercolor="#666666"
     pagecolor="#ffffff"
     id="base">
    <inkscape:grid
       id="grid10576"
       type="xygrid" />
  </sodipodi:namedview>
  <metadata
     id="metadata10010">
    <rdf:RDF>
      <cc:Work
         rdf:about="">
        <dc:format>image/svg+xml</dc:format>
        <dc:type
           rdf:resource="http://purl.org/dc/dcmitype/StillImage" />
        <dc:title></dc:title>
      </cc:Work>
    </rdf:RDF>
  </metadata>
  <g
     id="layer1"
     inkscape:groupmode="layer"
     inkscape:label="Слой 1">
    <path
       id="path10953"
       d="m 106.7728,45 h 2.005 v 4 h -2.005 z"
       style="fill:#d87408;stroke:#000000;stroke-width:0.2;stroke-linejoin:round" />
    <path
       id="path10719"
       d="m 101.7718,46.459 -0.046,-1.9231 3.994,-0.2027 0.052,2.0839 z"
       style="fill:#d87408;stroke:#000000;stroke-width:0.2;stroke-linejoin:round" />
    <path
       id="path10717"
       d="m 101.7628,48.4215 0.009,-1.9625 4,-0.0419 -0.009,2.0462 z"
       style="fill:#d87408;stroke:#000000;stroke-width:0.2;stroke-linejoin:round" />
    <path
       id="path10715"
       d="m 101.6548,50.2408 0.108,-1.8193 4,0.0418 -0.128,2.1803 z"
       style="fill:#d87408;stroke:#000000;stroke-width:0.2;stroke-linejoin:round" />
    <path
       id="path10951"
       d="m 104.7688,45 h 2.004 v 4 h -2.004 z"
       style="fill:#d87408;stroke:#000000;stroke-width:0.2;stroke-linejoin:round" />
    <path
       id="path10949"
       d="m 102.7638,45 h 2.005 v 4 h -2.005 z"
       style="fill:#d87408;stroke:#000000;stroke-width:0.2;stroke-linejoin:round" />
    <path
       id="path10947"
       d="m 100.7598,45 h 2.004 v 4 h -2.004 z"
       style="fill:#d87408;stroke:#000000;stroke-width:0.2;stroke-linejoin:round" />
    <path
       id="path10945"
       d="m 98.7549,45 h 2.0049 v 4 h -2.0049 z"
       style="fill:#d87408;stroke:#000000;stroke-width:0.2;stroke-linejoin:round" />
    <path
       id="path10943"
       d="m 96.7503,45 h 2.0046 v 4 h -2.0046 z"
       style="fill:#d87408;stroke:#000000;stroke-width:0.2;stroke-linejoin:round" />
    <path
       id="path10941"
       d="m 94.7458,45 h 2.0045 v 4 h -2.0045 z"
       style="fill:#d87408;stroke:#000000;stroke-width:0.2;stroke-linejoin:round" />
    <path
       id="path10939"
       d="M 93.3953,44.9469 94.7458,45 v 4 l -2.624,-0.2642 z"
       style="fill:#d87408;stroke:#000000;stroke-width:0.2;stroke-linejoin:round" />
    <path
       id="path10937"
       d="m 92.5888,44.4281 0.8065,0.5188 -1.2735,3.7889 -2.5147,-1.6426 z"
       style="fill:#d87408;stroke:#000000;stroke-width:0.2;stroke-linejoin:round" />
    <path
       id="path10935"
       d="m 91.6294,43.1022 0.9594,1.3259 -2.9817,2.6651 -1.3921,-1.9089 z"
       style="fill:#d87408;stroke:#000000;stroke-width:0.2;stroke-linejoin:round" />
    <path
       id="path10933"
       d="m 90.748,41.4535 0.8814,1.6487 -3.4144,2.0821 -1.0135,-1.8821 z"
       style="fill:#d87408;stroke:#000000;stroke-width:0.2;stroke-linejoin:round" />
    <path
       id="path10931"
       d="m 89.8215,39.6762 0.9265,1.7773 -3.5465,1.8487 -0.9265,-1.7773 z"
       style="fill:#d87408;stroke:#000000;stroke-width:0.2;stroke-linejoin:round" />
    <path
       id="path10929"
       d="m 88.6031,37.7114 1.2184,1.9648 -3.5465,1.8487 -0.8877,-1.438 z"
       style="fill:#d87408;stroke:#000000;stroke-width:0.2;stroke-linejoin:round" />
    <path
       id="path10927"
       d="m 86.6422,35.8267 1.9609,1.8847 -3.2158,2.3755 -0.8928,-0.8881 z"
       style="fill:#d87408;stroke:#000000;stroke-width:0.2;stroke-linejoin:round" />
    <path
       id="path10925"
       d="m 83.5365,35.0126 3.1057,0.8141 -2.1477,3.3721 -0.7062,-0.1969 z"
       style="fill:#d87408;stroke:#000000;stroke-width:0.2;stroke-linejoin:round" />
    <path
       id="path10923"
       d="m 80.7183,35.9509 2.8182,-0.9383 0.2518,3.9893 -0.9222,0.3211 z"
       style="fill:#d87408;stroke:#000000;stroke-width:0.2;stroke-linejoin:round" />
    <path
       id="path10759"
       d="m 76.3304,41.6311 -0.8719,-1.4479 3.2157,-2.3755 1.2027,1.9747 z"
       style="fill:#d87408;stroke:#000000;stroke-width:0.2;stroke-linejoin:round" />
    <path
       id="path10921"
       d="m 78.8151,37.8974 1.9032,-1.9465 2.1478,3.3721 -0.8352,0.9499 z"
       style="fill:#d87408;stroke:#000000;stroke-width:0.2;stroke-linejoin:round" />
    <path
       id="path10757"
       d="m 77.2569,43.4084 -0.9265,-1.7773 3.5465,-1.8487 0.9265,1.7773 z"
       style="fill:#d87408;stroke:#000000;stroke-width:0.2;stroke-linejoin:round" />
    <path
       id="path10919"
       d="m 77.6271,39.8813 1.188,-1.9839 3.2158,2.3755 -0.8573,1.4571 z"
       style="fill:#d87408;stroke:#000000;stroke-width:0.2;stroke-linejoin:round" />
    <path
       id="path10753"
       d="m 79.8013,47.2892 -1.5239,-2.0026 3.4144,-2.0822 0.8738,1.1953 z"
       style="fill:#d87408;stroke:#000000;stroke-width:0.2;stroke-linejoin:round" />
    <path
       id="path10755"
       d="m 78.2774,45.2866 -1.0205,-1.8782 3.5465,-1.8487 0.8884,1.6447 z"
       style="fill:#d87408;stroke:#000000;stroke-width:0.2;stroke-linejoin:round" />
    <path
       id="path10917"
       d="m 76.7007,41.6586 0.9264,-1.7773 3.5465,1.8487 -0.9264,1.7773 z"
       style="fill:#d87408;stroke:#000000;stroke-width:0.2;stroke-linejoin:round" />
    <path
       id="path10915"
       d="m 75.8057,43.2996 0.895,-1.641 3.5465,1.8487 -1.0271,1.8745 z"
       style="fill:#d87408;stroke:#000000;stroke-width:0.2;stroke-linejoin:round" />
    <path
       id="path10913"
       d="m 74.9094,44.4768 0.8963,-1.1772 3.4144,2.0822 -1.5464,1.9845 z"
       style="fill:#d87408;stroke:#000000;stroke-width:0.2;stroke-linejoin:round" />
    <path
       id="path10911"
       d="m 74.1909,44.9429 0.7185,-0.4661 2.7643,2.8895 -2.7145,1.4992 z"
       style="fill:#d87408;stroke:#000000;stroke-width:0.2;stroke-linejoin:round" />
    <path
       id="path10909"
       d="m 72.5785,45 1.6124,-0.0571 0.7683,3.9226 L 72.5785,49 Z"
       style="fill:#d87408;stroke:#000000;stroke-width:0.2;stroke-linejoin:round" />
    <path
       id="path10907"
       d="m 70.5739,45 h 2.0046 v 4 h -2.0046 z"
       style="fill:#d87408;stroke:#000000;stroke-width:0.2;stroke-linejoin:round" />
    <path
       id="path10905"
       d="m 68.5693,45 h 2.0046 v 4 h -2.0046 z"
       style="fill:#d87408;stroke:#000000;stroke-width:0.2;stroke-linejoin:round" />
    <path
       id="path10903"
       d="m 66.5647,45 h 2.0046 v 4 h -2.0046 z"
       style="fill:#d87408;stroke:#000000;stroke-width:0.2;stroke-linejoin:round" />
    <path
       id="path10901"
       d="m 64.5602,45 h 2.0045 v 4 h -2.0045 z"
       style="fill:#d87408;stroke:#000000;stroke-width:0.2;stroke-linejoin:round" />
    <path
       id="path10899"
       d="m 62.5556,45 h 2.0046 v 4 h -2.0046 z"
       style="fill:#d87408;stroke:#000000;stroke-width:0.2;stroke-linejoin:round" />
    <path
       id="path10897"
       d="m 60.551,45 h 2.0046 v 4 H 60.551 Z"
       style="fill:#d87408;stroke:#000000;stroke-width:0.2;stroke-linejoin:round" />
    <path
       id="path10895"
       d="m 58.5464,45 h 2.0046 v 4 h -2.0046 z"
       style="fill:#d87408;stroke:#000000;stroke-width:0.2;stroke-linejoin:round" />
    <path
       id="path10893"
       d="m 56.5419,45 h 2.0045 v 4 h -2.0045 z"
       style="fill:#d87408;stroke:#000000;stroke-width:0.2;stroke-linejoin:round" />
    <path
       id="path10891"
       d="m 54.5373,45 h 2.0046 v 4 h -2.0046 z"
       style="fill:#d87408;stroke:#000000;stroke-width:0.2;stroke-linejoin:round" />
    <path
       id="path10889"
       d="m 52.5327,45 h 2.0046 v 4 h -2.0046 z"
       style="fill:#d87408;stroke:#000000;stroke-width:0.2;stroke-linejoin:round" />
    <path
       id="path10887"
       d="m 50.5281,45 h 2.0046 v 4 h -2.0046 z"
       style="fill:#d87408;stroke:#000000;stroke-width:0.2;stroke-linejoin:round" />
    <path
       id="path10885"
       d="m 48.5236,45 h 2.0045 v 4 h -2.0045 z"
       style="fill:#d87408;stroke:#000000;stroke-width:0.2;stroke-linejoin:round" />
    <path
       id="path10883"
       d="m 46.519,45 h 2.0046 v 4 H 46.519 Z"
       style="fill:#d87408;stroke:#000000;stroke-width:0.2;stroke-linejoin:round" />
    <path
       id="path10881"
       d="m 44.5144,45 h 2.0046 v 4 h -2.0046 z"
       style="fill:#d87408;stroke:#000000;stroke-width:0.2;stroke-linejoin:round" />
    <path
       id="path10879"
       d="m 42.5098,45 h 2.0046 v 4 h -2.0046 z"
       style="fill:#d87408;stroke:#000000;stroke-width:0.2;stroke-linejoin:round" />
    <path
       id="path10877"
       d="m 40.5053,45 h 2.0045 v 4 h -2.0045 z"
       style="fill:#d87408;stroke:#000000;stroke-width:0.2;stroke-linejoin:round" />
    <path
       id="path10875"
       d="m 38.5007,45 h 2.0046 v 4 h -2.0046 z"
       style="fill:#d87408;stroke:#000000;stroke-width:0.2;stroke-linejoin:round" />
    <path
       id="path10873"
       d="m 36.4961,45 h 2.0046 v 4 h -2.0046 z"
       style="fill:#d87408;stroke:#000000;stroke-width:0.2;stroke-linejoin:round" />
    <path
       id="path10871"
       d="m 34.4915,45 h 2.0046 v 4 h -2.0046 z"
       style="fill:#d87408;stroke:#000000;stroke-width:0.2;stroke-linejoin:round" />
    <path
       id="path10869"
       d="M 32.4227,45.0435 34.4915,45 v 4 l -1.9385,0.0406 z"
       style="fill:#d87408;stroke:#000000;stroke-width:0.2;stroke-linejoin:round" />
    <path
       id="path10867"
       d="m 30.2773,45.2351 2.1454,-0.1916 0.1303,3.9971 -1.8442,0.17 z"
       style="fill:#d87408;stroke:#000000;stroke-width:0.2;stroke-linejoin:round" />
    <path
       id="path10865"
       d="m 27.8752,45.7817 2.4021,-0.5466 0.4315,3.9755 -1.5028,0.3425 z"
       style="fill:#d87408;stroke:#000000;stroke-width:0.2;stroke-linejoin:round" />
    <path
       id="path10863"
       d="m 25.6843,46.7885 2.1909,-1.0068 1.3308,3.7714 -1.4456,0.6533 z"
       style="fill:#d87408;stroke:#000000;stroke-width:0.2;stroke-linejoin:round" />
    <path
       id="path10861"
       d="m 23.622,48.6575 2.0623,-1.869 2.0761,3.4179 -0.9002,0.7975 z"
       style="fill:#d87408;stroke:#000000;stroke-width:0.2;stroke-linejoin:round" />
    <path
       id="path10859"
       d="m 22.4379,50.9217 1.1841,-2.2642 3.2382,2.3464 -0.6597,1.2736 z"
       style="fill:#d87408;stroke:#000000;stroke-width:0.2;stroke-linejoin:round" />
    <path
       id="path10857"
       d="m 21.9213,53.3564 0.5166,-2.4347 3.7626,1.3558 -0.3002,1.4817 z"
       style="fill:#d87408;stroke:#000000;stroke-width:0.2;stroke-linejoin:round" />
    <path
       id="path10619"
       d="m 20.7824,55 h 2.0046 v 4 h -2.0046 z"
       style="fill:#d87408;stroke:#000000;stroke-width:0.2;stroke-linejoin:round" />
    <path
       id="path10621"
       d="m 22.787,55 h 2.0045 v 4 H 22.787 Z"
       style="fill:#d87408;stroke:#000000;stroke-width:0.2;stroke-linejoin:round" />
    <path
       id="path10623"
       d="m 24.7915,55 h 2.0046 v 4 h -2.0046 z"
       style="fill:#d87408;stroke:#000000;stroke-width:0.2;stroke-linejoin:round" />
    <path
       id="path10855"
       d="m 21.7931,55.5367 0.1282,-2.1803 3.979,0.4028 -0.1076,1.8193 z"
       style="fill:#d87408;stroke:#000000;stroke-width:0.2;stroke-linejoin:round" />
    <path
       id="path10853"
       d="m 21.7839,57.5829 0.0092,-2.0462 3.9996,0.0418 -0.0092,1.9625 z"
       style="fill:#d87408;stroke:#000000;stroke-width:0.2;stroke-linejoin:round" />
    <path
       id="path10851"
       d="m 21.8356,59.6668 -0.0517,-2.0839 3.9996,-0.0419 0.0466,1.9231 z"
       style="fill:#d87408;stroke:#000000;stroke-width:0.2;stroke-linejoin:round" />
    <path
       id="path10849"
       d="m 22.1569,62.0704 -0.3213,-2.4036 3.9945,-0.2027 0.1879,1.5683 z"
       style="fill:#d87408;stroke:#000000;stroke-width:0.2;stroke-linejoin:round" />
    <path
       id="path10847"
       d="m 22.9874,64.3493 -0.8305,-2.2789 3.8611,-1.038 0.5219,1.4802 z"
       style="fill:#d87408;stroke:#000000;stroke-width:0.2;stroke-linejoin:round" />
    <path
       id="path10845"
       d="m 24.723,66.5075 -1.7356,-2.1582 3.5525,-1.8367 0.7662,0.9422 z"
       style="fill:#d87408;stroke:#000000;stroke-width:0.2;stroke-linejoin:round" />
    <path
       id="path10843"
       d="m 26.9322,67.8605 -2.2092,-1.353 2.5831,-3.0527 1.1966,0.7277 z"
       style="fill:#d87408;stroke:#000000;stroke-width:0.2;stroke-linejoin:round" />
    <path
       id="path10841"
       d="m 29.1811,68.5662 -2.2489,-0.7057 1.5705,-3.678 1.5712,0.4851 z"
       style="fill:#d87408;stroke:#000000;stroke-width:0.2;stroke-linejoin:round" />
    <path
       id="path10839"
       d="m 31.3944,68.8862 -2.2133,-0.32 0.8928,-3.8986 1.7521,0.2431 z"
       style="fill:#d87408;stroke:#000000;stroke-width:0.2;stroke-linejoin:round" />
    <path
       id="path10837"
       d="m 33.5459,68.9931 -2.1515,-0.1069 0.4316,-3.9755 1.8502,0.0853 z"
       style="fill:#d87408;stroke:#000000;stroke-width:0.2;stroke-linejoin:round" />
    <path
       id="path10835"
       d="m 36.5991,68.2008 -3.0532,0.7923 0.1303,-3.9971 0.7752,-0.1673 z"
       style="fill:#d87408;stroke:#000000;stroke-width:0.2;stroke-linejoin:round" />
    <path
       id="path10833"
       d="m 38.5727,66.3297 -1.9736,1.8711 -2.1477,-3.3721 0.9056,-0.8745 z"
       style="fill:#d87408;stroke:#000000;stroke-width:0.2;stroke-linejoin:round" />
    <path
       id="path10831"
       d="m 39.7979,64.3692 -1.2252,1.9605 -3.2157,-2.3755 0.8944,-1.4337 z"
       style="fill:#d87408;stroke:#000000;stroke-width:0.2;stroke-linejoin:round" />
    <path
       id="path10829"
       d="m 40.7244,62.5919 -0.9265,1.7773 -3.5465,-1.8487 0.9265,-1.7773 z"
       style="fill:#d87408;stroke:#000000;stroke-width:0.2;stroke-linejoin:round" />
    <path
       id="path10827"
       d="m 41.6028,60.9415 -0.8784,1.6504 -3.5465,-1.8487 1.0105,-1.8839 z"
       style="fill:#d87408;stroke:#000000;stroke-width:0.2;stroke-linejoin:round" />
    <path
       id="path10825"
       d="m 42.5547,59.61 -0.9519,1.3315 -3.4144,-2.0822 1.3846,-1.9144 z"
       style="fill:#d87408;stroke:#000000;stroke-width:0.2;stroke-linejoin:round" />
    <path
       id="path10823"
       d="M 43.3468,59.0694 42.5547,59.61 39.573,56.9449 42.0733,55.2805 Z"
       style="fill:#d87408;stroke:#000000;stroke-width:0.2;stroke-linejoin:round" />
    <path
       id="path10821"
       d="m 44.0468,59.015 -0.7,0.0544 -1.2735,-3.7889 3.2471,-0.0544 z"
       style="fill:#d87408;stroke:#000000;stroke-width:0.2;stroke-linejoin:round" />
    <path
       id="path10819"
       d="m 44.99,59.6003 -0.9432,-0.5853 1.2736,-3.7889 2.4339,1.4847 z"
       style="fill:#d87408;stroke:#000000;stroke-width:0.2;stroke-linejoin:round" />
    <path
       id="path10657"
       d="m 48.3355,58.6182 1.5464,-1.9845 2.7643,2.8895 -0.8963,1.1772 z"
       style="fill:#d87408;stroke:#000000;stroke-width:0.2;stroke-linejoin:round" />
    <path
       id="path10655"
       d="m 47.3084,60.4927 1.0271,-1.8745 3.4144,2.0822 -0.895,1.641 z"
       style="fill:#d87408;stroke:#000000;stroke-width:0.2;stroke-linejoin:round" />
    <path
       id="path10817"
       d="m 45.8638,60.7956 -0.8738,-1.1953 2.7643,-2.8895 1.5239,2.0026 z"
       style="fill:#d87408;stroke:#000000;stroke-width:0.2;stroke-linejoin:round" />
    <path
       id="path10653"
       d="m 46.382,62.27 0.9264,-1.7773 3.5465,1.8487 -0.9264,1.7773 z"
       style="fill:#d87408;stroke:#000000;stroke-width:0.2;stroke-linejoin:round" />
    <path
       id="path10815"
       d="m 46.7522,62.4403 -0.8884,-1.6447 3.4144,-2.0822 1.0205,1.8782 z"
       style="fill:#d87408;stroke:#000000;stroke-width:0.2;stroke-linejoin:round" />
    <path
       id="path10651"
       d="m 45.5247,63.7271 0.8573,-1.4571 3.5465,1.8487 -1.188,1.9839 z"
       style="fill:#d87408;stroke:#000000;stroke-width:0.2;stroke-linejoin:round" />
    <path
       id="path10813"
       d="m 47.6787,64.2176 -0.9265,-1.7773 3.5465,-1.8487 0.9265,1.7773 z"
       style="fill:#d87408;stroke:#000000;stroke-width:0.2;stroke-linejoin:round" />
    <path
       id="path10811"
       d="m 48.8814,66.1923 -1.2027,-1.9747 3.5465,-1.8487 0.8719,1.4479 z"
       style="fill:#d87408;stroke:#000000;stroke-width:0.2;stroke-linejoin:round" />
    <path
       id="path10809"
       d="m 50.8124,68.109 -1.931,-1.9167 3.2157,-2.3755 0.863,0.9201 z"
       style="fill:#d87408;stroke:#000000;stroke-width:0.2;stroke-linejoin:round" />
    <path
       id="path10807"
       d="m 53.6478,68.9944 -2.8354,-0.8854 2.1477,-3.3721 0.9395,0.2682 z"
       style="fill:#d87408;stroke:#000000;stroke-width:0.2;stroke-linejoin:round" />
    <path
       id="path10805"
       d="m 56.0358,68.8652 -2.388,0.1292 0.2518,-3.9893 1.6112,-0.1047 z"
       style="fill:#d87408;stroke:#000000;stroke-width:0.2;stroke-linejoin:round" />
    <path
       id="path10803"
       d="m 58.2488,68.4213 -2.213,0.4439 -0.525,-3.9648 1.712,-0.3444 z"
       style="fill:#d87408;stroke:#000000;stroke-width:0.2;stroke-linejoin:round" />
    <path
       id="path10801"
       d="m 60.6522,67.3852 -2.4034,1.0361 -1.026,-3.8653 1.2727,-0.5382 z"
       style="fill:#d87408;stroke:#000000;stroke-width:0.2;stroke-linejoin:round" />
    <path
       id="path10799"
       d="m 62.5967,65.8127 -1.9445,1.5725 -2.1567,-3.3674 1.1706,-0.9259 z"
       style="fill:#d87408;stroke:#000000;stroke-width:0.2;stroke-linejoin:round" />
    <path
       id="path10797"
       d="M 64.0833,63.6896 62.5967,65.8127 59.6661,63.0919 60.4822,61.95 Z"
       style="fill:#d87408;stroke:#000000;stroke-width:0.2;stroke-linejoin:round" />
    <path
       id="path10795"
       d="M 64.942,61.4667 64.0833,63.6896 60.4822,61.95 61.076,60.4454 Z"
       style="fill:#d87408;stroke:#000000;stroke-width:0.2;stroke-linejoin:round" />
    <path
       id="path10793"
       d="m 65.4054,59.3528 -0.4634,2.1139 -3.866,-1.0213 0.393,-1.7981 z"
       style="fill:#d87408;stroke:#000000;stroke-width:0.2;stroke-linejoin:round" />
    <path
       id="path10791"
       d="m 65.6506,57.1432 -0.2452,2.2096 -3.9364,-0.7055 0.1909,-1.7735 z"
       style="fill:#d87408;stroke:#000000;stroke-width:0.2;stroke-linejoin:round" />
    <path
       id="path10789"
       d="m 65.75,55.0742 -0.0994,2.069 -3.9907,-0.2694 0.0925,-1.9348 z"
       style="fill:#d87408;stroke:#000000;stroke-width:0.2;stroke-linejoin:round" />
    <path
       id="path10787"
       d="M 65.7707,53.0162 65.75,55.0742 61.7524,54.939 61.7709,52.9883 Z"
       style="fill:#d87408;stroke:#000000;stroke-width:0.2;stroke-linejoin:round" />
    <path
       id="path10785"
       d="m 65.7847,51.0117 -0.014,2.0045 -3.9998,-0.0279 0.014,-2.0045 z"
       style="fill:#d87408;stroke:#000000;stroke-width:0.2;stroke-linejoin:round" />
    <path
       id="path10783"
       d="m 65.8032,49.061 -0.0185,1.9507 -3.9998,-0.0279 0.0207,-2.058 z"
       style="fill:#d87408;stroke:#000000;stroke-width:0.2;stroke-linejoin:round" />
    <path
       id="path10781"
       d="m 65.8957,47.1262 -0.0925,1.9348 -3.9976,-0.1352 0.0994,-2.069 z"
       style="fill:#d87408;stroke:#000000;stroke-width:0.2;stroke-linejoin:round" />
    <path
       id="path10779"
       d="m 66.0866,45.3527 -0.1909,1.7735 -3.9907,-0.2694 0.2452,-2.2096 z"
       style="fill:#d87408;stroke:#000000;stroke-width:0.2;stroke-linejoin:round" />
    <path
       id="path10777"
       d="m 66.4796,43.5546 -0.393,1.7981 -3.9364,-0.7055 0.4634,-2.1139 z"
       style="fill:#d87408;stroke:#000000;stroke-width:0.2;stroke-linejoin:round" />
    <path
       id="path10775"
       d="m 67.0734,42.05 -0.5938,1.5046 -3.866,-1.0213 0.8587,-2.2229 z"
       style="fill:#d87408;stroke:#000000;stroke-width:0.2;stroke-linejoin:round" />
    <path
       id="path10773"
       d="M 67.8895,40.9081 67.0734,42.05 63.4723,40.3104 64.9589,38.1873 Z"
       style="fill:#d87408;stroke:#000000;stroke-width:0.2;stroke-linejoin:round" />
    <path
       id="path10771"
       d="m 69.0601,39.9822 -1.1706,0.9259 -2.9306,-2.7208 1.9445,-1.5725 z"
       style="fill:#d87408;stroke:#000000;stroke-width:0.2;stroke-linejoin:round" />
    <path
       id="path10769"
       d="m 70.3328,39.444 -1.2727,0.5382 -2.1567,-3.3674 2.4034,-1.0361 z"
       style="fill:#d87408;stroke:#000000;stroke-width:0.2;stroke-linejoin:round" />
    <path
       id="path10767"
       d="m 72.0448,39.0996 -1.712,0.3444 -1.026,-3.8653 2.213,-0.4439 z"
       style="fill:#d87408;stroke:#000000;stroke-width:0.2;stroke-linejoin:round" />
    <path
       id="path10765"
       d="m 73.656,38.9949 -1.6112,0.1047 -0.525,-3.9648 2.388,-0.1292 z"
       style="fill:#d87408;stroke:#000000;stroke-width:0.2;stroke-linejoin:round" />
    <path
       id="path10763"
       d="m 74.5955,39.2631 -0.9395,-0.2682 0.2518,-3.9893 2.8354,0.8854 z"
       style="fill:#d87408;stroke:#000000;stroke-width:0.2;stroke-linejoin:round" />
    <path
       id="path10761"
       d="m 75.4585,40.1832 -0.863,-0.9201 2.1477,-3.3721 1.931,1.9167 z"
       style="fill:#d87408;stroke:#000000;stroke-width:0.2;stroke-linejoin:round" />
    <path
       id="path10751"
       d="m 82.2352,48.7739 -2.4339,-1.4847 2.7643,-2.8895 0.9432,0.5853 z"
       style="fill:#d87408;stroke:#000000;stroke-width:0.2;stroke-linejoin:round" />
    <path
       id="path10749"
       d="m 85.4823,48.7195 -3.2471,0.0544 1.2736,-3.7889 0.7,-0.0544 z"
       style="fill:#d87408;stroke:#000000;stroke-width:0.2;stroke-linejoin:round" />
    <path
       id="path10747"
       d="M 87.9826,47.0551 85.4823,48.7195 84.2088,44.9306 85.0009,44.39 Z"
       style="fill:#d87408;stroke:#000000;stroke-width:0.2;stroke-linejoin:round" />
    <path
       id="path10745"
       d="M 89.3672,45.1407 87.9826,47.0551 85.0009,44.39 85.9528,43.0585 Z"
       style="fill:#d87408;stroke:#000000;stroke-width:0.2;stroke-linejoin:round" />
    <path
       id="path10743"
       d="m 90.3777,43.2568 -1.0105,1.8839 -3.4144,-2.0822 0.8784,-1.6504 z"
       style="fill:#d87408;stroke:#000000;stroke-width:0.2;stroke-linejoin:round" />
    <path
       id="path10741"
       d="m 91.3042,41.4795 -0.9265,1.7773 -3.5465,-1.8487 0.9265,-1.7773 z"
       style="fill:#d87408;stroke:#000000;stroke-width:0.2;stroke-linejoin:round" />
    <path
       id="path10739"
       d="m 92.1986,40.0458 -0.8944,1.4337 -3.5465,-1.8487 1.2252,-1.9605 z"
       style="fill:#d87408;stroke:#000000;stroke-width:0.2;stroke-linejoin:round" />
    <path
       id="path10737"
       d="m 93.1042,39.1713 -0.9056,0.8745 -3.2157,-2.3755 1.9736,-1.8711 z"
       style="fill:#d87408;stroke:#000000;stroke-width:0.2;stroke-linejoin:round" />
    <path
       id="path10735"
       d="m 93.8794,39.004 -0.7752,0.1673 -2.1477,-3.3721 3.0532,-0.7923 z"
       style="fill:#d87408;stroke:#000000;stroke-width:0.2;stroke-linejoin:round" />
    <path
       id="path10733"
       d="m 95.7296,39.0893 -1.8502,-0.0853 0.1303,-3.9971 2.1515,0.1069 z"
       style="fill:#d87408;stroke:#000000;stroke-width:0.2;stroke-linejoin:round" />
    <path
       id="path10731"
       d="m 97.4817,39.3324 -1.7521,-0.2431 0.4316,-3.9755 2.2133,0.32 z"
       style="fill:#d87408;stroke:#000000;stroke-width:0.2;stroke-linejoin:round" />
    <path
       id="path10729"
       d="m 99.0528,39.8175 -1.5711,-0.4851 0.8928,-3.8986 2.2493,0.7057 z"
       style="fill:#d87408;stroke:#000000;stroke-width:0.2;stroke-linejoin:round" />
    <path
       id="path10727"
       d="m 100.2498,40.5452 -1.197,-0.7277 1.571,-3.678 2.209,1.353 z"
       style="fill:#d87408;stroke:#000000;stroke-width:0.2;stroke-linejoin:round" />
    <path
       id="path10725"
       d="m 101.0158,41.4874 -0.766,-0.9422 2.583,-3.0527 1.735,2.1582 z"
       style="fill:#d87408;stroke:#000000;stroke-width:0.2;stroke-linejoin:round" />
    <path
       id="path10723"
       d="m 101.5378,42.9676 -0.522,-1.4802 3.552,-1.8367 0.831,2.2789 z"
       style="fill:#d87408;stroke:#000000;stroke-width:0.2;stroke-linejoin:round" />
    <path
       id="path10721"
       d="m 101.7258,44.5359 -0.188,-1.5683 3.861,-1.038 0.321,2.4036 z"
       style="fill:#d87408;stroke:#000000;stroke-width:0.2;stroke-linejoin:round" />
    <path
       id="path10713"
       d="m 101.3548,51.7225 0.3,-1.4817 3.98,0.4028 -0.517,2.4347 z"
       style="fill:#d87408;stroke:#000000;stroke-width:0.2;stroke-linejoin:round" />
    <path
       id="path10711"
       d="m 100.6958,52.9961 0.659,-1.2736 3.763,1.3558 -1.184,2.2642 z"
       style="fill:#d87408;stroke:#000000;stroke-width:0.2;stroke-linejoin:round" />
    <path
       id="path10709"
       d="m 99.7948,53.7936 0.901,-0.7975 3.238,2.3464 -2.063,1.869 z"
       style="fill:#d87408;stroke:#000000;stroke-width:0.2;stroke-linejoin:round" />
    <path
       id="path10707"
       d="m 98.3496,54.4469 1.4452,-0.6533 2.076,3.4179 -2.19,1.0068 z"
       style="fill:#d87408;stroke:#000000;stroke-width:0.2;stroke-linejoin:round" />
    <path
       id="path10705"
       d="m 96.8468,54.7894 1.5028,-0.3425 1.3312,3.7714 -2.4025,0.5466 z"
       style="fill:#d87408;stroke:#000000;stroke-width:0.2;stroke-linejoin:round" />
    <path
       id="path10703"
       d="m 95.0026,54.9594 1.8442,-0.17 0.4315,3.9755 -2.1454,0.1916 z"
       style="fill:#d87408;stroke:#000000;stroke-width:0.2;stroke-linejoin:round" />
    <path
       id="path10701"
       d="m 93.0641,55 1.9385,-0.0406 0.1303,3.9971 L 93.0641,59 Z"
       style="fill:#d87408;stroke:#000000;stroke-width:0.2;stroke-linejoin:round" />
    <path
       id="path10699"
       d="m 91.0595,55 h 2.0046 v 4 h -2.0046 z"
       style="fill:#d87408;stroke:#000000;stroke-width:0.2;stroke-linejoin:round" />
    <path
       id="path10697"
       d="m 89.0549,55 h 2.0046 v 4 h -2.0046 z"
       style="fill:#d87408;stroke:#000000;stroke-width:0.2;stroke-linejoin:round" />
    <path
       id="path10695"
       d="m 87.0503,55 h 2.0046 v 4 h -2.0046 z"
       style="fill:#d87408;stroke:#000000;stroke-width:0.2;stroke-linejoin:round" />
    <path
       id="path10693"
       d="m 85.0458,55 h 2.0045 v 4 h -2.0045 z"
       style="fill:#d87408;stroke:#000000;stroke-width:0.2;stroke-linejoin:round" />
    <path
       id="path10691"
       d="m 83.0412,55 h 2.0046 v 4 h -2.0046 z"
       style="fill:#d87408;stroke:#000000;stroke-width:0.2;stroke-linejoin:round" />
    <path
       id="path10689"
       d="m 81.0366,55 h 2.0046 v 4 h -2.0046 z"
       style="fill:#d87408;stroke:#000000;stroke-width:0.2;stroke-linejoin:round" />
    <path
       id="path10687"
       d="m 79.032,55 h 2.0046 v 4 H 79.032 Z"
       style="fill:#d87408;stroke:#000000;stroke-width:0.2;stroke-linejoin:round" />
    <path
       id="path10685"
       d="m 77.0275,55 h 2.0045 v 4 h -2.0045 z"
       style="fill:#d87408;stroke:#000000;stroke-width:0.2;stroke-linejoin:round" />
    <path
       id="path10683"
       d="m 75.0229,55 h 2.0046 v 4 h -2.0046 z"
       style="fill:#d87408;stroke:#000000;stroke-width:0.2;stroke-linejoin:round" />
    <path
       id="path10681"
       d="m 73.0183,55 h 2.0046 v 4 h -2.0046 z"
       style="fill:#d87408;stroke:#000000;stroke-width:0.2;stroke-linejoin:round" />
    <path
       id="path10679"
       d="m 71.0137,55 h 2.0046 v 4 h -2.0046 z"
       style="fill:#d87408;stroke:#000000;stroke-width:0.2;stroke-linejoin:round" />
    <path
       id="path10677"
       d="m 69.0092,55 h 2.0045 v 4 h -2.0045 z"
       style="fill:#d87408;stroke:#000000;stroke-width:0.2;stroke-linejoin:round" />
    <path
       id="path10675"
       d="m 67.0046,55 h 2.0046 v 4 h -2.0046 z"
       style="fill:#d87408;stroke:#000000;stroke-width:0.2;stroke-linejoin:round" />
    <path
       id="path10673"
       d="m 65,55 h 2.0046 v 4 H 65 Z"
       style="fill:#d87408;stroke:#000000;stroke-width:0.2;stroke-linejoin:round" />
    <path
       id="path10671"
       d="M 62.9954,55 H 65 v 4 h -2.0046 z"
       style="fill:#d87408;stroke:#000000;stroke-width:0.2;stroke-linejoin:round" />
    <path
       id="path10669"
       d="m 60.9909,55 h 2.0045 v 4 h -2.0045 z"
       style="fill:#d87408;stroke:#000000;stroke-width:0.2;stroke-linejoin:round" />
    <path
       id="path10667"
       d="m 58.9863,55 h 2.0046 v 4 h -2.0046 z"
       style="fill:#d87408;stroke:#000000;stroke-width:0.2;stroke-linejoin:round" />
    <path
       id="path10665"
       d="m 56.9817,55 h 2.0046 v 4 h -2.0046 z"
       style="fill:#d87408;stroke:#000000;stroke-width:0.2;stroke-linejoin:round" />
    <path
       id="path10663"
       d="m 54.9771,55 h 2.0046 v 4 h -2.0046 z"
       style="fill:#d87408;stroke:#000000;stroke-width:0.2;stroke-linejoin:round" />
    <path
       id="path10661"
       d="M 52.5964,55.1345 54.9771,55 v 4 l -1.6124,0.0571 z"
       style="fill:#d87408;stroke:#000000;stroke-width:0.2;stroke-linejoin:round" />
    <path
       id="path10659"
       d="m 49.8819,56.6337 2.7145,-1.4992 0.7683,3.9226 -0.7185,0.4661 z"
       style="fill:#d87408;stroke:#000000;stroke-width:0.2;stroke-linejoin:round" />
    <path
       id="path10649"
       d="m 44.6895,64.677 0.8352,-0.9499 3.2158,2.3755 -1.9032,1.9465 z"
       style="fill:#d87408;stroke:#000000;stroke-width:0.2;stroke-linejoin:round" />
    <path
       id="path10647"
       d="m 43.7673,64.9981 0.9222,-0.3211 2.1478,3.3721 -2.8182,0.9383 z"
       style="fill:#d87408;stroke:#000000;stroke-width:0.2;stroke-linejoin:round" />
    <path
       id="path10645"
       d="m 43.0611,64.8012 0.7062,0.1969 0.2518,3.9893 -3.1057,-0.8141 z"
       style="fill:#d87408;stroke:#000000;stroke-width:0.2;stroke-linejoin:round" />
    <path
       id="path10643"
       d="m 42.1683,63.9131 0.8928,0.8881 -2.1477,3.3721 -1.9609,-1.8847 z"
       style="fill:#d87408;stroke:#000000;stroke-width:0.2;stroke-linejoin:round" />
    <path
       id="path10641"
       d="m 41.2806,62.4751 0.8877,1.438 -3.2158,2.3755 -1.2184,-1.9648 z"
       style="fill:#d87408;stroke:#000000;stroke-width:0.2;stroke-linejoin:round" />
    <path
       id="path10639"
       d="m 40.3541,60.6978 0.9265,1.7773 -3.5465,1.8487 -0.9265,-1.7773 z"
       style="fill:#d87408;stroke:#000000;stroke-width:0.2;stroke-linejoin:round" />
    <path
       id="path10637"
       d="m 39.3406,58.8157 1.0135,1.8821 -3.5465,1.8487 -0.8814,-1.6487 z"
       style="fill:#d87408;stroke:#000000;stroke-width:0.2;stroke-linejoin:round" />
    <path
       id="path10635"
       d="m 37.9485,56.9068 1.3921,1.9089 -3.4144,2.0821 -0.9594,-1.3259 z"
       style="fill:#d87408;stroke:#000000;stroke-width:0.2;stroke-linejoin:round" />
    <path
       id="path10633"
       d="m 35.4338,55.2642 2.5147,1.6426 -2.9817,2.6651 -0.8065,-0.5188 z"
       style="fill:#d87408;stroke:#000000;stroke-width:0.2;stroke-linejoin:round" />
    <path
       id="path10631"
       d="m 32.8098,55 2.624,0.2642 -1.2735,3.7889 L 32.8098,59 Z"
       style="fill:#d87408;stroke:#000000;stroke-width:0.2;stroke-linejoin:round" />
    <path
       id="path10629"
       d="m 30.8053,55 h 2.0045 v 4 h -2.0045 z"
       style="fill:#d87408;stroke:#000000;stroke-width:0.2;stroke-linejoin:round" />
    <path
       id="path10627"
       d="m 28.8007,55 h 2.0046 v 4 h -2.0046 z"
       style="fill:#d87408;stroke:#000000;stroke-width:0.2;stroke-linejoin:round" />
    <path
       id="path10625"
       d="m 26.7961,55 h 2.0046 v 4 h -2.0046 z"
       style="fill:#d87408;stroke:#000000;stroke-width:0.2;stroke-linejoin:round" />
    <path
       id="rect10604"
       d="m 18.7778,55 h 2.0046 v 4 h -2.0046 z"
       style="fill:#d87408;stroke:#000000;stroke-width:0.2;stroke-linejoin:round" />
  </g>
</svg>
