<?xml version="1.0" encoding="UTF-8" standalone="no"?>
<svg
   xmlns:dc="http://purl.org/dc/elements/1.1/"
   xmlns:cc="http://creativecommons.org/ns#"
   xmlns:rdf="http://www.w3.org/1999/02/22-rdf-syntax-ns#"
   xmlns:svg="http://www.w3.org/2000/svg"
   xmlns="http://www.w3.org/2000/svg"
   xmlns:sodipodi="http://sodipodi.sourceforge.net/DTD/sodipodi-0.dtd"
   xmlns:inkscape="http://www.inkscape.org/namespaces/inkscape"
   sodipodi:docname="eight-like-4-3.svg"
   inkscape:version="1.0 (4035a4fb49, 2020-05-01)"
   width="210mm"
   height="297mm"
   viewBox="0 0 210 297"
   version="1.1"
   id="svg13774">
  <defs
     id="defs13768" />
  <sodipodi:namedview
     inkscape:window-maximized="0"
     inkscape:window-y="1"
     inkscape:window-x="209"
     inkscape:window-height="1040"
     inkscape:window-width="1648"
     showgrid="true"
     inkscape:document-rotation="0"
     inkscape:current-layer="layer1"
     inkscape:document-units="mm"
     inkscape:cy="230.668"
     inkscape:cx="458.52227"
     inkscape:zoom="3.959798"
     inkscape:pageshadow="2"
     inkscape:pageopacity="0.0"
     borderopacity="1.0"
     bordercolor="#666666"
     pagecolor="#ffffff"
     id="base">
    <inkscape:grid
       id="grid14363"
       type="xygrid" />
  </sodipodi:namedview>
  <metadata
     id="metadata13771">
    <rdf:RDF>
      <cc:Work
         rdf:about="">
        <dc:format>image/svg+xml</dc:format>
        <dc:type
           rdf:resource="http://purl.org/dc/dcmitype/StillImage" />
        <dc:title></dc:title>
      </cc:Work>
    </rdf:RDF>
  </metadata>
  <g
     id="layer1"
     inkscape:groupmode="layer"
     inkscape:label="Слой 1">
    <path
       id="path14834"
       d="m 144.9894,45 h 2.002 v 4 h -2.002 z"
       style="fill:#d87408;stroke:#000000;stroke-width:0.2;stroke-linejoin:round" />
    <path
       id="path14554"
       d="m 143.9454,44.5642 0.042,2.0817 -3.999,0.0419 -0.038,-1.9209 z"
       style="fill:#d87408;stroke:#000000;stroke-width:0.2;stroke-linejoin:round" />
    <path
       id="path14556"
       d="m 143.9874,46.6459 -0.014,2.0438 -3.999,-0.0418 0.014,-1.9601 z"
       style="fill:#d87408;stroke:#000000;stroke-width:0.2;stroke-linejoin:round" />
    <path
       id="path14558"
       d="m 143.9734,48.6897 -0.148,2.1767 -3.979,-0.4028 0.128,-1.8157 z"
       style="fill:#d87408;stroke:#000000;stroke-width:0.2;stroke-linejoin:round" />
    <path
       id="path14832"
       d="m 142.9874,45 h 2.002 v 4 h -2.002 z"
       style="fill:#d87408;stroke:#000000;stroke-width:0.2;stroke-linejoin:round" />
    <path
       id="path14830"
       d="m 140.9854,45 h 2.002 v 4 h -2.002 z"
       style="fill:#d87408;stroke:#000000;stroke-width:0.2;stroke-linejoin:round" />
    <path
       id="path14828"
       d="m 138.9824,45 h 2.003 v 4 h -2.003 z"
       style="fill:#d87408;stroke:#000000;stroke-width:0.2;stroke-linejoin:round" />
    <path
       id="path14826"
       d="m 136.9804,45 h 2.002 v 4 h -2.002 z"
       style="fill:#d87408;stroke:#000000;stroke-width:0.2;stroke-linejoin:round" />
    <path
       id="path14824"
       d="m 134.9784,45 h 2.002 v 4 h -2.002 z"
       style="fill:#d87408;stroke:#000000;stroke-width:0.2;stroke-linejoin:round" />
    <path
       id="path14822"
       d="m 132.9764,45 h 2.002 v 4 h -2.002 z"
       style="fill:#d87408;stroke:#000000;stroke-width:0.2;stroke-linejoin:round" />
    <path
       id="path14820"
       d="M 131.6274,44.9531 132.9764,45 v 4 l -2.623,-0.258 z"
       style="fill:#d87408;stroke:#000000;stroke-width:0.2;stroke-linejoin:round" />
    <path
       id="path14818"
       d="m 130.7084,44.332 0.919,0.6211 -1.274,3.7889 -2.409,-1.5205 z"
       style="fill:#d87408;stroke:#000000;stroke-width:0.2;stroke-linejoin:round" />
    <path
       id="path14816"
       d="m 129.8554,43.1229 0.853,1.2091 -2.764,2.8895 -1.503,-2.0164 z"
       style="fill:#d87408;stroke:#000000;stroke-width:0.2;stroke-linejoin:round" />
    <path
       id="path14814"
       d="m 128.9744,41.4772 0.881,1.6457 -3.414,2.0822 -1.014,-1.8792 z"
       style="fill:#d87408;stroke:#000000;stroke-width:0.2;stroke-linejoin:round" />
    <path
       id="path14812"
       d="m 128.0484,39.702 0.926,1.7752 -3.547,1.8487 -0.925,-1.7752 z"
       style="fill:#d87408;stroke:#000000;stroke-width:0.2;stroke-linejoin:round" />
    <path
       id="path14810"
       d="m 126.8354,37.7368 1.213,1.9652 -3.546,1.8487 -0.883,-1.4384 z"
       style="fill:#d87408;stroke:#000000;stroke-width:0.2;stroke-linejoin:round" />
    <path
       id="path14808"
       d="m 124.8844,35.845 1.951,1.8918 -3.216,2.3755 -0.883,-0.8952 z"
       style="fill:#d87408;stroke:#000000;stroke-width:0.2;stroke-linejoin:round" />
    <path
       id="path14806"
       d="m 121.7864,35.0103 3.098,0.8347 -2.148,3.3721 -0.698,-0.2175 z"
       style="fill:#d87408;stroke:#000000;stroke-width:0.2;stroke-linejoin:round" />
    <path
       id="path14804"
       d="m 118.9644,35.93 2.822,-0.9197 0.252,3.9893 -0.926,0.3025 z"
       style="fill:#d87408;stroke:#000000;stroke-width:0.2;stroke-linejoin:round" />
    <path
       id="path14802"
       d="m 117.0534,37.8641 1.911,-1.9341 2.148,3.3721 -0.843,0.9376 z"
       style="fill:#d87408;stroke:#000000;stroke-width:0.2;stroke-linejoin:round" />
    <path
       id="path14514"
       d="m 117.0544,38.0327 1.164,1.9957 -3.546,1.8487 -0.834,-1.4689 z"
       style="fill:#d87408;stroke:#000000;stroke-width:0.2;stroke-linejoin:round" />
    <path
       id="path14512"
       d="m 115.3574,36.1755 1.697,1.8572 -3.216,2.3755 -0.97,-1.1033 z"
       style="fill:#d87408;stroke:#000000;stroke-width:0.2;stroke-linejoin:round" />
    <path
       id="path14516"
       d="m 118.2184,40.0284 0.926,1.7751 -3.547,1.8487 -0.925,-1.7751 z"
       style="fill:#d87408;stroke:#000000;stroke-width:0.2;stroke-linejoin:round" />
    <path
       id="path14800"
       d="m 115.8614,39.8425 1.192,-1.9784 3.216,2.3756 -0.862,1.4515 z"
       style="fill:#d87408;stroke:#000000;stroke-width:0.2;stroke-linejoin:round" />
    <path
       id="path14518"
       d="m 119.1444,41.8035 0.903,1.6336 -3.414,2.0822 -1.036,-1.8671 z"
       style="fill:#d87408;stroke:#000000;stroke-width:0.2;stroke-linejoin:round" />
    <path
       id="path14798"
       d="m 114.9354,41.6177 0.926,-1.7752 3.546,1.8487 -0.925,1.7752 z"
       style="fill:#d87408;stroke:#000000;stroke-width:0.2;stroke-linejoin:round" />
    <path
       id="path14796"
       d="m 114.0444,43.2581 0.891,-1.6404 3.547,1.8487 -1.023,1.8739 z"
       style="fill:#d87408;stroke:#000000;stroke-width:0.2;stroke-linejoin:round" />
    <path
       id="path14794"
       d="m 113.1594,44.4415 0.885,-1.1834 3.415,2.0822 -1.535,1.9907 z"
       style="fill:#d87408;stroke:#000000;stroke-width:0.2;stroke-linejoin:round" />
    <path
       id="path14792"
       d="m 112.4574,44.9326 0.702,-0.4911 2.765,2.8895 -2.699,1.5242 z"
       style="fill:#d87408;stroke:#000000;stroke-width:0.2;stroke-linejoin:round" />
    <path
       id="path14790"
       d="m 111.5074,44.9129 0.95,0.0197 0.768,3.9226 -2.991,-0.1534 z"
       style="fill:#d87408;stroke:#000000;stroke-width:0.2;stroke-linejoin:round" />
    <path
       id="path14788"
       d="m 110.7324,44.3503 0.775,0.5626 -1.273,3.7889 -2.483,-1.6864 z"
       style="fill:#d87408;stroke:#000000;stroke-width:0.2;stroke-linejoin:round" />
    <path
       id="path14786"
       d="m 109.7904,43.0151 0.942,1.3352 -2.981,2.6651 -1.376,-1.9181 z"
       style="fill:#d87408;stroke:#000000;stroke-width:0.2;stroke-linejoin:round" />
    <path
       id="path14784"
       d="m 108.9154,41.3652 0.875,1.6499 -3.415,2.0822 -1.006,-1.8833 z"
       style="fill:#d87408;stroke:#000000;stroke-width:0.2;stroke-linejoin:round" />
    <path
       id="path14782"
       d="m 107.9904,39.5901 0.925,1.7751 -3.546,1.8488 -0.926,-1.7752 z"
       style="fill:#d87408;stroke:#000000;stroke-width:0.2;stroke-linejoin:round" />
    <path
       id="path14780"
       d="m 106.7604,37.6353 1.23,1.9548 -3.547,1.8487 -0.899,-1.428 z"
       style="fill:#d87408;stroke:#000000;stroke-width:0.2;stroke-linejoin:round" />
    <path
       id="path14778"
       d="m 104.7784,35.7772 1.982,1.8581 -3.216,2.3755 -0.914,-0.8615 z"
       style="fill:#d87408;stroke:#000000;stroke-width:0.2;stroke-linejoin:round" />
    <path
       id="path14776"
       d="m 101.6604,35.0183 3.118,0.7589 -2.148,3.3721 -0.718,-0.1417 z"
       style="fill:#d87408;stroke:#000000;stroke-width:0.2;stroke-linejoin:round" />
    <path
       id="path14774"
       d="m 98.6914,36.1236 2.969,-1.1053 0.252,3.9893 -0.733,0.2454 z"
       style="fill:#d87408;stroke:#000000;stroke-width:0.2;stroke-linejoin:round" />
    <path
       id="path14772"
       d="m 96.9783,37.9657 1.7131,-1.8421 2.488,3.1294 -0.985,1.0882 z"
       style="fill:#d87408;stroke:#000000;stroke-width:0.2;stroke-linejoin:round" />
    <path
       id="path14484"
       d="m 96.9791,37.9312 1.1813,1.9853 -3.5465,1.8487 -0.8506,-1.4585 z"
       style="fill:#d87408;stroke:#000000;stroke-width:0.2;stroke-linejoin:round" />
    <path
       id="path14486"
       d="m 98.1604,39.9165 0.925,1.7751 -3.5462,1.8487 -0.9253,-1.7751 z"
       style="fill:#d87408;stroke:#000000;stroke-width:0.2;stroke-linejoin:round" />
    <path
       id="path14770"
       d="m 95.8026,39.9544 1.1757,-1.9887 3.2161,2.3755 -0.845,1.4619 z"
       style="fill:#d87408;stroke:#000000;stroke-width:0.2;stroke-linejoin:round" />
    <path
       id="path14488"
       d="m 99.0854,41.6916 0.896,1.6377 -3.4142,2.0822 -1.028,-1.8712 z"
       style="fill:#d87408;stroke:#000000;stroke-width:0.2;stroke-linejoin:round" />
    <path
       id="path14768"
       d="m 94.8773,41.7296 0.9253,-1.7752 3.5468,1.8487 -0.926,1.7752 z"
       style="fill:#d87408;stroke:#000000;stroke-width:0.2;stroke-linejoin:round" />
    <path
       id="path14490"
       d="m 99.9814,43.3293 0.902,1.1699 -2.765,2.8894 -1.5512,-1.9771 z"
       style="fill:#d87408;stroke:#000000;stroke-width:0.2;stroke-linejoin:round" />
    <path
       id="path14766"
       d="m 93.9789,43.3659 0.8984,-1.6363 3.5461,1.8487 -1.03,1.8698 z"
       style="fill:#d87408;stroke:#000000;stroke-width:0.2;stroke-linejoin:round" />
    <path
       id="path14764"
       d="m 93.0687,44.5288 0.9102,-1.1629 3.4145,2.0822 -1.5604,1.9701 z"
       style="fill:#d87408;stroke:#000000;stroke-width:0.2;stroke-linejoin:round" />
    <path
       id="path14762"
       d="m 92.3332,44.9568 0.7355,-0.428 2.7643,2.8894 -2.7316,1.4612 z"
       style="fill:#d87408;stroke:#000000;stroke-width:0.2;stroke-linejoin:round" />
    <path
       id="path14760"
       d="m 90.7217,45 1.6115,-0.0432 0.7682,3.9226 L 90.7217,49 Z"
       style="fill:#d87408;stroke:#000000;stroke-width:0.2;stroke-linejoin:round" />
    <path
       id="path14758"
       d="m 88.7196,45 h 2.0021 v 4 h -2.0021 z"
       style="fill:#d87408;stroke:#000000;stroke-width:0.2;stroke-linejoin:round" />
    <path
       id="path14756"
       d="m 86.7174,45 h 2.0022 v 4 h -2.0022 z"
       style="fill:#d87408;stroke:#000000;stroke-width:0.2;stroke-linejoin:round" />
    <path
       id="path14754"
       d="m 84.7153,45 h 2.0021 v 4 h -2.0021 z"
       style="fill:#d87408;stroke:#000000;stroke-width:0.2;stroke-linejoin:round" />
    <path
       id="path14752"
       d="m 82.7132,45 h 2.0021 v 4 h -2.0021 z"
       style="fill:#d87408;stroke:#000000;stroke-width:0.2;stroke-linejoin:round" />
    <path
       id="path14750"
       d="m 80.711,45 h 2.0022 v 4 H 80.711 Z"
       style="fill:#d87408;stroke:#000000;stroke-width:0.2;stroke-linejoin:round" />
    <path
       id="path14748"
       d="m 78.7089,45 h 2.0021 v 4 h -2.0021 z"
       style="fill:#d87408;stroke:#000000;stroke-width:0.2;stroke-linejoin:round" />
    <path
       id="path14746"
       d="m 76.7067,45 h 2.0022 v 4 h -2.0022 z"
       style="fill:#d87408;stroke:#000000;stroke-width:0.2;stroke-linejoin:round" />
    <path
       id="path14744"
       d="m 74.7046,45 h 2.0021 v 4 h -2.0021 z"
       style="fill:#d87408;stroke:#000000;stroke-width:0.2;stroke-linejoin:round" />
    <path
       id="path14742"
       d="m 72.7024,45 h 2.0022 v 4 h -2.0022 z"
       style="fill:#d87408;stroke:#000000;stroke-width:0.2;stroke-linejoin:round" />
    <path
       id="path14740"
       d="m 70.7003,45 h 2.0021 v 4 h -2.0021 z"
       style="fill:#d87408;stroke:#000000;stroke-width:0.2;stroke-linejoin:round" />
    <path
       id="path14738"
       d="m 68.6981,45 h 2.0022 v 4 h -2.0022 z"
       style="fill:#d87408;stroke:#000000;stroke-width:0.2;stroke-linejoin:round" />
    <path
       id="path14736"
       d="m 66.696,45 h 2.0021 v 4 H 66.696 Z"
       style="fill:#d87408;stroke:#000000;stroke-width:0.2;stroke-linejoin:round" />
    <path
       id="path14734"
       d="m 64.6939,45 h 2.0021 v 4 h -2.0021 z"
       style="fill:#d87408;stroke:#000000;stroke-width:0.2;stroke-linejoin:round" />
    <path
       id="path14732"
       d="m 62.6917,45 h 2.0022 v 4 h -2.0022 z"
       style="fill:#d87408;stroke:#000000;stroke-width:0.2;stroke-linejoin:round" />
    <path
       id="path14730"
       d="m 60.6896,45 h 2.0021 v 4 h -2.0021 z"
       style="fill:#d87408;stroke:#000000;stroke-width:0.2;stroke-linejoin:round" />
    <path
       id="path14728"
       d="m 58.6874,45 h 2.0022 v 4 h -2.0022 z"
       style="fill:#d87408;stroke:#000000;stroke-width:0.2;stroke-linejoin:round" />
    <path
       id="path14726"
       d="m 56.6853,45 h 2.0021 v 4 h -2.0021 z"
       style="fill:#d87408;stroke:#000000;stroke-width:0.2;stroke-linejoin:round" />
    <path
       id="path14724"
       d="m 54.6831,45 h 2.0022 v 4 h -2.0022 z"
       style="fill:#d87408;stroke:#000000;stroke-width:0.2;stroke-linejoin:round" />
    <path
       id="path14722"
       d="m 52.681,45 h 2.0021 v 4 H 52.681 Z"
       style="fill:#d87408;stroke:#000000;stroke-width:0.2;stroke-linejoin:round" />
    <path
       id="path14720"
       d="m 50.6788,45 h 2.0022 v 4 h -2.0022 z"
       style="fill:#d87408;stroke:#000000;stroke-width:0.2;stroke-linejoin:round" />
    <path
       id="path14718"
       d="m 48.6767,45 h 2.0021 v 4 h -2.0021 z"
       style="fill:#d87408;stroke:#000000;stroke-width:0.2;stroke-linejoin:round" />
    <path
       id="path14716"
       d="m 46.6746,45 h 2.0021 v 4 h -2.0021 z"
       style="fill:#d87408;stroke:#000000;stroke-width:0.2;stroke-linejoin:round" />
    <path
       id="path14714"
       d="m 44.6724,45 h 2.0022 v 4 h -2.0022 z"
       style="fill:#d87408;stroke:#000000;stroke-width:0.2;stroke-linejoin:round" />
    <path
       id="path14712"
       d="m 42.6703,45 h 2.0021 v 4 h -2.0021 z"
       style="fill:#d87408;stroke:#000000;stroke-width:0.2;stroke-linejoin:round" />
    <path
       id="path14710"
       d="M 40.6039,45.0446 42.6703,45 v 4 l -1.9361,0.0416 z"
       style="fill:#d87408;stroke:#000000;stroke-width:0.2;stroke-linejoin:round" />
    <path
       id="path14708"
       d="m 38.3285,45.2578 2.2754,-0.2132 0.1303,3.997 -1.7088,0.1546 z"
       style="fill:#d87408;stroke:#000000;stroke-width:0.2;stroke-linejoin:round" />
    <path
       id="path14706"
       d="m 36.0628,45.7908 2.2657,-0.533 0.6969,3.9384 -1.6318,0.3661 z"
       style="fill:#d87408;stroke:#000000;stroke-width:0.2;stroke-linejoin:round" />
    <path
       id="path14704"
       d="m 33.8764,46.8016 2.1864,-1.0108 1.3308,3.7715 -1.441,0.6572 z"
       style="fill:#d87408;stroke:#000000;stroke-width:0.2;stroke-linejoin:round" />
    <path
       id="path14702"
       d="m 31.8223,48.6758 2.0541,-1.8742 2.0762,3.4179 -0.8921,0.8028 z"
       style="fill:#d87408;stroke:#000000;stroke-width:0.2;stroke-linejoin:round" />
    <path
       id="path14700"
       d="m 30.6447,50.9407 1.1776,-2.2649 3.2382,2.3465 -0.6533,1.2743 z"
       style="fill:#d87408;stroke:#000000;stroke-width:0.2;stroke-linejoin:round" />
    <path
       id="path14698"
       d="m 30.1331,53.3741 0.5116,-2.4334 3.7625,1.3559 -0.2951,1.4803 z"
       style="fill:#d87408;stroke:#000000;stroke-width:0.2;stroke-linejoin:round" />
    <path
       id="path14380"
       d="m 28.9935,55 h 2.0022 v 4 h -2.0022 z"
       style="fill:#d87408;stroke:#000000;stroke-width:0.2;stroke-linejoin:round" />
    <path
       id="path14382"
       d="m 30.9957,55 h 2.0021 v 4 h -2.0021 z"
       style="fill:#d87408;stroke:#000000;stroke-width:0.2;stroke-linejoin:round" />
    <path
       id="path14384"
       d="M 32.9978,55 H 35 v 4 h -2.0022 z"
       style="fill:#d87408;stroke:#000000;stroke-width:0.2;stroke-linejoin:round" />
    <path
       id="path14696"
       d="m 30.0066,55.5521 0.1265,-2.178 3.979,0.4028 -0.106,1.817 z"
       style="fill:#d87408;stroke:#000000;stroke-width:0.2;stroke-linejoin:round" />
    <path
       id="path14694"
       d="m 29.9976,57.5959 0.009,-2.0438 3.9995,0.0418 -0.0089,1.9601 z"
       style="fill:#d87408;stroke:#000000;stroke-width:0.2;stroke-linejoin:round" />
    <path
       id="path14692"
       d="m 30.0497,59.6773 -0.0521,-2.0814 3.9996,-0.0419 0.0471,1.9206 z"
       style="fill:#d87408;stroke:#000000;stroke-width:0.2;stroke-linejoin:round" />
    <path
       id="path14690"
       d="m 30.3726,62.0783 -0.3229,-2.401 3.9946,-0.2027 0.1894,1.5657 z"
       style="fill:#d87408;stroke:#000000;stroke-width:0.2;stroke-linejoin:round" />
    <path
       id="path14688"
       d="m 31.2036,64.3543 -0.831,-2.276 3.8611,-1.038 0.5224,1.4774 z"
       style="fill:#d87408;stroke:#000000;stroke-width:0.2;stroke-linejoin:round" />
    <path
       id="path14686"
       d="m 32.9391,66.5095 -1.7355,-2.1552 3.5525,-1.8366 0.7661,0.9392 z"
       style="fill:#d87408;stroke:#000000;stroke-width:0.2;stroke-linejoin:round" />
    <path
       id="path14684"
       d="m 35.1466,67.8608 -2.2075,-1.3513 2.5831,-3.0526 1.1948,0.7259 z"
       style="fill:#d87408;stroke:#000000;stroke-width:0.2;stroke-linejoin:round" />
    <path
       id="path14682"
       d="m 37.3931,68.5658 -2.2465,-0.705 1.5704,-3.678 1.5689,0.4844 z"
       style="fill:#d87408;stroke:#000000;stroke-width:0.2;stroke-linejoin:round" />
    <path
       id="path14680"
       d="m 39.604,68.8857 -2.2109,-0.3199 0.8928,-3.8986 1.7496,0.243 z"
       style="fill:#d87408;stroke:#000000;stroke-width:0.2;stroke-linejoin:round" />
    <path
       id="path14678"
       d="m 41.7531,68.9929 -2.1491,-0.1072 0.4315,-3.9755 1.8478,0.0856 z"
       style="fill:#d87408;stroke:#000000;stroke-width:0.2;stroke-linejoin:round" />
    <path
       id="path14676"
       d="m 44.8052,68.2056 -3.0521,0.7873 0.1302,-3.9971 0.7742,-0.1623 z"
       style="fill:#d87408;stroke:#000000;stroke-width:0.2;stroke-linejoin:round" />
    <path
       id="path14674"
       d="m 46.7796,66.3389 -1.9744,1.8667 -2.1477,-3.3721 0.9063,-0.8701 z"
       style="fill:#d87408;stroke:#000000;stroke-width:0.2;stroke-linejoin:round" />
    <path
       id="path14672"
       d="m 48.0051,64.3814 -1.2255,1.9575 -3.2158,-2.3755 0.8948,-1.4307 z"
       style="fill:#d87408;stroke:#000000;stroke-width:0.2;stroke-linejoin:round" />
    <path
       id="path14670"
       d="m 48.9305,62.6062 -0.9254,1.7752 -3.5465,-1.8487 0.9254,-1.7752 z"
       style="fill:#d87408;stroke:#000000;stroke-width:0.2;stroke-linejoin:round" />
    <path
       id="path14668"
       d="m 49.8067,60.9574 -0.8762,1.6488 -3.5465,-1.8487 1.0083,-1.8822 z"
       style="fill:#d87408;stroke:#000000;stroke-width:0.2;stroke-linejoin:round" />
    <path
       id="path14666"
       d="m 50.7542,59.6257 -0.9475,1.3317 -3.4144,-2.0821 1.3803,-1.9147 z"
       style="fill:#d87408;stroke:#000000;stroke-width:0.2;stroke-linejoin:round" />
    <path
       id="path14664"
       d="m 51.5382,59.0769 -0.784,0.5488 -2.9816,-2.6651 2.492,-1.6726 z"
       style="fill:#d87408;stroke:#000000;stroke-width:0.2;stroke-linejoin:round" />
    <path
       id="path14662"
       d="m 52.4885,59.0736 -0.9503,0.0033 -1.2736,-3.7889 2.9922,-0.137 z"
       style="fill:#d87408;stroke:#000000;stroke-width:0.2;stroke-linejoin:round" />
    <path
       id="path14660"
       d="m 53.1831,59.5807 -0.6946,-0.5071 0.7683,-3.9226 2.6906,1.5402 z"
       style="fill:#d87408;stroke:#000000;stroke-width:0.2;stroke-linejoin:round" />
    <path
       id="path14418"
       d="m 56.5238,58.6597 1.5348,-1.9907 2.7643,2.8895 -0.8848,1.1834 z"
       style="fill:#d87408;stroke:#000000;stroke-width:0.2;stroke-linejoin:round" />
    <path
       id="path14416"
       d="m 55.5007,60.5336 1.0231,-1.8739 3.4143,2.0822 -0.8909,1.6404 z"
       style="fill:#d87408;stroke:#000000;stroke-width:0.2;stroke-linejoin:round" />
    <path
       id="path14658"
       d="m 54.0614,60.7693 -0.8783,-1.1886 2.7643,-2.8895 1.5284,1.9959 z"
       style="fill:#d87408;stroke:#000000;stroke-width:0.2;stroke-linejoin:round" />
    <path
       id="path14414"
       d="m 54.5753,62.3088 0.9254,-1.7752 3.5465,1.8487 -0.9254,1.7752 z"
       style="fill:#d87408;stroke:#000000;stroke-width:0.2;stroke-linejoin:round" />
    <path
       id="path14656"
       d="m 54.9505,62.4109 -0.8891,-1.6416 3.4144,-2.0822 1.0212,1.8751 z"
       style="fill:#d87408;stroke:#000000;stroke-width:0.2;stroke-linejoin:round" />
    <path
       id="path14412"
       d="m 53.7138,63.7603 0.8615,-1.4515 3.5465,1.8487 -1.1922,1.9784 z"
       style="fill:#d87408;stroke:#000000;stroke-width:0.2;stroke-linejoin:round" />
    <path
       id="path14654"
       d="m 55.8758,64.186 -0.9253,-1.7751 3.5465,-1.8487 0.9253,1.7751 z"
       style="fill:#d87408;stroke:#000000;stroke-width:0.2;stroke-linejoin:round" />
    <path
       id="path14652"
       d="m 57.0723,66.1617 -1.1965,-1.9757 3.5465,-1.8487 0.8658,1.4489 z"
       style="fill:#d87408;stroke:#000000;stroke-width:0.2;stroke-linejoin:round" />
    <path
       id="path14650"
       d="m 58.9918,68.0872 -1.9195,-1.9255 3.2158,-2.3755 0.8515,0.9289 z"
       style="fill:#d87408;stroke:#000000;stroke-width:0.2;stroke-linejoin:round" />
    <path
       id="path14648"
       d="m 61.8185,68.9917 -2.8267,-0.9045 2.1478,-3.3721 0.9308,0.2873 z"
       style="fill:#d87408;stroke:#000000;stroke-width:0.2;stroke-linejoin:round" />
    <path
       id="path14646"
       d="m 64.9116,68.1378 -3.0931,0.8539 0.2519,-3.9893 0.6935,-0.2367 z"
       style="fill:#d87408;stroke:#000000;stroke-width:0.2;stroke-linejoin:round" />
    <path
       id="path14644"
       d="m 66.8546,66.2374 -1.943,1.9004 -2.1477,-3.3721 0.8749,-0.9038 z"
       style="fill:#d87408;stroke:#000000;stroke-width:0.2;stroke-linejoin:round" />
    <path
       id="path14642"
       d="m 68.0635,64.2695 -1.2089,1.9679 -3.2158,-2.3755 0.8782,-1.4411 z"
       style="fill:#d87408;stroke:#000000;stroke-width:0.2;stroke-linejoin:round" />
    <path
       id="path14640"
       d="m 68.9888,62.4943 -0.9253,1.7752 -3.5465,-1.8487 0.9253,-1.7752 z"
       style="fill:#d87408;stroke:#000000;stroke-width:0.2;stroke-linejoin:round" />
    <path
       id="path14638"
       d="m 69.8724,60.8497 -0.8836,1.6446 -3.5465,-1.8487 1.0157,-1.8781 z"
       style="fill:#d87408;stroke:#000000;stroke-width:0.2;stroke-linejoin:round" />
    <path
       id="path14636"
       d="m 70.7317,59.6458 -0.8593,1.2039 -3.4144,-2.0822 1.5094,-2.0112 z"
       style="fill:#d87408;stroke:#000000;stroke-width:0.2;stroke-linejoin:round" />
    <path
       id="path14634"
       d="m 71.6578,59.0367 -0.9261,0.6091 -2.7643,-2.8895 2.4168,-1.5085 z"
       style="fill:#d87408;stroke:#000000;stroke-width:0.2;stroke-linejoin:round" />
    <path
       id="path14632"
       d="M 73.0085,59 71.6578,59.0367 70.3842,55.2478 73.0085,55 Z"
       style="fill:#d87408;stroke:#000000;stroke-width:0.2;stroke-linejoin:round" />
    <path
       id="path14630"
       d="m 75.0107,59 h -2.0022 v -4 h 2.0022 z"
       style="fill:#d87408;stroke:#000000;stroke-width:0.2;stroke-linejoin:round" />
    <path
       id="path14628"
       d="m 77.0128,59 h -2.0021 v -4 h 2.0021 z"
       style="fill:#d87408;stroke:#000000;stroke-width:0.2;stroke-linejoin:round" />
    <path
       id="path14626"
       d="M 79.015,59 H 77.0128 V 55 H 79.015 Z"
       style="fill:#d87408;stroke:#000000;stroke-width:0.2;stroke-linejoin:round" />
    <path
       id="path14450"
       d="m 79.3394,60.257 0.3771,-1.7992 3.9365,0.7055 -0.4476,2.115 z"
       style="fill:#d87408;stroke:#000000;stroke-width:0.2;stroke-linejoin:round" />
    <path
       id="path14452"
       d="m 79.7165,58.4578 0.1698,-1.7736 3.9907,0.2693 -0.224,2.2098 z"
       style="fill:#d87408;stroke:#000000;stroke-width:0.2;stroke-linejoin:round" />
    <path
       id="path14454"
       d="m 79.8863,56.6842 0.0861,-1.9328 3.9975,0.1352 -0.0929,2.0669 z"
       style="fill:#d87408;stroke:#000000;stroke-width:0.2;stroke-linejoin:round" />
    <path
       id="path14624"
       d="M 81.0171,59 H 79.015 v -4 h 2.0021 z"
       style="fill:#d87408;stroke:#000000;stroke-width:0.2;stroke-linejoin:round" />
    <path
       id="path14622"
       d="m 83.0193,59 h -2.0022 v -4 h 2.0022 z"
       style="fill:#d87408;stroke:#000000;stroke-width:0.2;stroke-linejoin:round" />
    <path
       id="path14620"
       d="m 85.0214,59 h -2.0021 v -4 h 2.0021 z"
       style="fill:#d87408;stroke:#000000;stroke-width:0.2;stroke-linejoin:round" />
    <path
       id="path14618"
       d="m 87.0235,59 h -2.0021 v -4 h 2.0021 z"
       style="fill:#d87408;stroke:#000000;stroke-width:0.2;stroke-linejoin:round" />
    <path
       id="path14616"
       d="m 89.0257,59 h -2.0022 v -4 h 2.0022 z"
       style="fill:#d87408;stroke:#000000;stroke-width:0.2;stroke-linejoin:round" />
    <path
       id="path14614"
       d="m 91.0278,59 h -2.0021 v -4 h 2.0021 z"
       style="fill:#d87408;stroke:#000000;stroke-width:0.2;stroke-linejoin:round" />
    <path
       id="path14612"
       d="M 93.03,59 H 91.0278 V 55 H 93.03 Z"
       style="fill:#d87408;stroke:#000000;stroke-width:0.2;stroke-linejoin:round" />
    <path
       id="path14610"
       d="M 95.0321,59 H 93.03 v -4 h 2.0021 z"
       style="fill:#d87408;stroke:#000000;stroke-width:0.2;stroke-linejoin:round" />
    <path
       id="path14608"
       d="m 97.0344,59 h -2.0023 v -4 h 2.0023 z"
       style="fill:#d87408;stroke:#000000;stroke-width:0.2;stroke-linejoin:round" />
    <path
       id="path14606"
       d="m 99.0364,59 h -2.002 v -4 h 2.002 z"
       style="fill:#d87408;stroke:#000000;stroke-width:0.2;stroke-linejoin:round" />
    <path
       id="path14604"
       d="m 101.0384,59 h -2.002 v -4 h 2.002 z"
       style="fill:#d87408;stroke:#000000;stroke-width:0.2;stroke-linejoin:round" />
    <path
       id="path14602"
       d="m 103.0404,59 h -2.002 v -4 h 2.002 z"
       style="fill:#d87408;stroke:#000000;stroke-width:0.2;stroke-linejoin:round" />
    <path
       id="path14600"
       d="m 105.0424,59 h -2.002 v -4 h 2.002 z"
       style="fill:#d87408;stroke:#000000;stroke-width:0.2;stroke-linejoin:round" />
    <path
       id="path14598"
       d="m 107.0454,59 h -2.003 v -4 h 2.003 z"
       style="fill:#d87408;stroke:#000000;stroke-width:0.2;stroke-linejoin:round" />
    <path
       id="path14596"
       d="m 109.0474,59 h -2.002 v -4 h 2.002 z"
       style="fill:#d87408;stroke:#000000;stroke-width:0.2;stroke-linejoin:round" />
    <path
       id="path14594"
       d="m 111.0494,59 h -2.002 v -4 h 2.002 z"
       style="fill:#d87408;stroke:#000000;stroke-width:0.2;stroke-linejoin:round" />
    <path
       id="path14592"
       d="m 113.0514,59 h -2.002 v -4 h 2.002 z"
       style="fill:#d87408;stroke:#000000;stroke-width:0.2;stroke-linejoin:round" />
    <path
       id="path14590"
       d="m 115.0534,59 h -2.002 v -4 h 2.002 z"
       style="fill:#d87408;stroke:#000000;stroke-width:0.2;stroke-linejoin:round" />
    <path
       id="path14588"
       d="m 117.0554,59 h -2.002 v -4 h 2.002 z"
       style="fill:#d87408;stroke:#000000;stroke-width:0.2;stroke-linejoin:round" />
    <path
       id="path14586"
       d="m 119.0574,59 h -2.002 v -4 h 2.002 z"
       style="fill:#d87408;stroke:#000000;stroke-width:0.2;stroke-linejoin:round" />
    <path
       id="path14584"
       d="m 121.0604,59 h -2.003 v -4 h 2.003 z"
       style="fill:#d87408;stroke:#000000;stroke-width:0.2;stroke-linejoin:round" />
    <path
       id="path14582"
       d="m 123.0624,59 h -2.002 v -4 h 2.002 z"
       style="fill:#d87408;stroke:#000000;stroke-width:0.2;stroke-linejoin:round" />
    <path
       id="path14580"
       d="m 125.0644,59 h -2.002 v -4 h 2.002 z"
       style="fill:#d87408;stroke:#000000;stroke-width:0.2;stroke-linejoin:round" />
    <path
       id="path14578"
       d="m 127.0664,59 h -2.002 v -4 h 2.002 z"
       style="fill:#d87408;stroke:#000000;stroke-width:0.2;stroke-linejoin:round" />
    <path
       id="path14576"
       d="m 129.0684,59 h -2.002 v -4 h 2.002 z"
       style="fill:#d87408;stroke:#000000;stroke-width:0.2;stroke-linejoin:round" />
    <path
       id="path14574"
       d="m 131.0704,59 h -2.002 v -4 h 2.002 z"
       style="fill:#d87408;stroke:#000000;stroke-width:0.2;stroke-linejoin:round" />
    <path
       id="path14572"
       d="M 133.1374,58.9633 131.0704,59 v -4 l 1.937,-0.0338 z"
       style="fill:#d87408;stroke:#000000;stroke-width:0.2;stroke-linejoin:round" />
    <path
       id="path14570"
       d="m 135.2814,58.7877 -2.144,0.1756 -0.13,-3.9971 1.842,-0.154 z"
       style="fill:#d87408;stroke:#000000;stroke-width:0.2;stroke-linejoin:round" />
    <path
       id="path14568"
       d="m 137.5754,58.3141 -2.294,0.4736 -0.432,-3.9755 1.621,-0.3421 z"
       style="fill:#d87408;stroke:#000000;stroke-width:0.2;stroke-linejoin:round" />
    <path
       id="path14566"
       d="m 139.8994,57.3239 -2.324,0.9902 -1.105,-3.844 1.353,-0.5641 z"
       style="fill:#d87408;stroke:#000000;stroke-width:0.2;stroke-linejoin:round" />
    <path
       id="path14564"
       d="m 141.9104,55.6372 -2.011,1.6867 -2.076,-3.4179 1.046,-0.8653 z"
       style="fill:#d87408;stroke:#000000;stroke-width:0.2;stroke-linejoin:round" />
    <path
       id="path14562"
       d="m 143.2564,53.2867 -1.346,2.3505 -3.041,-2.5965 0.624,-1.1098 z"
       style="fill:#d87408;stroke:#000000;stroke-width:0.2;stroke-linejoin:round" />
    <path
       id="path14560"
       d="m 143.8254,50.8664 -0.569,2.4203 -3.763,-1.3558 0.353,-1.4673 z"
       style="fill:#d87408;stroke:#000000;stroke-width:0.2;stroke-linejoin:round" />
    <path
       id="path14552"
       d="m 143.6934,42.3385 0.252,2.2257 -3.995,0.2027 -0.198,-1.7484 z"
       style="fill:#d87408;stroke:#000000;stroke-width:0.2;stroke-linejoin:round" />
    <path
       id="path14550"
       d="m 142.8904,39.8604 0.803,2.4781 -3.941,0.68 -0.415,-1.3214 z"
       style="fill:#d87408;stroke:#000000;stroke-width:0.2;stroke-linejoin:round" />
    <path
       id="path14548"
       d="m 141.3444,37.759 1.546,2.1014 -3.553,1.8367 -0.814,-1.1042 z"
       style="fill:#d87408;stroke:#000000;stroke-width:0.2;stroke-linejoin:round" />
    <path
       id="path14546"
       d="m 139.0584,36.2341 2.286,1.5249 -2.821,2.8339 -1.035,-0.6807 z"
       style="fill:#d87408;stroke:#000000;stroke-width:0.2;stroke-linejoin:round" />
    <path
       id="path14544"
       d="m 136.8254,35.4881 2.233,0.746 -1.57,3.6781 -1.556,-0.5254 z"
       style="fill:#d87408;stroke:#000000;stroke-width:0.2;stroke-linejoin:round" />
    <path
       id="path14542"
       d="m 134.6194,35.1404 2.206,0.3477 -0.893,3.8987 -1.745,-0.2709 z"
       style="fill:#d87408;stroke:#000000;stroke-width:0.2;stroke-linejoin:round" />
    <path
       id="path14540"
       d="m 132.4714,35.015 2.148,0.1254 -0.432,3.9755 -1.846,-0.1038 z"
       style="fill:#d87408;stroke:#000000;stroke-width:0.2;stroke-linejoin:round" />
    <path
       id="path14538"
       d="m 129.5934,35.5661 2.878,-0.5511 -0.13,3.9971 -1.008,0.1531 z"
       style="fill:#d87408;stroke:#000000;stroke-width:0.2;stroke-linejoin:round" />
    <path
       id="path14536"
       d="m 127.3464,37.4667 2.247,-1.9006 1.74,3.5991 -0.771,0.677 z"
       style="fill:#d87408;stroke:#000000;stroke-width:0.2;stroke-linejoin:round" />
    <path
       id="path14534"
       d="m 126.0894,39.4042 1.257,-1.9375 3.216,2.3755 -0.926,1.4107 z"
       style="fill:#d87408;stroke:#000000;stroke-width:0.2;stroke-linejoin:round" />
    <path
       id="path14532"
       d="m 125.1644,41.1794 0.925,-1.7752 3.547,1.8487 -0.926,1.7752 z"
       style="fill:#d87408;stroke:#000000;stroke-width:0.2;stroke-linejoin:round" />
    <path
       id="path14530"
       d="m 124.3024,42.8362 0.862,-1.6568 3.546,1.8487 -0.994,1.8902 z"
       style="fill:#d87408;stroke:#000000;stroke-width:0.2;stroke-linejoin:round" />
    <path
       id="path14528"
       d="m 123.3894,44.194 0.913,-1.3578 3.414,2.0821 -1.345,1.9408 z"
       style="fill:#d87408;stroke:#000000;stroke-width:0.2;stroke-linejoin:round" />
    <path
       id="path14526"
       d="m 122.4384,44.9366 0.951,-0.7426 2.982,2.6651 -2.193,1.6765 z"
       style="fill:#d87408;stroke:#000000;stroke-width:0.2;stroke-linejoin:round" />
    <path
       id="path14524"
       d="m 121.7314,44.9729 0.707,-0.0363 1.74,3.599 -3.215,0.3599 z"
       style="fill:#d87408;stroke:#000000;stroke-width:0.2;stroke-linejoin:round" />
    <path
       id="path14522"
       d="m 120.9744,44.5864 0.757,0.3865 -0.768,3.9226 -2.753,-1.4196 z"
       style="fill:#d87408;stroke:#000000;stroke-width:0.2;stroke-linejoin:round" />
    <path
       id="path14520"
       d="m 120.0474,43.4371 0.927,1.1493 -2.764,2.8895 -1.577,-1.9566 z"
       style="fill:#d87408;stroke:#000000;stroke-width:0.2;stroke-linejoin:round" />
    <path
       id="path14510"
       d="m 112.4054,35.0235 2.952,1.152 -2.489,3.1294 -0.715,-0.2921 z"
       style="fill:#d87408;stroke:#000000;stroke-width:0.2;stroke-linejoin:round" />
    <path
       id="path14508"
       d="m 109.4804,35.6211 2.925,-0.5976 -0.252,3.9893 -0.933,0.2073 z"
       style="fill:#d87408;stroke:#000000;stroke-width:0.2;stroke-linejoin:round" />
    <path
       id="path14506"
       d="m 107.2714,37.5682 2.209,-1.9471 1.74,3.599 -0.733,0.7236 z"
       style="fill:#d87408;stroke:#000000;stroke-width:0.2;stroke-linejoin:round" />
    <path
       id="path14504"
       d="m 106.0314,39.5162 1.24,-1.948 3.216,2.3755 -0.91,1.4212 z"
       style="fill:#d87408;stroke:#000000;stroke-width:0.2;stroke-linejoin:round" />
    <path
       id="path14502"
       d="m 105.1054,41.2913 0.926,-1.7751 3.546,1.8487 -0.925,1.7751 z"
       style="fill:#d87408;stroke:#000000;stroke-width:0.2;stroke-linejoin:round" />
    <path
       id="path14500"
       d="m 104.2364,42.9439 0.869,-1.6526 3.547,1.8487 -1.002,1.8861 z"
       style="fill:#d87408;stroke:#000000;stroke-width:0.2;stroke-linejoin:round" />
    <path
       id="path14498"
       d="m 103.3054,44.2882 0.931,-1.3443 3.414,2.0822 -1.363,1.9272 z"
       style="fill:#d87408;stroke:#000000;stroke-width:0.2;stroke-linejoin:round" />
    <path
       id="path14496"
       d="m 102.5544,44.8863 0.751,-0.5981 2.982,2.6651 -2.46,1.7219 z"
       style="fill:#d87408;stroke:#000000;stroke-width:0.2;stroke-linejoin:round" />
    <path
       id="path14494"
       d="m 101.6074,44.9486 0.947,-0.0623 1.273,3.7889 -2.988,0.196 z"
       style="fill:#d87408;stroke:#000000;stroke-width:0.2;stroke-linejoin:round" />
    <path
       id="path14492"
       d="m 100.8834,44.4992 0.724,0.4494 -0.768,3.9226 -2.721,-1.4826 z"
       style="fill:#d87408;stroke:#000000;stroke-width:0.2;stroke-linejoin:round" />
    <path
       id="path14482"
       d="m 95.2583,36.0969 1.7208,1.8343 -3.2158,2.3755 -0.9937,-1.0804 z"
       style="fill:#d87408;stroke:#000000;stroke-width:0.2;stroke-linejoin:round" />
    <path
       id="path14480"
       d="m 92.2795,35.0156 2.9788,1.0813 -2.4887,3.1294 -0.7419,-0.2214 z"
       style="fill:#d87408;stroke:#000000;stroke-width:0.2;stroke-linejoin:round" />
    <path
       id="path14478"
       d="m 89.8929,35.1137 2.3866,-0.0981 -0.2518,3.9893 -1.6098,0.0736 z"
       style="fill:#d87408;stroke:#000000;stroke-width:0.2;stroke-linejoin:round" />
    <path
       id="path14476"
       d="m 87.6783,35.5368 2.2146,-0.4231 0.525,3.9648 -1.7136,0.3236 z"
       style="fill:#d87408;stroke:#000000;stroke-width:0.2;stroke-linejoin:round" />
    <path
       id="path14474"
       d="m 85.4058,36.4526 2.2725,-0.9158 1.026,3.8653 -1.4278,0.5848 z"
       style="fill:#d87408;stroke:#000000;stroke-width:0.2;stroke-linejoin:round" />
    <path
       id="path14472"
       d="m 83.287,38.0641 2.1188,-1.6115 1.8707,3.5343 -1.0589,0.7979 z"
       style="fill:#d87408;stroke:#000000;stroke-width:0.2;stroke-linejoin:round" />
    <path
       id="path14470"
       d="m 81.8324,40.0425 1.4546,-1.9784 2.9306,2.7207 -0.9095,1.2358 z"
       style="fill:#d87408;stroke:#000000;stroke-width:0.2;stroke-linejoin:round" />
    <path
       id="path14468"
       d="m 80.8714,42.366 0.961,-2.3235 3.4757,1.9781 -0.5707,1.3667 z"
       style="fill:#d87408;stroke:#000000;stroke-width:0.2;stroke-linejoin:round" />
    <path
       id="path14466"
       d="m 80.3947,44.4745 0.4767,-2.1085 3.866,1.0213 -0.4062,1.7927 z"
       style="fill:#d87408;stroke:#000000;stroke-width:0.2;stroke-linejoin:round" />
    <path
       id="path14464"
       d="m 80.1306,46.6793 0.2641,-2.2048 3.9365,0.7055 -0.2099,1.7686 z"
       style="fill:#d87408;stroke:#000000;stroke-width:0.2;stroke-linejoin:round" />
    <path
       id="path14462"
       d="m 80.0253,48.7455 0.1053,-2.0662 3.9907,0.2693 -0.0984,1.9321 z"
       style="fill:#d87408;stroke:#000000;stroke-width:0.2;stroke-linejoin:round" />
    <path
       id="path14460"
       d="m 79.9998,50.801 0.0255,-2.0555 3.9976,0.1352 -0.0233,1.9482 z"
       style="fill:#d87408;stroke:#000000;stroke-width:0.2;stroke-linejoin:round" />
    <path
       id="path14458"
       d="m 79.9858,52.803 0.014,-2.002 3.9998,0.0279 -0.014,2.0021 z"
       style="fill:#d87408;stroke:#000000;stroke-width:0.2;stroke-linejoin:round" />
    <path
       id="path14456"
       d="m 79.9724,54.7514 0.0134,-1.9484 3.9998,0.028 -0.0157,2.0556 z"
       style="fill:#d87408;stroke:#000000;stroke-width:0.2;stroke-linejoin:round" />
    <path
       id="path14448"
       d="m 78.7816,61.7723 0.5578,-1.5153 3.866,1.0213 -0.8226,2.2336 z"
       style="fill:#d87408;stroke:#000000;stroke-width:0.2;stroke-linejoin:round" />
    <path
       id="path14446"
       d="m 78.0156,62.9455 0.766,-1.1732 3.6012,1.7396 -1.4366,2.1543 z"
       style="fill:#d87408;stroke:#000000;stroke-width:0.2;stroke-linejoin:round" />
    <path
       id="path14444"
       d="m 76.8794,63.9087 1.1362,-0.9632 2.9306,2.7207 -1.9101,1.6099 z"
       style="fill:#d87408;stroke:#000000;stroke-width:0.2;stroke-linejoin:round" />
    <path
       id="path14442"
       d="m 75.4941,64.5336 1.3853,-0.6249 2.1567,3.3674 -2.2428,1.0396 z"
       style="fill:#d87408;stroke:#000000;stroke-width:0.2;stroke-linejoin:round" />
    <path
       id="path14440"
       d="m 73.9297,64.8732 1.5644,-0.3396 1.2992,3.7821 -2.3386,0.5223 z"
       style="fill:#d87408;stroke:#000000;stroke-width:0.2;stroke-linejoin:round" />
    <path
       id="path14438"
       d="m 72.1489,64.9959 1.7808,-0.1227 0.525,3.9648 -2.2101,0.1563 z"
       style="fill:#d87408;stroke:#000000;stroke-width:0.2;stroke-linejoin:round" />
    <path
       id="path14436"
       d="m 71.3524,64.8507 0.7965,0.1452 0.0957,3.9984 -3.0399,-0.7715 z"
       style="fill:#d87408;stroke:#000000;stroke-width:0.2;stroke-linejoin:round" />
    <path
       id="path14434"
       d="m 70.4381,63.9892 0.9143,0.8615 -2.1477,3.3721 -1.9824,-1.8581 z"
       style="fill:#d87408;stroke:#000000;stroke-width:0.2;stroke-linejoin:round" />
    <path
       id="path14432"
       d="m 69.539,62.5612 0.8991,1.428 -3.2158,2.3755 -1.2298,-1.9548 z"
       style="fill:#d87408;stroke:#000000;stroke-width:0.2;stroke-linejoin:round" />
    <path
       id="path14430"
       d="m 68.6137,60.786 0.9253,1.7752 -3.5465,1.8487 -0.9253,-1.7751 z"
       style="fill:#d87408;stroke:#000000;stroke-width:0.2;stroke-linejoin:round" />
    <path
       id="path14428"
       d="m 67.6072,58.9027 1.0065,1.8833 -3.5465,1.8488 -0.8743,-1.6499 z"
       style="fill:#d87408;stroke:#000000;stroke-width:0.2;stroke-linejoin:round" />
    <path
       id="path14426"
       d="m 66.2317,56.9846 1.3755,1.9181 -3.4143,2.0822 -0.9429,-1.3352 z"
       style="fill:#d87408;stroke:#000000;stroke-width:0.2;stroke-linejoin:round" />
    <path
       id="path14424"
       d="m 63.7486,55.2982 2.4831,1.6864 -2.9817,2.6651 -0.7749,-0.5626 z"
       style="fill:#d87408;stroke:#000000;stroke-width:0.2;stroke-linejoin:round" />
    <path
       id="path14422"
       d="m 60.7576,55.1448 2.991,0.1534 -1.2735,3.7889 -0.9493,-0.0197 z"
       style="fill:#d87408;stroke:#000000;stroke-width:0.2;stroke-linejoin:round" />
    <path
       id="path14420"
       d="m 58.0586,56.669 2.699,-1.5242 0.7682,3.9226 -0.7029,0.4911 z"
       style="fill:#d87408;stroke:#000000;stroke-width:0.2;stroke-linejoin:round" />
    <path
       id="path14410"
       d="m 52.8703,64.6979 0.8435,-0.9376 3.2158,2.3756 -1.9115,1.9341 z"
       style="fill:#d87408;stroke:#000000;stroke-width:0.2;stroke-linejoin:round" />
    <path
       id="path14408"
       d="m 51.9445,65.0004 0.9258,-0.3025 2.1478,3.3721 -2.8218,0.9197 z"
       style="fill:#d87408;stroke:#000000;stroke-width:0.2;stroke-linejoin:round" />
    <path
       id="path14406"
       d="m 51.246,64.7829 0.6985,0.2175 0.2518,3.9893 -3.098,-0.8347 z"
       style="fill:#d87408;stroke:#000000;stroke-width:0.2;stroke-linejoin:round" />
    <path
       id="path14404"
       d="m 50.3631,63.8877 0.8829,0.8952 -2.1477,3.3721 -1.951,-1.8918 z"
       style="fill:#d87408;stroke:#000000;stroke-width:0.2;stroke-linejoin:round" />
    <path
       id="path14402"
       d="m 49.4807,62.4493 0.8824,1.4384 -3.2158,2.3755 -1.2131,-1.9652 z"
       style="fill:#d87408;stroke:#000000;stroke-width:0.2;stroke-linejoin:round" />
    <path
       id="path14400"
       d="m 48.5553,60.6741 0.9254,1.7752 -3.5465,1.8487 -0.9254,-1.7752 z"
       style="fill:#d87408;stroke:#000000;stroke-width:0.2;stroke-linejoin:round" />
    <path
       id="path14398"
       d="m 47.5415,58.7949 1.0138,1.8792 -3.5465,1.8487 -0.8817,-1.6457 z"
       style="fill:#d87408;stroke:#000000;stroke-width:0.2;stroke-linejoin:round" />
    <path
       id="path14396"
       d="m 46.0386,56.7785 1.5029,2.0164 -3.4144,2.0822 -0.8528,-1.2091 z"
       style="fill:#d87408;stroke:#000000;stroke-width:0.2;stroke-linejoin:round" />
    <path
       id="path14394"
       d="m 43.629,55.258 2.4096,1.5205 -2.7643,2.8895 -0.9188,-0.6211 z"
       style="fill:#d87408;stroke:#000000;stroke-width:0.2;stroke-linejoin:round" />
    <path
       id="path14392"
       d="M 41.0064,55 43.629,55.258 42.3555,59.0469 41.0064,59 Z"
       style="fill:#d87408;stroke:#000000;stroke-width:0.2;stroke-linejoin:round" />
    <path
       id="path14390"
       d="m 39.0043,55 h 2.0021 v 4 h -2.0021 z"
       style="fill:#d87408;stroke:#000000;stroke-width:0.2;stroke-linejoin:round" />
    <path
       id="path14388"
       d="m 37.0021,55 h 2.0022 v 4 h -2.0022 z"
       style="fill:#d87408;stroke:#000000;stroke-width:0.2;stroke-linejoin:round" />
    <path
       id="path14386"
       d="m 35,55 h 2.0021 v 4 H 35 Z"
       style="fill:#d87408;stroke:#000000;stroke-width:0.2;stroke-linejoin:round" />
    <path
       id="rect14365"
       d="m 26.9914,55 h 2.0021 v 4 h -2.0021 z"
       style="fill:#d87408;stroke:#000000;stroke-width:0.2;stroke-linejoin:round" />
  </g>
</svg>
