<?xml version="1.0" encoding="UTF-8" standalone="no"?>
<svg
   xmlns:dc="http://purl.org/dc/elements/1.1/"
   xmlns:cc="http://creativecommons.org/ns#"
   xmlns:rdf="http://www.w3.org/1999/02/22-rdf-syntax-ns#"
   xmlns:svg="http://www.w3.org/2000/svg"
   xmlns="http://www.w3.org/2000/svg"
   xmlns:sodipodi="http://sodipodi.sourceforge.net/DTD/sodipodi-0.dtd"
   xmlns:inkscape="http://www.inkscape.org/namespaces/inkscape"
   sodipodi:docname="eight-like-2-3.svg"
   inkscape:version="1.0 (4035a4fb49, 2020-05-01)"
   width="210mm"
   height="297mm"
   viewBox="0 0 210 297"
   version="1.1"
   id="svg10961">
  <defs
     id="defs10955" />
  <sodipodi:namedview
     inkscape:window-maximized="0"
     inkscape:window-y="0"
     inkscape:window-x="25"
     inkscape:window-height="1040"
     inkscape:window-width="1648"
     showgrid="true"
     inkscape:document-rotation="0"
     inkscape:current-layer="layer1"
     inkscape:document-units="mm"
     inkscape:cy="181.9221"
     inkscape:cx="274.08927"
     inkscape:zoom="3.959798"
     inkscape:pageshadow="2"
     inkscape:pageopacity="0.0"
     borderopacity="1.0"
     bordercolor="#666666"
     pagecolor="#ffffff"
     id="base">
    <inkscape:grid
       id="grid11524"
       type="xygrid" />
  </sodipodi:namedview>
  <metadata
     id="metadata10958">
    <rdf:RDF>
      <cc:Work
         rdf:about="">
        <dc:format>image/svg+xml</dc:format>
        <dc:type
           rdf:resource="http://purl.org/dc/dcmitype/StillImage" />
        <dc:title></dc:title>
      </cc:Work>
    </rdf:RDF>
  </metadata>
  <g
     id="layer1"
     inkscape:groupmode="layer"
     inkscape:label="Слой 1">
    <path
       id="path11941"
       d="m 112.7941,35 h 2.004 v 4 h -2.004 z"
       style="fill:#d87408;stroke:#000000;stroke-width:0.2;stroke-linejoin:round" />
    <path
       id="path11677"
       d="m 107.7931,36.4911 -0.046,-1.9221 3.995,-0.2027 0.05,2.0829 z"
       style="fill:#d87408;stroke:#000000;stroke-width:0.2;stroke-linejoin:round" />
    <path
       id="path11673"
       d="m 107.6721,40.2708 0.111,-1.8182 3.999,0.0419 -0.131,2.1791 z"
       style="fill:#d87408;stroke:#000000;stroke-width:0.2;stroke-linejoin:round" />
    <path
       id="path11675"
       d="m 107.7831,38.4526 0.01,-1.9615 3.999,-0.0419 -0.01,2.0453 z"
       style="fill:#d87408;stroke:#000000;stroke-width:0.2;stroke-linejoin:round" />
    <path
       id="path11939"
       d="m 110.7911,35 h 2.003 v 4 h -2.003 z"
       style="fill:#d87408;stroke:#000000;stroke-width:0.2;stroke-linejoin:round" />
    <path
       id="path11937"
       d="m 108.7871,35 h 2.004 v 4 h -2.004 z"
       style="fill:#d87408;stroke:#000000;stroke-width:0.2;stroke-linejoin:round" />
    <path
       id="path11935"
       d="m 106.7841,35 h 2.003 v 4 h -2.003 z"
       style="fill:#d87408;stroke:#000000;stroke-width:0.2;stroke-linejoin:round" />
    <path
       id="path11933"
       d="m 104.7801,35 h 2.004 v 4 h -2.004 z"
       style="fill:#d87408;stroke:#000000;stroke-width:0.2;stroke-linejoin:round" />
    <path
       id="path11931"
       d="m 102.7761,35 h 2.004 v 4 h -2.004 z"
       style="fill:#d87408;stroke:#000000;stroke-width:0.2;stroke-linejoin:round" />
    <path
       id="path11929"
       d="m 100.7731,35 h 2.003 v 4 h -2.003 z"
       style="fill:#d87408;stroke:#000000;stroke-width:0.2;stroke-linejoin:round" />
    <path
       id="path11927"
       d="m 99.4231,34.9494 1.35,0.0506 v 4 l -2.624,-0.2617 z"
       style="fill:#d87408;stroke:#000000;stroke-width:0.2;stroke-linejoin:round" />
    <path
       id="path11925"
       d="m 98.6151,34.4347 0.808,0.5147 -1.274,3.7889 -2.516,-1.6385 z"
       style="fill:#d87408;stroke:#000000;stroke-width:0.2;stroke-linejoin:round" />
    <path
       id="path11923"
       d="m 97.6551,33.1105 0.96,1.3242 -2.982,2.6651 -1.3926,-1.9071 z"
       style="fill:#d87408;stroke:#000000;stroke-width:0.2;stroke-linejoin:round" />
    <path
       id="path11921"
       d="m 96.7731,31.4631 0.882,1.6474 -3.4146,2.0822 -1.0137,-1.8809 z"
       style="fill:#d87408;stroke:#000000;stroke-width:0.2;stroke-linejoin:round" />
    <path
       id="path11919"
       d="m 95.8471,29.6866 0.926,1.7765 -3.5463,1.8487 -0.926,-1.7765 z"
       style="fill:#d87408;stroke:#000000;stroke-width:0.2;stroke-linejoin:round" />
    <path
       id="path11917"
       d="m 94.631,27.7216 1.2161,1.965 -3.5463,1.8487 -0.8856,-1.4382 z"
       style="fill:#d87408;stroke:#000000;stroke-width:0.2;stroke-linejoin:round" />
    <path
       id="path11915"
       d="m 92.6741,25.8341 1.9569,1.8875 -3.2158,2.3755 -0.8888,-0.8909 z"
       style="fill:#d87408;stroke:#000000;stroke-width:0.2;stroke-linejoin:round" />
    <path
       id="path11913"
       d="m 89.5715,25.0117 3.1026,0.8224 -2.1477,3.3721 -0.7031,-0.2052 z"
       style="fill:#d87408;stroke:#000000;stroke-width:0.2;stroke-linejoin:round" />
    <path
       id="path11911"
       d="m 86.7519,25.9425 2.8196,-0.9308 0.2518,3.9893 -0.9237,0.3136 z"
       style="fill:#d87408;stroke:#000000;stroke-width:0.2;stroke-linejoin:round" />
    <path
       id="path11909"
       d="m 84.8453,27.884 1.9066,-1.9415 2.1477,3.3721 -0.8385,0.9449 z"
       style="fill:#d87408;stroke:#000000;stroke-width:0.2;stroke-linejoin:round" />
    <path
       id="path11717"
       d="m 82.3746,31.677 -0.8645,-1.4514 3.2158,-2.3755 1.1952,1.9782 z"
       style="fill:#d87408;stroke:#000000;stroke-width:0.2;stroke-linejoin:round" />
    <path
       id="path11715"
       d="m 83.3006,33.4534 -0.926,-1.7764 3.5465,-1.8487 0.926,1.7764 z"
       style="fill:#d87408;stroke:#000000;stroke-width:0.2;stroke-linejoin:round" />
    <path
       id="path11907"
       d="m 83.6556,29.8656 1.1897,-1.9816 3.2158,2.3755 -0.859,1.4548 z"
       style="fill:#d87408;stroke:#000000;stroke-width:0.2;stroke-linejoin:round" />
    <path
       id="path11713"
       d="m 84.3236,35.3291 -1.023,-1.8757 3.5465,-1.8487 0.8909,1.6422 z"
       style="fill:#d87408;stroke:#000000;stroke-width:0.2;stroke-linejoin:round" />
    <path
       id="path11905"
       d="m 82.7296,31.6421 0.926,-1.7765 3.5465,1.8487 -0.926,1.7765 z"
       style="fill:#d87408;stroke:#000000;stroke-width:0.2;stroke-linejoin:round" />
    <path
       id="path11711"
       d="m 85.8569,37.3229 -1.5333,-1.9938 3.4144,-2.0822 0.8832,1.1865 z"
       style="fill:#d87408;stroke:#000000;stroke-width:0.2;stroke-linejoin:round" />
    <path
       id="path11903"
       d="m 81.8363,33.2829 0.8933,-1.6408 3.5465,1.8487 -1.0255,1.8743 z"
       style="fill:#d87408;stroke:#000000;stroke-width:0.2;stroke-linejoin:round" />
    <path
       id="path11901"
       d="m 80.9446,34.4625 0.8917,-1.1796 3.4143,2.0822 -1.5417,1.9869 z"
       style="fill:#d87408;stroke:#000000;stroke-width:0.2;stroke-linejoin:round" />
    <path
       id="path11899"
       d="m 80.2324,34.9387 0.7122,-0.4762 2.7643,2.8895 -2.7082,1.5093 z"
       style="fill:#d87408;stroke:#000000;stroke-width:0.2;stroke-linejoin:round" />
    <path
       id="path11897"
       d="m 79.2828,34.9023 0.9496,0.0364 0.7683,3.9226 -2.9914,-0.1701 z"
       style="fill:#d87408;stroke:#000000;stroke-width:0.2;stroke-linejoin:round" />
    <path
       id="path11895"
       d="m 78.5163,34.3244 0.7665,0.5779 -1.2735,3.7889 -2.4746,-1.7017 z"
       style="fill:#d87408;stroke:#000000;stroke-width:0.2;stroke-linejoin:round" />
    <path
       id="path11893"
       d="m 77.5778,32.9842 0.9385,1.3402 -2.9816,2.6651 -1.3713,-1.9231 z"
       style="fill:#d87408;stroke:#000000;stroke-width:0.2;stroke-linejoin:round" />
    <path
       id="path11891"
       d="m 76.7049,31.3318 0.8729,1.6524 -3.4144,2.0822 -1.005,-1.8859 z"
       style="fill:#d87408;stroke:#000000;stroke-width:0.2;stroke-linejoin:round" />
    <path
       id="path11889"
       d="m 75.7789,29.5554 0.926,1.7764 -3.5465,1.8487 -0.926,-1.7764 z"
       style="fill:#d87408;stroke:#000000;stroke-width:0.2;stroke-linejoin:round" />
    <path
       id="path11887"
       d="m 74.5431,27.6027 1.2358,1.9527 -3.5465,1.8487 -0.9051,-1.4259 z"
       style="fill:#d87408;stroke:#000000;stroke-width:0.2;stroke-linejoin:round" />
    <path
       id="path11885"
       d="m 72.5493,25.7546 1.9938,1.8481 -3.2158,2.3755 -0.9257,-0.8515 z"
       style="fill:#d87408;stroke:#000000;stroke-width:0.2;stroke-linejoin:round" />
    <path
       id="path11883"
       d="m 69.5014,25.0067 3.0479,0.7479 -2.1477,3.3721 -0.8045,-0.1215 z"
       style="fill:#d87408;stroke:#000000;stroke-width:0.2;stroke-linejoin:round" />
    <path
       id="path11881"
       d="m 67.2902,25.1679 2.2112,-0.1612 0.0957,3.9985 -1.7819,0.1275 z"
       style="fill:#d87408;stroke:#000000;stroke-width:0.2;stroke-linejoin:round" />
    <path
       id="path11879"
       d="m 64.9523,25.6993 2.3379,-0.5314 0.525,3.9648 -1.5637,0.3488 z"
       style="fill:#d87408;stroke:#000000;stroke-width:0.2;stroke-linejoin:round" />
    <path
       id="path11877"
       d="m 62.7132,26.7497 2.2391,-1.0504 1.2992,3.7822 -1.3816,0.6356 z"
       style="fill:#d87408;stroke:#000000;stroke-width:0.2;stroke-linejoin:round" />
    <path
       id="path11875"
       d="m 60.8098,28.3699 1.9034,-1.6202 2.1567,3.3674 -1.1295,0.9735 z"
       style="fill:#d87408;stroke:#000000;stroke-width:0.2;stroke-linejoin:round" />
    <path
       id="path11873"
       d="m 59.3847,30.5338 1.4251,-2.1639 2.9306,2.7207 -0.7546,1.1828 z"
       style="fill:#d87408;stroke:#000000;stroke-width:0.2;stroke-linejoin:round" />
    <path
       id="path11871"
       d="m 58.5708,32.7722 0.8139,-2.2384 3.6011,1.7396 -0.549,1.52 z"
       style="fill:#d87408;stroke:#000000;stroke-width:0.2;stroke-linejoin:round" />
    <path
       id="path11745"
       d="m 62.7703,39 h -2.0036 v -4 h 2.0036 z"
       style="fill:#d87408;stroke:#000000;stroke-width:0.2;stroke-linejoin:round" />
    <path
       id="path11747"
       d="m 60.7667,39 h -2.0036 v -4 h 2.0036 z"
       style="fill:#d87408;stroke:#000000;stroke-width:0.2;stroke-linejoin:round" />
    <path
       id="path11869"
       d="m 58.1114,35.0141 0.4594,-2.2419 3.866,1.0212 -0.3521,1.6778 z"
       style="fill:#d87408;stroke:#000000;stroke-width:0.2;stroke-linejoin:round" />
    <path
       id="path11749"
       d="m 58.7631,39 h -2.0035 v -4 h 2.0035 z"
       style="fill:#d87408;stroke:#000000;stroke-width:0.2;stroke-linejoin:round" />
    <path
       id="path11867"
       d="m 57.9088,37.1015 0.2026,-2.0874 3.9733,0.4571 -0.1852,1.8996 z"
       style="fill:#d87408;stroke:#000000;stroke-width:0.2;stroke-linejoin:round" />
    <path
       id="path11865"
       d="m 57.8175,39.2235 0.0913,-2.122 3.9907,0.2693 -0.0822,1.8807 z"
       style="fill:#d87408;stroke:#000000;stroke-width:0.2;stroke-linejoin:round" />
    <path
       id="path11863"
       d="m 57.8035,41.227 0.014,-2.0035 3.9998,0.028 -0.014,2.0034 z"
       style="fill:#d87408;stroke:#000000;stroke-width:0.2;stroke-linejoin:round" />
    <path
       id="path11861"
       d="m 57.7895,43.2305 0.014,-2.0035 3.9998,0.0279 -0.014,2.0035 z"
       style="fill:#d87408;stroke:#000000;stroke-width:0.2;stroke-linejoin:round" />
    <path
       id="path11859"
       d="m 57.7646,45.1801 0.0249,-1.9496 3.9998,0.0279 -0.0272,2.0569 z"
       style="fill:#d87408;stroke:#000000;stroke-width:0.2;stroke-linejoin:round" />
    <path
       id="path11857"
       d="m 57.664,47.1136 0.1006,-1.9335 3.9975,0.1352 -0.1074,2.0676 z"
       style="fill:#d87408;stroke:#000000;stroke-width:0.2;stroke-linejoin:round" />
    <path
       id="path11855"
       d="m 57.4471,48.8828 0.2169,-1.7692 3.9907,0.2693 -0.2712,2.2054 z"
       style="fill:#d87408;stroke:#000000;stroke-width:0.2;stroke-linejoin:round" />
    <path
       id="path11853"
       d="m 57.0354,50.6758 0.4117,-1.793 3.9364,0.7055 -0.4821,2.1088 z"
       style="fill:#d87408;stroke:#000000;stroke-width:0.2;stroke-linejoin:round" />
    <path
       id="path11851"
       d="m 56.4484,52.0373 0.587,-1.3615 3.866,1.0213 -0.9773,2.3183 z"
       style="fill:#d87408;stroke:#000000;stroke-width:0.2;stroke-linejoin:round" />
    <path
       id="path11849"
       d="m 55.5256,53.2651 0.9228,-1.2278 3.4757,1.9781 -1.4679,1.9704 z"
       style="fill:#d87408;stroke:#000000;stroke-width:0.2;stroke-linejoin:round" />
    <path
       id="path11847"
       d="m 54.4515,54.0456 1.0741,-0.7805 2.9306,2.7207 -2.134,1.5942 z"
       style="fill:#d87408;stroke:#000000;stroke-width:0.2;stroke-linejoin:round" />
    <path
       id="path11845"
       d="m 53.0166,54.6161 1.4349,-0.5705 1.8707,3.5344 -2.2796,0.9014 z"
       style="fill:#d87408;stroke:#000000;stroke-width:0.2;stroke-linejoin:round" />
    <path
       id="path11843"
       d="m 51.2997,54.931 1.7169,-0.3149 1.026,3.8653 -2.2178,0.4144 z"
       style="fill:#d87408;stroke:#000000;stroke-width:0.2;stroke-linejoin:round" />
    <path
       id="path11841"
       d="m 49.6881,54.9904 1.6116,-0.0594 0.5251,3.9648 -2.3885,0.084 z"
       style="fill:#d87408;stroke:#000000;stroke-width:0.2;stroke-linejoin:round" />
    <path
       id="path11839"
       d="m 48.9609,54.7268 0.7272,0.2636 -0.2518,3.9894 -2.9641,-1.1236 z"
       style="fill:#d87408;stroke:#000000;stroke-width:0.2;stroke-linejoin:round" />
    <path
       id="path11837"
       d="m 47.9805,53.6315 0.9804,1.0953 -2.4887,3.1294 -1.7074,-1.8492 z"
       style="fill:#d87408;stroke:#000000;stroke-width:0.2;stroke-linejoin:round" />
    <path
       id="path11599"
       d="m 41.5351,53.7405 0.859,-1.4548 3.5465,1.8487 -1.1897,1.9816 z"
       style="fill:#d87408;stroke:#000000;stroke-width:0.2;stroke-linejoin:round" />
    <path
       id="path11601"
       d="m 42.3941,52.2857 0.926,-1.7765 3.5465,1.8487 -0.926,1.7765 z"
       style="fill:#d87408;stroke:#000000;stroke-width:0.2;stroke-linejoin:round" />
    <path
       id="path11835"
       d="m 47.1394,52.1654 0.8411,1.4661 -3.2157,2.3755 -1.1719,-1.9929 z"
       style="fill:#d87408;stroke:#000000;stroke-width:0.2;stroke-linejoin:round" />
    <path
       id="path11603"
       d="m 43.3201,50.5092 1.0255,-1.8743 3.4143,2.0822 -0.8933,1.6408 z"
       style="fill:#d87408;stroke:#000000;stroke-width:0.2;stroke-linejoin:round" />
    <path
       id="path11833"
       d="m 46.2134,50.389 0.926,1.7764 -3.5465,1.8487 -0.926,-1.7764 z"
       style="fill:#d87408;stroke:#000000;stroke-width:0.2;stroke-linejoin:round" />
    <path
       id="path11605"
       d="m 44.3456,48.6349 1.5417,-1.9869 2.7643,2.8895 -0.8917,1.1796 z"
       style="fill:#d87408;stroke:#000000;stroke-width:0.2;stroke-linejoin:round" />
    <path
       id="path11831"
       d="m 45.1801,48.5192 1.0333,1.8698 -3.5465,1.8487 -0.9012,-1.6363 z"
       style="fill:#d87408;stroke:#000000;stroke-width:0.2;stroke-linejoin:round" />
    <path
       id="path11829"
       d="m 43.6109,46.5543 1.5692,1.9649 -3.4144,2.0822 -0.9191,-1.1577 z"
       style="fill:#d87408;stroke:#000000;stroke-width:0.2;stroke-linejoin:round" />
    <path
       id="path11827"
       d="m 40.8677,45.1126 2.7432,1.4417 -2.7643,2.8894 -0.7471,-0.4085 z"
       style="fill:#d87408;stroke:#000000;stroke-width:0.2;stroke-linejoin:round" />
    <path
       id="path11825"
       d="m 37.8809,45.352 2.9868,-0.2394 -0.7682,3.9226 -0.9451,0.1057 z"
       style="fill:#d87408;stroke:#000000;stroke-width:0.2;stroke-linejoin:round" />
    <path
       id="path11823"
       d="m 35.4443,47.1116 2.4366,-1.7596 1.2735,3.7889 -0.7284,0.6358 z"
       style="fill:#d87408;stroke:#000000;stroke-width:0.2;stroke-linejoin:round" />
    <path
       id="path11821"
       d="m 34.0928,49.0494 1.3515,-1.9378 2.9817,2.6651 -0.9188,1.3548 z"
       style="fill:#d87408;stroke:#000000;stroke-width:0.2;stroke-linejoin:round" />
    <path
       id="path11819"
       d="m 33.0957,50.9397 0.9971,-1.8903 3.4144,2.0821 -0.865,1.6569 z"
       style="fill:#d87408;stroke:#000000;stroke-width:0.2;stroke-linejoin:round" />
    <path
       id="path11817"
       d="m 32.1697,52.7161 0.926,-1.7764 3.5465,1.8487 -0.926,1.7764 z"
       style="fill:#d87408;stroke:#000000;stroke-width:0.2;stroke-linejoin:round" />
    <path
       id="path11815"
       d="m 31.2468,54.1308 0.9229,-1.4147 3.5465,1.8487 -1.2536,1.9415 z"
       style="fill:#d87408;stroke:#000000;stroke-width:0.2;stroke-linejoin:round" />
    <path
       id="path11813"
       d="m 30.4847,54.8209 0.7621,-0.6901 3.2158,2.3755 -2.238,1.9136 z"
       style="fill:#d87408;stroke:#000000;stroke-width:0.2;stroke-linejoin:round" />
    <path
       id="path11811"
       d="m 29.479,54.9889 1.0057,-0.168 1.7399,3.599 -2.8759,0.5661 z"
       style="fill:#d87408;stroke:#000000;stroke-width:0.2;stroke-linejoin:round" />
    <path
       id="path11809"
       d="m 27.6309,54.8873 1.8481,0.1016 -0.1303,3.9971 -2.1494,-0.1232 z"
       style="fill:#d87408;stroke:#000000;stroke-width:0.2;stroke-linejoin:round" />
    <path
       id="path11807"
       d="m 25.8839,54.6194 1.747,0.2679 -0.4316,3.9755 -2.2082,-0.3447 z"
       style="fill:#d87408;stroke:#000000;stroke-width:0.2;stroke-linejoin:round" />
    <path
       id="path11805"
       d="m 24.3255,54.0981 1.5584,0.5213 -0.8928,3.8987 -2.236,-0.7419 z"
       style="fill:#d87408;stroke:#000000;stroke-width:0.2;stroke-linejoin:round" />
    <path
       id="path11803"
       d="m 23.2838,53.4246 1.0417,0.6735 -1.5704,3.6781 -2.2927,-1.5177 z"
       style="fill:#d87408;stroke:#000000;stroke-width:0.2;stroke-linejoin:round" />
    <path
       id="path11801"
       d="m 22.4625,52.3237 0.8213,1.1009 -2.8214,2.8339 -1.5524,-2.0982 z"
       style="fill:#d87408;stroke:#000000;stroke-width:0.2;stroke-linejoin:round" />
    <path
       id="path11799"
       d="m 22.0405,51.0031 0.422,1.3206 -3.5525,1.8366 -0.8102,-2.4772 z"
       style="fill:#d87408;stroke:#000000;stroke-width:0.2;stroke-linejoin:round" />
    <path
       id="path11797"
       d="m 21.8398,49.2536 0.2007,1.7495 -3.9407,0.68 -0.2546,-2.2269 z"
       style="fill:#d87408;stroke:#000000;stroke-width:0.2;stroke-linejoin:round" />
    <path
       id="path11567"
       d="m 16.8017,45 h 2.0036 v 4 h -2.0036 z"
       style="fill:#d87408;stroke:#000000;stroke-width:0.2;stroke-linejoin:round" />
    <path
       id="path11569"
       d="m 18.8053,45 h 2.0036 v 4 h -2.0036 z"
       style="fill:#d87408;stroke:#000000;stroke-width:0.2;stroke-linejoin:round" />
    <path
       id="path11571"
       d="m 20.8089,45 h 2.0036 v 4 h -2.0036 z"
       style="fill:#d87408;stroke:#000000;stroke-width:0.2;stroke-linejoin:round" />
    <path
       id="path11795"
       d="m 21.8016,47.3312 0.0382,1.9224 -3.9946,0.2026 -0.0432,-2.0831 z"
       style="fill:#d87408;stroke:#000000;stroke-width:0.2;stroke-linejoin:round" />
    <path
       id="path11793"
       d="m 21.8152,45.3697 -0.0136,1.9615 -3.9996,0.0419 0.0136,-2.0453 z"
       style="fill:#d87408;stroke:#000000;stroke-width:0.2;stroke-linejoin:round" />
    <path
       id="path11791"
       d="m 21.9416,43.5524 -0.1264,1.8173 -3.9996,-0.0419 0.1469,-2.1782 z"
       style="fill:#d87408;stroke:#000000;stroke-width:0.2;stroke-linejoin:round" />
    <path
       id="path11789"
       d="m 22.2909,42.0829 -0.3493,1.4695 -3.9791,-0.4028 0.5659,-2.4225 z"
       style="fill:#d87408;stroke:#000000;stroke-width:0.2;stroke-linejoin:round" />
    <path
       id="path11787"
       d="m 22.9119,40.9693 -0.621,1.1136 -3.7625,-1.3558 1.3421,-2.3542 z"
       style="fill:#d87408;stroke:#000000;stroke-width:0.2;stroke-linejoin:round" />
    <path
       id="path11785"
       d="m 23.9559,40.1001 -1.044,0.8692 -3.0414,-2.5964 2.0092,-1.6907 z"
       style="fill:#d87408;stroke:#000000;stroke-width:0.2;stroke-linejoin:round" />
    <path
       id="path11783"
       d="m 25.309,39.5327 -1.3531,0.5674 -2.0762,-3.4179 2.3249,-0.9934 z"
       style="fill:#d87408;stroke:#000000;stroke-width:0.2;stroke-linejoin:round" />
    <path
       id="path11781"
       d="m 26.9309,39.1887 -1.6219,0.344 -1.1044,-3.8439 2.2947,-0.4756 z"
       style="fill:#d87408;stroke:#000000;stroke-width:0.2;stroke-linejoin:round" />
    <path
       id="path11779"
       d="m 28.7752,39.034 -1.8443,0.1547 -0.4316,-3.9755 2.1456,-0.1763 z"
       style="fill:#d87408;stroke:#000000;stroke-width:0.2;stroke-linejoin:round" />
    <path
       id="path11777"
       d="M 30.7128,39 28.7752,39.034 28.6449,35.0369 30.7128,35 Z"
       style="fill:#d87408;stroke:#000000;stroke-width:0.2;stroke-linejoin:round" />
    <path
       id="path11775"
       d="m 32.7164,39 h -2.0036 v -4 h 2.0036 z"
       style="fill:#d87408;stroke:#000000;stroke-width:0.2;stroke-linejoin:round" />
    <path
       id="path11773"
       d="M 34.72,39 H 32.7164 V 35 H 34.72 Z"
       style="fill:#d87408;stroke:#000000;stroke-width:0.2;stroke-linejoin:round" />
    <path
       id="path11771"
       d="M 36.7236,39 H 34.72 v -4 h 2.0036 z"
       style="fill:#d87408;stroke:#000000;stroke-width:0.2;stroke-linejoin:round" />
    <path
       id="path11769"
       d="m 38.7272,39 h -2.0036 v -4 h 2.0036 z"
       style="fill:#d87408;stroke:#000000;stroke-width:0.2;stroke-linejoin:round" />
    <path
       id="path11767"
       d="m 40.7308,39 h -2.0036 v -4 h 2.0036 z"
       style="fill:#d87408;stroke:#000000;stroke-width:0.2;stroke-linejoin:round" />
    <path
       id="path11765"
       d="m 42.7344,39 h -2.0036 v -4 h 2.0036 z"
       style="fill:#d87408;stroke:#000000;stroke-width:0.2;stroke-linejoin:round" />
    <path
       id="path11763"
       d="M 44.738,39 H 42.7344 V 35 H 44.738 Z"
       style="fill:#d87408;stroke:#000000;stroke-width:0.2;stroke-linejoin:round" />
    <path
       id="path11761"
       d="M 46.7416,39 H 44.738 v -4 h 2.0036 z"
       style="fill:#d87408;stroke:#000000;stroke-width:0.2;stroke-linejoin:round" />
    <path
       id="path11759"
       d="m 48.7452,39 h -2.0036 v -4 h 2.0036 z"
       style="fill:#d87408;stroke:#000000;stroke-width:0.2;stroke-linejoin:round" />
    <path
       id="path11757"
       d="m 50.7488,39 h -2.0036 v -4 h 2.0036 z"
       style="fill:#d87408;stroke:#000000;stroke-width:0.2;stroke-linejoin:round" />
    <path
       id="path11755"
       d="m 52.7524,39 h -2.0036 v -4 h 2.0036 z"
       style="fill:#d87408;stroke:#000000;stroke-width:0.2;stroke-linejoin:round" />
    <path
       id="path11753"
       d="M 54.756,39 H 52.7524 V 35 H 54.756 Z"
       style="fill:#d87408;stroke:#000000;stroke-width:0.2;stroke-linejoin:round" />
    <path
       id="path11751"
       d="M 56.7596,39 H 54.756 v -4 h 2.0036 z"
       style="fill:#d87408;stroke:#000000;stroke-width:0.2;stroke-linejoin:round" />
    <path
       id="path11743"
       d="m 64.7739,39 h -2.0036 v -4 h 2.0036 z"
       style="fill:#d87408;stroke:#000000;stroke-width:0.2;stroke-linejoin:round" />
    <path
       id="path11741"
       d="m 66.7775,39 h -2.0036 v -4 h 2.0036 z"
       style="fill:#d87408;stroke:#000000;stroke-width:0.2;stroke-linejoin:round" />
    <path
       id="path11739"
       d="m 68.7811,39 h -2.0036 v -4 h 2.0036 z"
       style="fill:#d87408;stroke:#000000;stroke-width:0.2;stroke-linejoin:round" />
    <path
       id="path11737"
       d="M 71.4068,38.7517 68.7811,39 v -4 l 1.3522,-0.0372 z"
       style="fill:#d87408;stroke:#000000;stroke-width:0.2;stroke-linejoin:round" />
    <path
       id="path11735"
       d="M 73.8243,37.2416 71.4068,38.7517 70.1333,34.9628 71.06,34.3521 Z"
       style="fill:#d87408;stroke:#000000;stroke-width:0.2;stroke-linejoin:round" />
    <path
       id="path11733"
       d="M 75.3338,35.2287 73.8243,37.2416 71.06,34.3521 71.9194,33.1465 Z"
       style="fill:#d87408;stroke:#000000;stroke-width:0.2;stroke-linejoin:round" />
    <path
       id="path11731"
       d="m 76.3499,33.3491 -1.0161,1.8796 -3.4144,-2.0822 0.884,-1.6461 z"
       style="fill:#d87408;stroke:#000000;stroke-width:0.2;stroke-linejoin:round" />
    <path
       id="path11729"
       d="m 77.2759,31.5727 -0.926,1.7764 -3.5465,-1.8487 0.926,-1.7764 z"
       style="fill:#d87408;stroke:#000000;stroke-width:0.2;stroke-linejoin:round" />
    <path
       id="path11727"
       d="m 78.1559,30.131 -0.88,1.4417 -3.5465,-1.8487 1.2108,-1.9685 z"
       style="fill:#d87408;stroke:#000000;stroke-width:0.2;stroke-linejoin:round" />
    <path
       id="path11725"
       d="m 79.0343,29.2288 -0.8784,0.9022 -3.2157,-2.3755 1.9464,-1.8988 z"
       style="fill:#d87408;stroke:#000000;stroke-width:0.2;stroke-linejoin:round" />
    <path
       id="path11723"
       d="m 79.7308,28.9984 -0.6965,0.2304 -2.1477,-3.3721 3.0961,-0.8477 z"
       style="fill:#d87408;stroke:#000000;stroke-width:0.2;stroke-linejoin:round" />
    <path
       id="path11721"
       d="m 80.6611,29.2919 -0.9303,-0.2935 0.2519,-3.9894 2.8261,0.9109 z"
       style="fill:#d87408;stroke:#000000;stroke-width:0.2;stroke-linejoin:round" />
    <path
       id="path11719"
       d="m 81.5101,30.2256 -0.849,-0.9337 2.1477,-3.372 1.9171,1.9302 z"
       style="fill:#d87408;stroke:#000000;stroke-width:0.2;stroke-linejoin:round" />
    <path
       id="path11709"
       d="m 88.5542,38.8532 -2.6973,-1.5303 2.7643,-2.8895 0.7013,0.4972 z"
       style="fill:#d87408;stroke:#000000;stroke-width:0.2;stroke-linejoin:round" />
    <path
       id="path11707"
       d="m 91.547,38.7046 -2.9928,0.1486 0.7683,-3.9226 0.9509,-0.0149 z"
       style="fill:#d87408;stroke:#000000;stroke-width:0.2;stroke-linejoin:round" />
    <path
       id="path11705"
       d="m 94.0335,37.0209 -2.4865,1.6837 -1.2736,-3.7889 0.7784,-0.5599 z"
       style="fill:#d87408;stroke:#000000;stroke-width:0.2;stroke-linejoin:round" />
    <path
       id="path11703"
       d="m 95.4111,35.1023 -1.3776,1.9186 -2.9817,-2.6651 0.9447,-1.3356 z"
       style="fill:#d87408;stroke:#000000;stroke-width:0.2;stroke-linejoin:round" />
    <path
       id="path11701"
       d="m 96.4181,33.2179 -1.007,1.8844 -3.4146,-2.0821 0.8753,-1.651 z"
       style="fill:#d87408;stroke:#000000;stroke-width:0.2;stroke-linejoin:round" />
    <path
       id="path11699"
       d="m 97.3441,31.4415 -0.926,1.7764 -3.5463,-1.8487 0.926,-1.7764 z"
       style="fill:#d87408;stroke:#000000;stroke-width:0.2;stroke-linejoin:round" />
    <path
       id="path11697"
       d="m 98.2441,30.012 -0.9,1.4295 -3.5463,-1.8487 1.2303,-1.9563 z"
       style="fill:#d87408;stroke:#000000;stroke-width:0.2;stroke-linejoin:round" />
    <path
       id="path11695"
       d="m 99.1591,29.1493 -0.915,0.8627 -3.216,-2.3755 1.983,-1.8593 z"
       style="fill:#d87408;stroke:#000000;stroke-width:0.2;stroke-linejoin:round" />
    <path
       id="path11693"
       d="m 99.9401,29.0053 -0.781,0.144 -2.148,-3.3721 3.059,-0.769 z"
       style="fill:#d87408;stroke:#000000;stroke-width:0.2;stroke-linejoin:round" />
    <path
       id="path11691"
       d="m 101.7891,29.0936 -1.849,-0.0883 0.13,-3.9971 2.15,0.1099 z"
       style="fill:#d87408;stroke:#000000;stroke-width:0.2;stroke-linejoin:round" />
    <path
       id="path11689"
       d="m 103.5391,29.3409 -1.75,-0.2473 0.431,-3.9755 2.212,0.3242 z"
       style="fill:#d87408;stroke:#000000;stroke-width:0.2;stroke-linejoin:round" />
    <path
       id="path11687"
       d="m 105.1071,29.8321 -1.568,-0.4912 0.893,-3.8986 2.246,0.7118 z"
       style="fill:#d87408;stroke:#000000;stroke-width:0.2;stroke-linejoin:round" />
    <path
       id="path11685"
       d="m 106.2971,30.5685 -1.19,-0.7364 1.571,-3.678 2.202,1.3617 z"
       style="fill:#d87408;stroke:#000000;stroke-width:0.2;stroke-linejoin:round" />
    <path
       id="path11683"
       d="m 107.0521,31.5185 -0.755,-0.95 2.583,-3.0527 1.724,2.1661 z"
       style="fill:#d87408;stroke:#000000;stroke-width:0.2;stroke-linejoin:round" />
    <path
       id="path11681"
       d="m 107.5251,32.8218 -0.473,-1.3033 3.552,-1.8366 0.862,2.4599 z"
       style="fill:#d87408;stroke:#000000;stroke-width:0.2;stroke-linejoin:round" />
    <path
       id="path11679"
       d="m 107.7471,34.569 -0.222,-1.7472 3.941,-0.68 0.276,2.2245 z"
       style="fill:#d87408;stroke:#000000;stroke-width:0.2;stroke-linejoin:round" />
    <path
       id="path11671"
       d="m 107.3651,41.7499 0.307,-1.4791 3.979,0.4028 -0.523,2.4322 z"
       style="fill:#d87408;stroke:#000000;stroke-width:0.2;stroke-linejoin:round" />
    <path
       id="path11669"
       d="m 106.6991,43.0189 0.666,-1.269 3.763,1.3559 -1.191,2.2596 z"
       style="fill:#d87408;stroke:#000000;stroke-width:0.2;stroke-linejoin:round" />
    <path
       id="path11667"
       d="m 105.7921,43.8077 0.907,-0.7888 3.238,2.3465 -2.069,1.8602 z"
       style="fill:#d87408;stroke:#000000;stroke-width:0.2;stroke-linejoin:round" />
    <path
       id="path11665"
       d="m 104.4581,44.4182 1.334,-0.6105 2.076,3.4179 -2.306,1.0366 z"
       style="fill:#d87408;stroke:#000000;stroke-width:0.2;stroke-linejoin:round" />
    <path
       id="path11663"
       d="m 102.8421,44.7921 1.616,-0.3739 1.104,3.844 -2.289,0.5054 z"
       style="fill:#d87408;stroke:#000000;stroke-width:0.2;stroke-linejoin:round" />
    <path
       id="path11661"
       d="m 100.9991,44.9602 1.843,-0.1681 0.431,3.9755 -2.144,0.1897 z"
       style="fill:#d87408;stroke:#000000;stroke-width:0.2;stroke-linejoin:round" />
    <path
       id="path11659"
       d="m 99.0611,45 1.938,-0.0398 0.13,3.9971 L 99.0611,49 Z"
       style="fill:#d87408;stroke:#000000;stroke-width:0.2;stroke-linejoin:round" />
    <path
       id="path11657"
       d="m 97.0571,45 h 2.004 v 4 h -2.004 z"
       style="fill:#d87408;stroke:#000000;stroke-width:0.2;stroke-linejoin:round" />
    <path
       id="path11655"
       d="m 95.0541,45 h 2.003 v 4 h -2.003 z"
       style="fill:#d87408;stroke:#000000;stroke-width:0.2;stroke-linejoin:round" />
    <path
       id="path11653"
       d="m 93.0503,45 h 2.0038 v 4 h -2.0038 z"
       style="fill:#d87408;stroke:#000000;stroke-width:0.2;stroke-linejoin:round" />
    <path
       id="path11651"
       d="m 91.0467,45 h 2.0036 v 4 h -2.0036 z"
       style="fill:#d87408;stroke:#000000;stroke-width:0.2;stroke-linejoin:round" />
    <path
       id="path11649"
       d="m 89.0431,45 h 2.0036 v 4 h -2.0036 z"
       style="fill:#d87408;stroke:#000000;stroke-width:0.2;stroke-linejoin:round" />
    <path
       id="path11647"
       d="m 87.0395,45 h 2.0036 v 4 h -2.0036 z"
       style="fill:#d87408;stroke:#000000;stroke-width:0.2;stroke-linejoin:round" />
    <path
       id="path11645"
       d="m 85.0359,45 h 2.0036 v 4 h -2.0036 z"
       style="fill:#d87408;stroke:#000000;stroke-width:0.2;stroke-linejoin:round" />
    <path
       id="path11643"
       d="m 83.0323,45 h 2.0036 v 4 h -2.0036 z"
       style="fill:#d87408;stroke:#000000;stroke-width:0.2;stroke-linejoin:round" />
    <path
       id="path11641"
       d="m 81.0288,45 h 2.0035 v 4 h -2.0035 z"
       style="fill:#d87408;stroke:#000000;stroke-width:0.2;stroke-linejoin:round" />
    <path
       id="path11639"
       d="m 79.0252,45 h 2.0036 v 4 h -2.0036 z"
       style="fill:#d87408;stroke:#000000;stroke-width:0.2;stroke-linejoin:round" />
    <path
       id="path11637"
       d="m 77.0216,45 h 2.0036 v 4 h -2.0036 z"
       style="fill:#d87408;stroke:#000000;stroke-width:0.2;stroke-linejoin:round" />
    <path
       id="path11635"
       d="m 75.018,45 h 2.0036 v 4 H 75.018 Z"
       style="fill:#d87408;stroke:#000000;stroke-width:0.2;stroke-linejoin:round" />
    <path
       id="path11633"
       d="m 73.0144,45 h 2.0036 v 4 h -2.0036 z"
       style="fill:#d87408;stroke:#000000;stroke-width:0.2;stroke-linejoin:round" />
    <path
       id="path11631"
       d="m 71.0108,45 h 2.0036 v 4 h -2.0036 z"
       style="fill:#d87408;stroke:#000000;stroke-width:0.2;stroke-linejoin:round" />
    <path
       id="path11629"
       d="m 69.0072,45 h 2.0036 v 4 h -2.0036 z"
       style="fill:#d87408;stroke:#000000;stroke-width:0.2;stroke-linejoin:round" />
    <path
       id="path11627"
       d="m 67.0036,45 h 2.0036 v 4 h -2.0036 z"
       style="fill:#d87408;stroke:#000000;stroke-width:0.2;stroke-linejoin:round" />
    <path
       id="path11625"
       d="m 65,45 h 2.0036 v 4 H 65 Z"
       style="fill:#d87408;stroke:#000000;stroke-width:0.2;stroke-linejoin:round" />
    <path
       id="path11623"
       d="M 62.9964,45 H 65 v 4 h -2.0036 z"
       style="fill:#d87408;stroke:#000000;stroke-width:0.2;stroke-linejoin:round" />
    <path
       id="path11621"
       d="m 60.9928,45 h 2.0036 v 4 h -2.0036 z"
       style="fill:#d87408;stroke:#000000;stroke-width:0.2;stroke-linejoin:round" />
    <path
       id="path11619"
       d="m 58.9892,45 h 2.0036 v 4 h -2.0036 z"
       style="fill:#d87408;stroke:#000000;stroke-width:0.2;stroke-linejoin:round" />
    <path
       id="path11617"
       d="m 56.9856,45 h 2.0036 v 4 h -2.0036 z"
       style="fill:#d87408;stroke:#000000;stroke-width:0.2;stroke-linejoin:round" />
    <path
       id="path11615"
       d="m 54.982,45 h 2.0036 v 4 H 54.982 Z"
       style="fill:#d87408;stroke:#000000;stroke-width:0.2;stroke-linejoin:round" />
    <path
       id="path11613"
       d="m 52.9784,45 h 2.0036 v 4 h -2.0036 z"
       style="fill:#d87408;stroke:#000000;stroke-width:0.2;stroke-linejoin:round" />
    <path
       id="path11611"
       d="m 50.9748,45 h 2.0036 v 4 h -2.0036 z"
       style="fill:#d87408;stroke:#000000;stroke-width:0.2;stroke-linejoin:round" />
    <path
       id="path11609"
       d="M 48.5955,45.1387 50.9748,45 v 4 l -1.611,0.0613 z"
       style="fill:#d87408;stroke:#000000;stroke-width:0.2;stroke-linejoin:round" />
    <path
       id="path11607"
       d="m 45.8873,46.648 2.7082,-1.5093 0.7683,3.9226 -0.7122,0.4762 z"
       style="fill:#d87408;stroke:#000000;stroke-width:0.2;stroke-linejoin:round" />
    <path
       id="path11597"
       d="m 40.6966,54.6854 0.8385,-0.9449 3.2158,2.3755 -1.9066,1.9415 z"
       style="fill:#d87408;stroke:#000000;stroke-width:0.2;stroke-linejoin:round" />
    <path
       id="path11595"
       d="m 39.7729,54.999 0.9237,-0.3136 2.1477,3.3721 -2.8196,0.9308 z"
       style="fill:#d87408;stroke:#000000;stroke-width:0.2;stroke-linejoin:round" />
    <path
       id="path11593"
       d="m 39.0698,54.7938 0.7031,0.2052 0.2518,3.9893 -3.1026,-0.8224 z"
       style="fill:#d87408;stroke:#000000;stroke-width:0.2;stroke-linejoin:round" />
    <path
       id="path11591"
       d="m 38.181,53.9029 0.8888,0.8909 -2.1477,3.3721 -1.9569,-1.8875 z"
       style="fill:#d87408;stroke:#000000;stroke-width:0.2;stroke-linejoin:round" />
    <path
       id="path11589"
       d="m 37.2954,52.4647 0.8856,1.4382 -3.2158,2.3755 -1.2163,-1.965 z"
       style="fill:#d87408;stroke:#000000;stroke-width:0.2;stroke-linejoin:round" />
    <path
       id="path11587"
       d="m 36.3694,50.6882 0.926,1.7765 -3.5465,1.8487 -0.926,-1.7765 z"
       style="fill:#d87408;stroke:#000000;stroke-width:0.2;stroke-linejoin:round" />
    <path
       id="path11585"
       d="m 35.3557,48.8073 1.0137,1.8809 -3.5465,1.8487 -0.8815,-1.6474 z"
       style="fill:#d87408;stroke:#000000;stroke-width:0.2;stroke-linejoin:round" />
    <path
       id="path11583"
       d="m 33.9629,46.9002 1.3928,1.9071 -3.4143,2.0822 -0.9601,-1.3242 z"
       style="fill:#d87408;stroke:#000000;stroke-width:0.2;stroke-linejoin:round" />
    <path
       id="path11581"
       d="m 31.4467,45.2617 2.5162,1.6385 -2.9816,2.6651 -0.8081,-0.5147 z"
       style="fill:#d87408;stroke:#000000;stroke-width:0.2;stroke-linejoin:round" />
    <path
       id="path11579"
       d="m 28.8233,45 2.6234,0.2617 -1.2735,3.7889 L 28.8233,49 Z"
       style="fill:#d87408;stroke:#000000;stroke-width:0.2;stroke-linejoin:round" />
    <path
       id="path11577"
       d="m 26.8197,45 h 2.0036 v 4 h -2.0036 z"
       style="fill:#d87408;stroke:#000000;stroke-width:0.2;stroke-linejoin:round" />
    <path
       id="path11575"
       d="m 24.8161,45 h 2.0036 v 4 h -2.0036 z"
       style="fill:#d87408;stroke:#000000;stroke-width:0.2;stroke-linejoin:round" />
    <path
       id="path11573"
       d="m 22.8125,45 h 2.0036 v 4 h -2.0036 z"
       style="fill:#d87408;stroke:#000000;stroke-width:0.2;stroke-linejoin:round" />
    <path
       id="rect11552"
       d="m 14.7981,45 h 2.0036 v 4 h -2.0036 z"
       style="fill:#d87408;stroke:#000000;stroke-width:0.2;stroke-linejoin:round" />
  </g>
</svg>
