<?xml version="1.0" encoding="UTF-8" standalone="no"?>
<svg
   xmlns:dc="http://purl.org/dc/elements/1.1/"
   xmlns:cc="http://creativecommons.org/ns#"
   xmlns:rdf="http://www.w3.org/1999/02/22-rdf-syntax-ns#"
   xmlns:svg="http://www.w3.org/2000/svg"
   xmlns="http://www.w3.org/2000/svg"
   xmlns:sodipodi="http://sodipodi.sourceforge.net/DTD/sodipodi-0.dtd"
   xmlns:inkscape="http://www.inkscape.org/namespaces/inkscape"
   sodipodi:docname="eight-like-2-0.svg"
   inkscape:version="1.0 (4035a4fb49, 2020-05-01)"
   width="210mm"
   height="297mm"
   viewBox="0 0 210 297"
   version="1.1"
   id="svg8">
  <defs
     id="defs2" />
  <sodipodi:namedview
     inkscape:window-maximized="0"
     inkscape:window-y="0"
     inkscape:window-x="25"
     inkscape:window-height="1040"
     inkscape:window-width="1648"
     showgrid="true"
     inkscape:document-rotation="0"
     inkscape:current-layer="layer1"
     inkscape:document-units="mm"
     inkscape:cy="188.70643"
     inkscape:cx="133.87825"
     inkscape:zoom="2.8"
     inkscape:pageshadow="2"
     inkscape:pageopacity="0.0"
     borderopacity="1.0"
     bordercolor="#666666"
     pagecolor="#ffffff"
     id="base">
    <inkscape:grid
       id="grid833"
       type="xygrid" />
  </sodipodi:namedview>
  <metadata
     id="metadata5">
    <rdf:RDF>
      <cc:Work
         rdf:about="">
        <dc:format>image/svg+xml</dc:format>
        <dc:type
           rdf:resource="http://purl.org/dc/dcmitype/StillImage" />
        <dc:title></dc:title>
      </cc:Work>
    </rdf:RDF>
  </metadata>
  <g
     id="layer1"
     inkscape:groupmode="layer"
     inkscape:label="Слой 1">
    <path
       id="path1130"
       d="m 77.6615,26.9089 h 2.0075 v 4 h -2.0075 z"
       style="fill:#d87408;stroke:#000000;stroke-width:0.2;stroke-linejoin:round" />
    <path
       id="path954"
       d="m 72.6548,30.261 0.0078,-1.9653 3.9995,-0.0419 -0.0077,2.0491 z"
       style="fill:#d87408;stroke:#000000;stroke-width:0.2;stroke-linejoin:round" />
    <path
       id="path956"
       d="m 72.6626,28.2957 -0.0497,-1.9259 3.9945,-0.2027 0.0547,2.0867 z"
       style="fill:#d87408;stroke:#000000;stroke-width:0.2;stroke-linejoin:round" />
    <path
       id="path952"
       d="m 72.5532,32.0836 0.1016,-1.8226 3.9996,0.0419 -0.1222,2.1835 z"
       style="fill:#d87408;stroke:#000000;stroke-width:0.2;stroke-linejoin:round" />
    <path
       id="path1128"
       d="m 75.6541,26.9089 h 2.0074 v 4 h -2.0074 z"
       style="fill:#d87408;stroke:#000000;stroke-width:0.2;stroke-linejoin:round" />
    <path
       id="path1126"
       d="m 73.6466,26.9089 h 2.0075 v 4 h -2.0075 z"
       style="fill:#d87408;stroke:#000000;stroke-width:0.2;stroke-linejoin:round" />
    <path
       id="path1124"
       d="m 71.6392,26.9089 h 2.0074 v 4 h -2.0074 z"
       style="fill:#d87408;stroke:#000000;stroke-width:0.2;stroke-linejoin:round" />
    <path
       id="path1122"
       d="m 69.6317,26.9089 h 2.0075 v 4 h -2.0075 z"
       style="fill:#d87408;stroke:#000000;stroke-width:0.2;stroke-linejoin:round" />
    <path
       id="path1120"
       d="m 67.6243,26.9089 h 2.0074 v 4 h -2.0074 z"
       style="fill:#d87408;stroke:#000000;stroke-width:0.2;stroke-linejoin:round" />
    <path
       id="path1118"
       d="m 65.6168,26.9089 h 2.0075 v 4 h -2.0075 z"
       style="fill:#d87408;stroke:#000000;stroke-width:0.2;stroke-linejoin:round" />
    <path
       id="path1116"
       d="m 63.6094,26.9089 h 2.0074 v 4 h -2.0074 z"
       style="fill:#d87408;stroke:#000000;stroke-width:0.2;stroke-linejoin:round" />
    <path
       id="path1114"
       d="m 61.6019,26.9089 h 2.0075 v 4 h -2.0075 z"
       style="fill:#d87408;stroke:#000000;stroke-width:0.2;stroke-linejoin:round" />
    <path
       id="path1112"
       d="m 59.5945,26.9089 h 2.0074 v 4 h -2.0074 z"
       style="fill:#d87408;stroke:#000000;stroke-width:0.2;stroke-linejoin:round" />
    <path
       id="path1110"
       d="m 57.587,26.9089 h 2.0075 v 4 H 57.587 Z"
       style="fill:#d87408;stroke:#000000;stroke-width:0.2;stroke-linejoin:round" />
    <path
       id="path1108"
       d="m 55.5796,26.9089 h 2.0074 v 4 h -2.0074 z"
       style="fill:#d87408;stroke:#000000;stroke-width:0.2;stroke-linejoin:round" />
    <path
       id="path1106"
       d="m 53.5721,26.9089 h 2.0075 v 4 h -2.0075 z"
       style="fill:#d87408;stroke:#000000;stroke-width:0.2;stroke-linejoin:round" />
    <path
       id="path1104"
       d="m 51.5647,26.9089 h 2.0074 v 4 h -2.0074 z"
       style="fill:#d87408;stroke:#000000;stroke-width:0.2;stroke-linejoin:round" />
    <path
       id="path1102"
       d="m 49.5572,26.9089 h 2.0075 v 4 h -2.0075 z"
       style="fill:#d87408;stroke:#000000;stroke-width:0.2;stroke-linejoin:round" />
    <path
       id="path1100"
       d="m 47.5497,26.9089 h 2.0075 v 4 h -2.0075 z"
       style="fill:#d87408;stroke:#000000;stroke-width:0.2;stroke-linejoin:round" />
    <path
       id="path1098"
       d="m 45.5423,26.9089 h 2.0074 v 4 h -2.0074 z"
       style="fill:#d87408;stroke:#000000;stroke-width:0.2;stroke-linejoin:round" />
    <path
       id="path1096"
       d="m 43.5348,26.9089 h 2.0075 v 4 h -2.0075 z"
       style="fill:#d87408;stroke:#000000;stroke-width:0.2;stroke-linejoin:round" />
    <path
       id="path1094"
       d="m 41.5274,26.9089 h 2.0074 v 4 h -2.0074 z"
       style="fill:#d87408;stroke:#000000;stroke-width:0.2;stroke-linejoin:round" />
    <path
       id="path1092"
       d="m 39.5199,26.9089 h 2.0075 v 4 h -2.0075 z"
       style="fill:#d87408;stroke:#000000;stroke-width:0.2;stroke-linejoin:round" />
    <path
       id="path1090"
       d="m 37.5125,26.9089 h 2.0074 v 4 h -2.0074 z"
       style="fill:#d87408;stroke:#000000;stroke-width:0.2;stroke-linejoin:round" />
    <path
       id="path1088"
       d="m 35.505,26.9089 h 2.0075 v 4 H 35.505 Z"
       style="fill:#d87408;stroke:#000000;stroke-width:0.2;stroke-linejoin:round" />
    <path
       id="path1086"
       d="m 33.4976,26.9089 h 2.0074 v 4 h -2.0074 z"
       style="fill:#d87408;stroke:#000000;stroke-width:0.2;stroke-linejoin:round" />
    <path
       id="path1084"
       d="m 31.4901,26.9089 h 2.0075 v 4 h -2.0075 z"
       style="fill:#d87408;stroke:#000000;stroke-width:0.2;stroke-linejoin:round" />
    <path
       id="path1082"
       d="m 29.4827,26.9089 h 2.0074 v 4 h -2.0074 z"
       style="fill:#d87408;stroke:#000000;stroke-width:0.2;stroke-linejoin:round" />
    <path
       id="path1080"
       d="m 27.4752,26.9089 h 2.0075 v 4 h -2.0075 z"
       style="fill:#d87408;stroke:#000000;stroke-width:0.2;stroke-linejoin:round" />
    <path
       id="path1078"
       d="m 25.4678,26.9089 h 2.0074 v 4 h -2.0074 z"
       style="fill:#d87408;stroke:#000000;stroke-width:0.2;stroke-linejoin:round" />
    <path
       id="path1076"
       d="m 23.396,26.9497 2.0718,-0.0408 v 4 l -1.9415,0.0379 z"
       style="fill:#d87408;stroke:#000000;stroke-width:0.2;stroke-linejoin:round" />
    <path
       id="path1074"
       d="m 21.2473,27.1355 2.1487,-0.1858 0.1303,3.9971 -1.8475,0.1642 z"
       style="fill:#d87408;stroke:#000000;stroke-width:0.2;stroke-linejoin:round" />
    <path
       id="path1072"
       d="m 18.953,27.6329 2.2943,-0.4974 0.4315,3.9755 -1.6215,0.3659 z"
       style="fill:#d87408;stroke:#000000;stroke-width:0.2;stroke-linejoin:round" />
    <path
       id="path1070"
       d="m 16.6383,28.6593 2.3147,-1.0264 1.1043,3.844 -1.3428,0.6003 z"
       style="fill:#d87408;stroke:#000000;stroke-width:0.2;stroke-linejoin:round" />
    <path
       id="path1068"
       d="m 14.6536,30.3846 1.9847,-1.7253 2.0762,3.4179 -1.0195,0.9038 z"
       style="fill:#d87408;stroke:#000000;stroke-width:0.2;stroke-linejoin:round" />
    <path
       id="path1066"
       d="m 13.3521,32.7668 1.3015,-2.3822 3.0414,2.5964 -0.5803,1.1417 z"
       style="fill:#d87408;stroke:#000000;stroke-width:0.2;stroke-linejoin:round" />
    <path
       id="path1064"
       d="m 12.819,35.2007 0.5331,-2.4339 3.7626,1.3559 -0.3166,1.4808 z"
       style="fill:#d87408;stroke:#000000;stroke-width:0.2;stroke-linejoin:round" />
    <path
       id="path876"
       d="m 11.6765,36.9089 h 2.0074 v 4 h -2.0074 z"
       style="fill:#d87408;stroke:#000000;stroke-width:0.2;stroke-linejoin:round" />
    <path
       id="path878"
       d="m 13.6839,36.9089 h 2.0075 v 4 h -2.0075 z"
       style="fill:#d87408;stroke:#000000;stroke-width:0.2;stroke-linejoin:round" />
    <path
       id="path880"
       d="m 15.6914,36.9089 h 2.0074 v 4 h -2.0074 z"
       style="fill:#d87408;stroke:#000000;stroke-width:0.2;stroke-linejoin:round" />
    <path
       id="path1062"
       d="m 12.685,37.3835 0.134,-2.1828 3.9791,0.4028 -0.1136,1.8219 z"
       style="fill:#d87408;stroke:#000000;stroke-width:0.2;stroke-linejoin:round" />
    <path
       id="path1060"
       d="m 12.6745,39.4327 0.0105,-2.0492 3.9995,0.0419 -0.0105,1.9654 z"
       style="fill:#d87408;stroke:#000000;stroke-width:0.2;stroke-linejoin:round" />
    <path
       id="path1058"
       d="m 12.7239,41.5195 -0.0494,-2.0868 3.9995,-0.0419 0.0445,1.926 z"
       style="fill:#d87408;stroke:#000000;stroke-width:0.2;stroke-linejoin:round" />
    <path
       id="path1056"
       d="m 12.9977,43.7481 -0.2738,-2.2286 3.9946,-0.2027 0.2198,1.7513 z"
       style="fill:#d87408;stroke:#000000;stroke-width:0.2;stroke-linejoin:round" />
    <path
       id="path1054"
       d="m 13.8554,46.2133 -0.8577,-2.4652 3.9406,-0.68 0.4696,1.3086 z"
       style="fill:#d87408;stroke:#000000;stroke-width:0.2;stroke-linejoin:round" />
    <path
       id="path1052"
       d="m 15.5778,48.3856 -1.7224,-2.1723 3.5525,-1.8366 0.7531,0.9562 z"
       style="fill:#d87408;stroke:#000000;stroke-width:0.2;stroke-linejoin:round" />
    <path
       id="path1050"
       d="m 17.7823,49.7518 -2.2045,-1.3662 2.5832,-3.0527 1.1917,0.7409 z"
       style="fill:#d87408;stroke:#000000;stroke-width:0.2;stroke-linejoin:round" />
    <path
       id="path1048"
       d="m 20.0315,50.4658 -2.2492,-0.714 1.5704,-3.678 1.5716,0.4933 z"
       style="fill:#d87408;stroke:#000000;stroke-width:0.2;stroke-linejoin:round" />
    <path
       id="path1046"
       d="m 22.2468,50.7908 -2.2153,-0.325 0.8928,-3.8987 1.7541,0.2482 z"
       style="fill:#d87408;stroke:#000000;stroke-width:0.2;stroke-linejoin:round" />
    <path
       id="path1044"
       d="m 24.4011,50.9008 -2.1543,-0.11 0.4316,-3.9755 1.8529,0.0884 z"
       style="fill:#d87408;stroke:#000000;stroke-width:0.2;stroke-linejoin:round" />
    <path
       id="path1042"
       d="m 27.4623,50.1275 -3.0612,0.7733 0.1302,-3.9971 0.7833,-0.1483 z"
       style="fill:#d87408;stroke:#000000;stroke-width:0.2;stroke-linejoin:round" />
    <path
       id="path1040"
       d="m 29.4459,48.2631 -1.9836,1.8644 -2.1477,-3.3721 0.9155,-0.8679 z"
       style="fill:#d87408;stroke:#000000;stroke-width:0.2;stroke-linejoin:round" />
    <path
       id="path1038"
       d="m 30.6764,46.3024 -1.2305,1.9607 -3.2158,-2.3756 0.8998,-1.4338 z"
       style="fill:#d87408;stroke:#000000;stroke-width:0.2;stroke-linejoin:round" />
    <path
       id="path1036"
       d="m 31.6042,44.5226 -0.9278,1.7798 -3.5465,-1.8487 0.9278,-1.7798 z"
       style="fill:#d87408;stroke:#000000;stroke-width:0.2;stroke-linejoin:round" />
    <path
       id="path1034"
       d="m 32.4827,42.869 -0.8785,1.6536 -3.5465,-1.8487 1.0106,-1.8871 z"
       style="fill:#d87408;stroke:#000000;stroke-width:0.2;stroke-linejoin:round" />
    <path
       id="path1032"
       d="m 33.4333,41.5329 -0.9506,1.3361 -3.4144,-2.0822 1.3833,-1.919 z"
       style="fill:#d87408;stroke:#000000;stroke-width:0.2;stroke-linejoin:round" />
    <path
       id="path1030"
       d="m 34.2229,40.9834 -0.7896,0.5495 -2.9817,-2.6651 2.4978,-1.6733 z"
       style="fill:#d87408;stroke:#000000;stroke-width:0.2;stroke-linejoin:round" />
    <path
       id="path1028"
       d="m 34.9256,40.9197 -0.7027,0.0637 -1.2735,-3.7889 3.2498,-0.0637 z"
       style="fill:#d87408;stroke:#000000;stroke-width:0.2;stroke-linejoin:round" />
    <path
       id="path1026"
       d="m 35.8738,41.5021 -0.9482,-0.5824 1.2736,-3.7889 2.4389,1.4819 z"
       style="fill:#d87408;stroke:#000000;stroke-width:0.2;stroke-linejoin:round" />
    <path
       id="path912"
       d="m 38.2249,42.3531 1.0317,-1.8751 3.4144,2.0821 -0.8996,1.6417 z"
       style="fill:#d87408;stroke:#000000;stroke-width:0.2;stroke-linejoin:round" />
    <path
       id="path914"
       d="m 39.2566,40.478 1.5602,-1.9771 2.7643,2.8894 -0.9101,1.1698 z"
       style="fill:#d87408;stroke:#000000;stroke-width:0.2;stroke-linejoin:round" />
    <path
       id="path1024"
       d="m 36.7512,42.6982 -0.8774,-1.1961 2.7643,-2.8894 1.5275,2.0034 z"
       style="fill:#d87408;stroke:#000000;stroke-width:0.2;stroke-linejoin:round" />
    <path
       id="path910"
       d="m 37.2971,44.133 0.9278,-1.7799 3.5465,1.8487 -0.9278,1.7799 z"
       style="fill:#d87408;stroke:#000000;stroke-width:0.2;stroke-linejoin:round" />
    <path
       id="path1022"
       d="m 37.6414,44.3453 -0.8902,-1.6471 3.4144,-2.0821 1.0223,1.8805 z"
       style="fill:#d87408;stroke:#000000;stroke-width:0.2;stroke-linejoin:round" />
    <path
       id="path908"
       d="m 36.445,45.5967 0.8521,-1.4637 3.5465,1.8487 -1.1828,1.9905 z"
       style="fill:#d87408;stroke:#000000;stroke-width:0.2;stroke-linejoin:round" />
    <path
       id="path1020"
       d="m 38.5692,46.1251 -0.9278,-1.7798 3.5465,-1.8487 0.9278,1.7798 z"
       style="fill:#d87408;stroke:#000000;stroke-width:0.2;stroke-linejoin:round" />
    <path
       id="path1018"
       d="m 39.7733,48.1023 -1.2041,-1.9772 3.5465,-1.8487 0.8734,1.4504 z"
       style="fill:#d87408;stroke:#000000;stroke-width:0.2;stroke-linejoin:round" />
    <path
       id="path1016"
       d="m 41.7071,50.0201 -1.9338,-1.9178 3.2158,-2.3755 0.8657,0.9212 z"
       style="fill:#d87408;stroke:#000000;stroke-width:0.2;stroke-linejoin:round" />
    <path
       id="path1014"
       d="m 44.7198,50.9081 -3.0127,-0.888 2.1477,-3.3721 0.7693,0.2616 z"
       style="fill:#d87408;stroke:#000000;stroke-width:0.2;stroke-linejoin:round" />
    <path
       id="path1012"
       d="m 46.9369,50.7728 -2.2171,0.1353 -0.0957,-3.9985 1.7877,-0.1016 z"
       style="fill:#d87408;stroke:#000000;stroke-width:0.2;stroke-linejoin:round" />
    <path
       id="path1010"
       d="m 49.1524,50.3269 -2.2155,0.4459 -0.5251,-3.9648 1.7146,-0.3464 z"
       style="fill:#d87408;stroke:#000000;stroke-width:0.2;stroke-linejoin:round" />
    <path
       id="path1008"
       d="m 51.5566,49.2856 -2.4042,1.0413 -1.026,-3.8653 1.2735,-0.5434 z"
       style="fill:#d87408;stroke:#000000;stroke-width:0.2;stroke-linejoin:round" />
    <path
       id="path1006"
       d="m 53.5005,47.708 -1.9439,1.5776 -2.1567,-3.3674 1.17,-0.931 z"
       style="fill:#d87408;stroke:#000000;stroke-width:0.2;stroke-linejoin:round" />
    <path
       id="path1004"
       d="m 54.9838,45.5792 -1.4833,2.1288 -2.9306,-2.7208 0.8128,-1.1476 z"
       style="fill:#d87408;stroke:#000000;stroke-width:0.2;stroke-linejoin:round" />
    <path
       id="path1002"
       d="m 55.8394,43.3521 -0.8556,2.2271 -3.6011,-1.7396 0.5907,-1.5088 z"
       style="fill:#d87408;stroke:#000000;stroke-width:0.2;stroke-linejoin:round" />
    <path
       id="path1000"
       d="m 56.3014,41.2349 -0.462,2.1172 -3.866,-1.0213 0.3916,-1.8014 z"
       style="fill:#d87408;stroke:#000000;stroke-width:0.2;stroke-linejoin:round" />
    <path
       id="path998"
       d="m 56.5438,39.0221 -0.2424,2.2128 -3.9364,-0.7055 0.1881,-1.7767 z"
       style="fill:#d87408;stroke:#000000;stroke-width:0.2;stroke-linejoin:round" />
    <path
       id="path996"
       d="m 56.6423,36.9502 -0.0985,2.0719 -3.9907,-0.2694 0.0916,-1.9377 z"
       style="fill:#d87408;stroke:#000000;stroke-width:0.2;stroke-linejoin:round" />
    <path
       id="path994"
       d="m 56.6622,34.8893 -0.0199,2.0609 -3.9976,-0.1352 0.0177,-1.9536 z"
       style="fill:#d87408;stroke:#000000;stroke-width:0.2;stroke-linejoin:round" />
    <path
       id="path992"
       d="m 56.6762,32.8819 -0.014,2.0074 -3.9998,-0.0279 0.014,-2.0074 z"
       style="fill:#d87408;stroke:#000000;stroke-width:0.2;stroke-linejoin:round" />
    <path
       id="path990"
       d="m 56.6958,30.9283 -0.0196,1.9536 -3.9998,-0.0279 0.0218,-2.0609 z"
       style="fill:#d87408;stroke:#000000;stroke-width:0.2;stroke-linejoin:round" />
    <path
       id="path988"
       d="m 56.7899,28.9907 -0.0941,1.9376 -3.9976,-0.1352 0.101,-2.0717 z"
       style="fill:#d87408;stroke:#000000;stroke-width:0.2;stroke-linejoin:round" />
    <path
       id="path986"
       d="m 56.9862,27.215 -0.1963,1.7757 -3.9907,-0.2693 0.2505,-2.2119 z"
       style="fill:#d87408;stroke:#000000;stroke-width:0.2;stroke-linejoin:round" />
    <path
       id="path984"
       d="m 57.3836,25.4149 -0.3974,1.8001 -3.9365,-0.7055 0.4679,-2.1159 z"
       style="fill:#d87408;stroke:#000000;stroke-width:0.2;stroke-linejoin:round" />
    <path
       id="path982"
       d="m 57.9276,24.0317 -0.544,1.3832 -3.866,-1.0213 0.9343,-2.34 z"
       style="fill:#d87408;stroke:#000000;stroke-width:0.2;stroke-linejoin:round" />
    <path
       id="path980"
       d="m 58.8188,22.776 -0.8912,1.2557 -3.4757,-1.9781 1.4363,-1.9984 z"
       style="fill:#d87408;stroke:#000000;stroke-width:0.2;stroke-linejoin:round" />
    <path
       id="path978"
       d="m 59.8596,21.9458 -1.0408,0.8302 -2.9306,-2.7208 2.1007,-1.6437 z"
       style="fill:#d87408;stroke:#000000;stroke-width:0.2;stroke-linejoin:round" />
    <path
       id="path976"
       d="m 61.2836,21.3371 -1.424,0.6087 -1.8707,-3.5343 2.2688,-0.9398 z"
       style="fill:#d87408;stroke:#000000;stroke-width:0.2;stroke-linejoin:round" />
    <path
       id="path974"
       d="m 63,21 -1.7164,0.3371 -1.0259,-3.8654 2.2173,-0.4365 z"
       style="fill:#d87408;stroke:#000000;stroke-width:0.2;stroke-linejoin:round" />
    <path
       id="path972"
       d="M 64.6754,20.9098 63,21 62.475,17.0352 64.8057,16.9127 Z"
       style="fill:#d87408;stroke:#000000;stroke-width:0.2;stroke-linejoin:round" />
    <path
       id="path970"
       d="m 66.529,20.9883 -1.8536,-0.0785 0.1303,-3.9971 2.1549,0.1001 z"
       style="fill:#d87408;stroke:#000000;stroke-width:0.2;stroke-linejoin:round" />
    <path
       id="path968"
       d="m 68.2857,21.2213 -1.7567,-0.233 0.4316,-3.9755 2.2179,0.3099 z"
       style="fill:#d87408;stroke:#000000;stroke-width:0.2;stroke-linejoin:round" />
    <path
       id="path966"
       d="m 69.8645,21.6924 -1.5788,-0.4711 0.8928,-3.8986 2.2564,0.6917 z"
       style="fill:#d87408;stroke:#000000;stroke-width:0.2;stroke-linejoin:round" />
    <path
       id="path964"
       d="m 71.0768,22.4 -1.2123,-0.7076 1.5704,-3.678 2.225,1.333 z"
       style="fill:#d87408;stroke:#000000;stroke-width:0.2;stroke-linejoin:round" />
    <path
       id="path962"
       d="m 71.8698,23.3245 -0.793,-0.9245 2.5831,-3.0526 1.7623,2.1404 z"
       style="fill:#d87408;stroke:#000000;stroke-width:0.2;stroke-linejoin:round" />
    <path
       id="path960"
       d="m 72.4086,24.8012 -0.5388,-1.4767 3.5524,-1.8367 0.8475,2.2754 z"
       style="fill:#d87408;stroke:#000000;stroke-width:0.2;stroke-linejoin:round" />
    <path
       id="path958"
       d="m 72.6129,26.3698 -0.2043,-1.5686 3.8611,-1.038 0.3377,2.4039 z"
       style="fill:#d87408;stroke:#000000;stroke-width:0.2;stroke-linejoin:round" />
    <path
       id="path950"
       d="m 72.2168,33.7299 0.3364,-1.6463 3.979,0.4028 -0.4543,2.2815 z"
       style="fill:#d87408;stroke:#000000;stroke-width:0.2;stroke-linejoin:round" />
    <path
       id="path948"
       d="m 71.6222,34.8558 0.5946,-1.1259 3.8611,1.038 -1.2174,2.4344 z"
       style="fill:#d87408;stroke:#000000;stroke-width:0.2;stroke-linejoin:round" />
    <path
       id="path946"
       d="m 70.7358,35.6724 0.8864,-0.8166 3.2383,2.3465 -2.0486,1.8881 z"
       style="fill:#d87408;stroke:#000000;stroke-width:0.2;stroke-linejoin:round" />
    <path
       id="path944"
       d="m 69.2926,36.3375 1.4432,-0.6651 2.0761,3.418 -2.1885,1.0185 z"
       style="fill:#d87408;stroke:#000000;stroke-width:0.2;stroke-linejoin:round" />
    <path
       id="path942"
       d="m 67.6567,36.7088 1.6359,-0.3713 1.3308,3.7714 -2.2698,0.5383 z"
       style="fill:#d87408;stroke:#000000;stroke-width:0.2;stroke-linejoin:round" />
    <path
       id="path940"
       d="m 65.9429,36.8667 1.7138,-0.1579 0.6969,3.9384 -2.2804,0.2166 z"
       style="fill:#d87408;stroke:#000000;stroke-width:0.2;stroke-linejoin:round" />
    <path
       id="path938"
       d="m 64.0016,36.9089 1.9413,-0.0422 0.1303,3.9971 -2.0716,0.0451 z"
       style="fill:#d87408;stroke:#000000;stroke-width:0.2;stroke-linejoin:round" />
    <path
       id="path936"
       d="m 61.9942,36.9089 h 2.0074 v 4 h -2.0074 z"
       style="fill:#d87408;stroke:#000000;stroke-width:0.2;stroke-linejoin:round" />
    <path
       id="path934"
       d="m 59.9867,36.9089 h 2.0075 v 4 h -2.0075 z"
       style="fill:#d87408;stroke:#000000;stroke-width:0.2;stroke-linejoin:round" />
    <path
       id="path932"
       d="m 57.9792,36.9089 h 2.0075 v 4 h -2.0075 z"
       style="fill:#d87408;stroke:#000000;stroke-width:0.2;stroke-linejoin:round" />
    <path
       id="path930"
       d="m 55.9718,36.9089 h 2.0074 v 4 h -2.0074 z"
       style="fill:#d87408;stroke:#000000;stroke-width:0.2;stroke-linejoin:round" />
    <path
       id="path928"
       d="m 53.9643,36.9089 h 2.0075 v 4 h -2.0075 z"
       style="fill:#d87408;stroke:#000000;stroke-width:0.2;stroke-linejoin:round" />
    <path
       id="path926"
       d="m 51.9569,36.9089 h 2.0074 v 4 h -2.0074 z"
       style="fill:#d87408;stroke:#000000;stroke-width:0.2;stroke-linejoin:round" />
    <path
       id="path924"
       d="m 49.9494,36.9089 h 2.0075 v 4 h -2.0075 z"
       style="fill:#d87408;stroke:#000000;stroke-width:0.2;stroke-linejoin:round" />
    <path
       id="path922"
       d="m 47.942,36.9089 h 2.0074 v 4 H 47.942 Z"
       style="fill:#d87408;stroke:#000000;stroke-width:0.2;stroke-linejoin:round" />
    <path
       id="path920"
       d="m 45.9345,36.9089 h 2.0075 v 4 h -2.0075 z"
       style="fill:#d87408;stroke:#000000;stroke-width:0.2;stroke-linejoin:round" />
    <path
       id="path918"
       d="m 43.5497,37.0313 2.3848,-0.1224 v 4 l -1.6165,0.045 z"
       style="fill:#d87408;stroke:#000000;stroke-width:0.2;stroke-linejoin:round" />
    <path
       id="path916"
       d="m 40.8168,38.5009 2.7329,-1.4696 0.7683,3.9226 -0.7369,0.4364 z"
       style="fill:#d87408;stroke:#000000;stroke-width:0.2;stroke-linejoin:round" />
    <path
       id="path906"
       d="m 35.4484,46.6816 0.9966,-1.0849 3.2158,2.3755 -1.7236,1.8388 z"
       style="fill:#d87408;stroke:#000000;stroke-width:0.2;stroke-linejoin:round" />
    <path
       id="path904"
       d="m 34.7015,46.9042 0.7469,-0.2226 2.4888,3.1294 -2.9839,1.0826 z"
       style="fill:#d87408;stroke:#000000;stroke-width:0.2;stroke-linejoin:round" />
    <path
       id="path902"
       d="m 33.9863,46.7318 0.7152,0.1724 0.2518,3.9894 -3.1147,-0.7898 z"
       style="fill:#d87408;stroke:#000000;stroke-width:0.2;stroke-linejoin:round" />
    <path
       id="path900"
       d="m 33.0817,45.8521 0.9046,0.8797 -2.1477,3.372 -1.9727,-1.8762 z"
       style="fill:#d87408;stroke:#000000;stroke-width:0.2;stroke-linejoin:round" />
    <path
       id="path898"
       d="m 32.1877,44.4146 0.894,1.4375 -3.2158,2.3755 -1.2247,-1.9643 z"
       style="fill:#d87408;stroke:#000000;stroke-width:0.2;stroke-linejoin:round" />
    <path
       id="path896"
       d="m 31.2599,42.6348 0.9278,1.7798 -3.5465,1.8487 -0.9278,-1.7798 z"
       style="fill:#d87408;stroke:#000000;stroke-width:0.2;stroke-linejoin:round" />
    <path
       id="path894"
       d="m 30.2467,40.7491 1.0132,1.8857 -3.5465,1.8487 -0.881,-1.6522 z"
       style="fill:#d87408;stroke:#000000;stroke-width:0.2;stroke-linejoin:round" />
    <path
       id="path892"
       d="m 28.857,38.835 1.3897,1.9141 -3.4143,2.0822 -0.9571,-1.3312 z"
       style="fill:#d87408;stroke:#000000;stroke-width:0.2;stroke-linejoin:round" />
    <path
       id="path890"
       d="m 26.3469,37.1804 2.5101,1.6546 -2.9817,2.6651 -0.802,-0.5307 z"
       style="fill:#d87408;stroke:#000000;stroke-width:0.2;stroke-linejoin:round" />
    <path
       id="path888"
       d="m 23.7212,36.9089 2.6257,0.2715 -1.2736,3.789 -1.3521,-0.0605 z"
       style="fill:#d87408;stroke:#000000;stroke-width:0.2;stroke-linejoin:round" />
    <path
       id="path886"
       d="m 21.7137,36.9089 h 2.0075 v 4 h -2.0075 z"
       style="fill:#d87408;stroke:#000000;stroke-width:0.2;stroke-linejoin:round" />
    <path
       id="path884"
       d="m 19.7063,36.9089 h 2.0074 v 4 h -2.0074 z"
       style="fill:#d87408;stroke:#000000;stroke-width:0.2;stroke-linejoin:round" />
    <path
       id="path882"
       d="m 17.6988,36.9089 h 2.0075 v 4 h -2.0075 z"
       style="fill:#d87408;stroke:#000000;stroke-width:0.2;stroke-linejoin:round" />
    <path
       id="rect861"
       d="m 9.669,36.9089 h 2.0075 v 4 H 9.669 Z"
       style="fill:#d87408;stroke:#000000;stroke-width:0.2;stroke-linejoin:round" />
  </g>
</svg>
