<?xml version="1.0" encoding="UTF-8" standalone="no"?>
<svg
   xmlns:dc="http://purl.org/dc/elements/1.1/"
   xmlns:cc="http://creativecommons.org/ns#"
   xmlns:rdf="http://www.w3.org/1999/02/22-rdf-syntax-ns#"
   xmlns:svg="http://www.w3.org/2000/svg"
   xmlns="http://www.w3.org/2000/svg"
   xmlns:sodipodi="http://sodipodi.sourceforge.net/DTD/sodipodi-0.dtd"
   xmlns:inkscape="http://www.inkscape.org/namespaces/inkscape"
   sodipodi:docname="eight-like-1-0.svg"
   inkscape:version="1.0 (4035a4fb49, 2020-05-01)"
   width="210mm"
   height="297mm"
   viewBox="0 0 210 297"
   version="1.1"
   id="svg5569">
  <defs
     id="defs5563" />
  <sodipodi:namedview
     inkscape:window-maximized="0"
     inkscape:window-y="53"
     inkscape:window-x="366"
     inkscape:window-height="1040"
     inkscape:window-width="1648"
     showgrid="true"
     inkscape:document-rotation="0"
     inkscape:current-layer="layer1"
     inkscape:document-units="mm"
     inkscape:cy="114.9774"
     inkscape:cx="162.49725"
     inkscape:zoom="3.959798"
     inkscape:pageshadow="2"
     inkscape:pageopacity="0.0"
     borderopacity="1.0"
     bordercolor="#666666"
     pagecolor="#ffffff"
     id="base">
    <inkscape:grid
       id="grid6132"
       type="xygrid" />
  </sodipodi:namedview>
  <metadata
     id="metadata5566">
    <rdf:RDF>
      <cc:Work
         rdf:about="">
        <dc:format>image/svg+xml</dc:format>
        <dc:type
           rdf:resource="http://purl.org/dc/dcmitype/StillImage" />
        <dc:title></dc:title>
      </cc:Work>
    </rdf:RDF>
  </metadata>
  <g
     id="layer1"
     inkscape:groupmode="layer"
     inkscape:label="Слой 1">
    <path
       id="path6391"
       d="m 76.697,28.9703 h 1.9914 v 4 H 76.697 Z"
       style="fill:#d87408;stroke:#000000;stroke-width:0.2;stroke-linejoin:round" />
    <path
       id="path6383"
       d="m 68.7313,28.9703 h 1.9914 v 4 h -1.9914 z"
       style="fill:#d87408;stroke:#000000;stroke-width:0.2;stroke-linejoin:round" />
    <path
       id="path6381"
       d="m 66.7399,28.9703 h 1.9914 v 4 h -1.9914 z"
       style="fill:#d87408;stroke:#000000;stroke-width:0.2;stroke-linejoin:round" />
    <path
       id="path6379"
       d="m 64.7485,28.9703 h 1.9914 v 4 h -1.9914 z"
       style="fill:#d87408;stroke:#000000;stroke-width:0.2;stroke-linejoin:round" />
    <path
       id="path6377"
       d="m 62.7571,28.9703 h 1.9914 v 4 h -1.9914 z"
       style="fill:#d87408;stroke:#000000;stroke-width:0.2;stroke-linejoin:round" />
    <path
       id="path6375"
       d="m 60.7657,28.9703 h 1.9914 v 4 h -1.9914 z"
       style="fill:#d87408;stroke:#000000;stroke-width:0.2;stroke-linejoin:round" />
    <path
       id="path6373"
       d="m 58.7743,28.9703 h 1.9914 v 4 h -1.9914 z"
       style="fill:#d87408;stroke:#000000;stroke-width:0.2;stroke-linejoin:round" />
    <path
       id="path6371"
       d="m 56.7828,28.9703 h 1.9915 v 4 h -1.9915 z"
       style="fill:#d87408;stroke:#000000;stroke-width:0.2;stroke-linejoin:round" />
    <path
       id="path6369"
       d="m 54.7914,28.9703 h 1.9914 v 4 h -1.9914 z"
       style="fill:#d87408;stroke:#000000;stroke-width:0.2;stroke-linejoin:round" />
    <path
       id="path6367"
       d="m 52.8,28.9703 h 1.9914 v 4 H 52.8 Z"
       style="fill:#d87408;stroke:#000000;stroke-width:0.2;stroke-linejoin:round" />
    <path
       id="path6365"
       d="M 50.8086,28.9703 H 52.8 v 4 h -1.9914 z"
       style="fill:#d87408;stroke:#000000;stroke-width:0.2;stroke-linejoin:round" />
    <path
       id="path6363"
       d="m 48.8172,28.9703 h 1.9914 v 4 h -1.9914 z"
       style="fill:#d87408;stroke:#000000;stroke-width:0.2;stroke-linejoin:round" />
    <path
       id="path6361"
       d="m 46.8258,28.9703 h 1.9914 v 4 h -1.9914 z"
       style="fill:#d87408;stroke:#000000;stroke-width:0.2;stroke-linejoin:round" />
    <path
       id="path6359"
       d="m 44.8344,28.9703 h 1.9914 v 4 h -1.9914 z"
       style="fill:#d87408;stroke:#000000;stroke-width:0.2;stroke-linejoin:round" />
    <path
       id="path6357"
       d="m 42.8429,28.9703 h 1.9915 v 4 h -1.9915 z"
       style="fill:#d87408;stroke:#000000;stroke-width:0.2;stroke-linejoin:round" />
    <path
       id="path6355"
       d="m 40.8515,28.9703 h 1.9914 v 4 h -1.9914 z"
       style="fill:#d87408;stroke:#000000;stroke-width:0.2;stroke-linejoin:round" />
    <path
       id="path6353"
       d="m 38.8601,28.9703 h 1.9914 v 4 h -1.9914 z"
       style="fill:#d87408;stroke:#000000;stroke-width:0.2;stroke-linejoin:round" />
    <path
       id="path6351"
       d="m 36.8687,28.9703 h 1.9914 v 4 h -1.9914 z"
       style="fill:#d87408;stroke:#000000;stroke-width:0.2;stroke-linejoin:round" />
    <path
       id="path6349"
       d="m 34.8773,28.9703 h 1.9914 v 4 h -1.9914 z"
       style="fill:#d87408;stroke:#000000;stroke-width:0.2;stroke-linejoin:round" />
    <path
       id="path6347"
       d="m 32.8213,28.9979 2.056,-0.0276 v 4 l -1.9257,0.0247 z"
       style="fill:#d87408;stroke:#000000;stroke-width:0.2;stroke-linejoin:round" />
    <path
       id="path6345"
       d="m 30.6863,29.1513 2.135,-0.1534 0.1303,3.9971 -1.8338,0.1318 z"
       style="fill:#d87408;stroke:#000000;stroke-width:0.2;stroke-linejoin:round" />
    <path
       id="path6343"
       d="m 28.3935,29.5733 2.2928,-0.422 0.4315,3.9755 -1.62,0.2905 z"
       style="fill:#d87408;stroke:#000000;stroke-width:0.2;stroke-linejoin:round" />
    <path
       id="path6341"
       d="m 26.1799,30.4243 2.2136,-0.851 1.1043,3.844 -1.4976,0.5679 z"
       style="fill:#d87408;stroke:#000000;stroke-width:0.2;stroke-linejoin:round" />
    <path
       id="path6339"
       d="m 24.0911,31.9723 2.0888,-1.548 1.8203,3.5609 -1.0877,0.821 z"
       style="fill:#d87408;stroke:#000000;stroke-width:0.2;stroke-linejoin:round" />
    <path
       id="path6337"
       d="m 22.593,34.2577 1.4981,-2.2854 2.8214,2.8339 -0.6499,1.0415 z"
       style="fill:#d87408;stroke:#000000;stroke-width:0.2;stroke-linejoin:round" />
    <path
       id="path6335"
       d="m 21.9315,36.627 0.6615,-2.3693 3.6696,1.59 -0.3904,1.4593 z"
       style="fill:#d87408;stroke:#000000;stroke-width:0.2;stroke-linejoin:round" />
    <path
       id="path6333"
       d="m 21.7186,38.8464 0.2129,-2.2194 3.9407,0.68 -0.159,1.742 z"
       style="fill:#d87408;stroke:#000000;stroke-width:0.2;stroke-linejoin:round" />
    <path
       id="path6175"
       d="m 20.6798,38.9703 h 1.9914 v 4 h -1.9914 z"
       style="fill:#d87408;stroke:#000000;stroke-width:0.2;stroke-linejoin:round" />
    <path
       id="path6179"
       d="m 24.6626,38.9703 h 1.9915 v 4 h -1.9915 z"
       style="fill:#d87408;stroke:#000000;stroke-width:0.2;stroke-linejoin:round" />
    <path
       id="path6177"
       d="m 22.6712,38.9703 h 1.9914 v 4 h -1.9914 z"
       style="fill:#d87408;stroke:#000000;stroke-width:0.2;stroke-linejoin:round" />
    <path
       id="path6331"
       d="m 21.689,40.9178 0.0296,-2.0714 3.9946,0.2026 -0.0247,1.9106 z"
       style="fill:#d87408;stroke:#000000;stroke-width:0.2;stroke-linejoin:round" />
    <path
       id="path6329"
       d="m 21.7154,43.0311 -0.0264,-2.1133 3.9995,0.0418 0.0215,1.8688 z"
       style="fill:#d87408;stroke:#000000;stroke-width:0.2;stroke-linejoin:round" />
    <path
       id="path6327"
       d="m 21.9208,45.2513 -0.2054,-2.2202 3.9946,-0.2027 0.1514,1.7429 z"
       style="fill:#d87408;stroke:#000000;stroke-width:0.2;stroke-linejoin:round" />
    <path
       id="path6325"
       d="m 22.5679,47.6249 -0.6471,-2.3736 3.9406,-0.68 0.3761,1.4636 z"
       style="fill:#d87408;stroke:#000000;stroke-width:0.2;stroke-linejoin:round" />
    <path
       id="path6323"
       d="m 23.9373,49.8041 -1.3694,-2.1792 3.6696,-1.59 0.7411,1.1728 z"
       style="fill:#d87408;stroke:#000000;stroke-width:0.2;stroke-linejoin:round" />
    <path
       id="path6321"
       d="m 26.1237,51.4875 -2.1864,-1.6834 3.0413,-2.5964 0.9654,0.7189 z"
       style="fill:#d87408;stroke:#000000;stroke-width:0.2;stroke-linejoin:round" />
    <path
       id="path6319"
       d="m 28.3328,52.3499 -2.2091,-0.8624 1.8203,-3.5609 1.4931,0.5793 z"
       style="fill:#d87408;stroke:#000000;stroke-width:0.2;stroke-linejoin:round" />
    <path
       id="path6317"
       d="m 30.6235,52.7825 -2.2907,-0.4326 1.1043,-3.844 1.6179,0.3011 z"
       style="fill:#d87408;stroke:#000000;stroke-width:0.2;stroke-linejoin:round" />
    <path
       id="path6315"
       d="m 32.7582,52.9406 -2.1347,-0.1581 0.4315,-3.9755 1.8334,0.1366 z"
       style="fill:#d87408;stroke:#000000;stroke-width:0.2;stroke-linejoin:round" />
    <path
       id="path6313"
       d="m 35.4288,52.6777 -2.6706,0.2629 0.1302,-3.997 1.2669,-0.0548 z"
       style="fill:#d87408;stroke:#000000;stroke-width:0.2;stroke-linejoin:round" />
    <path
       id="path6311"
       d="m 37.9097,51.007 -2.4809,1.6707 -1.2735,-3.7889 0.7727,-0.547 z"
       style="fill:#d87408;stroke:#000000;stroke-width:0.2;stroke-linejoin:round" />
    <path
       id="path6309"
       d="M 39.2838,49.1011 37.9097,51.007 34.928,48.3418 35.8694,47.0189 Z"
       style="fill:#d87408;stroke:#000000;stroke-width:0.2;stroke-linejoin:round" />
    <path
       id="path6307"
       d="m 40.2876,47.2285 -1.0038,1.8726 -3.4144,-2.0822 0.8717,-1.6391 z"
       style="fill:#d87408;stroke:#000000;stroke-width:0.2;stroke-linejoin:round" />
    <path
       id="path6305"
       d="m 41.208,45.4629 -0.9204,1.7656 -3.5465,-1.8487 0.9204,-1.7656 z"
       style="fill:#d87408;stroke:#000000;stroke-width:0.2;stroke-linejoin:round" />
    <path
       id="path6303"
       d="M 42.0927,44.0385 41.208,45.4629 37.6615,43.6142 38.8769,41.663 Z"
       style="fill:#d87408;stroke:#000000;stroke-width:0.2;stroke-linejoin:round" />
    <path
       id="path6301"
       d="m 42.9802,43.1637 -0.8875,0.8748 -3.2158,-2.3755 1.9556,-1.8714 z"
       style="fill:#d87408;stroke:#000000;stroke-width:0.2;stroke-linejoin:round" />
    <path
       id="path6299"
       d="m 43.801,42.9703 -0.8208,0.1934 -2.1477,-3.3721 2.9685,-0.8213 z"
       style="fill:#d87408;stroke:#000000;stroke-width:0.2;stroke-linejoin:round" />
    <path
       id="path6297"
       d="M 45.7924,42.9703 H 43.801 v -4 h 1.9914 z"
       style="fill:#d87408;stroke:#000000;stroke-width:0.2;stroke-linejoin:round" />
    <path
       id="path6295"
       d="m 47.7839,42.9703 h -1.9915 v -4 h 1.9915 z"
       style="fill:#d87408;stroke:#000000;stroke-width:0.2;stroke-linejoin:round" />
    <path
       id="path6293"
       d="m 49.7753,42.9703 h -1.9914 v -4 h 1.9914 z"
       style="fill:#d87408;stroke:#000000;stroke-width:0.2;stroke-linejoin:round" />
    <path
       id="path6221"
       d="m 51.6564,39.1053 0.0236,-1.9375 3.9998,0.0279 -0.0258,2.0448 z"
       style="fill:#d87408;stroke:#000000;stroke-width:0.2;stroke-linejoin:round" />
    <path
       id="path6217"
       d="m 51.3496,42.7846 0.2086,-1.758 3.9907,0.2694 -0.2628,2.1941 z"
       style="fill:#d87408;stroke:#000000;stroke-width:0.2;stroke-linejoin:round" />
    <path
       id="path6219"
       d="m 51.5582,41.0266 0.0982,-1.9213 3.9976,0.1352 -0.1051,2.0555 z"
       style="fill:#d87408;stroke:#000000;stroke-width:0.2;stroke-linejoin:round" />
    <path
       id="path6287"
       d="m 55.7495,42.9703 h -1.9914 v -4 h 1.9914 z"
       style="fill:#d87408;stroke:#000000;stroke-width:0.2;stroke-linejoin:round" />
    <path
       id="path6285"
       d="m 57.7409,42.9703 h -1.9914 v -4 h 1.9914 z"
       style="fill:#d87408;stroke:#000000;stroke-width:0.2;stroke-linejoin:round" />
    <path
       id="path6283"
       d="m 59.7323,42.9703 h -1.9914 v -4 h 1.9914 z"
       style="fill:#d87408;stroke:#000000;stroke-width:0.2;stroke-linejoin:round" />
    <path
       id="path6281"
       d="m 61.7238,42.9703 h -1.9915 v -4 h 1.9915 z"
       style="fill:#d87408;stroke:#000000;stroke-width:0.2;stroke-linejoin:round" />
    <path
       id="path6279"
       d="m 63.7803,42.968 -2.0565,0.0023 v -4 l 1.9262,6e-4 z"
       style="fill:#d87408;stroke:#000000;stroke-width:0.2;stroke-linejoin:round" />
    <path
       id="path6277"
       d="M 65.9195,42.873 63.7803,42.968 63.65,38.9709 65.4879,38.8975 Z"
       style="fill:#d87408;stroke:#000000;stroke-width:0.2;stroke-linejoin:round" />
    <path
       id="path6275"
       d="M 68.0249,42.5933 65.9195,42.873 65.4879,38.8975 67.328,38.6549 Z"
       style="fill:#d87408;stroke:#000000;stroke-width:0.2;stroke-linejoin:round" />
    <path
       id="path6273"
       d="m 70.3689,41.9013 -2.344,0.692 -0.6969,-3.9384 1.4704,-0.4317 z"
       style="fill:#d87408;stroke:#000000;stroke-width:0.2;stroke-linejoin:round" />
    <path
       id="path6271"
       d="m 72.5961,40.6022 -2.2272,1.2991 -1.5705,-3.6781 1.2146,-0.6737 z"
       style="fill:#d87408;stroke:#000000;stroke-width:0.2;stroke-linejoin:round" />
    <path
       id="path6269"
       d="m 74.3055,38.6256 -1.7094,1.9766 -2.5831,-3.0527 0.8836,-1.0148 z"
       style="fill:#d87408;stroke:#000000;stroke-width:0.2;stroke-linejoin:round" />
    <path
       id="path6267"
       d="m 75.2525,36.2522 -0.947,2.3734 -3.4089,-2.0909 0.4948,-1.3205 z"
       style="fill:#d87408;stroke:#000000;stroke-width:0.2;stroke-linejoin:round" />
    <path
       id="path6265"
       d="m 75.6102,33.9689 -0.3577,2.2833 -3.8611,-1.038 0.2398,-1.6481 z"
       style="fill:#d87408;stroke:#000000;stroke-width:0.2;stroke-linejoin:round" />
    <path
       id="path6263"
       d="m 75.6797,31.7985 -0.0695,2.1704 -3.979,-0.4028 0.049,-1.8095 z"
       style="fill:#d87408;stroke:#000000;stroke-width:0.2;stroke-linejoin:round" />
    <path
       id="path6261"
       d="m 75.6758,29.7654 0.0039,2.0331 -3.9995,-0.0419 -0.004,-1.9493 z"
       style="fill:#d87408;stroke:#000000;stroke-width:0.2;stroke-linejoin:round" />
    <path
       id="path6259"
       d="m 75.5723,27.5969 0.1035,2.1685 -3.9996,0.0419 -0.083,-1.8075 z"
       style="fill:#d87408;stroke:#000000;stroke-width:0.2;stroke-linejoin:round" />
    <path
       id="path6385"
       d="m 70.7227,28.9703 h 1.9915 v 4 h -1.9915 z"
       style="fill:#d87408;stroke:#000000;stroke-width:0.2;stroke-linejoin:round" />
    <path
       id="path6387"
       d="m 72.7142,28.9703 h 1.9914 v 4 h -1.9914 z"
       style="fill:#d87408;stroke:#000000;stroke-width:0.2;stroke-linejoin:round" />
    <path
       id="path6389"
       d="m 74.7056,28.9703 h 1.9914 v 4 h -1.9914 z"
       style="fill:#d87408;stroke:#000000;stroke-width:0.2;stroke-linejoin:round" />
    <path
       id="path6257"
       d="m 75.1548,25.3248 0.4175,2.2721 -3.9791,0.4029 -0.2996,-1.637 z"
       style="fill:#d87408;stroke:#000000;stroke-width:0.2;stroke-linejoin:round" />
    <path
       id="path6255"
       d="m 74.019,22.869 1.1358,2.4558 -3.8612,1.038 -0.5128,-1.1474 z"
       style="fill:#d87408;stroke:#000000;stroke-width:0.2;stroke-linejoin:round" />
    <path
       id="path6253"
       d="m 72.1686,21.0162 1.8504,1.8528 -3.2382,2.3464 -0.9447,-0.9509 z"
       style="fill:#d87408;stroke:#000000;stroke-width:0.2;stroke-linejoin:round" />
    <path
       id="path6251"
       d="m 69.8968,19.8599 2.2718,1.1563 -2.3325,3.2483 -1.2701,-0.6332 z"
       style="fill:#d87408;stroke:#000000;stroke-width:0.2;stroke-linejoin:round" />
    <path
       id="path6249"
       d="m 67.654,19.2817 2.2428,0.5782 -1.3308,3.7714 -1.6089,-0.4112 z"
       style="fill:#d87408;stroke:#000000;stroke-width:0.2;stroke-linejoin:round" />
    <path
       id="path6247"
       d="m 65.3938,19.0252 2.2602,0.2565 -0.6969,3.9384 -1.6935,-0.1978 z"
       style="fill:#d87408;stroke:#000000;stroke-width:0.2;stroke-linejoin:round" />
    <path
       id="path6245"
       d="m 63.2908,18.9794 2.103,0.0458 -0.1302,3.9971 -1.8771,-0.0444 z"
       style="fill:#d87408;stroke:#000000;stroke-width:0.2;stroke-linejoin:round" />
    <path
       id="path6243"
       d="m 61.0925,19.1498 2.1983,-0.1704 0.0957,3.9985 -1.769,0.1368 z"
       style="fill:#d87408;stroke:#000000;stroke-width:0.2;stroke-linejoin:round" />
    <path
       id="path6241"
       d="m 58.7702,19.6945 2.3223,-0.5447 0.525,3.9649 -1.5481,0.362 z"
       style="fill:#d87408;stroke:#000000;stroke-width:0.2;stroke-linejoin:round" />
    <path
       id="path6239"
       d="m 56.5492,20.7547 2.221,-1.0602 1.2992,3.7822 -1.3635,0.6454 z"
       style="fill:#d87408;stroke:#000000;stroke-width:0.2;stroke-linejoin:round" />
    <path
       id="path6237"
       d="m 54.6645,22.3784 1.8847,-1.6237 2.1567,3.3674 -1.1108,0.9771 z"
       style="fill:#d87408;stroke:#000000;stroke-width:0.2;stroke-linejoin:round" />
    <path
       id="path6235"
       d="m 53.2576,24.5401 1.4069,-2.1617 2.9306,2.7208 -0.7364,1.1806 z"
       style="fill:#d87408;stroke:#000000;stroke-width:0.2;stroke-linejoin:round" />
    <path
       id="path6233"
       d="m 52.454,26.7694 0.8036,-2.2293 3.6011,1.7397 -0.5387,1.5109 z"
       style="fill:#d87408;stroke:#000000;stroke-width:0.2;stroke-linejoin:round" />
    <path
       id="path6231"
       d="m 52,29 0.454,-2.2306 3.866,1.0213 -0.3468,1.6664 z"
       style="fill:#d87408;stroke:#000000;stroke-width:0.2;stroke-linejoin:round" />
    <path
       id="path6229"
       d="M 51.7989,31.0753 52,29 l 3.9732,0.4571 -0.1837,1.8875 z"
       style="fill:#d87408;stroke:#000000;stroke-width:0.2;stroke-linejoin:round" />
    <path
       id="path6227"
       d="m 51.7078,33.1852 0.0911,-2.1099 3.9906,0.2693 -0.0819,1.8685 z"
       style="fill:#d87408;stroke:#000000;stroke-width:0.2;stroke-linejoin:round" />
    <path
       id="path6225"
       d="m 51.6939,35.1765 0.0139,-1.9913 3.9998,0.0279 -0.0139,1.9913 z"
       style="fill:#d87408;stroke:#000000;stroke-width:0.2;stroke-linejoin:round" />
    <path
       id="path6223"
       d="m 51.68,37.1678 0.0139,-1.9913 3.9998,0.0279 -0.0139,1.9913 z"
       style="fill:#d87408;stroke:#000000;stroke-width:0.2;stroke-linejoin:round" />
    <path
       id="path6215"
       d="m 50.9466,44.5671 0.403,-1.7825 3.9365,0.7055 -0.4735,2.0983 z"
       style="fill:#d87408;stroke:#000000;stroke-width:0.2;stroke-linejoin:round" />
    <path
       id="path6289"
       d="m 53.7581,42.9703 h -1.9914 v -4 h 1.9914 z"
       style="fill:#d87408;stroke:#000000;stroke-width:0.2;stroke-linejoin:round" />
    <path
       id="path6291"
       d="m 51.7667,42.9703 h -1.9914 v -4 h 1.9914 z"
       style="fill:#d87408;stroke:#000000;stroke-width:0.2;stroke-linejoin:round" />
    <path
       id="path6213"
       d="m 50.3851,45.926 0.5615,-1.3589 3.866,1.0213 -0.9518,2.3157 z"
       style="fill:#d87408;stroke:#000000;stroke-width:0.2;stroke-linejoin:round" />
    <path
       id="path6211"
       d="m 49.4881,47.1576 0.897,-1.2316 3.4757,1.9781 -1.4421,1.9743 z"
       style="fill:#d87408;stroke:#000000;stroke-width:0.2;stroke-linejoin:round" />
    <path
       id="path6209"
       d="m 48.4463,47.9606 1.0418,-0.803 2.9306,2.7208 -2.1017,1.6166 z"
       style="fill:#d87408;stroke:#000000;stroke-width:0.2;stroke-linejoin:round" />
    <path
       id="path6207"
       d="m 47.033,48.5529 1.4133,-0.5923 1.8707,3.5344 -2.2581,0.9233 z"
       style="fill:#d87408;stroke:#000000;stroke-width:0.2;stroke-linejoin:round" />
    <path
       id="path6205"
       d="m 45.3314,48.8826 1.7016,-0.3297 1.0259,3.8654 -2.2025,0.4291 z"
       style="fill:#d87408;stroke:#000000;stroke-width:0.2;stroke-linejoin:round" />
    <path
       id="path6203"
       d="m 43.7328,48.9705 1.5986,-0.0879 0.525,3.9648 -2.3754,0.1124 z"
       style="fill:#d87408;stroke:#000000;stroke-width:0.2;stroke-linejoin:round" />
    <path
       id="path6201"
       d="m 42.8164,48.6726 0.9164,0.2979 -0.2518,3.9893 -2.8123,-0.9151 z"
       style="fill:#d87408;stroke:#000000;stroke-width:0.2;stroke-linejoin:round" />
    <path
       id="path6199"
       d="m 41.9772,47.7459 0.8392,0.9267 -2.1477,3.3721 -1.9072,-1.9233 z"
       style="fill:#d87408;stroke:#000000;stroke-width:0.2;stroke-linejoin:round" />
    <path
       id="path6197"
       d="m 41.1182,46.3054 0.859,1.4405 -3.2157,2.3755 -1.1898,-1.9673 z"
       style="fill:#d87408;stroke:#000000;stroke-width:0.2;stroke-linejoin:round" />
    <path
       id="path6195"
       d="m 40.1978,44.5398 0.9204,1.7656 -3.5465,1.8487 -0.9204,-1.7656 z"
       style="fill:#d87408;stroke:#000000;stroke-width:0.2;stroke-linejoin:round" />
    <path
       id="path6193"
       d="m 39.1826,42.6736 1.0152,1.8662 -3.5465,1.8487 -0.883,-1.6327 z"
       style="fill:#d87408;stroke:#000000;stroke-width:0.2;stroke-linejoin:round" />
    <path
       id="path6191"
       d="m 37.6659,40.6821 1.5167,1.9915 -3.4143,2.0822 -0.8668,-1.1843 z"
       style="fill:#d87408;stroke:#000000;stroke-width:0.2;stroke-linejoin:round" />
    <path
       id="path6189"
       d="m 35.2447,39.201 2.4212,1.4811 -2.7644,2.8894 -0.9303,-0.5816 z"
       style="fill:#d87408;stroke:#000000;stroke-width:0.2;stroke-linejoin:round" />
    <path
       id="path6187"
       d="m 32.6283,38.9703 2.6164,0.2307 -1.2735,3.7889 -1.3429,-0.0196 z"
       style="fill:#d87408;stroke:#000000;stroke-width:0.2;stroke-linejoin:round" />
    <path
       id="path6185"
       d="m 30.6369,38.9703 h 1.9914 v 4 h -1.9914 z"
       style="fill:#d87408;stroke:#000000;stroke-width:0.2;stroke-linejoin:round" />
    <path
       id="path6183"
       d="m 28.6455,38.9703 h 1.9914 v 4 h -1.9914 z"
       style="fill:#d87408;stroke:#000000;stroke-width:0.2;stroke-linejoin:round" />
    <path
       id="path6181"
       d="m 26.6541,38.9703 h 1.9914 v 4 h -1.9914 z"
       style="fill:#d87408;stroke:#000000;stroke-width:0.2;stroke-linejoin:round" />
    <path
       id="rect6160"
       d="m 18.6884,38.9703 h 1.9914 v 4 h -1.9914 z"
       style="fill:#d87408;stroke:#000000;stroke-width:0.2;stroke-linejoin:round" />
  </g>
</svg>
