<?xml version="1.0" encoding="UTF-8" standalone="no"?>
<svg
   xmlns:dc="http://purl.org/dc/elements/1.1/"
   xmlns:cc="http://creativecommons.org/ns#"
   xmlns:rdf="http://www.w3.org/1999/02/22-rdf-syntax-ns#"
   xmlns:svg="http://www.w3.org/2000/svg"
   xmlns="http://www.w3.org/2000/svg"
   xmlns:sodipodi="http://sodipodi.sourceforge.net/DTD/sodipodi-0.dtd"
   xmlns:inkscape="http://www.inkscape.org/namespaces/inkscape"
   sodipodi:docname="eight-like-0-3.svg"
   inkscape:version="1.0 (4035a4fb49, 2020-05-01)"
   width="210mm"
   height="297mm"
   viewBox="0 0 210 297"
   version="1.1"
   id="svg3713">
  <defs
     id="defs3707" />
  <sodipodi:namedview
     inkscape:window-maximized="0"
     inkscape:window-y="0"
     inkscape:window-x="225"
     inkscape:window-height="1040"
     inkscape:window-width="1648"
     showgrid="true"
     inkscape:document-rotation="0"
     inkscape:current-layer="layer1"
     inkscape:document-units="mm"
     inkscape:cy="233.58433"
     inkscape:cx="182.68077"
     inkscape:zoom="3.959798"
     inkscape:pageshadow="2"
     inkscape:pageopacity="0.0"
     borderopacity="1.0"
     bordercolor="#666666"
     pagecolor="#ffffff"
     id="base">
    <inkscape:grid
       id="grid4276"
       type="xygrid" />
  </sodipodi:namedview>
  <metadata
     id="metadata3710">
    <rdf:RDF>
      <cc:Work
         rdf:about="">
        <dc:format>image/svg+xml</dc:format>
        <dc:type
           rdf:resource="http://purl.org/dc/dcmitype/StillImage" />
        <dc:title></dc:title>
      </cc:Work>
    </rdf:RDF>
  </metadata>
  <g
     id="layer1"
     inkscape:groupmode="layer"
     inkscape:label="Слой 1">
    <path
       d="m 10 40 c 5 0 0 0 5 0 c 60 0 0 0 60 0 c 10 0 10 -5 10 -10 c 0 -5 0 -10 -10 -10 c -5 0 -5 10 -10 10 c -5 0 -5 -10 -10 -10 c -5 0 -5 10 -10 10 c -5 0 -10 0 -20 0 c -10 0 -10 5 -10 10 c 0 5 0 10 10 10 C 45 50 25 20 45 20 c 5 0 5 10 10 10 c 5 0 5 -10 10 -10 c 5 0 5 10 10 10 c 10 0 0 0 10 0 c 5 0 0 0 5 0"
       style="fill:none;stroke:#000000;stroke-width:0.292919px;stroke-linecap:butt;stroke-linejoin:miter;stroke-opacity:1"
       id="path4290" />
    <path
       id="path4613"
       d="m 90.8428,61 h 2.0058 v 4 h -2.0058 z"
       style="fill:#d87408;stroke:#000000;stroke-width:0.2;stroke-linejoin:round" />
    <path
       id="path4399"
       d="m 85.8439,62.5478 -0.0432,-1.9245 3.9946,-0.2026 0.0481,2.0852 z"
       style="fill:#d87408;stroke:#000000;stroke-width:0.2;stroke-linejoin:round" />
    <path
       id="path4397"
       d="m 85.8328,64.5115 0.0111,-1.9637 3.9995,-0.0419 -0.0111,2.0475 z"
       style="fill:#d87408;stroke:#000000;stroke-width:0.2;stroke-linejoin:round" />
    <path
       id="path4395"
       d="m 85.7169,66.3316 0.1159,-1.8201 3.9995,0.0419 -0.1364,2.181 z"
       style="fill:#d87408;stroke:#000000;stroke-width:0.2;stroke-linejoin:round" />
    <path
       id="path4611"
       d="m 88.837,61 h 2.0058 v 4 H 88.837 Z"
       style="fill:#d87408;stroke:#000000;stroke-width:0.2;stroke-linejoin:round" />
    <path
       id="path4609"
       d="m 86.8311,61 h 2.0059 v 4 h -2.0059 z"
       style="fill:#d87408;stroke:#000000;stroke-width:0.2;stroke-linejoin:round" />
    <path
       id="path4607"
       d="m 84.8253,61 h 2.0058 v 4 h -2.0058 z"
       style="fill:#d87408;stroke:#000000;stroke-width:0.2;stroke-linejoin:round" />
    <path
       id="path4605"
       d="m 82.8195,61 h 2.0058 v 4 h -2.0058 z"
       style="fill:#d87408;stroke:#000000;stroke-width:0.2;stroke-linejoin:round" />
    <path
       id="path4603"
       d="m 80.8137,61 h 2.0058 v 4 h -2.0058 z"
       style="fill:#d87408;stroke:#000000;stroke-width:0.2;stroke-linejoin:round" />
    <path
       id="path4601"
       d="m 78.8078,61 h 2.0059 v 4 h -2.0059 z"
       style="fill:#d87408;stroke:#000000;stroke-width:0.2;stroke-linejoin:round" />
    <path
       id="path4599"
       d="M 77.4566,60.9437 78.8078,61 v 4 l -2.6247,-0.2674 z"
       style="fill:#d87408;stroke:#000000;stroke-width:0.2;stroke-linejoin:round" />
    <path
       id="path4597"
       d="m 76.6521,60.4198 0.8045,0.5239 -1.2735,3.7889 -2.5127,-1.6477 z"
       style="fill:#d87408;stroke:#000000;stroke-width:0.2;stroke-linejoin:round" />
    <path
       id="path4595"
       d="m 75.6937,59.0915 0.9584,1.3283 -2.9817,2.6651 -1.391,-1.9112 z"
       style="fill:#d87408;stroke:#000000;stroke-width:0.2;stroke-linejoin:round" />
    <path
       id="path4593"
       d="m 74.8125,57.4413 0.8812,1.6502 -3.4143,2.0822 L 71.266,59.29 Z"
       style="fill:#d87408;stroke:#000000;stroke-width:0.2;stroke-linejoin:round" />
    <path
       id="path4591"
       d="M 73.8854,55.6629 74.8125,57.4413 71.266,59.29 70.3389,57.5116 Z"
       style="fill:#d87408;stroke:#000000;stroke-width:0.2;stroke-linejoin:round" />
    <path
       id="path4589"
       d="m 72.6643,53.6984 1.2211,1.9645 -3.5465,1.8487 -0.8904,-1.4377 z"
       style="fill:#d87408;stroke:#000000;stroke-width:0.2;stroke-linejoin:round" />
    <path
       id="path4587"
       d="m 70.6983,51.8173 1.966,1.8811 -3.2158,2.3755 -0.8979,-0.8845 z"
       style="fill:#d87408;stroke:#000000;stroke-width:0.2;stroke-linejoin:round" />
    <path
       id="path4585"
       d="m 67.5887,51.0138 3.1096,0.8035 -2.1477,3.3721 -0.7101,-0.1863 z"
       style="fill:#d87408;stroke:#000000;stroke-width:0.2;stroke-linejoin:round" />
    <path
       id="path4583"
       d="m 64.7723,51.9616 2.8164,-0.9478 0.2518,3.9893 -0.9204,0.3306 z"
       style="fill:#d87408;stroke:#000000;stroke-width:0.2;stroke-linejoin:round" />
    <path
       id="path4581"
       d="m 62.8733,53.9144 1.899,-1.9528 2.1478,3.3721 -0.831,0.9562 z"
       style="fill:#d87408;stroke:#000000;stroke-width:0.2;stroke-linejoin:round" />
    <path
       id="path4439"
       d="m 60.4307,57.6877 -0.8642,-1.4542 3.2157,-2.3755 1.195,1.981 z"
       style="fill:#d87408;stroke:#000000;stroke-width:0.2;stroke-linejoin:round" />
    <path
       id="path4437"
       d="m 61.3578,59.4661 -0.9271,-1.7784 3.5465,-1.8487 0.9271,1.7784 z"
       style="fill:#d87408;stroke:#000000;stroke-width:0.2;stroke-linejoin:round" />
    <path
       id="path4579"
       d="m 61.6876,55.9012 1.1857,-1.9868 3.2158,2.3755 -0.855,1.46 z"
       style="fill:#d87408;stroke:#000000;stroke-width:0.2;stroke-linejoin:round" />
    <path
       id="path4435"
       d="m 62.3827,61.3432 -1.0249,-1.8771 3.5465,-1.8487 0.8928,1.6436 z"
       style="fill:#d87408;stroke:#000000;stroke-width:0.2;stroke-linejoin:round" />
    <path
       id="path4577"
       d="m 60.7605,57.6796 0.9271,-1.7784 3.5465,1.8487 -0.9271,1.7784 z"
       style="fill:#d87408;stroke:#000000;stroke-width:0.2;stroke-linejoin:round" />
    <path
       id="path4433"
       d="m 63.9209,63.3359 -1.5382,-1.9927 3.4144,-2.0822 0.8882,1.1854 z"
       style="fill:#d87408;stroke:#000000;stroke-width:0.2;stroke-linejoin:round" />
    <path
       id="path4575"
       d="m 59.8636,59.3209 0.8969,-1.6413 3.5465,1.8487 -1.0291,1.8748 z"
       style="fill:#d87408;stroke:#000000;stroke-width:0.2;stroke-linejoin:round" />
    <path
       id="path4573"
       d="m 58.9613,60.4949 0.9023,-1.174 3.4143,2.0822 -1.5523,1.9812 z"
       style="fill:#d87408;stroke:#000000;stroke-width:0.2;stroke-linejoin:round" />
    <path
       id="path4571"
       d="m 58.2349,60.9481 0.7264,-0.4532 2.7643,2.8894 -2.7225,1.4864 z"
       style="fill:#d87408;stroke:#000000;stroke-width:0.2;stroke-linejoin:round" />
    <path
       id="path4569"
       d="m 57.2848,60.8859 0.9501,0.0622 0.7682,3.9226 -2.9918,-0.1958 z"
       style="fill:#d87408;stroke:#000000;stroke-width:0.2;stroke-linejoin:round" />
    <path
       id="path4567"
       d="m 56.5312,60.2845 0.7536,0.6014 -1.2735,3.789 -2.4618,-1.7253 z"
       style="fill:#d87408;stroke:#000000;stroke-width:0.2;stroke-linejoin:round" />
    <path
       id="path4565"
       d="m 55.5993,58.9367 0.9319,1.3478 -2.9817,2.6651 -1.3646,-1.9308 z"
       style="fill:#d87408;stroke:#000000;stroke-width:0.2;stroke-linejoin:round" />
    <path
       id="path4563"
       d="m 54.7286,57.2805 0.8707,1.6562 -3.4144,2.0821 -1.0028,-1.8896 z"
       style="fill:#d87408;stroke:#000000;stroke-width:0.2;stroke-linejoin:round" />
    <path
       id="path4561"
       d="m 53.8016,55.5021 0.927,1.7784 -3.5465,1.8487 -0.927,-1.7784 z"
       style="fill:#d87408;stroke:#000000;stroke-width:0.2;stroke-linejoin:round" />
    <path
       id="path4559"
       d="m 52.5565,53.5525 1.2451,1.9496 -3.5465,1.8487 -0.9143,-1.4228 z"
       style="fill:#d87408;stroke:#000000;stroke-width:0.2;stroke-linejoin:round" />
    <path
       id="path4557"
       d="m 50.3389,51.611 2.2176,1.9415 -3.2157,2.3755 -0.7417,-0.718 z"
       style="fill:#d87408;stroke:#000000;stroke-width:0.2;stroke-linejoin:round" />
    <path
       id="path4555"
       d="m 47.4851,51.0083 2.8538,0.6027 -1.7398,3.599 -1.0183,-0.2032 z"
       style="fill:#d87408;stroke:#000000;stroke-width:0.2;stroke-linejoin:round" />
    <path
       id="path4553"
       d="m 45.2723,51.177 2.2128,-0.1687 0.0957,3.9985 -1.7835,0.135 z"
       style="fill:#d87408;stroke:#000000;stroke-width:0.2;stroke-linejoin:round" />
    <path
       id="path4551"
       d="m 42.9354,51.7225 2.3369,-0.5455 0.525,3.9648 -1.5627,0.3629 z"
       style="fill:#d87408;stroke:#000000;stroke-width:0.2;stroke-linejoin:round" />
    <path
       id="path4549"
       d="m 40.7018,52.7893 2.2336,-1.0668 1.2992,3.7822 -1.3761,0.652 z"
       style="fill:#d87408;stroke:#000000;stroke-width:0.2;stroke-linejoin:round" />
    <path
       id="path4547"
       d="m 38.7049,54.5496 1.9969,-1.7603 2.1567,3.3674 -1.0124,0.8677 z"
       style="fill:#d87408;stroke:#000000;stroke-width:0.2;stroke-linejoin:round" />
    <path
       id="path4545"
       d="m 37.4013,56.604 1.3036,-2.0544 3.1412,2.4748 -0.8437,1.3192 z"
       style="fill:#d87408;stroke:#000000;stroke-width:0.2;stroke-linejoin:round" />
    <path
       id="path4543"
       d="m 36.6008,58.8497 0.8005,-2.2457 3.6011,1.7396 -0.5356,1.5274 z"
       style="fill:#d87408;stroke:#000000;stroke-width:0.2;stroke-linejoin:round" />
    <path
       id="path4467"
       d="m 40.8017,65 h -2.0058 v -4 h 2.0058 z"
       style="fill:#d87408;stroke:#000000;stroke-width:0.2;stroke-linejoin:round" />
    <path
       id="path4471"
       d="m 36.7901,65 h -2.0058 v -4 h 2.0058 z"
       style="fill:#d87408;stroke:#000000;stroke-width:0.2;stroke-linejoin:round" />
    <path
       id="path4469"
       d="m 38.7959,65 h -2.0058 v -4 h 2.0058 z"
       style="fill:#d87408;stroke:#000000;stroke-width:0.2;stroke-linejoin:round" />
    <path
       id="path4541"
       d="m 36.1525,61.096 0.4483,-2.2463 3.866,1.0213 -0.341,1.6821 z"
       style="fill:#d87408;stroke:#000000;stroke-width:0.2;stroke-linejoin:round" />
    <path
       id="path4539"
       d="m 35.9536,63.1859 0.1989,-2.0899 3.9733,0.4571 -0.1815,1.9021 z"
       style="fill:#d87408;stroke:#000000;stroke-width:0.2;stroke-linejoin:round" />
    <path
       id="path4537"
       d="m 35.8674,65.3104 0.0862,-2.1245 3.9907,0.2693 -0.0771,1.8831 z"
       style="fill:#d87408;stroke:#000000;stroke-width:0.2;stroke-linejoin:round" />
    <path
       id="path4535"
       d="m 35.8534,67.3161 0.014,-2.0057 3.9998,0.0279 -0.014,2.0058 z"
       style="fill:#d87408;stroke:#000000;stroke-width:0.2;stroke-linejoin:round" />
    <path
       id="path4533"
       d="m 35.8394,69.3219 0.014,-2.0058 3.9998,0.028 -0.014,2.0057 z"
       style="fill:#d87408;stroke:#000000;stroke-width:0.2;stroke-linejoin:round" />
    <path
       id="path4531"
       d="m 35.8119,71.2736 0.0275,-1.9517 3.9998,0.0279 -0.0297,2.059 z"
       style="fill:#d87408;stroke:#000000;stroke-width:0.2;stroke-linejoin:round" />
    <path
       id="path4529"
       d="m 35.7081,73.2091 0.1038,-1.9355 3.9976,0.1352 -0.1108,2.0697 z"
       style="fill:#d87408;stroke:#000000;stroke-width:0.2;stroke-linejoin:round" />
    <path
       id="path4527"
       d="m 35.4803,74.9792 0.2278,-1.7701 3.9906,0.2694 -0.282,2.2062 z"
       style="fill:#d87408;stroke:#000000;stroke-width:0.2;stroke-linejoin:round" />
    <path
       id="path4525"
       d="m 35.0978,76.6302 0.3825,-1.651 3.9364,0.7055 -0.5377,2.2488 z"
       style="fill:#d87408;stroke:#000000;stroke-width:0.2;stroke-linejoin:round" />
    <path
       id="path4523"
       d="m 34.4482,78.1263 0.6496,-1.4961 3.7812,1.3033 -0.9551,2.171 z"
       style="fill:#d87408;stroke:#000000;stroke-width:0.2;stroke-linejoin:round" />
    <path
       id="path4521"
       d="m 33.6191,79.2197 0.8291,-1.0934 3.4757,1.9782 -1.6116,2.071 z"
       style="fill:#d87408;stroke:#000000;stroke-width:0.2;stroke-linejoin:round" />
    <path
       id="path4519"
       d="m 32.4076,80.0956 1.2115,-0.8759 2.6932,2.9558 -2.034,1.4545 z"
       style="fill:#d87408;stroke:#000000;stroke-width:0.2;stroke-linejoin:round" />
    <path
       id="path4517"
       d="m 30.9616,80.6441 1.446,-0.5485 1.8707,3.5344 -2.2907,0.8794 z"
       style="fill:#d87408;stroke:#000000;stroke-width:0.2;stroke-linejoin:round" />
    <path
       id="path4515"
       d="m 29.3511,80.9279 1.6105,-0.2838 1.026,3.8653 -2.3353,0.4067 z"
       style="fill:#d87408;stroke:#000000;stroke-width:0.2;stroke-linejoin:round" />
    <path
       id="path4513"
       d="m 27.5638,80.99 1.7873,-0.0621 0.3012,3.9882 -2.2187,0.071 z"
       style="fill:#d87408;stroke:#000000;stroke-width:0.2;stroke-linejoin:round" />
    <path
       id="path4511"
       d="m 25.7133,80.8907 1.8505,0.0993 -0.1302,3.9971 -2.1518,-0.1209 z"
       style="fill:#d87408;stroke:#000000;stroke-width:0.2;stroke-linejoin:round" />
    <path
       id="path4509"
       d="m 23.9636,80.6261 1.7497,0.2646 -0.4315,3.9755 -2.211,-0.3415 z"
       style="fill:#d87408;stroke:#000000;stroke-width:0.2;stroke-linejoin:round" />
    <path
       id="path4507"
       d="m 22.4015,80.109 1.5621,0.5171 -0.8928,3.8986 -2.2398,-0.7377 z"
       style="fill:#d87408;stroke:#000000;stroke-width:0.2;stroke-linejoin:round" />
    <path
       id="path4505"
       d="m 21.3524,79.4426 1.0491,0.6664 -1.5705,3.678 -2.3001,-1.5106 z"
       style="fill:#d87408;stroke:#000000;stroke-width:0.2;stroke-linejoin:round" />
    <path
       id="path4503"
       d="m 20.5237,78.3443 0.8287,1.0983 -2.8215,2.8338 -1.5597,-2.0955 z"
       style="fill:#d87408;stroke:#000000;stroke-width:0.2;stroke-linejoin:round" />
    <path
       id="path4501"
       d="m 20.0946,77.0238 0.4291,1.3205 -3.5525,1.8366 -0.8173,-2.4771 z"
       style="fill:#d87408;stroke:#000000;stroke-width:0.2;stroke-linejoin:round" />
    <path
       id="path4499"
       d="m 19.8912,75.2723 0.2034,1.7515 -3.9407,0.68 -0.2573,-2.2288 z"
       style="fill:#d87408;stroke:#000000;stroke-width:0.2;stroke-linejoin:round" />
    <path
       id="path4319"
       d="m 14.8544,71 h 2.0058 v 4 h -2.0058 z"
       style="fill:#d87408;stroke:#000000;stroke-width:0.2;stroke-linejoin:round" />
    <path
       id="path4321"
       d="m 16.8602,71 h 2.0059 v 4 h -2.0059 z"
       style="fill:#d87408;stroke:#000000;stroke-width:0.2;stroke-linejoin:round" />
    <path
       id="path4323"
       d="m 18.8661,71 h 2.0058 v 4 h -2.0058 z"
       style="fill:#d87408;stroke:#000000;stroke-width:0.2;stroke-linejoin:round" />
    <path
       id="path4497"
       d="m 19.8522,73.3477 0.039,1.9246 -3.9946,0.2027 -0.0439,-2.0854 z"
       style="fill:#d87408;stroke:#000000;stroke-width:0.2;stroke-linejoin:round" />
    <path
       id="path4495"
       d="m 19.8655,71.384 -0.0133,1.9637 -3.9995,0.0419 0.0133,-2.0475 z"
       style="fill:#d87408;stroke:#000000;stroke-width:0.2;stroke-linejoin:round" />
    <path
       id="path4493"
       d="M 19.9908,69.5644 19.8655,71.384 15.866,71.3421 16.0118,69.1616 Z"
       style="fill:#d87408;stroke:#000000;stroke-width:0.2;stroke-linejoin:round" />
    <path
       id="path4491"
       d="m 20.3381,68.0922 -0.3473,1.4722 -3.979,-0.4028 0.5637,-2.4252 z"
       style="fill:#d87408;stroke:#000000;stroke-width:0.2;stroke-linejoin:round" />
    <path
       id="path4489"
       d="m 20.9574,66.9751 -0.6193,1.1171 -3.7626,-1.3558 1.3405,-2.3577 z"
       style="fill:#d87408;stroke:#000000;stroke-width:0.2;stroke-linejoin:round" />
    <path
       id="path4487"
       d="M 22.0017,66.1029 20.9574,66.9751 17.916,64.3787 19.9256,62.685 Z"
       style="fill:#d87408;stroke:#000000;stroke-width:0.2;stroke-linejoin:round" />
    <path
       id="path4485"
       d="m 23.3564,65.5336 -1.3547,0.5693 -2.0761,-3.4179 2.3265,-0.9954 z"
       style="fill:#d87408;stroke:#000000;stroke-width:0.2;stroke-linejoin:round" />
    <path
       id="path4483"
       d="m 24.9804,65.1888 -1.624,0.3448 -1.1043,-3.844 2.2967,-0.4763 z"
       style="fill:#d87408;stroke:#000000;stroke-width:0.2;stroke-linejoin:round" />
    <path
       id="path4481"
       d="m 26.8269,65.034 -1.8465,0.1548 -0.4316,-3.9755 2.1478,-0.1764 z"
       style="fill:#d87408;stroke:#000000;stroke-width:0.2;stroke-linejoin:round" />
    <path
       id="path4479"
       d="M 28.7668,65 26.8269,65.034 26.6966,61.0369 28.7668,61 Z"
       style="fill:#d87408;stroke:#000000;stroke-width:0.2;stroke-linejoin:round" />
    <path
       id="path4477"
       d="m 30.7726,65 h -2.0058 v -4 h 2.0058 z"
       style="fill:#d87408;stroke:#000000;stroke-width:0.2;stroke-linejoin:round" />
    <path
       id="path4475"
       d="m 32.7785,65 h -2.0059 v -4 h 2.0059 z"
       style="fill:#d87408;stroke:#000000;stroke-width:0.2;stroke-linejoin:round" />
    <path
       id="path4473"
       d="m 34.7843,65 h -2.0058 v -4 h 2.0058 z"
       style="fill:#d87408;stroke:#000000;stroke-width:0.2;stroke-linejoin:round" />
    <path
       id="path4465"
       d="m 42.8076,65 h -2.0059 v -4 h 2.0059 z"
       style="fill:#d87408;stroke:#000000;stroke-width:0.2;stroke-linejoin:round" />
    <path
       id="path4463"
       d="m 44.8134,65 h -2.0058 v -4 h 2.0058 z"
       style="fill:#d87408;stroke:#000000;stroke-width:0.2;stroke-linejoin:round" />
    <path
       id="path4461"
       d="m 46.8192,65 h -2.0058 v -4 h 2.0058 z"
       style="fill:#d87408;stroke:#000000;stroke-width:0.2;stroke-linejoin:round" />
    <path
       id="path4459"
       d="M 49.4477,64.7549 46.8192,65 v -4 l 1.3549,-0.034 z"
       style="fill:#d87408;stroke:#000000;stroke-width:0.2;stroke-linejoin:round" />
    <path
       id="path4457"
       d="m 51.8691,63.2471 -2.4214,1.5078 -1.2736,-3.7889 0.9306,-0.6084 z"
       style="fill:#d87408;stroke:#000000;stroke-width:0.2;stroke-linejoin:round" />
    <path
       id="path4455"
       d="m 53.3813,61.2336 -1.5122,2.0135 -2.7644,-2.8895 0.8623,-1.2062 z"
       style="fill:#d87408;stroke:#000000;stroke-width:0.2;stroke-linejoin:round" />
    <path
       id="path4453"
       d="m 54.3988,59.3522 -1.0175,1.8814 -3.4143,-2.0822 0.8853,-1.6479 z"
       style="fill:#d87408;stroke:#000000;stroke-width:0.2;stroke-linejoin:round" />
    <path
       id="path4451"
       d="m 55.3258,57.5738 -0.927,1.7784 -3.5465,-1.8487 0.9271,-1.7784 z"
       style="fill:#d87408;stroke:#000000;stroke-width:0.2;stroke-linejoin:round" />
    <path
       id="path4449"
       d="m 56.207,56.1303 -0.8812,1.4435 -3.5464,-1.8487 1.2119,-1.9704 z"
       style="fill:#d87408;stroke:#000000;stroke-width:0.2;stroke-linejoin:round" />
    <path
       id="path4447"
       d="M 57.0875,55.2271 56.207,56.1303 52.9913,53.7547 54.9398,51.855 Z"
       style="fill:#d87408;stroke:#000000;stroke-width:0.2;stroke-linejoin:round" />
    <path
       id="path4445"
       d="m 57.7867,54.9987 -0.6992,0.2284 -2.1477,-3.3721 3.0988,-0.8456 z"
       style="fill:#d87408;stroke:#000000;stroke-width:0.2;stroke-linejoin:round" />
    <path
       id="path4443"
       d="m 58.718,55.296 -0.9313,-0.2973 0.2519,-3.9893 2.8271,0.9146 z"
       style="fill:#d87408;stroke:#000000;stroke-width:0.2;stroke-linejoin:round" />
    <path
       id="path4441"
       d="m 59.5665,56.2335 -0.8485,-0.9375 2.1477,-3.372 1.9165,1.934 z"
       style="fill:#d87408;stroke:#000000;stroke-width:0.2;stroke-linejoin:round" />
    <path
       id="path4431"
       d="m 66.6253,64.8573 -2.7044,-1.5214 2.7644,-2.8895 0.7083,0.4883 z"
       style="fill:#d87408;stroke:#000000;stroke-width:0.2;stroke-linejoin:round" />
    <path
       id="path4429"
       d="m 69.6195,64.6972 -2.9942,0.1601 0.7683,-3.9226 0.9524,-0.0264 z"
       style="fill:#d87408;stroke:#000000;stroke-width:0.2;stroke-linejoin:round" />
    <path
       id="path4427"
       d="m 72.1009,63.0019 -2.4814,1.6953 -1.2735,-3.7889 0.7733,-0.5715 z"
       style="fill:#d87408;stroke:#000000;stroke-width:0.2;stroke-linejoin:round" />
    <path
       id="path4425"
       d="m 73.4758,61.0787 -1.3749,1.9232 -2.9816,-2.6651 0.9421,-1.3403 z"
       style="fill:#d87408;stroke:#000000;stroke-width:0.2;stroke-linejoin:round" />
    <path
       id="path4423"
       d="m 74.4827,59.1914 -1.0069,1.8873 -3.4144,-2.0822 0.8748,-1.6538 z"
       style="fill:#d87408;stroke:#000000;stroke-width:0.2;stroke-linejoin:round" />
    <path
       id="path4421"
       d="m 75.4097,57.413 -0.927,1.7784 -3.5465,-1.8487 0.927,-1.7784 z"
       style="fill:#d87408;stroke:#000000;stroke-width:0.2;stroke-linejoin:round" />
    <path
       id="path4419"
       d="M 76.3148,55.9844 75.4097,57.413 71.8632,55.5643 73.099,53.6089 Z"
       style="fill:#d87408;stroke:#000000;stroke-width:0.2;stroke-linejoin:round" />
    <path
       id="path4417"
       d="m 77.2404,55.1297 -0.9256,0.8547 -3.2158,-2.3755 1.9937,-1.8513 z"
       style="fill:#d87408;stroke:#000000;stroke-width:0.2;stroke-linejoin:round" />
    <path
       id="path4415"
       d="m 78.0289,55.0065 -0.7885,0.1232 -2.1477,-3.3721 3.0665,-0.7481 z"
       style="fill:#d87408;stroke:#000000;stroke-width:0.2;stroke-linejoin:round" />
    <path
       id="path4413"
       d="m 79.88,55.098 -1.8511,-0.0915 0.1303,-3.997 2.1524,0.113 z"
       style="fill:#d87408;stroke:#000000;stroke-width:0.2;stroke-linejoin:round" />
    <path
       id="path4411"
       d="M 81.6318,55.3506 79.88,55.098 l 0.4316,-3.9755 2.2129,0.3294 z"
       style="fill:#d87408;stroke:#000000;stroke-width:0.2;stroke-linejoin:round" />
    <path
       id="path4409"
       d="m 83.1996,55.85 -1.5678,-0.4994 0.8927,-3.8987 2.2456,0.72 z"
       style="fill:#d87408;stroke:#000000;stroke-width:0.2;stroke-linejoin:round" />
    <path
       id="path4407"
       d="m 84.3842,56.5993 -1.1846,-0.7493 1.5705,-3.6781 2.1973,1.3748 z"
       style="fill:#d87408;stroke:#000000;stroke-width:0.2;stroke-linejoin:round" />
    <path
       id="path4405"
       d="m 85.1255,57.5629 -0.7413,-0.9636 2.5832,-3.0526 1.7106,2.1796 z"
       style="fill:#d87408;stroke:#000000;stroke-width:0.2;stroke-linejoin:round" />
    <path
       id="path4403"
       d="m 85.5848,58.8732 -0.4593,-1.3103 3.5525,-1.8366 0.8475,2.4669 z"
       style="fill:#d87408;stroke:#000000;stroke-width:0.2;stroke-linejoin:round" />
    <path
       id="path4401"
       d="m 85.8007,60.6233 -0.2159,-1.7501 3.9407,-0.68 0.2698,2.2275 z"
       style="fill:#d87408;stroke:#000000;stroke-width:0.2;stroke-linejoin:round" />
    <path
       id="path4393"
       d="m 85.3945,67.8095 0.3224,-1.4779 3.979,0.4028 -0.5388,2.4309 z"
       style="fill:#d87408;stroke:#000000;stroke-width:0.2;stroke-linejoin:round" />
    <path
       id="path4391"
       d="m 84.8076,68.9454 0.5869,-1.1359 3.7626,1.3558 -1.3081,2.3765 z"
       style="fill:#d87408;stroke:#000000;stroke-width:0.2;stroke-linejoin:round" />
    <path
       id="path4389"
       d="m 83.7848,69.8429 1.0228,-0.8975 3.0414,2.5964 -1.9881,1.719 z"
       style="fill:#d87408;stroke:#000000;stroke-width:0.2;stroke-linejoin:round" />
    <path
       id="path4387"
       d="m 82.4412,70.4375 1.3436,-0.5946 2.0761,3.4179 -2.3153,1.0207 z"
       style="fill:#d87408;stroke:#000000;stroke-width:0.2;stroke-linejoin:round" />
    <path
       id="path4385"
       d="m 80.8207,70.7999 1.6205,-0.3624 1.1044,3.844 -2.2934,0.4939 z"
       style="fill:#d87408;stroke:#000000;stroke-width:0.2;stroke-linejoin:round" />
    <path
       id="path4383"
       d="m 78.9747,70.9626 1.846,-0.1627 0.4315,3.9755 -2.1472,0.1843 z"
       style="fill:#d87408;stroke:#000000;stroke-width:0.2;stroke-linejoin:round" />
    <path
       id="path4381"
       d="M 77.0349,71 78.9747,70.9626 79.105,74.9597 77.0349,75 Z"
       style="fill:#d87408;stroke:#000000;stroke-width:0.2;stroke-linejoin:round" />
    <path
       id="path4379"
       d="m 75.0291,71 h 2.0058 v 4 h -2.0058 z"
       style="fill:#d87408;stroke:#000000;stroke-width:0.2;stroke-linejoin:round" />
    <path
       id="path4377"
       d="m 73.0232,71 h 2.0059 v 4 h -2.0059 z"
       style="fill:#d87408;stroke:#000000;stroke-width:0.2;stroke-linejoin:round" />
    <path
       id="path4375"
       d="m 71.0174,71 h 2.0058 v 4 h -2.0058 z"
       style="fill:#d87408;stroke:#000000;stroke-width:0.2;stroke-linejoin:round" />
    <path
       id="path4373"
       d="m 69.0116,71 h 2.0058 v 4 h -2.0058 z"
       style="fill:#d87408;stroke:#000000;stroke-width:0.2;stroke-linejoin:round" />
    <path
       id="path4371"
       d="m 67.0058,71 h 2.0058 v 4 h -2.0058 z"
       style="fill:#d87408;stroke:#000000;stroke-width:0.2;stroke-linejoin:round" />
    <path
       id="path4369"
       d="m 65,71 h 2.0058 v 4 H 65 Z"
       style="fill:#d87408;stroke:#000000;stroke-width:0.2;stroke-linejoin:round" />
    <path
       id="path4367"
       d="M 62.9941,71 H 65 v 4 h -2.0059 z"
       style="fill:#d87408;stroke:#000000;stroke-width:0.2;stroke-linejoin:round" />
    <path
       id="path4365"
       d="m 60.9883,71 h 2.0058 v 4 h -2.0058 z"
       style="fill:#d87408;stroke:#000000;stroke-width:0.2;stroke-linejoin:round" />
    <path
       id="path4363"
       d="m 58.9825,71 h 2.0058 v 4 h -2.0058 z"
       style="fill:#d87408;stroke:#000000;stroke-width:0.2;stroke-linejoin:round" />
    <path
       id="path4361"
       d="m 56.9767,71 h 2.0058 v 4 h -2.0058 z"
       style="fill:#d87408;stroke:#000000;stroke-width:0.2;stroke-linejoin:round" />
    <path
       id="path4359"
       d="m 54.9709,71 h 2.0058 v 4 h -2.0058 z"
       style="fill:#d87408;stroke:#000000;stroke-width:0.2;stroke-linejoin:round" />
    <path
       id="path4357"
       d="m 52.965,71 h 2.0059 v 4 H 52.965 Z"
       style="fill:#d87408;stroke:#000000;stroke-width:0.2;stroke-linejoin:round" />
    <path
       id="path4355"
       d="m 50.9592,71 h 2.0058 v 4 h -2.0058 z"
       style="fill:#d87408;stroke:#000000;stroke-width:0.2;stroke-linejoin:round" />
    <path
       id="path4353"
       d="m 48.9534,71 h 2.0058 v 4 h -2.0058 z"
       style="fill:#d87408;stroke:#000000;stroke-width:0.2;stroke-linejoin:round" />
    <path
       id="path4351"
       d="m 46.9476,71 h 2.0058 v 4 h -2.0058 z"
       style="fill:#d87408;stroke:#000000;stroke-width:0.2;stroke-linejoin:round" />
    <path
       id="path4349"
       d="m 44.9417,71 h 2.0059 v 4 h -2.0059 z"
       style="fill:#d87408;stroke:#000000;stroke-width:0.2;stroke-linejoin:round" />
    <path
       id="path4347"
       d="m 42.9359,71 h 2.0058 v 4 h -2.0058 z"
       style="fill:#d87408;stroke:#000000;stroke-width:0.2;stroke-linejoin:round" />
    <path
       id="path4345"
       d="m 40.9301,71 h 2.0058 v 4 h -2.0058 z"
       style="fill:#d87408;stroke:#000000;stroke-width:0.2;stroke-linejoin:round" />
    <path
       id="path4343"
       d="m 38.9243,71 h 2.0058 v 4 h -2.0058 z"
       style="fill:#d87408;stroke:#000000;stroke-width:0.2;stroke-linejoin:round" />
    <path
       id="path4341"
       d="m 36.9185,71 h 2.0058 v 4 h -2.0058 z"
       style="fill:#d87408;stroke:#000000;stroke-width:0.2;stroke-linejoin:round" />
    <path
       id="path4339"
       d="m 34.9126,71 h 2.0059 v 4 h -2.0059 z"
       style="fill:#d87408;stroke:#000000;stroke-width:0.2;stroke-linejoin:round" />
    <path
       id="path4337"
       d="m 32.9068,71 h 2.0058 v 4 h -2.0058 z"
       style="fill:#d87408;stroke:#000000;stroke-width:0.2;stroke-linejoin:round" />
    <path
       id="path4335"
       d="m 30.901,71 h 2.0058 v 4 H 30.901 Z"
       style="fill:#d87408;stroke:#000000;stroke-width:0.2;stroke-linejoin:round" />
    <path
       id="path4333"
       d="m 28.8952,71 h 2.0058 v 4 h -2.0058 z"
       style="fill:#d87408;stroke:#000000;stroke-width:0.2;stroke-linejoin:round" />
    <path
       id="path4331"
       d="m 26.8894,71 h 2.0058 v 4 h -2.0058 z"
       style="fill:#d87408;stroke:#000000;stroke-width:0.2;stroke-linejoin:round" />
    <path
       id="path4329"
       d="m 24.8835,71 h 2.0059 v 4 h -2.0059 z"
       style="fill:#d87408;stroke:#000000;stroke-width:0.2;stroke-linejoin:round" />
    <path
       id="path4327"
       d="m 22.8777,71 h 2.0058 v 4 h -2.0058 z"
       style="fill:#d87408;stroke:#000000;stroke-width:0.2;stroke-linejoin:round" />
    <path
       id="path4325"
       d="m 20.8719,71 h 2.0058 v 4 h -2.0058 z"
       style="fill:#d87408;stroke:#000000;stroke-width:0.2;stroke-linejoin:round" />
    <path
       id="rect4304"
       d="m 12.8486,71 h 2.0058 v 4 h -2.0058 z"
       style="fill:#d87408;stroke:#000000;stroke-width:0.2;stroke-linejoin:round" />
  </g>
</svg>
