<?xml version="1.0" encoding="UTF-8" standalone="no"?>
<svg
   xmlns:dc="http://purl.org/dc/elements/1.1/"
   xmlns:cc="http://creativecommons.org/ns#"
   xmlns:rdf="http://www.w3.org/1999/02/22-rdf-syntax-ns#"
   xmlns:svg="http://www.w3.org/2000/svg"
   xmlns="http://www.w3.org/2000/svg"
   xmlns:sodipodi="http://sodipodi.sourceforge.net/DTD/sodipodi-0.dtd"
   xmlns:inkscape="http://www.inkscape.org/namespaces/inkscape"
   sodipodi:docname="eight-like-2-4.svg"
   inkscape:version="1.0 (4035a4fb49, 2020-05-01)"
   width="210mm"
   height="297mm"
   viewBox="0 0 210 297"
   version="1.1"
   id="svg11949">
  <defs
     id="defs11943" />
  <sodipodi:namedview
     inkscape:window-maximized="0"
     inkscape:window-y="0"
     inkscape:window-x="125"
     inkscape:window-height="1040"
     inkscape:window-width="1648"
     showgrid="true"
     inkscape:document-rotation="0"
     inkscape:current-layer="layer1"
     inkscape:document-units="mm"
     inkscape:cy="168.82251"
     inkscape:cx="281.87349"
     inkscape:zoom="2.8"
     inkscape:pageshadow="2"
     inkscape:pageopacity="0.0"
     borderopacity="1.0"
     bordercolor="#666666"
     pagecolor="#ffffff"
     id="base">
    <inkscape:grid
       id="grid12512"
       type="xygrid" />
  </sodipodi:namedview>
  <metadata
     id="metadata11946">
    <rdf:RDF>
      <cc:Work
         rdf:about="">
        <dc:format>image/svg+xml</dc:format>
        <dc:type
           rdf:resource="http://purl.org/dc/dcmitype/StillImage" />
        <dc:title></dc:title>
      </cc:Work>
    </rdf:RDF>
  </metadata>
  <g
     id="layer1"
     inkscape:groupmode="layer"
     inkscape:label="Слой 1">
    <path
       id="path12969"
       d="m 122.7853,28 h 2.003 v 4 h -2.003 z"
       style="fill:#d87408;stroke:#000000;stroke-width:0.2;stroke-linejoin:round" />
    <path
       id="path12675"
       d="m 117.7833,29.5216 -0.044,-1.9214 3.994,-0.2027 0.05,2.0822 z"
       style="fill:#d87408;stroke:#000000;stroke-width:0.2;stroke-linejoin:round" />
    <path
       id="path12671"
       d="m 117.6603,33.2995 0.112,-1.8172 4,0.0419 -0.133,2.1781 z"
       style="fill:#d87408;stroke:#000000;stroke-width:0.2;stroke-linejoin:round" />
    <path
       id="path12673"
       d="m 117.7723,31.4823 0.011,-1.9607 4,-0.0419 -0.011,2.0445 z"
       style="fill:#d87408;stroke:#000000;stroke-width:0.2;stroke-linejoin:round" />
    <path
       id="path12967"
       d="m 120.7823,28 h 2.003 v 4 h -2.003 z"
       style="fill:#d87408;stroke:#000000;stroke-width:0.2;stroke-linejoin:round" />
    <path
       id="path12965"
       d="m 118.7803,28 h 2.002 v 4 h -2.002 z"
       style="fill:#d87408;stroke:#000000;stroke-width:0.2;stroke-linejoin:round" />
    <path
       id="path12963"
       d="m 116.7773,28 h 2.003 v 4 h -2.003 z"
       style="fill:#d87408;stroke:#000000;stroke-width:0.2;stroke-linejoin:round" />
    <path
       id="path12961"
       d="m 114.7743,28 h 2.003 v 4 h -2.003 z"
       style="fill:#d87408;stroke:#000000;stroke-width:0.2;stroke-linejoin:round" />
    <path
       id="path12959"
       d="m 112.7713,28 h 2.003 v 4 h -2.003 z"
       style="fill:#d87408;stroke:#000000;stroke-width:0.2;stroke-linejoin:round" />
    <path
       id="path12957"
       d="m 110.7683,28 h 2.003 v 4 h -2.003 z"
       style="fill:#d87408;stroke:#000000;stroke-width:0.2;stroke-linejoin:round" />
    <path
       id="path12955"
       d="M 109.4193,27.9514 110.7683,28 v 4 l -2.623,-0.2597 z"
       style="fill:#d87408;stroke:#000000;stroke-width:0.2;stroke-linejoin:round" />
    <path
       id="path12953"
       d="m 108.6103,27.44 0.809,0.5114 -1.274,3.7889 -2.517,-1.6351 z"
       style="fill:#d87408;stroke:#000000;stroke-width:0.2;stroke-linejoin:round" />
    <path
       id="path12951"
       d="m 107.6493,26.1173 0.961,1.3227 -2.982,2.6652 -1.394,-1.9057 z"
       style="fill:#d87408;stroke:#000000;stroke-width:0.2;stroke-linejoin:round" />
    <path
       id="path12949"
       d="m 106.7673,24.4708 0.882,1.6465 -3.415,2.0822 -1.013,-1.88 z"
       style="fill:#d87408;stroke:#000000;stroke-width:0.2;stroke-linejoin:round" />
    <path
       id="path12947"
       d="m 105.8423,22.6951 0.925,1.7757 -3.546,1.8487 -0.926,-1.7757 z"
       style="fill:#d87408;stroke:#000000;stroke-width:0.2;stroke-linejoin:round" />
    <path
       id="path12945"
       d="m 104.6273,20.7299 1.215,1.9652 -3.547,1.8487 -0.884,-1.4384 z"
       style="fill:#d87408;stroke:#000000;stroke-width:0.2;stroke-linejoin:round" />
    <path
       id="path12943"
       d="m 102.6733,18.8401 1.954,1.8898 -3.216,2.3755 -0.885,-0.8933 z"
       style="fill:#d87408;stroke:#000000;stroke-width:0.2;stroke-linejoin:round" />
    <path
       id="path12941"
       d="m 99.5736,18.0109 3.0997,0.8292 -2.147,3.372 -0.701,-0.2118 z"
       style="fill:#d87408;stroke:#000000;stroke-width:0.2;stroke-linejoin:round" />
    <path
       id="path12939"
       d="m 96.7528,18.9357 2.8208,-0.9248 0.2517,3.9894 -0.9248,0.3074 z"
       style="fill:#d87408;stroke:#000000;stroke-width:0.2;stroke-linejoin:round" />
    <path
       id="path12937"
       d="m 94.8435,20.8731 1.9093,-1.9374 2.1477,3.372 -0.8412,0.9409 z"
       style="fill:#d87408;stroke:#000000;stroke-width:0.2;stroke-linejoin:round" />
    <path
       id="path12713"
       d="m 93.3119,26.4938 -0.9256,-1.7757 3.5464,-1.8487 0.9257,1.7757 z"
       style="fill:#d87408;stroke:#000000;stroke-width:0.2;stroke-linejoin:round" />
    <path
       id="path12715"
       d="m 92.3863,24.7181 -0.858,-1.4546 3.2158,-2.3755 1.1886,1.9814 z"
       style="fill:#d87408;stroke:#000000;stroke-width:0.2;stroke-linejoin:round" />
    <path
       id="path12935"
       d="m 93.6524,22.853 1.1911,-1.9799 3.2158,2.3755 -0.8604,1.4531 z"
       style="fill:#d87408;stroke:#000000;stroke-width:0.2;stroke-linejoin:round" />
    <path
       id="path12711"
       d="m 94.3371,28.3673 -1.0252,-1.8735 3.5465,-1.8487 0.8931,1.64 z"
       style="fill:#d87408;stroke:#000000;stroke-width:0.2;stroke-linejoin:round" />
    <path
       id="path12709"
       d="m 95.8788,30.3533 -1.5417,-1.986 3.4144,-2.0822 0.8916,1.1787 z"
       style="fill:#d87408;stroke:#000000;stroke-width:0.2;stroke-linejoin:round" />
    <path
       id="path12933"
       d="m 92.7268,24.6287 0.9256,-1.7757 3.5465,1.8487 -0.9256,1.7757 z"
       style="fill:#d87408;stroke:#000000;stroke-width:0.2;stroke-linejoin:round" />
    <path
       id="path12931"
       d="m 91.8347,26.2693 0.8921,-1.6406 3.5465,1.8487 -1.0242,1.8741 z"
       style="fill:#d87408;stroke:#000000;stroke-width:0.2;stroke-linejoin:round" />
    <path
       id="path12929"
       d="m 90.9468,27.451 0.8879,-1.1817 3.4144,2.0822 -1.538,1.989 z"
       style="fill:#d87408;stroke:#000000;stroke-width:0.2;stroke-linejoin:round" />
    <path
       id="path12927"
       d="m 90.2397,27.9354 0.7071,-0.4844 2.7643,2.8895 -2.7031,1.5175 z"
       style="fill:#d87408;stroke:#000000;stroke-width:0.2;stroke-linejoin:round" />
    <path
       id="path12925"
       d="m 89.2903,27.9081 0.9494,0.0273 0.7683,3.9226 -2.9912,-0.161 z"
       style="fill:#d87408;stroke:#000000;stroke-width:0.2;stroke-linejoin:round" />
    <path
       id="path12923"
       d="m 88.5192,27.3386 0.7711,0.5695 -1.2735,3.7889 -2.4792,-1.6933 z"
       style="fill:#d87408;stroke:#000000;stroke-width:0.2;stroke-linejoin:round" />
    <path
       id="path12921"
       d="m 87.5783,26.0011 0.9409,1.3375 -2.9816,2.6651 -1.3736,-1.9204 z"
       style="fill:#d87408;stroke:#000000;stroke-width:0.2;stroke-linejoin:round" />
    <path
       id="path12919"
       d="m 86.7046,24.3501 0.8737,1.651 -3.4143,2.0822 -1.0059,-1.8845 z"
       style="fill:#d87408;stroke:#000000;stroke-width:0.2;stroke-linejoin:round" />
    <path
       id="path12917"
       d="m 85.779,22.5744 0.9256,1.7757 -3.5465,1.8487 -0.9256,-1.7757 z"
       style="fill:#d87408;stroke:#000000;stroke-width:0.2;stroke-linejoin:round" />
    <path
       id="path12915"
       d="m 84.5465,20.6205 1.2325,1.9539 -3.5465,1.8487 -0.9018,-1.4271 z"
       style="fill:#d87408;stroke:#000000;stroke-width:0.2;stroke-linejoin:round" />
    <path
       id="path12913"
       d="m 82.5589,18.767 1.9876,1.8535 -3.2158,2.3755 -0.9195,-0.8569 z"
       style="fill:#d87408;stroke:#000000;stroke-width:0.2;stroke-linejoin:round" />
    <path
       id="path12911"
       d="m 79.4378,18.0195 3.1211,0.7475 -2.1477,3.3721 -0.7215,-0.1303 z"
       style="fill:#d87408;stroke:#000000;stroke-width:0.2;stroke-linejoin:round" />
    <path
       id="path12909"
       d="m 76.4719,19.1362 2.9659,-1.1167 0.2519,3.9893 -0.729,0.2568 z"
       style="fill:#d87408;stroke:#000000;stroke-width:0.2;stroke-linejoin:round" />
    <path
       id="path12907"
       d="m 74.7627,20.9825 1.7092,-1.8463 2.4888,3.1294 -0.9822,1.0924 z"
       style="fill:#d87408;stroke:#000000;stroke-width:0.2;stroke-linejoin:round" />
    <path
       id="path12743"
       d="m 73.249,26.3731 -0.9256,-1.7757 3.5464,-1.8487 0.9257,1.7757 z"
       style="fill:#d87408;stroke:#000000;stroke-width:0.2;stroke-linejoin:round" />
    <path
       id="path12745"
       d="m 72.3234,24.5974 -0.8759,-1.4433 3.2157,-2.3755 1.2066,1.9701 z"
       style="fill:#d87408;stroke:#000000;stroke-width:0.2;stroke-linejoin:round" />
    <path
       id="path12905"
       d="m 73.5895,22.9736 1.1732,-1.9911 3.2158,2.3755 -0.8425,1.4643 z"
       style="fill:#d87408;stroke:#000000;stroke-width:0.2;stroke-linejoin:round" />
    <path
       id="path12741"
       d="m 74.2663,28.2511 -1.0173,-1.878 3.5465,-1.8487 0.8852,1.6446 z"
       style="fill:#d87408;stroke:#000000;stroke-width:0.2;stroke-linejoin:round" />
    <path
       id="path12739"
       d="m 75.7805,30.2592 -1.5142,-2.0081 3.4144,-2.0821 0.8641,1.2008 z"
       style="fill:#d87408;stroke:#000000;stroke-width:0.2;stroke-linejoin:round" />
    <path
       id="path12903"
       d="m 72.6639,24.7494 0.9256,-1.7758 3.5465,1.8487 -0.9256,1.7758 z"
       style="fill:#d87408;stroke:#000000;stroke-width:0.2;stroke-linejoin:round" />
    <path
       id="path12901"
       d="m 71.7639,26.3855 0.9,-1.6361 3.5465,1.8487 -1.0321,1.8696 z"
       style="fill:#d87408;stroke:#000000;stroke-width:0.2;stroke-linejoin:round" />
    <path
       id="path12899"
       d="m 70.8485,27.5451 0.9154,-1.1596 3.4144,2.0822 -1.5655,1.9668 z"
       style="fill:#d87408;stroke:#000000;stroke-width:0.2;stroke-linejoin:round" />
    <path
       id="path12897"
       d="m 70.1063,27.9615 0.7422,-0.4164 2.7643,2.8894 -2.7382,1.4496 z"
       style="fill:#d87408;stroke:#000000;stroke-width:0.2;stroke-linejoin:round" />
    <path
       id="path12895"
       d="m 68.4937,28 1.6126,-0.0385 0.7683,3.9226 L 68.4937,32 Z"
       style="fill:#d87408;stroke:#000000;stroke-width:0.2;stroke-linejoin:round" />
    <path
       id="path12893"
       d="m 66.4909,28 h 2.0028 v 4 h -2.0028 z"
       style="fill:#d87408;stroke:#000000;stroke-width:0.2;stroke-linejoin:round" />
    <path
       id="path12891"
       d="m 64.4881,28 h 2.0028 v 4 h -2.0028 z"
       style="fill:#d87408;stroke:#000000;stroke-width:0.2;stroke-linejoin:round" />
    <path
       id="path12889"
       d="m 62.4853,28 h 2.0028 v 4 h -2.0028 z"
       style="fill:#d87408;stroke:#000000;stroke-width:0.2;stroke-linejoin:round" />
    <path
       id="path12887"
       d="m 60.4825,28 h 2.0028 v 4 h -2.0028 z"
       style="fill:#d87408;stroke:#000000;stroke-width:0.2;stroke-linejoin:round" />
    <path
       id="path12885"
       d="m 58.4797,28 h 2.0028 v 4 h -2.0028 z"
       style="fill:#d87408;stroke:#000000;stroke-width:0.2;stroke-linejoin:round" />
    <path
       id="path12883"
       d="m 56.4769,28 h 2.0028 v 4 h -2.0028 z"
       style="fill:#d87408;stroke:#000000;stroke-width:0.2;stroke-linejoin:round" />
    <path
       id="path12881"
       d="m 54.4741,28 h 2.0028 v 4 h -2.0028 z"
       style="fill:#d87408;stroke:#000000;stroke-width:0.2;stroke-linejoin:round" />
    <path
       id="path12879"
       d="m 52.4713,28 h 2.0028 v 4 h -2.0028 z"
       style="fill:#d87408;stroke:#000000;stroke-width:0.2;stroke-linejoin:round" />
    <path
       id="path12877"
       d="m 50.4685,28 h 2.0028 v 4 h -2.0028 z"
       style="fill:#d87408;stroke:#000000;stroke-width:0.2;stroke-linejoin:round" />
    <path
       id="path12875"
       d="m 48.4657,28 h 2.0028 v 4 h -2.0028 z"
       style="fill:#d87408;stroke:#000000;stroke-width:0.2;stroke-linejoin:round" />
    <path
       id="path12873"
       d="m 46.4629,28 h 2.0028 v 4 h -2.0028 z"
       style="fill:#d87408;stroke:#000000;stroke-width:0.2;stroke-linejoin:round" />
    <path
       id="path12871"
       d="m 44.4601,28 h 2.0028 v 4 h -2.0028 z"
       style="fill:#d87408;stroke:#000000;stroke-width:0.2;stroke-linejoin:round" />
    <path
       id="path12869"
       d="m 42.4573,28 h 2.0028 v 4 h -2.0028 z"
       style="fill:#d87408;stroke:#000000;stroke-width:0.2;stroke-linejoin:round" />
    <path
       id="path12867"
       d="m 40.4545,28 h 2.0028 v 4 h -2.0028 z"
       style="fill:#d87408;stroke:#000000;stroke-width:0.2;stroke-linejoin:round" />
    <path
       id="path12865"
       d="m 38.4517,28 h 2.0028 v 4 h -2.0028 z"
       style="fill:#d87408;stroke:#000000;stroke-width:0.2;stroke-linejoin:round" />
    <path
       id="path12863"
       d="m 36.4489,28 h 2.0028 v 4 h -2.0028 z"
       style="fill:#d87408;stroke:#000000;stroke-width:0.2;stroke-linejoin:round" />
    <path
       id="path12861"
       d="m 34.4461,28 h 2.0028 v 4 h -2.0028 z"
       style="fill:#d87408;stroke:#000000;stroke-width:0.2;stroke-linejoin:round" />
    <path
       id="path12859"
       d="m 32.4433,28 h 2.0028 v 4 h -2.0028 z"
       style="fill:#d87408;stroke:#000000;stroke-width:0.2;stroke-linejoin:round" />
    <path
       id="path12857"
       d="m 30.4405,28 h 2.0028 v 4 h -2.0028 z"
       style="fill:#d87408;stroke:#000000;stroke-width:0.2;stroke-linejoin:round" />
    <path
       id="path12855"
       d="M 28.3736,28.0454 30.4405,28 v 4 l -1.9366,0.0425 z"
       style="fill:#d87408;stroke:#000000;stroke-width:0.2;stroke-linejoin:round" />
    <path
       id="path12853"
       d="m 26.0979,28.2627 2.2757,-0.2173 0.1303,3.9971 -1.7091,0.1586 z"
       style="fill:#d87408;stroke:#000000;stroke-width:0.2;stroke-linejoin:round" />
    <path
       id="path12851"
       d="m 23.8328,28.8004 2.2651,-0.5377 0.6969,3.9384 -1.6312,0.3707 z"
       style="fill:#d87408;stroke:#000000;stroke-width:0.2;stroke-linejoin:round" />
    <path
       id="path12849"
       d="m 21.6483,29.8167 2.1845,-1.0163 1.3308,3.7714 -1.4391,0.6629 z"
       style="fill:#d87408;stroke:#000000;stroke-width:0.2;stroke-linejoin:round" />
    <path
       id="path12847"
       d="m 19.6016,31.7 2.0467,-1.8833 2.0762,3.418 -0.8847,0.8118 z"
       style="fill:#d87408;stroke:#000000;stroke-width:0.2;stroke-linejoin:round" />
    <path
       id="path12845"
       d="m 18.3827,34.1286 1.2189,-2.4286 3.2382,2.3465 -0.596,1.1201 z"
       style="fill:#d87408;stroke:#000000;stroke-width:0.2;stroke-linejoin:round" />
    <path
       id="path12843"
       d="m 17.9268,36.4052 0.4559,-2.2766 3.8611,1.038 -0.3379,1.6414 z"
       style="fill:#d87408;stroke:#000000;stroke-width:0.2;stroke-linejoin:round" />
    <path
       id="path12555"
       d="m 16.7911,38 h 2.0028 v 4 h -2.0028 z"
       style="fill:#d87408;stroke:#000000;stroke-width:0.2;stroke-linejoin:round" />
    <path
       id="path12557"
       d="m 18.7939,38 h 2.0028 v 4 h -2.0028 z"
       style="fill:#d87408;stroke:#000000;stroke-width:0.2;stroke-linejoin:round" />
    <path
       id="path12559"
       d="m 20.7967,38 h 2.0028 v 4 h -2.0028 z"
       style="fill:#d87408;stroke:#000000;stroke-width:0.2;stroke-linejoin:round" />
    <path
       id="path12841"
       d="m 17.8031,38.5839 0.1237,-2.1787 3.9791,0.4028 -0.1032,1.8178 z"
       style="fill:#d87408;stroke:#000000;stroke-width:0.2;stroke-linejoin:round" />
    <path
       id="path12839"
       d="m 17.7949,40.6284 0.0082,-2.0445 3.9996,0.0419 -0.0083,1.9607 z"
       style="fill:#d87408;stroke:#000000;stroke-width:0.2;stroke-linejoin:round" />
    <path
       id="path12837"
       d="m 17.8483,42.7104 -0.0534,-2.082 3.9995,-0.0419 0.0485,1.9213 z"
       style="fill:#d87408;stroke:#000000;stroke-width:0.2;stroke-linejoin:round" />
    <path
       id="path12835"
       d="m 18.1782,45.1109 -0.3299,-2.4005 3.9946,-0.2026 0.1965,1.5651 z"
       style="fill:#d87408;stroke:#000000;stroke-width:0.2;stroke-linejoin:round" />
    <path
       id="path12833"
       d="m 19.0164,47.385 -0.8382,-2.2741 3.8612,-1.038 0.5294,1.4754 z"
       style="fill:#d87408;stroke:#000000;stroke-width:0.2;stroke-linejoin:round" />
    <path
       id="path12831"
       d="m 20.7628,49.5322 -1.7464,-2.1472 3.5524,-1.8367 0.7771,0.9313 z"
       style="fill:#d87408;stroke:#000000;stroke-width:0.2;stroke-linejoin:round" />
    <path
       id="path12829"
       d="m 22.9764,50.8748 -2.2136,-1.3426 2.5831,-3.0526 1.201,0.7172 z"
       style="fill:#d87408;stroke:#000000;stroke-width:0.2;stroke-linejoin:round" />
    <path
       id="path12827"
       d="m 25.2256,51.574 -2.2492,-0.6992 1.5705,-3.678 1.5715,0.4786 z"
       style="fill:#d87408;stroke:#000000;stroke-width:0.2;stroke-linejoin:round" />
    <path
       id="path12825"
       d="m 27.4378,51.8897 -2.2122,-0.3157 0.8928,-3.8986 1.7509,0.2388 z"
       style="fill:#d87408;stroke:#000000;stroke-width:0.2;stroke-linejoin:round" />
    <path
       id="path12823"
       d="m 29.5877,51.9941 -2.1499,-0.1044 0.4315,-3.9755 1.8487,0.0828 z"
       style="fill:#d87408;stroke:#000000;stroke-width:0.2;stroke-linejoin:round" />
    <path
       id="path12821"
       d="m 32.6345,51.1849 -3.0468,0.8092 0.1303,-3.9971 0.7688,-0.1842 z"
       style="fill:#d87408;stroke:#000000;stroke-width:0.2;stroke-linejoin:round" />
    <path
       id="path12819"
       d="m 34.5997,49.3074 -1.9652,1.8775 -2.1477,-3.3721 0.8971,-0.8809 z"
       style="fill:#d87408;stroke:#000000;stroke-width:0.2;stroke-linejoin:round" />
    <path
       id="path12817"
       d="m 35.8204,47.3462 -1.2207,1.9612 -3.2158,-2.3755 0.89,-1.4344 z"
       style="fill:#d87408;stroke:#000000;stroke-width:0.2;stroke-linejoin:round" />
    <path
       id="path12815"
       d="m 36.746,45.5704 -0.9256,1.7758 -3.5465,-1.8487 0.9256,-1.7758 z"
       style="fill:#d87408;stroke:#000000;stroke-width:0.2;stroke-linejoin:round" />
    <path
       id="path12813"
       d="m 37.625,43.9224 -0.879,1.648 -3.5465,-1.8487 1.0111,-1.8815 z"
       style="fill:#d87408;stroke:#000000;stroke-width:0.2;stroke-linejoin:round" />
    <path
       id="path12811"
       d="m 38.5789,42.5946 -0.9539,1.3278 -3.4144,-2.0822 1.3867,-1.9107 z"
       style="fill:#d87408;stroke:#000000;stroke-width:0.2;stroke-linejoin:round" />
    <path
       id="path12809"
       d="m 39.3752,42.0634 -0.7963,0.5312 -2.9816,-2.6651 2.5044,-1.655 z"
       style="fill:#d87408;stroke:#000000;stroke-width:0.2;stroke-linejoin:round" />
    <path
       id="path12807"
       d="m 40.0735,42.0204 -0.6983,0.043 -1.2735,-3.7889 3.2454,-0.043 z"
       style="fill:#d87408;stroke:#000000;stroke-width:0.2;stroke-linejoin:round" />
    <path
       id="path12805"
       d="m 41.0115,42.6109 -0.938,-0.5905 1.2736,-3.7889 2.4288,1.4899 z"
       style="fill:#d87408;stroke:#000000;stroke-width:0.2;stroke-linejoin:round" />
    <path
       id="path12591"
       d="m 43.3033,43.5226 1.0242,-1.8741 3.4144,2.0822 -0.8921,1.6406 z"
       style="fill:#d87408;stroke:#000000;stroke-width:0.2;stroke-linejoin:round" />
    <path
       id="path12593"
       d="m 44.3275,41.6485 1.538,-1.989 2.7643,2.8895 -0.8879,1.1817 z"
       style="fill:#d87408;stroke:#000000;stroke-width:0.2;stroke-linejoin:round" />
    <path
       id="path12803"
       d="m 41.8814,43.8071 -0.8699,-1.1962 2.7644,-2.8895 1.5198,2.0036 z"
       style="fill:#d87408;stroke:#000000;stroke-width:0.2;stroke-linejoin:round" />
    <path
       id="path12587"
       d="m 41.5173,46.7514 0.8604,-1.4531 3.5465,1.8487 -1.1911,1.9799 z"
       style="fill:#d87408;stroke:#000000;stroke-width:0.2;stroke-linejoin:round" />
    <path
       id="path12589"
       d="m 42.3777,45.2983 0.9256,-1.7757 3.5465,1.8487 -0.9256,1.7757 z"
       style="fill:#d87408;stroke:#000000;stroke-width:0.2;stroke-linejoin:round" />
    <path
       id="path12801"
       d="m 42.7682,45.4507 -0.8868,-1.6436 3.4143,-2.0821 1.019,1.877 z"
       style="fill:#d87408;stroke:#000000;stroke-width:0.2;stroke-linejoin:round" />
    <path
       id="path12799"
       d="m 43.6938,47.2265 -0.9256,-1.7758 3.5465,-1.8487 0.9256,1.7758 z"
       style="fill:#d87408;stroke:#000000;stroke-width:0.2;stroke-linejoin:round" />
    <path
       id="path12797"
       d="m 44.8967,49.1989 -1.2029,-1.9724 3.5465,-1.8487 0.8722,1.4456 z"
       style="fill:#d87408;stroke:#000000;stroke-width:0.2;stroke-linejoin:round" />
    <path
       id="path12585"
       d="m 40.6761,47.6923 0.8412,-0.9409 3.2158,2.3755 -1.9093,1.9374 z"
       style="fill:#d87408;stroke:#000000;stroke-width:0.2;stroke-linejoin:round" />
    <path
       id="path12795"
       d="m 46.8283,51.1124 -1.9316,-1.9135 3.2158,-2.3755 0.8635,0.917 z"
       style="fill:#d87408;stroke:#000000;stroke-width:0.2;stroke-linejoin:round" />
    <path
       id="path12793"
       d="m 49.8367,51.9992 -3.0084,-0.8868 2.1477,-3.372 0.765,0.2604 z"
       style="fill:#d87408;stroke:#000000;stroke-width:0.2;stroke-linejoin:round" />
    <path
       id="path12791"
       d="M 52.0492,51.8648 49.8367,51.9992 49.741,48.0008 51.5241,47.9 Z"
       style="fill:#d87408;stroke:#000000;stroke-width:0.2;stroke-linejoin:round" />
    <path
       id="path12789"
       d="M 54.2604,51.421 52.0492,51.8648 51.5241,47.9 53.2344,47.5557 Z"
       style="fill:#d87408;stroke:#000000;stroke-width:0.2;stroke-linejoin:round" />
    <path
       id="path12787"
       d="m 56.6621,50.3855 -2.4017,1.0355 -1.026,-3.8653 1.271,-0.5376 z"
       style="fill:#d87408;stroke:#000000;stroke-width:0.2;stroke-linejoin:round" />
    <path
       id="path12785"
       d="m 58.6055,48.8145 -1.9434,1.571 -2.1567,-3.3674 1.1695,-0.9244 z"
       style="fill:#d87408;stroke:#000000;stroke-width:0.2;stroke-linejoin:round" />
    <path
       id="path12783"
       d="m 60.092,46.6934 -1.4865,2.1211 -2.9306,-2.7208 0.8159,-1.1399 z"
       style="fill:#d87408;stroke:#000000;stroke-width:0.2;stroke-linejoin:round" />
    <path
       id="path12781"
       d="m 60.9509,44.4725 -0.8589,2.2209 -3.6012,-1.7396 0.5941,-1.5026 z"
       style="fill:#d87408;stroke:#000000;stroke-width:0.2;stroke-linejoin:round" />
    <path
       id="path12779"
       d="m 61.4145,42.3604 -0.4636,2.1121 -3.866,-1.0213 0.3932,-1.7963 z"
       style="fill:#d87408;stroke:#000000;stroke-width:0.2;stroke-linejoin:round" />
    <path
       id="path12777"
       d="m 61.6604,40.1527 -0.2459,2.2077 -3.9364,-0.7055 0.1917,-1.7715 z"
       style="fill:#d87408;stroke:#000000;stroke-width:0.2;stroke-linejoin:round" />
    <path
       id="path12775"
       d="m 61.7601,38.0855 -0.0997,2.0672 -3.9906,-0.2693 0.0927,-1.9331 z"
       style="fill:#d87408;stroke:#000000;stroke-width:0.2;stroke-linejoin:round" />
    <path
       id="path12773"
       d="m 61.7811,36.0293 -0.021,2.0562 -3.9976,-0.1352 0.0188,-1.9489 z"
       style="fill:#d87408;stroke:#000000;stroke-width:0.2;stroke-linejoin:round" />
    <path
       id="path12771"
       d="m 61.7951,34.0266 -0.014,2.0027 -3.9998,-0.0279 0.014,-2.0027 z"
       style="fill:#d87408;stroke:#000000;stroke-width:0.2;stroke-linejoin:round" />
    <path
       id="path12769"
       d="m 61.8131,32.0777 -0.018,1.9489 -3.9998,-0.0279 0.0202,-2.0563 z"
       style="fill:#d87408;stroke:#000000;stroke-width:0.2;stroke-linejoin:round" />
    <path
       id="path12767"
       d="m 61.9049,30.1445 -0.0918,1.9332 -3.9976,-0.1353 0.0988,-2.0672 z"
       style="fill:#d87408;stroke:#000000;stroke-width:0.2;stroke-linejoin:round" />
    <path
       id="path12765"
       d="m 62.0935,28.3726 -0.1886,1.7719 -3.9906,-0.2693 0.2428,-2.2081 z"
       style="fill:#d87408;stroke:#000000;stroke-width:0.2;stroke-linejoin:round" />
    <path
       id="path12763"
       d="m 62.4845,26.5758 -0.391,1.7968 -3.9364,-0.7055 0.4614,-2.1126 z"
       style="fill:#d87408;stroke:#000000;stroke-width:0.2;stroke-linejoin:round" />
    <path
       id="path12761"
       d="m 63.0736,25.0714 -0.5891,1.5044 -3.866,-1.0213 0.854,-2.2227 z"
       style="fill:#d87408;stroke:#000000;stroke-width:0.2;stroke-linejoin:round" />
    <path
       id="path12759"
       d="m 63.8827,23.9268 -0.8091,1.1446 -3.6011,-1.7396 1.4796,-2.1258 z"
       style="fill:#d87408;stroke:#000000;stroke-width:0.2;stroke-linejoin:round" />
    <path
       id="path12757"
       d="m 65.0476,22.997 -1.1649,0.9298 -2.9306,-2.7208 1.9388,-1.5764 z"
       style="fill:#d87408;stroke:#000000;stroke-width:0.2;stroke-linejoin:round" />
    <path
       id="path12755"
       d="m 66.3152,22.4515 -1.2676,0.5455 -2.1567,-3.3674 2.3983,-1.0435 z"
       style="fill:#d87408;stroke:#000000;stroke-width:0.2;stroke-linejoin:round" />
    <path
       id="path12753"
       d="m 68.0247,22.1037 -1.7095,0.3478 -1.026,-3.8654 2.2105,-0.4472 z"
       style="fill:#d87408;stroke:#000000;stroke-width:0.2;stroke-linejoin:round" />
    <path
       id="path12751"
       d="m 69.8076,21.9999 -1.7829,0.1038 -0.525,-3.9648 2.2122,-0.1374 z"
       style="fill:#d87408;stroke:#000000;stroke-width:0.2;stroke-linejoin:round" />
    <path
       id="path12749"
       d="m 70.577,22.2446 -0.7694,-0.2447 -0.0957,-3.9984 3.0128,0.871 z"
       style="fill:#d87408;stroke:#000000;stroke-width:0.2;stroke-linejoin:round" />
    <path
       id="path12747"
       d="m 71.4475,23.1541 -0.8705,-0.9095 2.1477,-3.3721 1.9385,1.9061 z"
       style="fill:#d87408;stroke:#000000;stroke-width:0.2;stroke-linejoin:round" />
    <path
       id="path12737"
       d="m 78.203,31.7596 -2.4225,-1.5004 2.7643,-2.8894 0.9318,0.6009 z"
       style="fill:#d87408;stroke:#000000;stroke-width:0.2;stroke-linejoin:round" />
    <path
       id="path12735"
       d="m 81.4484,31.7344 -3.2454,0.0252 1.2736,-3.7889 0.6983,-0.0252 z"
       style="fill:#d87408;stroke:#000000;stroke-width:0.2;stroke-linejoin:round" />
    <path
       id="path12733"
       d="m 83.9607,30.0914 -2.5123,1.643 -1.2735,-3.7889 0.8041,-0.5192 z"
       style="fill:#d87408;stroke:#000000;stroke-width:0.2;stroke-linejoin:round" />
    <path
       id="path12731"
       d="m 85.3514,28.1837 -1.3907,1.9077 -2.9817,-2.6651 0.9581,-1.3248 z"
       style="fill:#d87408;stroke:#000000;stroke-width:0.2;stroke-linejoin:round" />
    <path
       id="path12729"
       d="m 86.3641,26.3031 -1.0127,1.8806 -3.4143,-2.0822 0.8805,-1.6471 z"
       style="fill:#d87408;stroke:#000000;stroke-width:0.2;stroke-linejoin:round" />
    <path
       id="path12727"
       d="m 87.2898,24.5274 -0.9257,1.7757 -3.5465,-1.8487 0.9257,-1.7757 z"
       style="fill:#d87408;stroke:#000000;stroke-width:0.2;stroke-linejoin:round" />
    <path
       id="path12725"
       d="m 88.176,23.0906 -0.8862,1.4368 -3.5465,-1.8487 1.217,-1.9636 z"
       style="fill:#d87408;stroke:#000000;stroke-width:0.2;stroke-linejoin:round" />
    <path
       id="path12723"
       d="m 89.0662,22.2022 -0.8902,0.8884 -3.2157,-2.3755 1.9582,-1.885 z"
       style="fill:#d87408;stroke:#000000;stroke-width:0.2;stroke-linejoin:round" />
    <path
       id="path12721"
       d="m 89.7696,22.0014 -0.7034,0.2008 -2.1477,-3.3721 3.103,-0.818 z"
       style="fill:#d87408;stroke:#000000;stroke-width:0.2;stroke-linejoin:round" />
    <path
       id="path12719"
       d="m 90.6917,22.3177 -0.9221,-0.3163 0.2519,-3.9893 2.8179,0.9335 z"
       style="fill:#d87408;stroke:#000000;stroke-width:0.2;stroke-linejoin:round" />
    <path
       id="path12717"
       d="m 91.5283,23.2635 -0.8366,-0.9458 2.1477,-3.3721 1.9047,1.9424 z"
       style="fill:#d87408;stroke:#000000;stroke-width:0.2;stroke-linejoin:round" />
    <path
       id="path12707"
       d="m 98.5867,31.8615 -2.7079,-1.5082 2.7643,-2.8895 0.7119,0.4751 z"
       style="fill:#d87408;stroke:#000000;stroke-width:0.2;stroke-linejoin:round" />
    <path
       id="path12705"
       d="m 101.5773,31.6911 -2.9906,0.1704 0.7683,-3.9226 0.9483,-0.0367 z"
       style="fill:#d87408;stroke:#000000;stroke-width:0.2;stroke-linejoin:round" />
    <path
       id="path12703"
       d="m 104.0513,29.9899 -2.474,1.7012 -1.274,-3.7889 0.766,-0.5774 z"
       style="fill:#d87408;stroke:#000000;stroke-width:0.2;stroke-linejoin:round" />
    <path
       id="path12701"
       d="m 105.4223,28.0675 -1.371,1.9224 -2.982,-2.6651 0.939,-1.3394 z"
       style="fill:#d87408;stroke:#000000;stroke-width:0.2;stroke-linejoin:round" />
    <path
       id="path12699"
       d="m 106.4273,26.1824 -1.005,1.8851 -3.414,-2.0821 0.872,-1.6517 z"
       style="fill:#d87408;stroke:#000000;stroke-width:0.2;stroke-linejoin:round" />
    <path
       id="path12697"
       d="m 107.3523,24.4067 -0.925,1.7757 -3.547,-1.8487 0.926,-1.7757 z"
       style="fill:#d87408;stroke:#000000;stroke-width:0.2;stroke-linejoin:round" />
    <path
       id="path12695"
       d="m 108.2573,22.9812 -0.905,1.4255 -3.546,-1.8487 1.235,-1.9523 z"
       style="fill:#d87408;stroke:#000000;stroke-width:0.2;stroke-linejoin:round" />
    <path
       id="path12693"
       d="m 109.1813,22.1291 -0.924,0.8521 -3.216,-2.3755 1.992,-1.8487 z"
       style="fill:#d87408;stroke:#000000;stroke-width:0.2;stroke-linejoin:round" />
    <path
       id="path12691"
       d="m 109.9663,22.0065 -0.785,0.1226 -2.148,-3.3721 3.064,-0.7476 z"
       style="fill:#d87408;stroke:#000000;stroke-width:0.2;stroke-linejoin:round" />
    <path
       id="path12689"
       d="m 111.8143,22.0974 -1.848,-0.0909 0.131,-3.9971 2.149,0.1125 z"
       style="fill:#d87408;stroke:#000000;stroke-width:0.2;stroke-linejoin:round" />
    <path
       id="path12687"
       d="m 113.5633,22.3488 -1.749,-0.2514 0.432,-3.9755 2.21,0.3282 z"
       style="fill:#d87408;stroke:#000000;stroke-width:0.2;stroke-linejoin:round" />
    <path
       id="path12685"
       d="m 115.1293,22.8456 -1.566,-0.4968 0.893,-3.8987 2.243,0.7175 z"
       style="fill:#d87408;stroke:#000000;stroke-width:0.2;stroke-linejoin:round" />
    <path
       id="path12683"
       d="m 116.3133,23.5902 -1.184,-0.7446 1.57,-3.678 2.197,1.37 z"
       style="fill:#d87408;stroke:#000000;stroke-width:0.2;stroke-linejoin:round" />
    <path
       id="path12681"
       d="m 117.0573,24.5477 -0.744,-0.9575 2.583,-3.0526 1.714,2.1734 z"
       style="fill:#d87408;stroke:#000000;stroke-width:0.2;stroke-linejoin:round" />
    <path
       id="path12679"
       d="m 117.5213,25.8534 -0.464,-1.3057 3.553,-1.8367 0.851,2.4624 z"
       style="fill:#d87408;stroke:#000000;stroke-width:0.2;stroke-linejoin:round" />
    <path
       id="path12677"
       d="m 117.7393,27.6002 -0.218,-1.7468 3.94,-0.68 0.272,2.2241 z"
       style="fill:#d87408;stroke:#000000;stroke-width:0.2;stroke-linejoin:round" />
    <path
       id="path12669"
       d="m 117.3463,34.7763 0.314,-1.4768 3.979,0.4028 -0.531,2.4299 z"
       style="fill:#d87408;stroke:#000000;stroke-width:0.2;stroke-linejoin:round" />
    <path
       id="path12667"
       d="m 116.6733,36.041 0.673,-1.2647 3.762,1.3559 -1.197,2.2553 z"
       style="fill:#d87408;stroke:#000000;stroke-width:0.2;stroke-linejoin:round" />
    <path
       id="path12665"
       d="m 115.7593,36.8214 0.914,-0.7804 3.238,2.3465 -2.075,1.8519 z"
       style="fill:#d87408;stroke:#000000;stroke-width:0.2;stroke-linejoin:round" />
    <path
       id="path12663"
       d="m 114.4233,37.4253 1.336,-0.6039 2.077,3.418 -2.308,1.0299 z"
       style="fill:#d87408;stroke:#000000;stroke-width:0.2;stroke-linejoin:round" />
    <path
       id="path12661"
       d="m 112.8073,37.7948 1.616,-0.3695 1.105,3.844 -2.289,0.501 z"
       style="fill:#d87408;stroke:#000000;stroke-width:0.2;stroke-linejoin:round" />
    <path
       id="path12659"
       d="m 110.9643,37.961 1.843,-0.1662 0.432,3.9755 -2.144,0.1878 z"
       style="fill:#d87408;stroke:#000000;stroke-width:0.2;stroke-linejoin:round" />
    <path
       id="path12657"
       d="m 109.0283,38 1.936,-0.039 0.131,3.9971 -2.067,0.0419 z"
       style="fill:#d87408;stroke:#000000;stroke-width:0.2;stroke-linejoin:round" />
    <path
       id="path12655"
       d="m 107.0253,38 h 2.003 v 4 h -2.003 z"
       style="fill:#d87408;stroke:#000000;stroke-width:0.2;stroke-linejoin:round" />
    <path
       id="path12653"
       d="m 105.0223,38 h 2.003 v 4 h -2.003 z"
       style="fill:#d87408;stroke:#000000;stroke-width:0.2;stroke-linejoin:round" />
    <path
       id="path12651"
       d="m 103.0193,38 h 2.003 v 4 h -2.003 z"
       style="fill:#d87408;stroke:#000000;stroke-width:0.2;stroke-linejoin:round" />
    <path
       id="path12649"
       d="m 101.0163,38 h 2.003 v 4 h -2.003 z"
       style="fill:#d87408;stroke:#000000;stroke-width:0.2;stroke-linejoin:round" />
    <path
       id="path12647"
       d="m 99.014,38 h 2.0023 v 4 H 99.014 Z"
       style="fill:#d87408;stroke:#000000;stroke-width:0.2;stroke-linejoin:round" />
    <path
       id="path12645"
       d="m 97.0112,38 h 2.0028 v 4 h -2.0028 z"
       style="fill:#d87408;stroke:#000000;stroke-width:0.2;stroke-linejoin:round" />
    <path
       id="path12643"
       d="m 95.0084,38 h 2.0028 v 4 h -2.0028 z"
       style="fill:#d87408;stroke:#000000;stroke-width:0.2;stroke-linejoin:round" />
    <path
       id="path12641"
       d="m 93.0056,38 h 2.0028 v 4 h -2.0028 z"
       style="fill:#d87408;stroke:#000000;stroke-width:0.2;stroke-linejoin:round" />
    <path
       id="path12639"
       d="m 91.0028,38 h 2.0028 v 4 h -2.0028 z"
       style="fill:#d87408;stroke:#000000;stroke-width:0.2;stroke-linejoin:round" />
    <path
       id="path12637"
       d="m 89,38 h 2.0028 v 4 H 89 Z"
       style="fill:#d87408;stroke:#000000;stroke-width:0.2;stroke-linejoin:round" />
    <path
       id="path12635"
       d="M 86.9972,38 H 89 v 4 h -2.0028 z"
       style="fill:#d87408;stroke:#000000;stroke-width:0.2;stroke-linejoin:round" />
    <path
       id="path12633"
       d="m 84.9944,38 h 2.0028 v 4 h -2.0028 z"
       style="fill:#d87408;stroke:#000000;stroke-width:0.2;stroke-linejoin:round" />
    <path
       id="path12631"
       d="m 82.9916,38 h 2.0028 v 4 h -2.0028 z"
       style="fill:#d87408;stroke:#000000;stroke-width:0.2;stroke-linejoin:round" />
    <path
       id="path12629"
       d="m 80.9888,38 h 2.0028 v 4 h -2.0028 z"
       style="fill:#d87408;stroke:#000000;stroke-width:0.2;stroke-linejoin:round" />
    <path
       id="path12627"
       d="m 78.986,38 h 2.0028 v 4 H 78.986 Z"
       style="fill:#d87408;stroke:#000000;stroke-width:0.2;stroke-linejoin:round" />
    <path
       id="path12625"
       d="m 76.9832,38 h 2.0028 v 4 h -2.0028 z"
       style="fill:#d87408;stroke:#000000;stroke-width:0.2;stroke-linejoin:round" />
    <path
       id="path12623"
       d="m 74.9804,38 h 2.0028 v 4 h -2.0028 z"
       style="fill:#d87408;stroke:#000000;stroke-width:0.2;stroke-linejoin:round" />
    <path
       id="path12621"
       d="m 72.9776,38 h 2.0028 v 4 h -2.0028 z"
       style="fill:#d87408;stroke:#000000;stroke-width:0.2;stroke-linejoin:round" />
    <path
       id="path12619"
       d="m 70.9748,38 h 2.0028 v 4 h -2.0028 z"
       style="fill:#d87408;stroke:#000000;stroke-width:0.2;stroke-linejoin:round" />
    <path
       id="path12617"
       d="m 68.972,38 h 2.0028 v 4 H 68.972 Z"
       style="fill:#d87408;stroke:#000000;stroke-width:0.2;stroke-linejoin:round" />
    <path
       id="path12615"
       d="m 66.9692,38 h 2.0028 v 4 h -2.0028 z"
       style="fill:#d87408;stroke:#000000;stroke-width:0.2;stroke-linejoin:round" />
    <path
       id="path12613"
       d="m 64.9664,38 h 2.0028 v 4 h -2.0028 z"
       style="fill:#d87408;stroke:#000000;stroke-width:0.2;stroke-linejoin:round" />
    <path
       id="path12611"
       d="m 62.9636,38 h 2.0028 v 4 h -2.0028 z"
       style="fill:#d87408;stroke:#000000;stroke-width:0.2;stroke-linejoin:round" />
    <path
       id="path12609"
       d="m 60.9608,38 h 2.0028 v 4 h -2.0028 z"
       style="fill:#d87408;stroke:#000000;stroke-width:0.2;stroke-linejoin:round" />
    <path
       id="path12607"
       d="m 58.958,38 h 2.0028 v 4 H 58.958 Z"
       style="fill:#d87408;stroke:#000000;stroke-width:0.2;stroke-linejoin:round" />
    <path
       id="path12605"
       d="m 56.9552,38 h 2.0028 v 4 h -2.0028 z"
       style="fill:#d87408;stroke:#000000;stroke-width:0.2;stroke-linejoin:round" />
    <path
       id="path12603"
       d="m 54.9524,38 h 2.0028 v 4 h -2.0028 z"
       style="fill:#d87408;stroke:#000000;stroke-width:0.2;stroke-linejoin:round" />
    <path
       id="path12601"
       d="m 52.9496,38 h 2.0028 v 4 h -2.0028 z"
       style="fill:#d87408;stroke:#000000;stroke-width:0.2;stroke-linejoin:round" />
    <path
       id="path12599"
       d="m 50.9468,38 h 2.0028 v 4 h -2.0028 z"
       style="fill:#d87408;stroke:#000000;stroke-width:0.2;stroke-linejoin:round" />
    <path
       id="path12597"
       d="M 48.5686,38.142 50.9468,38 v 4 l -1.6099,0.0646 z"
       style="fill:#d87408;stroke:#000000;stroke-width:0.2;stroke-linejoin:round" />
    <path
       id="path12595"
       d="m 45.8655,39.6595 2.7031,-1.5175 0.7683,3.9226 -0.7071,0.4844 z"
       style="fill:#d87408;stroke:#000000;stroke-width:0.2;stroke-linejoin:round" />
    <path
       id="path12583"
       d="m 39.7512,47.9997 0.9249,-0.3074 2.1477,3.372 -2.8208,0.9248 z"
       style="fill:#d87408;stroke:#000000;stroke-width:0.2;stroke-linejoin:round" />
    <path
       id="path12581"
       d="m 39.0506,47.7879 0.7006,0.2118 0.2518,3.9894 -3.1001,-0.8292 z"
       style="fill:#d87408;stroke:#000000;stroke-width:0.2;stroke-linejoin:round" />
    <path
       id="path12579"
       d="m 38.165,46.8946 0.8856,0.8933 -2.1477,3.372 -1.9536,-1.8898 z"
       style="fill:#d87408;stroke:#000000;stroke-width:0.2;stroke-linejoin:round" />
    <path
       id="path12577"
       d="m 37.2812,45.4562 0.8838,1.4384 -3.2157,2.3755 -1.2146,-1.9652 z"
       style="fill:#d87408;stroke:#000000;stroke-width:0.2;stroke-linejoin:round" />
    <path
       id="path12575"
       d="m 36.3556,43.6805 0.9256,1.7757 -3.5465,1.8487 -0.9256,-1.7757 z"
       style="fill:#d87408;stroke:#000000;stroke-width:0.2;stroke-linejoin:round" />
    <path
       id="path12573"
       d="m 35.3418,41.8005 1.0138,1.88 -3.5465,1.8487 -0.8817,-1.6465 z"
       style="fill:#d87408;stroke:#000000;stroke-width:0.2;stroke-linejoin:round" />
    <path
       id="path12571"
       d="m 33.9484,39.8948 1.3934,1.9057 -3.4144,2.0822 -0.9607,-1.3227 z"
       style="fill:#d87408;stroke:#000000;stroke-width:0.2;stroke-linejoin:round" />
    <path
       id="path12569"
       d="m 31.4309,38.2597 2.5175,1.6351 -2.9817,2.6652 -0.8093,-0.5114 z"
       style="fill:#d87408;stroke:#000000;stroke-width:0.2;stroke-linejoin:round" />
    <path
       id="path12567"
       d="m 28.8079,38 2.623,0.2597 -1.2735,3.7889 L 28.8079,42 Z"
       style="fill:#d87408;stroke:#000000;stroke-width:0.2;stroke-linejoin:round" />
    <path
       id="path12565"
       d="m 26.8051,38 h 2.0028 v 4 h -2.0028 z"
       style="fill:#d87408;stroke:#000000;stroke-width:0.2;stroke-linejoin:round" />
    <path
       id="path12563"
       d="m 24.8023,38 h 2.0028 v 4 h -2.0028 z"
       style="fill:#d87408;stroke:#000000;stroke-width:0.2;stroke-linejoin:round" />
    <path
       id="path12561"
       d="m 22.7995,38 h 2.0028 v 4 h -2.0028 z"
       style="fill:#d87408;stroke:#000000;stroke-width:0.2;stroke-linejoin:round" />
    <path
       id="rect12540"
       d="m 14.7883,38 h 2.0028 v 4 h -2.0028 z"
       style="fill:#d87408;stroke:#000000;stroke-width:0.2;stroke-linejoin:round" />
  </g>
</svg>
