<?xml version="1.0" encoding="UTF-8" standalone="no"?>
<svg
   xmlns:dc="http://purl.org/dc/elements/1.1/"
   xmlns:cc="http://creativecommons.org/ns#"
   xmlns:rdf="http://www.w3.org/1999/02/22-rdf-syntax-ns#"
   xmlns:svg="http://www.w3.org/2000/svg"
   xmlns="http://www.w3.org/2000/svg"
   xmlns:sodipodi="http://sodipodi.sourceforge.net/DTD/sodipodi-0.dtd"
   xmlns:inkscape="http://www.inkscape.org/namespaces/inkscape"
   sodipodi:docname="eight-like-3-3.svg"
   inkscape:version="1.0 (4035a4fb49, 2020-05-01)"
   id="svg12977"
   version="1.1"
   viewBox="0 0 210 297"
   height="297mm"
   width="210mm">
  <defs
     id="defs12971" />
  <sodipodi:namedview
     inkscape:window-maximized="0"
     inkscape:window-y="0"
     inkscape:window-x="104"
     inkscape:window-height="1040"
     inkscape:window-width="1648"
     showgrid="true"
     inkscape:document-rotation="0"
     inkscape:current-layer="layer1"
     inkscape:document-units="mm"
     inkscape:cy="136.36117"
     inkscape:cx="471.24722"
     inkscape:zoom="2.8"
     inkscape:pageshadow="2"
     inkscape:pageopacity="0.0"
     borderopacity="1.0"
     bordercolor="#666666"
     pagecolor="#ffffff"
     id="base">
    <inkscape:grid
       id="grid13540"
       type="xygrid" />
  </sodipodi:namedview>
  <metadata
     id="metadata12974">
    <rdf:RDF>
      <cc:Work
         rdf:about="">
        <dc:format>image/svg+xml</dc:format>
        <dc:type
           rdf:resource="http://purl.org/dc/dcmitype/StillImage" />
        <dc:title></dc:title>
      </cc:Work>
    </rdf:RDF>
  </metadata>
  <g
     id="layer1"
     inkscape:groupmode="layer"
     inkscape:label="Слой 1">
    <path
       id="path13766"
       d="M 133.002,38 H 135 v 4 h -1.998 z"
       style="fill:#d87408;stroke:#000000;stroke-width:0.2;stroke-linejoin:round" />
    <path
       id="path13608"
       d="m 26.9976,48 h 1.9976 v 4 h -1.9976 z"
       style="fill:#d87408;stroke:#000000;stroke-width:0.2;stroke-linejoin:round" />
    <path
       id="path13610"
       d="m 28.9952,48 h 1.9976 v 4 h -1.9976 z"
       style="fill:#d87408;stroke:#000000;stroke-width:0.2;stroke-linejoin:round" />
    <path
       id="path13612"
       d="m 30.9928,48 h 1.9976 v 4 h -1.9976 z"
       style="fill:#d87408;stroke:#000000;stroke-width:0.2;stroke-linejoin:round" />
    <path
       id="path13640"
       d="m 51.6765,56.8224 0.8696,-1.4411 3.5465,1.8487 -1.2003,1.968 z"
       style="fill:#d87408;stroke:#000000;stroke-width:0.2;stroke-linejoin:round" />
    <path
       id="path13642"
       d="m 52.5461,55.3813 0.9233,-1.7711 3.5465,1.8487 -0.9233,1.7711 z"
       style="fill:#d87408;stroke:#000000;stroke-width:0.2;stroke-linejoin:round" />
    <path
       id="path13644"
       d="m 53.4694,53.6102 1.0157,-1.8729 3.4143,2.0821 -0.8835,1.6395 z"
       style="fill:#d87408;stroke:#000000;stroke-width:0.2;stroke-linejoin:round" />
    <path
       id="path13646"
       d="m 54.4851,51.7373 1.5132,-2.0023 2.7643,2.8894 -0.8632,1.195 z"
       style="fill:#d87408;stroke:#000000;stroke-width:0.2;stroke-linejoin:round" />
    <path
       id="path13684"
       d="m 77.975,47.9285 0.0181,-1.9437 3.9998,0.0279 -0.0203,2.051 z"
       style="fill:#d87408;stroke:#000000;stroke-width:0.2;stroke-linejoin:round" />
    <path
       id="path13682"
       d="m 77.8833,49.8565 0.0917,-1.928 3.9976,0.1352 -0.0987,2.0621 z"
       style="fill:#d87408;stroke:#000000;stroke-width:0.2;stroke-linejoin:round" />
    <path
       id="path13680"
       d="m 77.6955,51.6232 0.1878,-1.7667 3.9906,0.2693 -0.242,2.2029 z"
       style="fill:#d87408;stroke:#000000;stroke-width:0.2;stroke-linejoin:round" />
    <path
       id="path13678"
       d="m 77.3062,53.4151 0.3893,-1.7919 3.9364,0.7055 -0.4597,2.1077 z"
       style="fill:#d87408;stroke:#000000;stroke-width:0.2;stroke-linejoin:round" />
    <path
       id="path13712"
       d="m 94.8447,30.7376 1.2109,1.9613 -3.5465,1.8487 -0.8802,-1.4345 z"
       style="fill:#d87408;stroke:#000000;stroke-width:0.2;stroke-linejoin:round" />
    <path
       id="path13714"
       d="m 96.0556,32.6989 0.9232,1.7711 -3.5465,1.8487 -0.9232,-1.7711 z"
       style="fill:#d87408;stroke:#000000;stroke-width:0.2;stroke-linejoin:round" />
    <path
       id="path13716"
       d="m 96.9788,34.47 0.8789,1.6421 -3.4144,2.0822 -1.011,-1.8756 z"
       style="fill:#d87408;stroke:#000000;stroke-width:0.2;stroke-linejoin:round" />
    <path
       id="path13718"
       d="m 97.8577,36.1121 0.9564,1.3195 -2.9817,2.6651 -1.3891,-1.9024 z"
       style="fill:#d87408;stroke:#000000;stroke-width:0.2;stroke-linejoin:round" />
    <path
       id="path13742"
       d="m 114.879,30.7843 1.203,1.9661 -3.546,1.8487 -0.873,-1.4393 z"
       style="fill:#d87408;stroke:#000000;stroke-width:0.2;stroke-linejoin:round" />
    <path
       id="path13744"
       d="m 116.082,32.7504 0.924,1.7711 -3.547,1.8487 -0.923,-1.7711 z"
       style="fill:#d87408;stroke:#000000;stroke-width:0.2;stroke-linejoin:round" />
    <path
       id="path13746"
       d="m 117.006,34.5215 0.882,1.6402 -3.414,2.0822 -1.015,-1.8737 z"
       style="fill:#d87408;stroke:#000000;stroke-width:0.2;stroke-linejoin:round" />
    <path
       id="path13748"
       d="m 117.888,36.1617 0.859,1.1986 -2.765,2.8895 -1.508,-2.0059 z"
       style="fill:#d87408;stroke:#000000;stroke-width:0.2;stroke-linejoin:round" />
    <path
       d="M 120.126 31.9947 L 119.185 32.2617 L 117.037 28.8896 L 119.874 28.0053 Z M 119.185 32.2617 L 118.32 33.1823 L 115.104 30.8068 L 117.037 28.8896 Z M 118.32 33.1823 L 117.447 34.6315 L 113.901 32.7828 L 115.104 30.8068 Z M 117.447 34.6315 L 116.52 36.4101 L 112.974 34.5614 L 113.901 32.7828 Z M 116.52 36.4101 L 115.499 38.2895 L 112.084 36.2074 L 112.974 34.5614 Z M 115.499 38.2895 L 113.973 40.2926 L 111.209 37.4031 L 112.084 36.2074 Z M 113.973 40.2926 L 111.536 41.776 L 110.263 37.9871 L 111.209 37.4031 Z M 111.536 41.776 L 108.288 41.717 L 109.561 37.928 L 110.263 37.9871 Z M 108.288 41.717 L 105.789 40.048 L 108.771 37.3829 L 109.561 37.928 Z M 105.789 40.048 L 104.405 38.1312 L 107.819 36.0491 L 108.771 37.3829 Z M 104.405 38.1312 L 103.394 36.2457 L 106.941 34.397 L 107.819 36.0491 Z M 103.394 36.2457 L 102.467 34.4671 L 106.014 32.6184 L 106.941 34.397 Z M 102.467 34.4671 L 101.57 33.0332 L 104.786 30.6577 L 106.014 32.6184 Z M 101.57 33.0332 L 100.659 32.1621 L 102.807 28.7901 L 104.786 30.6577 Z M 100.659 32.1621 L 99.941 32.0063 L 99.6891 28.017 L 102.807 28.7901 Z M 99.941 32.0063 L 99.2008 32.243 L 96.7121 29.1136 L 99.6891 28.017 Z M 99.2008 32.243 L 98.2098 33.3314 L 94.9941 30.9559 L 96.7121 29.1136 Z M 98.2098 33.3314 L 97.3615 34.7959 L 93.815 32.9472 L 94.9941 30.9559 Z M 97.3615 34.7959 L 96.4343 36.5745 L 92.8878 34.7258 L 93.815 32.9472 Z M 96.4343 36.5745 L 95.4021 38.4478 L 91.9877 36.3657 L 92.8878 34.7258 Z M 95.4021 38.4478 L 93.8389 40.4208 L 91.0746 37.5313 L 91.9877 36.3657 Z M 93.8389 40.4208 L 91.1026 41.8809 L 90.3343 37.9583 L 91.0746 37.5313 Z M 91.1026 41.8809 L 88.7188 42 L 88.7188 38 L 90.3343 37.9583 Z M 88.7188 42 L 86.7127 42 L 86.7127 38 L 88.7188 38 Z M 86.7127 42 L 84.7066 42 L 84.7066 38 L 86.7127 38 Z M 84.7066 42 L 82.7005 42 L 82.7005 38 L 84.7066 38 Z M 82.7005 42 L 80.6944 42 L 80.6944 38 L 82.7005 38 Z M 80.6944 42 L 78.6883 42 L 78.6883 38 L 80.6944 38 Z M 78.6883 42 L 76.6822 42 L 76.6822 38 L 78.6883 38 Z M 76.6822 42 L 74.6762 42 L 74.6762 38 L 76.6822 38 Z M 74.6762 42 L 72.6701 42 L 72.6701 38 L 74.6762 38 Z M 72.6701 42 L 70.664 42 L 70.664 38 L 72.6701 38 Z M 70.664 42 L 68.6579 42 L 68.6579 38 L 70.664 38 Z M 68.6579 42 L 66.6518 42 L 66.6518 38 L 68.6579 38 Z M 66.6518 42 L 64.6457 42 L 64.6457 38 L 66.6518 38 Z M 64.6457 42 L 62.6396 42 L 62.6396 38 L 64.6457 38 Z M 62.6396 42 L 60.6335 42 L 60.6335 38 L 62.6396 38 Z M 60.6335 42 L 58.6274 42 L 58.6274 38 L 60.6335 38 Z M 58.6274 42 L 56.6213 42 L 56.6213 38 L 58.6274 38 Z M 56.6213 42 L 54.6153 42 L 54.6153 38 L 56.6213 38 Z M 54.6153 42 L 52.6092 42 L 52.6092 38 L 54.6153 38 Z M 52.6092 42 L 50.6031 42 L 50.6031 38 L 52.6092 38 Z M 50.6031 42 L 48.597 42 L 48.597 38 L 50.6031 38 Z M 48.597 42 L 46.5909 42 L 46.5909 38 L 48.597 38 Z M 46.5909 42 L 44.5848 42 L 44.5848 38 L 46.5909 38 Z M 44.5848 42 L 42.5787 42 L 42.5787 38 L 44.5848 38 Z M 42.5787 42 L 40.5726 42 L 40.5726 38 L 42.5787 38 Z M 40.5726 42 L 38.6327 42.0452 L 38.5024 38.0481 L 40.5726 38 Z M 38.6327 42.0452 L 36.9216 42.2161 L 36.2247 38.2777 L 38.5024 38.0481 Z M 36.9216 42.2161 L 35.2909 42.6016 L 33.9601 38.8301 L 36.2247 38.2777 Z M 35.2909 42.6016 L 33.9855 43.1985 L 31.653 39.9503 L 33.9601 38.8301 Z M 33.9855 43.1985 L 32.9952 44.1243 L 29.757 41.7778 L 31.653 39.9503 Z M 32.9952 44.1243 L 32.4297 45.2625 L 28.5686 44.2245 L 29.757 41.7778 Z M 32.4297 45.2625 L 32.1073 46.9101 L 28.1282 46.5073 L 28.5686 44.2245 Z M 32.1073 46.9101 L 32.0133 48.7317 L 28.0137 48.6898 L 28.1282 46.5073 Z M 32.0133 48.7317 L 32.0073 50.6957 L 28.0077 50.7376 L 28.0137 48.6898 Z M 32.0073 50.6957 L 32.0603 52.6201 L 28.0657 52.8228 L 28.0077 50.7376 Z M 32.0603 52.6201 L 32.2811 54.1847 L 28.42 55.2227 L 28.0657 52.8228 Z M 32.2811 54.1847 L 32.7675 55.5247 L 29.3585 57.6156 L 28.42 55.2227 Z M 32.7675 55.5247 L 33.651 56.5586 L 31.0679 59.6113 L 29.3585 57.6156 Z M 33.651 56.5586 L 34.8741 57.2462 L 33.3037 60.9242 L 31.0679 59.6113 Z M 34.8741 57.2462 L 36.3578 57.6841 L 35.6609 61.6225 L 33.3037 60.9242 Z M 36.3578 57.6841 L 38.2125 57.9285 L 37.7809 61.904 L 35.6609 61.6225 Z M 38.2125 57.9285 L 40.0651 58.0015 L 39.9349 61.9985 L 37.7809 61.904 Z M 40.0651 58.0015 L 40.8155 57.7383 L 42.9632 61.1104 L 39.9349 61.9985 Z M 40.8155 57.7383 L 41.68 56.8177 L 44.8958 59.1932 L 42.9632 61.1104 Z M 41.68 56.8177 L 42.5528 55.3685 L 46.0993 57.2172 L 44.8958 59.1932 Z M 42.5528 55.3685 L 43.48 53.5899 L 47.0265 55.4386 L 46.0993 57.2172 Z M 43.48 53.5899 L 44.5014 51.7105 L 47.9158 53.7926 L 47.0265 55.4386 Z M 44.5014 51.7105 L 46.0271 49.7074 L 48.7914 52.5969 L 47.9158 53.7926 Z M 46.0271 49.7074 L 48.4636 48.224 L 49.7371 52.0129 L 48.7914 52.5969 Z M 48.4636 48.224 L 51.7121 48.283 L 50.4386 52.072 L 49.7371 52.0129 Z M 51.7121 48.283 L 54.2111 49.952 L 51.2295 52.6171 L 50.4386 52.072 Z M 54.2111 49.952 L 55.5951 51.8688 L 52.1808 53.9509 L 51.2295 52.6171 Z M 55.5951 51.8688 L 56.6057 53.7543 L 53.0592 55.603 L 52.1808 53.9509 Z M 56.6057 53.7543 L 57.5329 55.5329 L 53.9864 57.3816 L 53.0592 55.603 Z M 57.5329 55.5329 L 58.4301 56.9668 L 55.2143 59.3423 L 53.9864 57.3816 Z M 58.4301 56.9668 L 59.3408 57.8379 L 57.1931 61.2099 L 55.2143 59.3423 Z M 59.3408 57.8379 L 60.059 57.9937 L 60.3109 61.983 L 57.1931 61.2099 Z M 60.059 57.9937 L 60.7992 57.757 L 63.2879 60.8864 L 60.3109 61.983 Z M 60.7992 57.757 L 61.7902 56.6686 L 65.0059 59.0441 L 63.2879 60.8864 Z M 61.7902 56.6686 L 62.6385 55.2041 L 66.185 57.0528 L 65.0059 59.0441 Z M 62.6385 55.2041 L 63.5657 53.4255 L 67.1122 55.2742 L 66.185 57.0528 Z M 63.5657 53.4255 L 64.5979 51.5522 L 68.0123 53.6343 L 67.1122 55.2742 Z M 64.5979 51.5522 L 66.1611 49.5792 L 68.9254 52.4687 L 68.0123 53.6343 Z M 66.1611 49.5792 L 68.8974 48.1191 L 69.6657 52.0417 L 68.9254 52.4687 Z M 68.8974 48.1191 L 71.2812 48 L 71.2812 52 L 69.6657 52.0417 Z M 71.2812 48 L 73.2873 48 L 73.2873 52 L 71.2812 52 Z M 73.2873 48 L 75.2934 48 L 75.2934 52 L 73.2873 52 Z M 75.2934 48 L 77.2995 48 L 77.2995 52 L 75.2934 52 Z M 77.2995 48 L 79.3056 48 L 79.3056 52 L 77.2995 52 Z M 79.3056 48 L 81.3117 48 L 81.3117 52 L 79.3056 52 Z M 81.3117 48 L 83.3178 48 L 83.3178 52 L 81.3117 52 Z M 83.3178 48 L 85.3238 48 L 85.3238 52 L 83.3178 52 Z M 85.3238 48 L 87.3299 48 L 87.3299 52 L 85.3238 52 Z M 87.3299 48 L 89.336 48 L 89.336 52 L 87.3299 52 Z M 89.336 48 L 91.3421 48 L 91.3421 52 L 89.336 52 Z M 91.3421 48 L 93.3482 48 L 93.3482 52 L 91.3421 52 Z M 93.3482 48 L 95.3543 48 L 95.3543 52 L 93.3482 52 Z M 95.3543 48 L 97.3604 48 L 97.3604 52 L 95.3543 52 Z M 97.3604 48 L 99.3665 48 L 99.3665 52 L 97.3604 52 Z M 99.3665 48 L 101.373 48 L 101.373 52 L 99.3665 52 Z M 101.373 48 L 103.379 48 L 103.379 52 L 101.373 52 Z M 103.379 48 L 105.385 48 L 105.385 52 L 103.379 52 Z M 105.385 48 L 107.391 48 L 107.391 52 L 105.385 52 Z M 107.391 48 L 109.397 48 L 109.397 52 L 107.391 52 Z M 109.397 48 L 111.403 48 L 111.403 52 L 109.397 52 Z M 111.403 48 L 113.409 48 L 113.409 52 L 111.403 52 Z M 113.409 48 L 115.415 48 L 115.415 52 L 113.409 52 Z M 115.415 48 L 117.421 48 L 117.421 52 L 115.415 52 Z M 117.421 48 L 119.427 48 L 119.427 52 L 117.421 52 Z M 119.427 48 L 121.367 47.9548 L 121.498 51.9519 L 119.427 52 Z M 121.367 47.9548 L 123.078 47.7839 L 123.775 51.7223 L 121.498 51.9519 Z M 123.078 47.7839 L 124.709 47.3984 L 126.04 51.1699 L 123.775 51.7223 Z M 124.709 47.3984 L 126.015 46.8015 L 128.347 50.0497 L 126.04 51.1699 Z M 126.015 46.8015 L 127.005 45.8757 L 130.243 48.2222 L 128.347 50.0497 Z M 127.005 45.8757 L 127.57 44.7375 L 131.431 45.7755 L 130.243 48.2222 Z M 127.57 44.7375 L 127.893 43.0899 L 131.872 43.4927 L 131.431 45.7755 Z M 127.893 43.0899 L 127.987 41.2683 L 131.986 41.3102 L 131.872 43.4927 Z M 127.987 41.2683 L 127.993 39.3043 L 131.992 39.2624 L 131.986 41.3102 Z M 127.993 39.3043 L 127.94 37.3799 L 131.934 37.1772 L 131.992 39.2624 Z M 127.94 37.3799 L 127.719 35.8153 L 131.58 34.7773 L 131.934 37.1772 Z M 127.719 35.8153 L 127.233 34.4753 L 130.641 32.3844 L 131.58 34.7773 Z M 127.233 34.4753 L 126.349 33.4414 L 128.932 30.3887 L 130.641 32.3844 Z M 126.349 33.4414 L 125.126 32.7538 L 126.696 29.0758 L 128.932 30.3887 Z M 125.126 32.7538 L 123.642 32.3159 L 124.339 28.3775 L 126.696 29.0758 Z M 123.642 32.3159 L 121.788 32.0715 L 122.219 28.096 L 124.339 28.3775 Z M 121.788 32.0715 L 120.126 31.9947 L 119.874 28.0053 L 122.219 28.096 Z"
       style="fill:#287c00;stroke:#000000;stroke-width:0.2;stroke-linejoin:round"
       id="rect13592" />
    <path
       id="path13764"
       d="m 131.005,38 h 1.997 v 4 h -1.997 z"
       style="fill:#d87408;stroke:#000000;stroke-width:0.2;stroke-linejoin:round" />
    <path
       id="path13762"
       d="m 129.007,38 h 1.998 v 4 h -1.998 z"
       style="fill:#d87408;stroke:#000000;stroke-width:0.2;stroke-linejoin:round" />
    <path
       id="path13760"
       d="m 127.01,38 h 1.997 v 4 h -1.997 z"
       style="fill:#d87408;stroke:#000000;stroke-width:0.2;stroke-linejoin:round" />
    <path
       id="path13758"
       d="m 125.012,38 h 1.998 v 4 h -1.998 z"
       style="fill:#d87408;stroke:#000000;stroke-width:0.2;stroke-linejoin:round" />
    <path
       id="path13756"
       d="m 123.014,38 h 1.998 v 4 h -1.998 z"
       style="fill:#d87408;stroke:#000000;stroke-width:0.2;stroke-linejoin:round" />
    <path
       id="path13754"
       d="m 121.017,38 h 1.997 v 4 h -1.997 z"
       style="fill:#d87408;stroke:#000000;stroke-width:0.2;stroke-linejoin:round" />
    <path
       id="path13752"
       d="M 119.67,37.9646 121.017,38 v 4 l -2.62,-0.2464 z"
       style="fill:#d87408;stroke:#000000;stroke-width:0.2;stroke-linejoin:round" />
    <path
       id="path13750"
       d="m 118.747,37.3603 0.923,0.6043 -1.273,3.789 -2.415,-1.5038 z"
       style="fill:#d87408;stroke:#000000;stroke-width:0.2;stroke-linejoin:round" />
    <path
       id="path13740"
       d="m 112.947,28.8791 1.932,1.9052 -3.216,2.3755 -0.864,-0.9086 z"
       style="fill:#d87408;stroke:#000000;stroke-width:0.2;stroke-linejoin:round" />
    <path
       id="path13738"
       d="m 109.863,28.006 3.084,0.8731 -2.148,3.3721 -0.684,-0.2558 z"
       style="fill:#d87408;stroke:#000000;stroke-width:0.2;stroke-linejoin:round" />
    <path
       id="path13736"
       d="m 107.035,28.891 2.828,-0.885 0.252,3.9894 -0.933,0.2677 z"
       style="fill:#d87408;stroke:#000000;stroke-width:0.2;stroke-linejoin:round" />
    <path
       id="path13734"
       d="m 105.108,30.802 1.927,-1.911 2.147,3.3721 -0.859,0.9145 z"
       style="fill:#d87408;stroke:#000000;stroke-width:0.2;stroke-linejoin:round" />
    <path
       id="path13732"
       d="m 103.907,32.77 1.201,-1.968 3.215,2.3756 -0.869,1.4411 z"
       style="fill:#d87408;stroke:#000000;stroke-width:0.2;stroke-linejoin:round" />
    <path
       id="path13730"
       d="m 102.984,34.5411 0.923,-1.7711 3.547,1.8487 -0.923,1.7711 z"
       style="fill:#d87408;stroke:#000000;stroke-width:0.2;stroke-linejoin:round" />
    <path
       id="path13728"
       d="m 102.101,36.1806 0.883,-1.6395 3.547,1.8487 -1.016,1.8729 z"
       style="fill:#d87408;stroke:#000000;stroke-width:0.2;stroke-linejoin:round" />
    <path
       id="path13726"
       d="m 101.237,37.3756 0.864,-1.195 3.414,2.0821 -1.513,2.0023 z"
       style="fill:#d87408;stroke:#000000;stroke-width:0.2;stroke-linejoin:round" />
    <path
       id="path13724"
       d="m 100.309,37.9717 0.928,-0.5961 2.765,2.8894 -2.42,1.4956 z"
       style="fill:#d87408;stroke:#000000;stroke-width:0.2;stroke-linejoin:round" />
    <path
       id="path13722"
       d="m 99.6153,37.9461 0.6937,0.0256 1.273,3.7889 -3.2402,-0.0255 z"
       style="fill:#d87408;stroke:#000000;stroke-width:0.2;stroke-linejoin:round" />
    <path
       id="path13720"
       d="m 98.8141,37.4316 0.8012,0.5145 -1.2735,3.789 -2.5094,-1.6384 z"
       style="fill:#d87408;stroke:#000000;stroke-width:0.2;stroke-linejoin:round" />
    <path
       id="path13710"
       d="m 92.8978,28.8479 1.9469,1.8897 -3.2158,2.3755 -0.8788,-0.8931 z"
       style="fill:#d87408;stroke:#000000;stroke-width:0.2;stroke-linejoin:round" />
    <path
       id="path13708"
       d="m 89.883,28.0024 3.0148,0.8455 -2.1477,3.3721 -0.7714,-0.2191 z"
       style="fill:#d87408;stroke:#000000;stroke-width:0.2;stroke-linejoin:round" />
    <path
       id="path13706"
       d="m 87.6763,28.1435 2.2067,-0.1411 0.0957,3.9985 -1.7774,0.1074 z"
       style="fill:#d87408;stroke:#000000;stroke-width:0.2;stroke-linejoin:round" />
    <path
       id="path13704"
       d="m 85.3356,28.637 2.3407,-0.4935 0.525,3.9648 -1.5665,0.3109 z"
       style="fill:#d87408;stroke:#000000;stroke-width:0.2;stroke-linejoin:round" />
    <path
       id="path13702"
       d="m 83.0816,29.643 2.254,-1.006 1.2992,3.7822 -1.3965,0.5912 z"
       style="fill:#d87408;stroke:#000000;stroke-width:0.2;stroke-linejoin:round" />
    <path
       id="path13700"
       d="m 81.1503,31.2206 1.9313,-1.5776 2.1567,3.3674 -1.1574,0.9309 z"
       style="fill:#d87408;stroke:#000000;stroke-width:0.2;stroke-linejoin:round" />
    <path
       id="path13698"
       d="m 79.6778,33.3449 1.4725,-2.1243 2.9306,2.7207 -0.8019,1.1432 z"
       style="fill:#d87408;stroke:#000000;stroke-width:0.2;stroke-linejoin:round" />
    <path
       id="path13696"
       d="m 78.8278,35.5636 0.85,-2.2187 3.6012,1.7396 -0.5852,1.5004 z"
       style="fill:#d87408;stroke:#000000;stroke-width:0.2;stroke-linejoin:round" />
    <path
       id="path13694"
       d="m 78.3681,37.6713 0.4597,-2.1077 3.866,1.0213 -0.3893,1.7919 z"
       style="fill:#d87408;stroke:#000000;stroke-width:0.2;stroke-linejoin:round" />
    <path
       id="path13692"
       d="m 78.1261,39.8742 0.242,-2.2029 3.9364,0.7055 -0.1878,1.7667 z"
       style="fill:#d87408;stroke:#000000;stroke-width:0.2;stroke-linejoin:round" />
    <path
       id="path13690"
       d="m 78.0274,41.9363 0.0987,-2.0621 3.9906,0.2693 -0.0917,1.928 z"
       style="fill:#d87408;stroke:#000000;stroke-width:0.2;stroke-linejoin:round" />
    <path
       id="path13688"
       d="m 78.0071,43.9873 0.0203,-2.051 3.9976,0.1352 -0.0181,1.9437 z"
       style="fill:#d87408;stroke:#000000;stroke-width:0.2;stroke-linejoin:round" />
    <path
       id="path13686"
       d="m 77.9931,45.9848 0.014,-1.9975 3.9998,0.0279 -0.014,1.9975 z"
       style="fill:#d87408;stroke:#000000;stroke-width:0.2;stroke-linejoin:round" />
    <path
       id="path13676"
       d="m 76.721,54.9155 0.5852,-1.5004 3.866,1.0213 -0.85,2.2187 z"
       style="fill:#d87408;stroke:#000000;stroke-width:0.2;stroke-linejoin:round" />
    <path
       id="path13674"
       d="m 75.9191,56.0587 0.8019,-1.1432 3.6012,1.7396 -1.4725,2.1243 z"
       style="fill:#d87408;stroke:#000000;stroke-width:0.2;stroke-linejoin:round" />
    <path
       id="path13672"
       d="m 74.7617,56.9896 1.1574,-0.9309 2.9306,2.7207 -1.9313,1.5776 z"
       style="fill:#d87408;stroke:#000000;stroke-width:0.2;stroke-linejoin:round" />
    <path
       id="path13670"
       d="m 73.3652,57.5808 1.3965,-0.5912 2.1567,3.3674 -2.254,1.006 z"
       style="fill:#d87408;stroke:#000000;stroke-width:0.2;stroke-linejoin:round" />
    <path
       id="path13668"
       d="m 71.7987,57.8917 1.5665,-0.3109 1.2992,3.7822 -2.3407,0.4935 z"
       style="fill:#d87408;stroke:#000000;stroke-width:0.2;stroke-linejoin:round" />
    <path
       id="path13666"
       d="m 70.0213,57.9991 1.7774,-0.1074 0.525,3.9648 -2.2067,0.1411 z"
       style="fill:#d87408;stroke:#000000;stroke-width:0.2;stroke-linejoin:round" />
    <path
       id="path13664"
       d="m 69.2499,57.78 0.7714,0.2191 0.0957,3.9985 -3.0148,-0.8455 z"
       style="fill:#d87408;stroke:#000000;stroke-width:0.2;stroke-linejoin:round" />
    <path
       id="path13662"
       d="m 68.3711,56.8869 0.8788,0.8931 -2.1477,3.3721 -1.9469,-1.8897 z"
       style="fill:#d87408;stroke:#000000;stroke-width:0.2;stroke-linejoin:round" />
    <path
       id="path13660"
       d="m 67.4909,55.4524 0.8802,1.4345 -3.2158,2.3755 -1.2109,-1.9613 z"
       style="fill:#d87408;stroke:#000000;stroke-width:0.2;stroke-linejoin:round" />
    <path
       id="path13658"
       d="m 66.5677,53.6813 0.9232,1.7711 -3.5465,1.8487 -0.9232,-1.7711 z"
       style="fill:#d87408;stroke:#000000;stroke-width:0.2;stroke-linejoin:round" />
    <path
       id="path13656"
       d="m 65.5567,51.8057 1.011,1.8756 -3.5465,1.8487 -0.8789,-1.6421 z"
       style="fill:#d87408;stroke:#000000;stroke-width:0.2;stroke-linejoin:round" />
    <path
       id="path13654"
       d="m 64.1676,49.9033 1.3891,1.9024 -3.4144,2.0822 -0.9564,-1.3195 z"
       style="fill:#d87408;stroke:#000000;stroke-width:0.2;stroke-linejoin:round" />
    <path
       id="path13652"
       d="m 61.6582,48.2649 2.5094,1.6384 -2.9817,2.6651 -0.8012,-0.5145 z"
       style="fill:#d87408;stroke:#000000;stroke-width:0.2;stroke-linejoin:round" />
    <path
       id="path13650"
       d="m 58.4177,48.2394 3.2405,0.0255 -1.2735,3.789 -0.6934,-0.0256 z"
       style="fill:#d87408;stroke:#000000;stroke-width:0.2;stroke-linejoin:round" />
    <path
       id="path13648"
       d="m 55.9983,49.735 2.4194,-1.4956 1.2736,3.7889 -0.9287,0.5961 z"
       style="fill:#d87408;stroke:#000000;stroke-width:0.2;stroke-linejoin:round" />
    <path
       id="path13638"
       d="m 50.8177,57.7369 0.8588,-0.9145 3.2158,2.3756 -1.9269,1.911 z"
       style="fill:#d87408;stroke:#000000;stroke-width:0.2;stroke-linejoin:round" />
    <path
       id="path13636"
       d="m 49.8851,58.0046 0.9326,-0.2677 2.1477,3.3721 -2.8285,0.885 z"
       style="fill:#d87408;stroke:#000000;stroke-width:0.2;stroke-linejoin:round" />
    <path
       id="path13634"
       d="m 49.201,57.7488 0.6841,0.2558 0.2518,3.9894 -3.0836,-0.8731 z"
       style="fill:#d87408;stroke:#000000;stroke-width:0.2;stroke-linejoin:round" />
    <path
       id="path13632"
       d="m 48.3366,56.8402 0.8644,0.9086 -2.1477,3.3721 -1.9325,-1.9052 z"
       style="fill:#d87408;stroke:#000000;stroke-width:0.2;stroke-linejoin:round" />
    <path
       id="path13630"
       d="m 47.4641,55.4009 0.8725,1.4393 -3.2158,2.3755 -1.2032,-1.9661 z"
       style="fill:#d87408;stroke:#000000;stroke-width:0.2;stroke-linejoin:round" />
    <path
       id="path13624"
       d="m 44.0177,49.7502 1.5087,2.0059 -3.4143,2.0822 -0.8587,-1.1986 z"
       style="fill:#d87408;stroke:#000000;stroke-width:0.2;stroke-linejoin:round" />
    <path
       id="path13628"
       d="m 46.5408,53.6298 0.9233,1.7711 -3.5465,1.8487 -0.9233,-1.7711 z"
       style="fill:#d87408;stroke:#000000;stroke-width:0.2;stroke-linejoin:round" />
    <path
       id="path13626"
       d="m 45.5264,51.7561 1.0144,1.8737 -3.5465,1.8487 -0.8822,-1.6402 z"
       style="fill:#d87408;stroke:#000000;stroke-width:0.2;stroke-linejoin:round" />
    <path
       id="path13622"
       d="m 41.6032,48.2464 2.4145,1.5038 -2.7643,2.8895 -0.9237,-0.6043 z"
       style="fill:#d87408;stroke:#000000;stroke-width:0.2;stroke-linejoin:round" />
    <path
       id="path13620"
       d="m 38.9832,48 2.62,0.2464 -1.2735,3.789 L 38.9832,52 Z"
       style="fill:#d87408;stroke:#000000;stroke-width:0.2;stroke-linejoin:round" />
    <path
       id="path13618"
       d="m 36.9856,48 h 1.9976 v 4 h -1.9976 z"
       style="fill:#d87408;stroke:#000000;stroke-width:0.2;stroke-linejoin:round" />
    <path
       id="path13616"
       d="m 34.988,48 h 1.9976 v 4 H 34.988 Z"
       style="fill:#d87408;stroke:#000000;stroke-width:0.2;stroke-linejoin:round" />
    <path
       id="path13614"
       d="m 32.9904,48 h 1.9976 v 4 h -1.9976 z"
       style="fill:#d87408;stroke:#000000;stroke-width:0.2;stroke-linejoin:round" />
    <path
       id="rect13576"
       d="m 25,48 h 1.9976 v 4 H 25 Z"
       style="fill:#d87408;stroke:#000000;stroke-width:0.2;stroke-linejoin:round" />
  </g>
</svg>
