<?xml version="1.0" encoding="UTF-8" standalone="no"?>
<svg
   xmlns:dc="http://purl.org/dc/elements/1.1/"
   xmlns:cc="http://creativecommons.org/ns#"
   xmlns:rdf="http://www.w3.org/1999/02/22-rdf-syntax-ns#"
   xmlns:svg="http://www.w3.org/2000/svg"
   xmlns="http://www.w3.org/2000/svg"
   xmlns:sodipodi="http://sodipodi.sourceforge.net/DTD/sodipodi-0.dtd"
   xmlns:inkscape="http://www.inkscape.org/namespaces/inkscape"
   sodipodi:docname="eight-like-0-4.svg"
   inkscape:version="1.0 (4035a4fb49, 2020-05-01)"
   width="210mm"
   height="297mm"
   viewBox="0 0 210 297"
   version="1.1"
   id="svg4621">
  <defs
     id="defs4615" />
  <sodipodi:namedview
     inkscape:window-maximized="0"
     inkscape:window-y="0"
     inkscape:window-x="50"
     inkscape:window-height="1040"
     inkscape:window-width="1648"
     showgrid="true"
     inkscape:document-rotation="0"
     inkscape:current-layer="layer1"
     inkscape:document-units="mm"
     inkscape:cy="275.76576"
     inkscape:cx="191.65123"
     inkscape:zoom="3.959798"
     inkscape:pageshadow="2"
     inkscape:pageopacity="0.0"
     borderopacity="1.0"
     bordercolor="#666666"
     pagecolor="#ffffff"
     id="base">
    <inkscape:grid
       id="grid5184"
       type="xygrid" />
  </sodipodi:namedview>
  <metadata
     id="metadata4618">
    <rdf:RDF>
      <cc:Work
         rdf:about="">
        <dc:format>image/svg+xml</dc:format>
        <dc:type
           rdf:resource="http://purl.org/dc/dcmitype/StillImage" />
        <dc:title></dc:title>
      </cc:Work>
    </rdf:RDF>
  </metadata>
  <g
     id="layer1"
     inkscape:groupmode="layer"
     inkscape:label="Слой 1">
    <path
       id="path5561"
       d="m 109.8852,70 h 2.005 v 4 h -2.005 z"
       style="fill:#d87408;stroke:#000000;stroke-width:0.2;stroke-linejoin:round" />
    <path
       id="path5559"
       d="m 107.8812,70 h 2.004 v 4 h -2.004 z"
       style="fill:#d87408;stroke:#000000;stroke-width:0.2;stroke-linejoin:round" />
    <path
       id="path5557"
       d="m 105.8762,70 h 2.005 v 4 h -2.005 z"
       style="fill:#d87408;stroke:#000000;stroke-width:0.2;stroke-linejoin:round" />
    <path
       id="path5555"
       d="m 103.8722,70 h 2.004 v 4 h -2.004 z"
       style="fill:#d87408;stroke:#000000;stroke-width:0.2;stroke-linejoin:round" />
    <path
       id="path5553"
       d="m 101.8673,70 h 2.0049 v 4 h -2.0049 z"
       style="fill:#d87408;stroke:#000000;stroke-width:0.2;stroke-linejoin:round" />
    <path
       id="path5551"
       d="m 99.8627,70 h 2.0046 v 4 h -2.0046 z"
       style="fill:#d87408;stroke:#000000;stroke-width:0.2;stroke-linejoin:round" />
    <path
       id="path5549"
       d="m 97.8582,70 h 2.0045 v 4 h -2.0045 z"
       style="fill:#d87408;stroke:#000000;stroke-width:0.2;stroke-linejoin:round" />
    <path
       id="path5547"
       d="M 96.5077,69.9469 97.8582,70 v 4 l -2.624,-0.2642 z"
       style="fill:#d87408;stroke:#000000;stroke-width:0.2;stroke-linejoin:round" />
    <path
       id="path5545"
       d="m 95.7012,69.4281 0.8065,0.5188 -1.2735,3.7889 -2.5147,-1.6426 z"
       style="fill:#d87408;stroke:#000000;stroke-width:0.2;stroke-linejoin:round" />
    <path
       id="path5343"
       d="m 92.5405,70.0408 -1.3676,1.9271 -2.9816,-2.6651 0.9348,-1.3442 z"
       style="fill:#d87408;stroke:#000000;stroke-width:0.2;stroke-linejoin:round" />
    <path
       id="path5339"
       d="m 94.4707,66.3758 -0.9265,1.7773 -3.5465,-1.8487 0.9265,-1.7773 z"
       style="fill:#d87408;stroke:#000000;stroke-width:0.2;stroke-linejoin:round" />
    <path
       id="path5341"
       d="m 93.5442,68.1531 -1.0037,1.8877 -3.4144,-2.0822 0.8716,-1.6542 z"
       style="fill:#d87408;stroke:#000000;stroke-width:0.2;stroke-linejoin:round" />
    <path
       id="path5543"
       d="m 94.7418,68.1022 0.9594,1.3259 -2.9817,2.6651 -1.3921,-1.9089 z"
       style="fill:#d87408;stroke:#000000;stroke-width:0.2;stroke-linejoin:round" />
    <path
       id="path5541"
       d="m 93.8604,66.4535 0.8814,1.6487 -3.4144,2.0821 -1.0135,-1.8821 z"
       style="fill:#d87408;stroke:#000000;stroke-width:0.2;stroke-linejoin:round" />
    <path
       id="path5337"
       d="m 95.3805,64.9517 -0.9098,1.4241 -3.5465,-1.8487 1.2405,-1.9509 z"
       style="fill:#d87408;stroke:#000000;stroke-width:0.2;stroke-linejoin:round" />
    <path
       id="path5539"
       d="m 92.9339,64.6762 0.9265,1.7773 -3.5465,1.8487 -0.9265,-1.7773 z"
       style="fill:#d87408;stroke:#000000;stroke-width:0.2;stroke-linejoin:round" />
    <path
       id="path5537"
       d="m 91.7155,62.7114 1.2184,1.9648 -3.5465,1.8487 -0.8877,-1.438 z"
       style="fill:#d87408;stroke:#000000;stroke-width:0.2;stroke-linejoin:round" />
    <path
       id="path5535"
       d="m 89.7546,60.8267 1.9609,1.8847 -3.2158,2.3755 -0.8928,-0.8881 z"
       style="fill:#d87408;stroke:#000000;stroke-width:0.2;stroke-linejoin:round" />
    <path
       id="path5533"
       d="m 86.6489,60.0126 3.1057,0.8141 -2.1477,3.3721 -0.7062,-0.1969 z"
       style="fill:#d87408;stroke:#000000;stroke-width:0.2;stroke-linejoin:round" />
    <path
       id="path5531"
       d="m 83.8307,60.9509 2.8182,-0.9383 0.2518,3.9893 -0.9222,0.3211 z"
       style="fill:#d87408;stroke:#000000;stroke-width:0.2;stroke-linejoin:round" />
    <path
       id="path5529"
       d="m 81.9275,62.8974 1.9032,-1.9465 2.1478,3.3721 -0.8352,0.9499 z"
       style="fill:#d87408;stroke:#000000;stroke-width:0.2;stroke-linejoin:round" />
    <path
       id="path5527"
       d="m 80.7395,64.8813 1.188,-1.9839 3.2158,2.3755 -0.8573,1.4571 z"
       style="fill:#d87408;stroke:#000000;stroke-width:0.2;stroke-linejoin:round" />
    <path
       id="path5525"
       d="m 79.8131,66.6586 0.9264,-1.7773 3.5465,1.8487 -0.9264,1.7773 z"
       style="fill:#d87408;stroke:#000000;stroke-width:0.2;stroke-linejoin:round" />
    <path
       id="path5523"
       d="m 78.9181,68.2996 0.895,-1.641 3.5465,1.8487 -1.0271,1.8745 z"
       style="fill:#d87408;stroke:#000000;stroke-width:0.2;stroke-linejoin:round" />
    <path
       id="path5521"
       d="m 78.0218,69.4768 0.8963,-1.1772 3.4144,2.0822 -1.5464,1.9845 z"
       style="fill:#d87408;stroke:#000000;stroke-width:0.2;stroke-linejoin:round" />
    <path
       id="path5519"
       d="m 77.3033,69.9429 0.7185,-0.4661 2.7643,2.8895 -2.7145,1.4992 z"
       style="fill:#d87408;stroke:#000000;stroke-width:0.2;stroke-linejoin:round" />
    <path
       id="path5517"
       d="m 76.3535,69.8951 0.9498,0.0478 0.7683,3.9226 L 75.08,73.684 Z"
       style="fill:#d87408;stroke:#000000;stroke-width:0.2;stroke-linejoin:round" />
    <path
       id="path5515"
       d="M 75.5927,69.3068 76.3535,69.8951 75.08,73.684 72.6111,71.9719 Z"
       style="fill:#d87408;stroke:#000000;stroke-width:0.2;stroke-linejoin:round" />
    <path
       id="path5371"
       d="m 73.469,68.2974 -1.0132,1.8823 -3.4144,-2.0822 0.8811,-1.6488 z"
       style="fill:#d87408;stroke:#000000;stroke-width:0.2;stroke-linejoin:round" />
    <path
       id="path5373"
       d="m 72.4558,70.1797 -1.3913,1.9095 -2.9817,-2.6651 0.9586,-1.3266 z"
       style="fill:#d87408;stroke:#000000;stroke-width:0.2;stroke-linejoin:round" />
    <path
       id="path5513"
       d="m 74.6571,67.9632 0.9356,1.3436 -2.9816,2.6651 -1.3684,-1.9265 z"
       style="fill:#d87408;stroke:#000000;stroke-width:0.2;stroke-linejoin:round" />
    <path
       id="path5367"
       d="M 75.2839,65.0825 74.3954,66.5201 70.849,64.6714 72.0681,62.707 Z"
       style="fill:#d87408;stroke:#000000;stroke-width:0.2;stroke-linejoin:round" />
    <path
       id="path5369"
       d="M 74.3954,66.5201 73.469,68.2974 69.9225,66.4487 70.849,64.6714 Z"
       style="fill:#d87408;stroke:#000000;stroke-width:0.2;stroke-linejoin:round" />
    <path
       id="path5511"
       d="m 73.7852,66.3092 0.8719,1.654 -3.4144,2.0822 -1.004,-1.8875 z"
       style="fill:#d87408;stroke:#000000;stroke-width:0.2;stroke-linejoin:round" />
    <path
       id="path5509"
       d="m 72.8587,64.5319 0.9265,1.7773 -3.5465,1.8487 -0.9265,-1.7773 z"
       style="fill:#d87408;stroke:#000000;stroke-width:0.2;stroke-linejoin:round" />
    <path
       id="path5507"
       d="m 71.6189,62.5806 1.2398,1.9513 -3.5465,1.8487 -0.9091,-1.4245 z"
       style="fill:#d87408;stroke:#000000;stroke-width:0.2;stroke-linejoin:round" />
    <path
       id="path5505"
       d="m 69.413,60.6267 2.2059,1.9539 -3.2158,2.3755 -0.7299,-0.7304 z"
       style="fill:#d87408;stroke:#000000;stroke-width:0.2;stroke-linejoin:round" />
    <path
       id="path5503"
       d="m 66.4866,60.0229 2.9264,0.6038 -1.7398,3.599 -0.9347,-0.2135 z"
       style="fill:#d87408;stroke:#000000;stroke-width:0.2;stroke-linejoin:round" />
    <path
       id="path5501"
       d="m 63.5308,61.1705 2.9558,-1.1476 0.2519,3.9893 -0.719,0.2877 z"
       style="fill:#d87408;stroke:#000000;stroke-width:0.2;stroke-linejoin:round" />
    <path
       id="path5387"
       d="m 59.4217,66.5905 -0.878,-1.4441 3.2158,-2.3755 1.2086,1.9709 z"
       style="fill:#d87408;stroke:#000000;stroke-width:0.2;stroke-linejoin:round" />
    <path
       id="path5499"
       d="m 61.8309,63.0282 1.6999,-1.8577 2.4887,3.1294 -0.9729,1.1038 z"
       style="fill:#d87408;stroke:#000000;stroke-width:0.2;stroke-linejoin:round" />
    <path
       id="path5383"
       d="m 61.366,70.2475 -1.0179,-1.8797 3.5465,-1.8487 0.8857,1.6462 z"
       style="fill:#d87408;stroke:#000000;stroke-width:0.2;stroke-linejoin:round" />
    <path
       id="path5385"
       d="m 60.3481,68.3678 -0.9264,-1.7773 3.5464,-1.8487 0.9265,1.7773 z"
       style="fill:#d87408;stroke:#000000;stroke-width:0.2;stroke-linejoin:round" />
    <path
       id="path5497"
       d="m 60.6643,65.0256 1.1666,-1.9974 3.2157,2.3755 -0.8358,1.4706 z"
       style="fill:#d87408;stroke:#000000;stroke-width:0.2;stroke-linejoin:round" />
    <path
       id="path5381"
       d="m 62.8807,72.2575 -1.5147,-2.01 3.4143,-2.0822 0.8647,1.2028 z"
       style="fill:#d87408;stroke:#000000;stroke-width:0.2;stroke-linejoin:round" />
    <path
       id="path5495"
       d="m 59.7379,66.8029 0.9264,-1.7773 3.5465,1.8487 -0.9265,1.7773 z"
       style="fill:#d87408;stroke:#000000;stroke-width:0.2;stroke-linejoin:round" />
    <path
       id="path5493"
       d="m 58.8334,68.4386 0.9045,-1.6357 3.5464,1.8487 -1.0365,1.8691 z"
       style="fill:#d87408;stroke:#000000;stroke-width:0.2;stroke-linejoin:round" />
    <path
       id="path5491"
       d="m 57.9042,69.5893 0.9292,-1.1507 3.4144,2.0821 -1.5793,1.958 z"
       style="fill:#d87408;stroke:#000000;stroke-width:0.2;stroke-linejoin:round" />
    <path
       id="path5489"
       d="m 57.1437,69.9741 0.7605,-0.3848 2.7643,2.8894 -2.7565,1.418 z"
       style="fill:#d87408;stroke:#000000;stroke-width:0.2;stroke-linejoin:round" />
    <path
       id="path5487"
       d="M 55.5281,70 57.1437,69.9741 57.912,73.8967 55.5281,74 Z"
       style="fill:#d87408;stroke:#000000;stroke-width:0.2;stroke-linejoin:round" />
    <path
       id="path5485"
       d="m 53.5236,70 h 2.0045 v 4 h -2.0045 z"
       style="fill:#d87408;stroke:#000000;stroke-width:0.2;stroke-linejoin:round" />
    <path
       id="path5483"
       d="m 51.519,70 h 2.0046 v 4 H 51.519 Z"
       style="fill:#d87408;stroke:#000000;stroke-width:0.2;stroke-linejoin:round" />
    <path
       id="path5481"
       d="m 49.5144,70 h 2.0046 v 4 h -2.0046 z"
       style="fill:#d87408;stroke:#000000;stroke-width:0.2;stroke-linejoin:round" />
    <path
       id="path5479"
       d="m 47.5098,70 h 2.0046 v 4 h -2.0046 z"
       style="fill:#d87408;stroke:#000000;stroke-width:0.2;stroke-linejoin:round" />
    <path
       id="path5477"
       d="m 45.5053,70 h 2.0045 v 4 h -2.0045 z"
       style="fill:#d87408;stroke:#000000;stroke-width:0.2;stroke-linejoin:round" />
    <path
       id="path5475"
       d="m 43.5007,70 h 2.0046 v 4 h -2.0046 z"
       style="fill:#d87408;stroke:#000000;stroke-width:0.2;stroke-linejoin:round" />
    <path
       id="path5473"
       d="m 41.4961,70 h 2.0046 v 4 h -2.0046 z"
       style="fill:#d87408;stroke:#000000;stroke-width:0.2;stroke-linejoin:round" />
    <path
       id="path5471"
       d="m 39.4915,70 h 2.0046 v 4 h -2.0046 z"
       style="fill:#d87408;stroke:#000000;stroke-width:0.2;stroke-linejoin:round" />
    <path
       id="path5469"
       d="m 37.487,70 h 2.0045 v 4 H 37.487 Z"
       style="fill:#d87408;stroke:#000000;stroke-width:0.2;stroke-linejoin:round" />
    <path
       id="path5467"
       d="M 35.4183,70.0473 37.487,70 v 4 l -1.9385,0.0444 z"
       style="fill:#d87408;stroke:#000000;stroke-width:0.2;stroke-linejoin:round" />
    <path
       id="path5465"
       d="m 33.1417,70.273 2.2766,-0.2257 0.1302,3.9971 -1.7099,0.167 z"
       style="fill:#d87408;stroke:#000000;stroke-width:0.2;stroke-linejoin:round" />
    <path
       id="path5463"
       d="m 30.8773,70.8206 2.2644,-0.5476 0.6969,3.9384 -1.6305,0.3806 z"
       style="fill:#d87408;stroke:#000000;stroke-width:0.2;stroke-linejoin:round" />
    <path
       id="path5461"
       d="m 28.6968,71.8492 2.1805,-1.0286 1.3308,3.7714 -1.4352,0.6751 z"
       style="fill:#d87408;stroke:#000000;stroke-width:0.2;stroke-linejoin:round" />
    <path
       id="path5459"
       d="m 26.6657,73.7521 2.0311,-1.9029 2.0761,3.4179 -0.8689,0.8315 z"
       style="fill:#d87408;stroke:#000000;stroke-width:0.2;stroke-linejoin:round" />
    <path
       id="path5457"
       d="m 25.4674,76.1925 1.1983,-2.4404 3.2383,2.3465 -0.5755,1.1319 z"
       style="fill:#d87408;stroke:#000000;stroke-width:0.2;stroke-linejoin:round" />
    <path
       id="path5455"
       d="m 25.0219,78.4727 0.4455,-2.2802 3.8611,1.038 -0.3275,1.6451 z"
       style="fill:#d87408;stroke:#000000;stroke-width:0.2;stroke-linejoin:round" />
    <path
       id="path5227"
       d="m 23.8948,80 h 2.0046 v 4 h -2.0046 z"
       style="fill:#d87408;stroke:#000000;stroke-width:0.2;stroke-linejoin:round" />
    <path
       id="path5229"
       d="m 25.8994,80 h 2.0045 v 4 h -2.0045 z"
       style="fill:#d87408;stroke:#000000;stroke-width:0.2;stroke-linejoin:round" />
    <path
       id="path5231"
       d="m 27.9039,80 h 2.0046 v 4 h -2.0046 z"
       style="fill:#d87408;stroke:#000000;stroke-width:0.2;stroke-linejoin:round" />
    <path
       id="path5453"
       d="m 24.9043,80.6536 0.1176,-2.1809 3.9791,0.4029 -0.0971,1.8199 z"
       style="fill:#d87408;stroke:#000000;stroke-width:0.2;stroke-linejoin:round" />
    <path
       id="path5451"
       d="m 24.8975,82.6998 0.0068,-2.0462 3.9996,0.0419 -0.0068,1.9625 z"
       style="fill:#d87408;stroke:#000000;stroke-width:0.2;stroke-linejoin:round" />
    <path
       id="path5449"
       d="m 24.9539,84.7836 -0.0564,-2.0838 3.9996,-0.0418 0.0514,1.9229 z"
       style="fill:#d87408;stroke:#000000;stroke-width:0.2;stroke-linejoin:round" />
    <path
       id="path5447"
       d="m 25.2996,87.1833 -0.3457,-2.3997 3.9946,-0.2027 0.2122,1.5644 z"
       style="fill:#d87408;stroke:#000000;stroke-width:0.2;stroke-linejoin:round" />
    <path
       id="path5445"
       d="m 26.2266,89.5795 -0.927,-2.3962 3.8611,-1.038 0.4749,1.3433 z"
       style="fill:#d87408;stroke:#000000;stroke-width:0.2;stroke-linejoin:round" />
    <path
       id="path5443"
       d="m 27.9246,91.583 -1.698,-2.0035 3.409,-2.0909 0.8722,1.0417 z"
       style="fill:#d87408;stroke:#000000;stroke-width:0.2;stroke-linejoin:round" />
    <path
       id="path5441"
       d="m 30.1522,92.9064 -2.2276,-1.3234 2.5832,-3.0527 1.2148,0.6981 z"
       style="fill:#d87408;stroke:#000000;stroke-width:0.2;stroke-linejoin:round" />
    <path
       id="path5439"
       d="m 32.4075,93.5923 -2.2553,-0.6859 1.5704,-3.678 1.5777,0.4653 z"
       style="fill:#d87408;stroke:#000000;stroke-width:0.2;stroke-linejoin:round" />
    <path
       id="path5437"
       d="m 34.6231,93.8988 -2.2156,-0.3065 0.8928,-3.8986 1.7543,0.2296 z"
       style="fill:#d87408;stroke:#000000;stroke-width:0.2;stroke-linejoin:round" />
    <path
       id="path5435"
       d="m 36.7752,93.9969 -2.1521,-0.0981 0.4315,-3.9755 1.8509,0.0765 z"
       style="fill:#d87408;stroke:#000000;stroke-width:0.2;stroke-linejoin:round" />
    <path
       id="path5433"
       d="m 39.1029,93.8712 -2.3277,0.1257 0.1303,-3.9971 1.6723,-0.0934 z"
       style="fill:#d87408;stroke:#000000;stroke-width:0.2;stroke-linejoin:round" />
    <path
       id="path5431"
       d="m 41.317,93.4331 -2.2141,0.4381 -0.5251,-3.9648 1.7132,-0.3387 z"
       style="fill:#d87408;stroke:#000000;stroke-width:0.2;stroke-linejoin:round" />
    <path
       id="path5429"
       d="m 43.5819,92.4913 -2.2649,0.9418 -1.026,-3.8654 1.4202,-0.6108 z"
       style="fill:#d87408;stroke:#000000;stroke-width:0.2;stroke-linejoin:round" />
    <path
       id="path5427"
       d="m 45.6779,90.8462 -2.096,1.6451 -1.8707,-3.5344 1.0361,-0.8315 z"
       style="fill:#d87408;stroke:#000000;stroke-width:0.2;stroke-linejoin:round" />
    <path
       id="path5425"
       d="m 47.1109,88.8489 -1.433,1.9973 -2.9306,-2.7208 0.8879,-1.2546 z"
       style="fill:#d87408;stroke:#000000;stroke-width:0.2;stroke-linejoin:round" />
    <path
       id="path5423"
       d="m 48.0427,86.511 -0.9318,2.3379 -3.4757,-1.9781 0.5415,-1.3811 z"
       style="fill:#d87408;stroke:#000000;stroke-width:0.2;stroke-linejoin:round" />
    <path
       id="path5421"
       d="m 48.5097,84.3978 -0.467,2.1132 -3.866,-1.0213 0.3966,-1.7974 z"
       style="fill:#d87408;stroke:#000000;stroke-width:0.2;stroke-linejoin:round" />
    <path
       id="path5419"
       d="m 48.7599,82.1888 -0.2502,2.209 -3.9364,-0.7055 0.1959,-1.7728 z"
       style="fill:#d87408;stroke:#000000;stroke-width:0.2;stroke-linejoin:round" />
    <path
       id="path5417"
       d="m 48.8609,80.1199 -0.101,2.0689 -3.9907,-0.2693 0.0941,-1.9348 z"
       style="fill:#d87408;stroke:#000000;stroke-width:0.2;stroke-linejoin:round" />
    <path
       id="path5415"
       d="M 48.8828,78.062 48.8609,80.1199 44.8633,79.9847 44.883,78.034 Z"
       style="fill:#d87408;stroke:#000000;stroke-width:0.2;stroke-linejoin:round" />
    <path
       id="path5413"
       d="m 48.8968,76.0575 -0.014,2.0045 -3.9998,-0.028 0.014,-2.0044 z"
       style="fill:#d87408;stroke:#000000;stroke-width:0.2;stroke-linejoin:round" />
    <path
       id="path5411"
       d="m 48.914,74.1067 -0.0172,1.9508 -3.9998,-0.0279 0.0195,-2.0581 z"
       style="fill:#d87408;stroke:#000000;stroke-width:0.2;stroke-linejoin:round" />
    <path
       id="path5409"
       d="m 49.005,72.1718 -0.091,1.9349 -3.9975,-0.1352 0.0978,-2.069 z"
       style="fill:#d87408;stroke:#000000;stroke-width:0.2;stroke-linejoin:round" />
    <path
       id="path5407"
       d="m 49.1909,70.3978 -0.1859,1.774 -3.9907,-0.2693 0.2402,-2.2102 z"
       style="fill:#d87408;stroke:#000000;stroke-width:0.2;stroke-linejoin:round" />
    <path
       id="path5405"
       d="m 49.5803,68.5988 -0.3894,1.799 -3.9364,-0.7055 0.4598,-2.1148 z"
       style="fill:#d87408;stroke:#000000;stroke-width:0.2;stroke-linejoin:round" />
    <path
       id="path5403"
       d="m 50.1659,67.0912 -0.5856,1.5076 -3.866,-1.0213 0.8505,-2.2259 z"
       style="fill:#d87408;stroke:#000000;stroke-width:0.2;stroke-linejoin:round" />
    <path
       id="path5401"
       d="m 50.9708,65.9416 -0.8049,1.1496 -3.6011,-1.7396 1.4754,-2.1307 z"
       style="fill:#d87408;stroke:#000000;stroke-width:0.2;stroke-linejoin:round" />
    <path
       id="path5399"
       d="m 52.134,65.0069 -1.1632,0.9347 -2.9306,-2.7207 1.9371,-1.5814 z"
       style="fill:#d87408;stroke:#000000;stroke-width:0.2;stroke-linejoin:round" />
    <path
       id="path5397"
       d="m 53.5378,64.4148 -1.4038,0.5921 -2.1567,-3.3674 2.2613,-1.0069 z"
       style="fill:#d87408;stroke:#000000;stroke-width:0.2;stroke-linejoin:round" />
    <path
       id="path5395"
       d="m 55.1119,64.1056 -1.5741,0.3092 -1.2992,-3.7822 2.3482,-0.4918 z"
       style="fill:#d87408;stroke:#000000;stroke-width:0.2;stroke-linejoin:round" />
    <path
       id="path5393"
       d="m 56.8964,64.0002 -1.7845,0.1054 -0.5251,-3.9648 2.2139,-0.139 z"
       style="fill:#d87408;stroke:#000000;stroke-width:0.2;stroke-linejoin:round" />
    <path
       id="path5391"
       d="m 57.6693,64.2385 -0.7729,-0.2383 -0.0957,-3.9984 3.0163,0.8647 z"
       style="fill:#d87408;stroke:#000000;stroke-width:0.2;stroke-linejoin:round" />
    <path
       id="path5389"
       d="m 58.5437,65.1464 -0.8744,-0.9079 2.1477,-3.372 1.9425,1.9044 z"
       style="fill:#d87408;stroke:#000000;stroke-width:0.2;stroke-linejoin:round" />
    <path
       id="path5379"
       d="m 65.3043,73.7594 -2.4236,-1.5019 2.7643,-2.8894 0.9328,0.6023 z"
       style="fill:#d87408;stroke:#000000;stroke-width:0.2;stroke-linejoin:round" />
    <path
       id="path5377"
       d="m 68.5514,73.7341 -3.2471,0.0253 1.2735,-3.789 0.7,-0.0252 z"
       style="fill:#d87408;stroke:#000000;stroke-width:0.2;stroke-linejoin:round" />
    <path
       id="path5375"
       d="m 71.0645,72.0892 -2.5131,1.6449 -1.2736,-3.7889 0.805,-0.5211 z"
       style="fill:#d87408;stroke:#000000;stroke-width:0.2;stroke-linejoin:round" />
    <path
       id="path5365"
       d="m 76.178,64.1959 -0.8941,0.8866 -3.2158,-2.3755 1.9622,-1.8832 z"
       style="fill:#d87408;stroke:#000000;stroke-width:0.2;stroke-linejoin:round" />
    <path
       id="path5363"
       d="m 76.885,64.0023 -0.707,0.1936 -2.1477,-3.3721 3.1066,-0.8108 z"
       style="fill:#d87408;stroke:#000000;stroke-width:0.2;stroke-linejoin:round" />
    <path
       id="path5361"
       d="m 77.8065,64.3259 -0.9215,-0.3236 0.2519,-3.9893 2.8173,0.9408 z"
       style="fill:#d87408;stroke:#000000;stroke-width:0.2;stroke-linejoin:round" />
    <path
       id="path5359"
       d="m 78.6404,65.2772 -0.8339,-0.9513 2.1477,-3.3721 1.9019,1.9479 z"
       style="fill:#d87408;stroke:#000000;stroke-width:0.2;stroke-linejoin:round" />
    <path
       id="path5357"
       d="m 79.4969,66.7348 -0.8565,-1.4576 3.2157,-2.3755 1.1873,1.9844 z"
       style="fill:#d87408;stroke:#000000;stroke-width:0.2;stroke-linejoin:round" />
    <path
       id="path5355"
       d="m 80.4233,68.5121 -0.9264,-1.7773 3.5465,-1.8487 0.9264,1.7773 z"
       style="fill:#d87408;stroke:#000000;stroke-width:0.2;stroke-linejoin:round" />
    <path
       id="path5353"
       d="m 81.4507,70.3864 -1.0274,-1.8743 3.5465,-1.8487 0.8953,1.6408 z"
       style="fill:#d87408;stroke:#000000;stroke-width:0.2;stroke-linejoin:round" />
    <path
       id="path5351"
       d="m 82.9982,72.37 -1.5475,-1.9836 3.4144,-2.0822 0.8974,1.1763 z"
       style="fill:#d87408;stroke:#000000;stroke-width:0.2;stroke-linejoin:round" />
    <path
       id="path5349"
       d="m 85.7141,73.8665 -2.7159,-1.4965 2.7643,-2.8895 0.7199,0.4634 z"
       style="fill:#d87408;stroke:#000000;stroke-width:0.2;stroke-linejoin:round" />
    <path
       id="path5347"
       d="m 88.7055,73.6823 -2.9914,0.1842 0.7683,-3.9226 0.9496,-0.0506 z"
       style="fill:#d87408;stroke:#000000;stroke-width:0.2;stroke-linejoin:round" />
    <path
       id="path5345"
       d="m 91.1729,71.9679 -2.4674,1.7144 -1.2735,-3.789 0.7593,-0.5905 z"
       style="fill:#d87408;stroke:#000000;stroke-width:0.2;stroke-linejoin:round" />
    <path
       id="path5335"
       d="m 96.1121,64.2234 -0.7316,0.7283 -3.2158,-2.3755 2.2075,-1.9519 z"
       style="fill:#d87408;stroke:#000000;stroke-width:0.2;stroke-linejoin:round" />
    <path
       id="path5333"
       d="m 97.1087,64.0078 -0.9966,0.2156 -1.7399,-3.5991 2.8667,-0.6136 z"
       style="fill:#d87408;stroke:#000000;stroke-width:0.2;stroke-linejoin:round" />
    <path
       id="path5331"
       d="m 98.9583,64.102 -1.8496,-0.0942 0.1302,-3.9971 2.151,0.1158 z"
       style="fill:#d87408;stroke:#000000;stroke-width:0.2;stroke-linejoin:round" />
    <path
       id="path5329"
       d="m 100.7081,64.3585 -1.7498,-0.2565 0.4316,-3.9755 2.211,0.3334 z"
       style="fill:#d87408;stroke:#000000;stroke-width:0.2;stroke-linejoin:round" />
    <path
       id="path5327"
       d="m 102.2732,64.8635 -1.5651,-0.505 0.8928,-3.8986 2.2423,0.7256 z"
       style="fill:#d87408;stroke:#000000;stroke-width:0.2;stroke-linejoin:round" />
    <path
       id="path5325"
       d="m 103.4512,65.6208 -1.178,-0.7573 1.57,-3.678 2.191,1.3826 z"
       style="fill:#d87408;stroke:#000000;stroke-width:0.2;stroke-linejoin:round" />
    <path
       id="path5323"
       d="m 104.1822,66.5912 -0.731,-0.9704 2.583,-3.0527 1.7,2.1865 z"
       style="fill:#d87408;stroke:#000000;stroke-width:0.2;stroke-linejoin:round" />
    <path
       id="path5321"
       d="m 104.6312,67.9035 -0.449,-1.3123 3.552,-1.8366 0.838,2.4689 z"
       style="fill:#d87408;stroke:#000000;stroke-width:0.2;stroke-linejoin:round" />
    <path
       id="path5319"
       d="m 104.8442,69.6527 -0.213,-1.7492 3.941,-0.68 0.266,2.2266 z"
       style="fill:#d87408;stroke:#000000;stroke-width:0.2;stroke-linejoin:round" />
    <path
       id="path5317"
       d="m 104.8862,71.576 -0.042,-1.9233 3.994,-0.2026 0.047,2.084 z"
       style="fill:#d87408;stroke:#000000;stroke-width:0.2;stroke-linejoin:round" />
    <path
       id="path5315"
       d="m 104.8742,73.5384 0.012,-1.9624 3.999,-0.0419 -0.012,2.0462 z"
       style="fill:#d87408;stroke:#000000;stroke-width:0.2;stroke-linejoin:round" />
    <path
       id="path5313"
       d="m 104.7562,75.3572 0.118,-1.8188 3.999,0.0419 -0.138,2.1797 z"
       style="fill:#d87408;stroke:#000000;stroke-width:0.2;stroke-linejoin:round" />
    <path
       id="path5311"
       d="m 104.4282,76.8325 0.328,-1.4753 3.979,0.4028 -0.545,2.4283 z"
       style="fill:#d87408;stroke:#000000;stroke-width:0.2;stroke-linejoin:round" />
    <path
       id="path5309"
       d="m 103.8342,77.9631 0.594,-1.1306 3.762,1.3558 -1.315,2.3712 z"
       style="fill:#d87408;stroke:#000000;stroke-width:0.2;stroke-linejoin:round" />
    <path
       id="path5307"
       d="m 102.8072,78.8543 1.027,-0.8912 3.041,2.5964 -1.991,1.7127 z"
       style="fill:#d87408;stroke:#000000;stroke-width:0.2;stroke-linejoin:round" />
    <path
       id="path5305"
       d="m 101.4629,79.4432 1.3443,-0.5889 2.077,3.4179 -2.317,1.015 z"
       style="fill:#d87408;stroke:#000000;stroke-width:0.2;stroke-linejoin:round" />
    <path
       id="path5303"
       d="m 99.8429,79.802 1.62,-0.3588 1.1043,3.844 -2.2927,0.4903 z"
       style="fill:#d87408;stroke:#000000;stroke-width:0.2;stroke-linejoin:round" />
    <path
       id="path5301"
       d="m 97.9981,79.9632 1.8448,-0.1612 0.4316,3.9755 -2.1461,0.1828 z"
       style="fill:#d87408;stroke:#000000;stroke-width:0.2;stroke-linejoin:round" />
    <path
       id="path5299"
       d="m 96.0595,80 1.9386,-0.0368 0.1303,3.9971 L 96.0595,84 Z"
       style="fill:#d87408;stroke:#000000;stroke-width:0.2;stroke-linejoin:round" />
    <path
       id="path5297"
       d="m 94.0549,80 h 2.0046 v 4 h -2.0046 z"
       style="fill:#d87408;stroke:#000000;stroke-width:0.2;stroke-linejoin:round" />
    <path
       id="path5295"
       d="m 92.0504,80 h 2.0045 v 4 h -2.0045 z"
       style="fill:#d87408;stroke:#000000;stroke-width:0.2;stroke-linejoin:round" />
    <path
       id="path5293"
       d="m 90.0458,80 h 2.0046 v 4 h -2.0046 z"
       style="fill:#d87408;stroke:#000000;stroke-width:0.2;stroke-linejoin:round" />
    <path
       id="path5291"
       d="m 88.0412,80 h 2.0046 v 4 h -2.0046 z"
       style="fill:#d87408;stroke:#000000;stroke-width:0.2;stroke-linejoin:round" />
    <path
       id="path5289"
       d="m 86.0366,80 h 2.0046 v 4 h -2.0046 z"
       style="fill:#d87408;stroke:#000000;stroke-width:0.2;stroke-linejoin:round" />
    <path
       id="path5287"
       d="m 84.0321,80 h 2.0045 v 4 h -2.0045 z"
       style="fill:#d87408;stroke:#000000;stroke-width:0.2;stroke-linejoin:round" />
    <path
       id="path5285"
       d="m 82.0275,80 h 2.0046 v 4 h -2.0046 z"
       style="fill:#d87408;stroke:#000000;stroke-width:0.2;stroke-linejoin:round" />
    <path
       id="path5283"
       d="m 80.0229,80 h 2.0046 v 4 h -2.0046 z"
       style="fill:#d87408;stroke:#000000;stroke-width:0.2;stroke-linejoin:round" />
    <path
       id="path5281"
       d="m 78.0183,80 h 2.0046 v 4 h -2.0046 z"
       style="fill:#d87408;stroke:#000000;stroke-width:0.2;stroke-linejoin:round" />
    <path
       id="path5279"
       d="m 76.0137,80 h 2.0046 v 4 h -2.0046 z"
       style="fill:#d87408;stroke:#000000;stroke-width:0.2;stroke-linejoin:round" />
    <path
       id="path5277"
       d="m 74.0092,80 h 2.0045 v 4 h -2.0045 z"
       style="fill:#d87408;stroke:#000000;stroke-width:0.2;stroke-linejoin:round" />
    <path
       id="path5275"
       d="m 72.0046,80 h 2.0046 v 4 h -2.0046 z"
       style="fill:#d87408;stroke:#000000;stroke-width:0.2;stroke-linejoin:round" />
    <path
       id="path5273"
       d="m 70,80 h 2.0046 v 4 H 70 Z"
       style="fill:#d87408;stroke:#000000;stroke-width:0.2;stroke-linejoin:round" />
    <path
       id="path5271"
       d="M 67.9954,80 H 70 v 4 h -2.0046 z"
       style="fill:#d87408;stroke:#000000;stroke-width:0.2;stroke-linejoin:round" />
    <path
       id="path5269"
       d="m 65.9909,80 h 2.0045 v 4 h -2.0045 z"
       style="fill:#d87408;stroke:#000000;stroke-width:0.2;stroke-linejoin:round" />
    <path
       id="path5267"
       d="m 63.9863,80 h 2.0046 v 4 h -2.0046 z"
       style="fill:#d87408;stroke:#000000;stroke-width:0.2;stroke-linejoin:round" />
    <path
       id="path5265"
       d="m 61.9817,80 h 2.0046 v 4 h -2.0046 z"
       style="fill:#d87408;stroke:#000000;stroke-width:0.2;stroke-linejoin:round" />
    <path
       id="path5263"
       d="m 59.9771,80 h 2.0046 v 4 h -2.0046 z"
       style="fill:#d87408;stroke:#000000;stroke-width:0.2;stroke-linejoin:round" />
    <path
       id="path5261"
       d="m 57.9726,80 h 2.0045 v 4 h -2.0045 z"
       style="fill:#d87408;stroke:#000000;stroke-width:0.2;stroke-linejoin:round" />
    <path
       id="path5259"
       d="m 55.968,80 h 2.0046 v 4 H 55.968 Z"
       style="fill:#d87408;stroke:#000000;stroke-width:0.2;stroke-linejoin:round" />
    <path
       id="path5257"
       d="m 53.9634,80 h 2.0046 v 4 h -2.0046 z"
       style="fill:#d87408;stroke:#000000;stroke-width:0.2;stroke-linejoin:round" />
    <path
       id="path5255"
       d="m 51.9588,80 h 2.0046 v 4 h -2.0046 z"
       style="fill:#d87408;stroke:#000000;stroke-width:0.2;stroke-linejoin:round" />
    <path
       id="path5253"
       d="m 49.9543,80 h 2.0045 v 4 h -2.0045 z"
       style="fill:#d87408;stroke:#000000;stroke-width:0.2;stroke-linejoin:round" />
    <path
       id="path5251"
       d="m 47.9497,80 h 2.0046 v 4 h -2.0046 z"
       style="fill:#d87408;stroke:#000000;stroke-width:0.2;stroke-linejoin:round" />
    <path
       id="path5249"
       d="m 45.9451,80 h 2.0046 v 4 h -2.0046 z"
       style="fill:#d87408;stroke:#000000;stroke-width:0.2;stroke-linejoin:round" />
    <path
       id="path5247"
       d="m 43.9405,80 h 2.0046 v 4 h -2.0046 z"
       style="fill:#d87408;stroke:#000000;stroke-width:0.2;stroke-linejoin:round" />
    <path
       id="path5245"
       d="m 41.936,80 h 2.0045 v 4 H 41.936 Z"
       style="fill:#d87408;stroke:#000000;stroke-width:0.2;stroke-linejoin:round" />
    <path
       id="path5243"
       d="m 39.9314,80 h 2.0046 v 4 h -2.0046 z"
       style="fill:#d87408;stroke:#000000;stroke-width:0.2;stroke-linejoin:round" />
    <path
       id="path5241"
       d="m 37.9268,80 h 2.0046 v 4 h -2.0046 z"
       style="fill:#d87408;stroke:#000000;stroke-width:0.2;stroke-linejoin:round" />
    <path
       id="path5239"
       d="m 35.9222,80 h 2.0046 v 4 h -2.0046 z"
       style="fill:#d87408;stroke:#000000;stroke-width:0.2;stroke-linejoin:round" />
    <path
       id="path5237"
       d="m 33.9177,80 h 2.0045 v 4 h -2.0045 z"
       style="fill:#d87408;stroke:#000000;stroke-width:0.2;stroke-linejoin:round" />
    <path
       id="path5235"
       d="m 31.9131,80 h 2.0046 v 4 h -2.0046 z"
       style="fill:#d87408;stroke:#000000;stroke-width:0.2;stroke-linejoin:round" />
    <path
       id="path5233"
       d="m 29.9085,80 h 2.0046 v 4 h -2.0046 z"
       style="fill:#d87408;stroke:#000000;stroke-width:0.2;stroke-linejoin:round" />
    <path
       id="rect5212"
       d="m 21.8902,80 h 2.0046 v 4 h -2.0046 z"
       style="fill:#d87408;stroke:#000000;stroke-width:0.2;stroke-linejoin:round" />
  </g>
</svg>
