<?xml version="1.0" encoding="UTF-8" standalone="no"?>
<svg
   xmlns:dc="http://purl.org/dc/elements/1.1/"
   xmlns:cc="http://creativecommons.org/ns#"
   xmlns:rdf="http://www.w3.org/1999/02/22-rdf-syntax-ns#"
   xmlns:svg="http://www.w3.org/2000/svg"
   xmlns="http://www.w3.org/2000/svg"
   xmlns:sodipodi="http://sodipodi.sourceforge.net/DTD/sodipodi-0.dtd"
   xmlns:inkscape="http://www.inkscape.org/namespaces/inkscape"
   sodipodi:docname="eight-like-1-1.svg"
   inkscape:version="1.0 (4035a4fb49, 2020-05-01)"
   width="210mm"
   height="297mm"
   viewBox="0 0 210 297"
   version="1.1"
   id="svg6399">
  <defs
     id="defs6393" />
  <sodipodi:namedview
     inkscape:window-maximized="0"
     inkscape:window-y="0"
     inkscape:window-x="250"
     inkscape:window-height="1040"
     inkscape:window-width="1648"
     showguides="false"
     showgrid="true"
     inkscape:document-rotation="0"
     inkscape:current-layer="layer1"
     inkscape:document-units="mm"
     inkscape:cy="113.51868"
     inkscape:cx="230.1829"
     inkscape:zoom="2.8"
     inkscape:pageshadow="2"
     inkscape:pageopacity="0.0"
     borderopacity="1.0"
     bordercolor="#666666"
     pagecolor="#ffffff"
     id="base">
    <inkscape:grid
       id="grid6962"
       type="xygrid" />
  </sodipodi:namedview>
  <metadata
     id="metadata6396">
    <rdf:RDF>
      <cc:Work
         rdf:about="">
        <dc:format>image/svg+xml</dc:format>
        <dc:type
           rdf:resource="http://purl.org/dc/dcmitype/StillImage" />
        <dc:title></dc:title>
      </cc:Work>
    </rdf:RDF>
  </metadata>
  <g
     id="layer1"
     inkscape:groupmode="layer"
     inkscape:label="Слой 1">
    <path
       id="path7268"
       d="M 74.8214,9.005 73.1535,8.9275 72.9017,4.93814 75.253,5.02949 Z"
       style="fill:#287c00;stroke:#000000;stroke-width:0.2;stroke-linejoin:round" />
    <path
       id="path7266"
       d="M 76.5842,9.2315 74.8214,9.005 75.253,5.02949 77.4769,5.33285 Z"
       style="fill:#287c00;stroke:#000000;stroke-width:0.2;stroke-linejoin:round" />
    <path
       id="path7264"
       d="m 78.1709,9.6941 -1.5867,-0.4626 0.8927,-3.89865 2.2644,0.6832 z"
       style="fill:#287c00;stroke:#000000;stroke-width:0.2;stroke-linejoin:round" />
    <path
       id="path7262"
       d="M 79.3959,10.3905 78.1709,9.6941 79.7413,6.01605 81.979,7.3378 Z"
       style="fill:#287c00;stroke:#000000;stroke-width:0.2;stroke-linejoin:round" />
    <path
       id="path7260"
       d="M 80.2766,11.435 79.3959,10.3905 81.979,7.3378 83.6856,9.3441 Z"
       style="fill:#287c00;stroke:#000000;stroke-width:0.2;stroke-linejoin:round" />
    <path
       id="path7258"
       d="m 80.7563,12.7847 -0.4797,-1.3497 3.409,-2.0909 0.9318,2.4026 z"
       style="fill:#287c00;stroke:#000000;stroke-width:0.2;stroke-linejoin:round" />
    <path
       id="path7256"
       d="m 80.9696,14.3568 -0.2133,-1.5721 3.8611,-1.038 0.3468,2.4075 z"
       style="fill:#287c00;stroke:#000000;stroke-width:0.2;stroke-linejoin:round" />
    <path
       id="path7254"
       d="m 81.0208,16.2876 -0.0512,-1.9308 3.9946,-0.2026 0.0562,2.0915 z"
       style="fill:#287c00;stroke:#000000;stroke-width:0.2;stroke-linejoin:round" />
    <path
       id="path7252"
       d="m 81.0137,18.2579 0.0071,-1.9703 3.9996,-0.0419 -0.0071,2.0541 z"
       style="fill:#287c00;stroke:#000000;stroke-width:0.2;stroke-linejoin:round" />
    <path
       id="path7250"
       d="m 80.914,20.0855 0.0997,-1.8276 3.9996,0.0419 -0.1203,2.1885 z"
       style="fill:#287c00;stroke:#000000;stroke-width:0.2;stroke-linejoin:round" />
    <path
       id="path7248"
       d="m 80.5799,21.7373 0.3341,-1.6518 3.979,0.4028 -0.452,2.287 z"
       style="fill:#287c00;stroke:#000000;stroke-width:0.2;stroke-linejoin:round" />
    <path
       id="path7246"
       d="m 79.988,22.8699 0.5919,-1.1326 3.8611,1.038 -1.2148,2.4411 z"
       style="fill:#287c00;stroke:#000000;stroke-width:0.2;stroke-linejoin:round" />
    <path
       id="path7244"
       d="m 79.1005,23.6926 0.8875,-0.8227 3.2382,2.3465 -2.0495,1.8941 z"
       style="fill:#287c00;stroke:#000000;stroke-width:0.2;stroke-linejoin:round" />
    <path
       id="path7242"
       d="m 77.6533,24.3606 1.4472,-0.668 2.0762,3.4179 -2.1926,1.0216 z"
       style="fill:#287c00;stroke:#000000;stroke-width:0.2;stroke-linejoin:round" />
    <path
       id="path7240"
       d="m 76.0127,24.7332 1.6406,-0.3726 1.3308,3.7715 -2.2745,0.5395 z"
       style="fill:#287c00;stroke:#000000;stroke-width:0.2;stroke-linejoin:round" />
    <path
       id="path7238"
       d="m 74.2939,24.8909 1.7188,-0.1577 0.6969,3.9384 -2.2854,0.2163 z"
       style="fill:#287c00;stroke:#000000;stroke-width:0.2;stroke-linejoin:round" />
    <path
       id="path7236"
       d="m 72.3476,24.9328 1.9463,-0.0419 0.1303,3.997 -2.0766,0.0449 z"
       style="fill:#287c00;stroke:#000000;stroke-width:0.2;stroke-linejoin:round" />
    <path
       id="path7234"
       d="m 70.3352,24.9328 h 2.0124 v 4 h -2.0124 z"
       style="fill:#287c00;stroke:#000000;stroke-width:0.2;stroke-linejoin:round" />
    <path
       id="path7232"
       d="m 68.3228,24.9328 h 2.0124 v 4 h -2.0124 z"
       style="fill:#287c00;stroke:#000000;stroke-width:0.2;stroke-linejoin:round" />
    <path
       id="path7230"
       d="m 66.3104,24.9328 h 2.0124 v 4 h -2.0124 z"
       style="fill:#287c00;stroke:#000000;stroke-width:0.2;stroke-linejoin:round" />
    <path
       id="path7228"
       d="m 64.298,24.9328 h 2.0124 v 4 H 64.298 Z"
       style="fill:#287c00;stroke:#000000;stroke-width:0.2;stroke-linejoin:round" />
    <path
       id="path7226"
       d="m 62.2856,24.9328 h 2.0124 v 4 h -2.0124 z"
       style="fill:#287c00;stroke:#000000;stroke-width:0.2;stroke-linejoin:round" />
    <path
       id="path7224"
       d="m 60.2732,24.9328 h 2.0124 v 4 h -2.0124 z"
       style="fill:#287c00;stroke:#000000;stroke-width:0.2;stroke-linejoin:round" />
    <path
       id="path7222"
       d="m 58.2607,24.9328 h 2.0125 v 4 h -2.0125 z"
       style="fill:#287c00;stroke:#000000;stroke-width:0.2;stroke-linejoin:round" />
    <path
       id="path7220"
       d="m 56.2483,24.9328 h 2.0124 v 4 h -2.0124 z"
       style="fill:#287c00;stroke:#000000;stroke-width:0.2;stroke-linejoin:round" />
    <path
       id="path7056"
       d="m 50.7217,28.5639 0.1888,-1.769 3.9907,0.2694 -0.2431,2.2051 z"
       style="fill:#d87408;stroke:#000000;stroke-width:0.2;stroke-linejoin:round" />
    <path
       id="path7058"
       d="M 50.9105,26.7949 51.0025,24.8648 55,25 54.9012,27.0643 Z"
       style="fill:#d87408;stroke:#000000;stroke-width:0.2;stroke-linejoin:round" />
    <path
       id="path7060"
       d="m 51.0025,24.8648 0.0182,-1.9461 3.9998,0.028 L 55,25 Z"
       style="fill:#d87408;stroke:#000000;stroke-width:0.2;stroke-linejoin:round" />
    <path
       id="path7218"
       d="m 54.2359,24.9328 h 2.0124 v 4 h -2.0124 z"
       style="fill:#287c00;stroke:#000000;stroke-width:0.2;stroke-linejoin:round" />
    <path
       id="path7054"
       d="m 50.3312,30.3578 0.3905,-1.7939 3.9364,0.7055 -0.4609,2.1097 z"
       style="fill:#d87408;stroke:#000000;stroke-width:0.2;stroke-linejoin:round" />
    <path
       id="path7216"
       d="m 52.2235,24.9328 h 2.0124 v 4 h -2.0124 z"
       style="fill:#287c00;stroke:#000000;stroke-width:0.2;stroke-linejoin:round" />
    <path
       id="path7214"
       d="m 50.2111,24.9328 h 2.0124 v 4 h -2.0124 z"
       style="fill:#287c00;stroke:#000000;stroke-width:0.2;stroke-linejoin:round" />
    <path
       id="path7212"
       d="m 48.1987,24.9328 h 2.0124 v 4 h -2.0124 z"
       style="fill:#287c00;stroke:#000000;stroke-width:0.2;stroke-linejoin:round" />
    <path
       id="path7210"
       d="m 46.1863,24.9328 h 2.0124 v 4 h -2.0124 z"
       style="fill:#287c00;stroke:#000000;stroke-width:0.2;stroke-linejoin:round" />
    <path
       id="path7208"
       d="m 44.1739,24.9328 h 2.0124 v 4 h -2.0124 z"
       style="fill:#287c00;stroke:#000000;stroke-width:0.2;stroke-linejoin:round" />
    <path
       id="path7206"
       d="m 41.7865,25.079 2.3874,-0.1462 v 4 l -1.6191,0.0688 z"
       style="fill:#287c00;stroke:#000000;stroke-width:0.2;stroke-linejoin:round" />
    <path
       id="path7204"
       d="m 39.0821,26.614 2.7044,-1.535 0.7683,3.9226 -0.7084,0.5019 z"
       style="fill:#287c00;stroke:#000000;stroke-width:0.2;stroke-linejoin:round" />
    <path
       id="path7202"
       d="m 37.5454,28.6163 1.5367,-2.0023 2.7643,2.8895 -0.8866,1.195 z"
       style="fill:#287c00;stroke:#000000;stroke-width:0.2;stroke-linejoin:round" />
    <path
       id="path7200"
       d="m 36.5193,30.5003 1.0261,-1.884 3.4144,2.0822 -0.8941,1.6505 z"
       style="fill:#287c00;stroke:#000000;stroke-width:0.2;stroke-linejoin:round" />
    <path
       id="path7198"
       d="m 35.5892,32.2845 0.9301,-1.7842 3.5464,1.8487 -0.93,1.7842 z"
       style="fill:#287c00;stroke:#000000;stroke-width:0.2;stroke-linejoin:round" />
    <path
       id="path7196"
       d="m 34.7151,33.7403 0.8741,-1.4558 3.5465,1.8487 -1.2048,1.9826 z"
       style="fill:#287c00;stroke:#000000;stroke-width:0.2;stroke-linejoin:round" />
    <path
       id="path7194"
       d="m 33.8484,34.6677 0.8667,-0.9274 3.2158,2.3755 -1.9348,1.924 z"
       style="fill:#287c00;stroke:#000000;stroke-width:0.2;stroke-linejoin:round" />
    <path
       id="path7192"
       d="m 33.0927,34.9343 0.7557,-0.2666 2.1477,3.3721 -3.0336,0.8915 z"
       style="fill:#287c00;stroke:#000000;stroke-width:0.2;stroke-linejoin:round" />
    <path
       id="path7190"
       d="m 31.2338,34.8606 1.8589,0.0737 -0.1302,3.997 -2.1603,-0.0952 z"
       style="fill:#287c00;stroke:#000000;stroke-width:0.2;stroke-linejoin:round" />
    <path
       id="path7188"
       d="m 29.471,34.6341 1.7628,0.2265 -0.4316,3.9755 -2.2239,-0.3034 z"
       style="fill:#287c00;stroke:#000000;stroke-width:0.2;stroke-linejoin:round" />
    <path
       id="path7186"
       d="m 27.8843,34.1715 1.5867,0.4626 -0.8927,3.8986 -2.2644,-0.6832 z"
       style="fill:#287c00;stroke:#000000;stroke-width:0.2;stroke-linejoin:round" />
    <path
       id="path7184"
       d="m 26.6593,33.4751 1.225,0.6964 -1.5704,3.678 -2.2377,-1.3217 z"
       style="fill:#287c00;stroke:#000000;stroke-width:0.2;stroke-linejoin:round" />
    <path
       id="path7182"
       d="m 25.7786,32.4306 0.8807,1.0445 -2.5831,3.0527 -1.70656,-2.0063 z"
       style="fill:#287c00;stroke:#000000;stroke-width:0.2;stroke-linejoin:round" />
    <path
       id="path7180"
       d="m 25.2989,31.0809 0.4797,1.3497 -3.40896,2.0909 -0.93189,-2.4026 z"
       style="fill:#287c00;stroke:#000000;stroke-width:0.2;stroke-linejoin:round" />
    <path
       id="path7178"
       d="m 25.0856,29.5088 0.2133,1.5721 -3.86115,1.038 -0.34671,-2.4075 z"
       style="fill:#287c00;stroke:#000000;stroke-width:0.2;stroke-linejoin:round" />
    <path
       id="path7014"
       d="m 20.02748,24.9328 h 1.99988 v 4 h -1.99988 z"
       style="fill:#d87408;stroke:#000000;stroke-width:0.2;stroke-linejoin:round" />
    <path
       id="path7016"
       d="m 22.02736,24.9328 h 1.99984 v 4 h -1.99984 z"
       style="fill:#d87408;stroke:#000000;stroke-width:0.2;stroke-linejoin:round" />
    <path
       id="path7018"
       d="m 24.0272,24.9328 h 1.9999 v 4 h -1.9999 z"
       style="fill:#d87408;stroke:#000000;stroke-width:0.2;stroke-linejoin:round" />
    <path
       id="path7176"
       d="m 25.0344,27.578 0.0512,1.9308 -3.99456,0.2026 -0.05624,-2.0915 z"
       style="fill:#287c00;stroke:#000000;stroke-width:0.2;stroke-linejoin:round" />
    <path
       id="path7174"
       d="m 25.0415,25.6077 -0.0071,1.9703 -3.9996,0.0419 0.0071,-2.0541 z"
       style="fill:#287c00;stroke:#000000;stroke-width:0.2;stroke-linejoin:round" />
    <path
       id="path7172"
       d="m 25.1412,23.7801 -0.0997,1.8276 -3.99958,-0.0419 0.12023,-2.1885 z"
       style="fill:#287c00;stroke:#000000;stroke-width:0.2;stroke-linejoin:round" />
    <path
       id="path7170"
       d="m 25.4753,22.1283 -0.3341,1.6518 -3.97905,-0.4028 0.45206,-2.287 z"
       style="fill:#287c00;stroke:#000000;stroke-width:0.2;stroke-linejoin:round" />
    <path
       id="path7168"
       d="m 26.0672,20.9957 -0.5919,1.1326 -3.86109,-1.038 1.21481,-2.4411 z"
       style="fill:#287c00;stroke:#000000;stroke-width:0.2;stroke-linejoin:round" />
    <path
       id="path7166"
       d="m 26.9547,20.173 -0.8875,0.8227 -3.23818,-2.3465 2.04948,-1.8941 z"
       style="fill:#287c00;stroke:#000000;stroke-width:0.2;stroke-linejoin:round" />
    <path
       id="path7164"
       d="m 28.4019,19.505 -1.4472,0.668 -2.0762,-3.4179 2.1926,-1.0216 z"
       style="fill:#287c00;stroke:#000000;stroke-width:0.2;stroke-linejoin:round" />
    <path
       id="path7162"
       d="M 30.0425,19.1324 28.4019,19.505 27.0711,15.7335 29.3456,15.194 Z"
       style="fill:#287c00;stroke:#000000;stroke-width:0.2;stroke-linejoin:round" />
    <path
       id="path7160"
       d="M 31.7613,18.9747 30.0425,19.1324 29.3456,15.194 31.631,14.9777 Z"
       style="fill:#287c00;stroke:#000000;stroke-width:0.2;stroke-linejoin:round" />
    <path
       id="path7158"
       d="m 33.7076,18.9328 -1.9463,0.0419 -0.1303,-3.997 2.0766,-0.0449 z"
       style="fill:#287c00;stroke:#000000;stroke-width:0.2;stroke-linejoin:round" />
    <path
       id="path7156"
       d="m 35.72,18.9328 h -2.0124 v -4 H 35.72 Z"
       style="fill:#287c00;stroke:#000000;stroke-width:0.2;stroke-linejoin:round" />
    <path
       id="path7154"
       d="M 37.7324,18.9328 H 35.72 v -4 h 2.0124 z"
       style="fill:#287c00;stroke:#000000;stroke-width:0.2;stroke-linejoin:round" />
    <path
       id="path7152"
       d="m 39.7448,18.9328 h -2.0124 v -4 h 2.0124 z"
       style="fill:#287c00;stroke:#000000;stroke-width:0.2;stroke-linejoin:round" />
    <path
       id="path7150"
       d="m 41.7572,18.9328 h -2.0124 v -4 h 2.0124 z"
       style="fill:#287c00;stroke:#000000;stroke-width:0.2;stroke-linejoin:round" />
    <path
       id="path7148"
       d="m 43.7696,18.9328 h -2.0124 v -4 h 2.0124 z"
       style="fill:#287c00;stroke:#000000;stroke-width:0.2;stroke-linejoin:round" />
    <path
       id="path7146"
       d="m 45.782,18.9328 h -2.0124 v -4 h 2.0124 z"
       style="fill:#287c00;stroke:#000000;stroke-width:0.2;stroke-linejoin:round" />
    <path
       id="path7144"
       d="M 47.7945,18.9328 H 45.782 v -4 h 2.0125 z"
       style="fill:#287c00;stroke:#000000;stroke-width:0.2;stroke-linejoin:round" />
    <path
       id="path7142"
       d="m 49.8069,18.9328 h -2.0124 v -4 h 2.0124 z"
       style="fill:#287c00;stroke:#000000;stroke-width:0.2;stroke-linejoin:round" />
    <path
       id="path7140"
       d="m 51.8193,18.9328 h -2.0124 v -4 h 2.0124 z"
       style="fill:#287c00;stroke:#000000;stroke-width:0.2;stroke-linejoin:round" />
    <path
       id="path7138"
       d="m 53.8317,18.9328 h -2.0124 v -4 h 2.0124 z"
       style="fill:#287c00;stroke:#000000;stroke-width:0.2;stroke-linejoin:round" />
    <path
       id="path7136"
       d="m 55.8441,18.9328 h -2.0124 v -4 h 2.0124 z"
       style="fill:#287c00;stroke:#000000;stroke-width:0.2;stroke-linejoin:round" />
    <path
       id="path7134"
       d="m 57.8565,18.9328 h -2.0124 v -4 h 2.0124 z"
       style="fill:#287c00;stroke:#000000;stroke-width:0.2;stroke-linejoin:round" />
    <path
       id="path7132"
       d="m 59.8689,18.9328 h -2.0124 v -4 h 2.0124 z"
       style="fill:#287c00;stroke:#000000;stroke-width:0.2;stroke-linejoin:round" />
    <path
       id="path7130"
       d="m 61.8813,18.9328 h -2.0124 v -4 h 2.0124 z"
       style="fill:#287c00;stroke:#000000;stroke-width:0.2;stroke-linejoin:round" />
    <path
       id="path7128"
       d="m 64.2687,18.7866 -2.3874,0.1462 v -4 l 1.6191,-0.0688 z"
       style="fill:#287c00;stroke:#000000;stroke-width:0.2;stroke-linejoin:round" />
    <path
       id="path7126"
       d="m 66.9731,17.2516 -2.7044,1.535 -0.7683,-3.9226 0.7084,-0.5019 z"
       style="fill:#287c00;stroke:#000000;stroke-width:0.2;stroke-linejoin:round" />
    <path
       id="path7092"
       d="m 70.0217,11.4321 0.882,1.643 -3.4144,2.0821 -1.0141,-1.8764 z"
       style="fill:#d87408;stroke:#000000;stroke-width:0.2;stroke-linejoin:round" />
    <path
       id="path7094"
       d="m 70.9037,13.0751 0.8557,1.2038 -2.7643,2.8895 -1.5058,-2.0112 z"
       style="fill:#d87408;stroke:#000000;stroke-width:0.2;stroke-linejoin:round" />
    <path
       id="path7124"
       d="m 68.5098,15.2493 -1.5367,2.0023 -2.7643,-2.8895 0.8866,-1.195 z"
       style="fill:#287c00;stroke:#000000;stroke-width:0.2;stroke-linejoin:round" />
    <path
       id="path7088"
       d="m 67.8892,7.6933 1.2082,1.9657 -3.5465,1.8487 -0.8775,-1.4389 z"
       style="fill:#d87408;stroke:#000000;stroke-width:0.2;stroke-linejoin:round" />
    <path
       id="path7090"
       d="m 69.0974,9.659 0.9243,1.7731 -3.5465,1.8487 -0.9243,-1.7731 z"
       style="fill:#d87408;stroke:#000000;stroke-width:0.2;stroke-linejoin:round" />
    <path
       id="path7122"
       d="m 69.5359,13.3653 -1.0261,1.884 -3.4144,-2.0822 0.8941,-1.6505 z"
       style="fill:#287c00;stroke:#000000;stroke-width:0.2;stroke-linejoin:round" />
    <path
       id="path7120"
       d="m 70.466,11.5811 -0.9301,1.7842 -3.5464,-1.8487 0.93,-1.7842 z"
       style="fill:#287c00;stroke:#000000;stroke-width:0.2;stroke-linejoin:round" />
    <path
       id="path7118"
       d="M 71.3401,10.1253 70.466,11.5811 66.9195,9.7324 68.1243,7.7498 Z"
       style="fill:#287c00;stroke:#000000;stroke-width:0.2;stroke-linejoin:round" />
    <path
       id="path7116"
       d="M 72.2068,9.1979 71.3401,10.1253 68.1243,7.7498 70.0591,5.82582 Z"
       style="fill:#287c00;stroke:#000000;stroke-width:0.2;stroke-linejoin:round" />
    <path
       id="path7114"
       d="M 73.1535,8.9275 72.2068,9.1979 70.0591,5.82582 72.9017,4.93814 Z"
       style="fill:#287c00;stroke:#000000;stroke-width:0.2;stroke-linejoin:round" />
    <path
       id="path7112"
       d="m 86.0277,14.9328 h 1.9999 v 4 h -1.9999 z"
       style="fill:#d87408;stroke:#000000;stroke-width:0.2;stroke-linejoin:round" />
    <path
       id="path7110"
       d="m 84.0278,14.9328 h 1.9999 v 4 h -1.9999 z"
       style="fill:#d87408;stroke:#000000;stroke-width:0.2;stroke-linejoin:round" />
    <path
       id="path7108"
       d="m 82.028,14.9328 h 1.9998 v 4 H 82.028 Z"
       style="fill:#d87408;stroke:#000000;stroke-width:0.2;stroke-linejoin:round" />
    <path
       id="path7106"
       d="m 80.0281,14.9328 h 1.9999 v 4 h -1.9999 z"
       style="fill:#d87408;stroke:#000000;stroke-width:0.2;stroke-linejoin:round" />
    <path
       id="path7104"
       d="m 78.0282,14.9328 h 1.9999 v 4 h -1.9999 z"
       style="fill:#d87408;stroke:#000000;stroke-width:0.2;stroke-linejoin:round" />
    <path
       id="path7102"
       d="m 76.0283,14.9328 h 1.9999 v 4 h -1.9999 z"
       style="fill:#d87408;stroke:#000000;stroke-width:0.2;stroke-linejoin:round" />
    <path
       id="path7100"
       d="m 74.0285,14.9328 h 1.9998 v 4 h -1.9998 z"
       style="fill:#d87408;stroke:#000000;stroke-width:0.2;stroke-linejoin:round" />
    <path
       id="path7098"
       d="m 72.6807,14.8916 1.3478,0.0412 v 4 l -2.6214,-0.2522 z"
       style="fill:#d87408;stroke:#000000;stroke-width:0.2;stroke-linejoin:round" />
    <path
       id="path7096"
       d="m 71.7594,14.2789 0.9213,0.6127 -1.2736,3.789 -2.412,-1.5122 z"
       style="fill:#d87408;stroke:#000000;stroke-width:0.2;stroke-linejoin:round" />
    <path
       id="path7086"
       d="M 65.9475,5.79481 67.8892,7.6933 64.6734,10.0688 63.7997,9.1669 Z"
       style="fill:#d87408;stroke:#000000;stroke-width:0.2;stroke-linejoin:round" />
    <path
       id="path7084"
       d="M 62.9345,4.93466 65.9475,5.79481 63.7997,9.1669 63.0302,8.9331 Z"
       style="fill:#d87408;stroke:#000000;stroke-width:0.2;stroke-linejoin:round" />
    <path
       id="path7082"
       d="m 60.7254,5.07346 2.2091,-0.1388 0.0957,3.99844 -1.7798,0.1052 z"
       style="fill:#d87408;stroke:#000000;stroke-width:0.2;stroke-linejoin:round" />
    <path
       id="path7080"
       d="m 58.3815,5.56355 2.3439,-0.49009 0.525,3.96484 -1.5697,0.3074 z"
       style="fill:#d87408;stroke:#000000;stroke-width:0.2;stroke-linejoin:round" />
    <path
       id="path7078"
       d="M 56.1236,6.56664 58.3815,5.56355 59.6807,9.3457 58.2802,9.934 Z"
       style="fill:#d87408;stroke:#000000;stroke-width:0.2;stroke-linejoin:round" />
    <path
       id="path7076"
       d="M 54.188,8.1425 56.1236,6.56664 58.2802,9.934 57.1186,10.8633 Z"
       style="fill:#d87408;stroke:#000000;stroke-width:0.2;stroke-linejoin:round" />
    <path
       id="path7074"
       d="m 52.7109,10.2664 1.4771,-2.1239 2.9306,2.7208 -0.8066,1.1428 z"
       style="fill:#d87408;stroke:#000000;stroke-width:0.2;stroke-linejoin:round" />
    <path
       id="path7072"
       d="m 51.858,12.4865 0.8529,-2.2201 3.6011,1.7397 -0.588,1.5017 z"
       style="fill:#d87408;stroke:#000000;stroke-width:0.2;stroke-linejoin:round" />
    <path
       id="path7070"
       d="m 51.3971,14.5962 0.4609,-2.1097 3.866,1.0213 -0.3905,1.7939 z"
       style="fill:#d87408;stroke:#000000;stroke-width:0.2;stroke-linejoin:round" />
    <path
       id="path7068"
       d="m 51.154,16.8013 0.2431,-2.2051 3.9364,0.7055 -0.1888,1.769 z"
       style="fill:#d87408;stroke:#000000;stroke-width:0.2;stroke-linejoin:round" />
    <path
       id="path7066"
       d="m 51.0552,18.8656 0.0988,-2.0643 3.9907,0.2694 -0.092,1.9301 z"
       style="fill:#d87408;stroke:#000000;stroke-width:0.2;stroke-linejoin:round" />
    <path
       id="path7064"
       d="m 51.0347,20.9189 0.0205,-2.0533 3.9975,0.1352 -0.0182,1.9461 z"
       style="fill:#d87408;stroke:#000000;stroke-width:0.2;stroke-linejoin:round" />
    <path
       id="path7062"
       d="m 51.0207,22.9187 0.014,-1.9998 3.9998,0.028 -0.014,1.9998 z"
       style="fill:#d87408;stroke:#000000;stroke-width:0.2;stroke-linejoin:round" />
    <path
       id="path7052"
       d="m 49.7432,31.8595 0.588,-1.5017 3.866,1.0213 -0.8529,2.2201 z"
       style="fill:#d87408;stroke:#000000;stroke-width:0.2;stroke-linejoin:round" />
    <path
       id="path7050"
       d="m 48.9366,33.0023 0.8066,-1.1428 3.6011,1.7397 -1.4771,2.1239 z"
       style="fill:#d87408;stroke:#000000;stroke-width:0.2;stroke-linejoin:round" />
    <path
       id="path7048"
       d="m 47.775,33.9316 1.1616,-0.9293 2.9306,2.7208 -1.9356,1.5759 z"
       style="fill:#d87408;stroke:#000000;stroke-width:0.2;stroke-linejoin:round" />
    <path
       id="path7046"
       d="m 46.3745,34.5199 1.4005,-0.5883 2.1566,3.3674 -2.2579,1.0031 z"
       style="fill:#d87408;stroke:#000000;stroke-width:0.2;stroke-linejoin:round" />
    <path
       id="path7044"
       d="m 44.8048,34.8273 1.5697,-0.3074 1.2992,3.7822 -2.3439,0.49 z"
       style="fill:#d87408;stroke:#000000;stroke-width:0.2;stroke-linejoin:round" />
    <path
       id="path7042"
       d="m 43.025,34.9325 1.7798,-0.1052 0.525,3.9648 -2.2091,0.1388 z"
       style="fill:#d87408;stroke:#000000;stroke-width:0.2;stroke-linejoin:round" />
    <path
       id="path7040"
       d="m 42.2555,34.6987 0.7695,0.2338 0.0957,3.9984 -3.013,-0.8601 z"
       style="fill:#d87408;stroke:#000000;stroke-width:0.2;stroke-linejoin:round" />
    <path
       id="path7038"
       d="m 41.3818,33.7968 0.8737,0.9019 -2.1478,3.3721 -1.9417,-1.8985 z"
       style="fill:#d87408;stroke:#000000;stroke-width:0.2;stroke-linejoin:round" />
    <path
       id="path7036"
       d="m 40.5043,32.3579 0.8775,1.4389 -3.2158,2.3755 -1.2082,-1.9657 z"
       style="fill:#d87408;stroke:#000000;stroke-width:0.2;stroke-linejoin:round" />
    <path
       id="path7034"
       d="m 39.58,30.5848 0.9243,1.7731 -3.5465,1.8487 -0.9243,-1.7731 z"
       style="fill:#d87408;stroke:#000000;stroke-width:0.2;stroke-linejoin:round" />
    <path
       id="path7032"
       d="m 38.5659,28.7084 1.0141,1.8764 -3.5465,1.8487 -0.882,-1.643 z"
       style="fill:#d87408;stroke:#000000;stroke-width:0.2;stroke-linejoin:round" />
    <path
       id="path7030"
       d="m 37.0601,26.6972 1.5058,2.0112 -3.4144,2.0821 -0.8557,-1.2038 z"
       style="fill:#d87408;stroke:#000000;stroke-width:0.2;stroke-linejoin:round" />
    <path
       id="path7028"
       d="m 34.6481,25.185 2.412,1.5122 -2.7643,2.8895 -0.9213,-0.6127 z"
       style="fill:#d87408;stroke:#000000;stroke-width:0.2;stroke-linejoin:round" />
    <path
       id="path7026"
       d="m 32.0267,24.9328 2.6214,0.2522 -1.2736,3.789 -1.3478,-0.0412 z"
       style="fill:#d87408;stroke:#000000;stroke-width:0.2;stroke-linejoin:round" />
    <path
       id="path7024"
       d="m 30.0269,24.9328 h 1.9998 v 4 h -1.9998 z"
       style="fill:#d87408;stroke:#000000;stroke-width:0.2;stroke-linejoin:round" />
    <path
       id="path7022"
       d="m 28.027,24.9328 h 1.9999 v 4 H 28.027 Z"
       style="fill:#d87408;stroke:#000000;stroke-width:0.2;stroke-linejoin:round" />
    <path
       id="path7020"
       d="m 26.0271,24.9328 h 1.9999 v 4 h -1.9999 z"
       style="fill:#d87408;stroke:#000000;stroke-width:0.2;stroke-linejoin:round" />
    <path
       id="rect6995"
       d="m 18.0276,24.9328 h 1.99988 v 4 H 18.0276 Z"
       style="fill:#d87408;stroke:#000000;stroke-width:0.2;stroke-linejoin:round" />
  </g>
</svg>
