<?xml version="1.0" encoding="UTF-8" standalone="no"?>
<svg
   xmlns:dc="http://purl.org/dc/elements/1.1/"
   xmlns:cc="http://creativecommons.org/ns#"
   xmlns:rdf="http://www.w3.org/1999/02/22-rdf-syntax-ns#"
   xmlns:svg="http://www.w3.org/2000/svg"
   xmlns="http://www.w3.org/2000/svg"
   xmlns:sodipodi="http://sodipodi.sourceforge.net/DTD/sodipodi-0.dtd"
   xmlns:inkscape="http://www.inkscape.org/namespaces/inkscape"
   width="210mm"
   height="297mm"
   viewBox="0 0 210 297"
   version="1.1"
   id="svg8"
   inkscape:version="1.0 (4035a4fb49, 2020-05-01)"
   sodipodi:docname="eight-knot.svg">
  <defs
     id="defs2" />
  <sodipodi:namedview
     id="base"
     pagecolor="#ffffff"
     bordercolor="#666666"
     borderopacity="1.0"
     inkscape:pageopacity="0.0"
     inkscape:pageshadow="2"
     inkscape:zoom="1.979899"
     inkscape:cx="232.70682"
     inkscape:cy="290.50552"
     inkscape:document-units="mm"
     inkscape:current-layer="layer1"
     inkscape:document-rotation="0"
     showgrid="true"
     inkscape:window-width="1648"
     inkscape:window-height="1040"
     inkscape:window-x="100"
     inkscape:window-y="0"
     inkscape:window-maximized="0">
    <inkscape:grid
       type="xygrid"
       id="grid901" />
  </sodipodi:namedview>
  <metadata
     id="metadata5">
    <rdf:RDF>
      <cc:Work
         rdf:about="">
        <dc:format>image/svg+xml</dc:format>
        <dc:type
           rdf:resource="http://purl.org/dc/dcmitype/StillImage" />
        <dc:title />
      </cc:Work>
    </rdf:RDF>
  </metadata>
  <g
     inkscape:label="Слой 1"
     inkscape:groupmode="layer"
     id="layer1">
    <path
       style="fill:#d87408;stroke:#000000;stroke-width:0.2;stroke-linejoin:round"
       d="m 94.7873,89.1929 h 1.9906 v 4 h -1.9906 z"
       id="path1174" />
    <path
       style="fill:#d87408;stroke:#000000;stroke-width:0.2;stroke-linejoin:round"
       d="m 89.5979,94.8342 0.1563,-1.7414 3.9946,0.2026 -0.2102,2.2188 z"
       id="path1044" />
    <path
       style="fill:#d87408;stroke:#000000;stroke-width:0.2;stroke-linejoin:round"
       d="m 89.7542,93.0928 0.0238,-1.9098 3.9996,0.0419 -0.0288,2.0705 z"
       id="path1046" />
    <path
       style="fill:#d87408;stroke:#000000;stroke-width:0.2;stroke-linejoin:round"
       d="m 89.778,91.183 -0.0227,-1.8679 3.9946,-0.2027 0.0277,2.1125 z"
       id="path1048" />
    <path
       style="fill:#d87408;stroke:#000000;stroke-width:0.2;stroke-linejoin:round"
       d="m 89.7553,89.3151 -0.1536,-1.7418 3.9406,-0.68 0.2076,2.2191 z"
       id="path1050" />
    <path
       style="fill:#d87408;stroke:#000000;stroke-width:0.2;stroke-linejoin:round"
       d="m 90.8062,89.1929 h 1.9906 v 4 h -1.9906 z"
       id="path1170" />
    <path
       style="fill:#d87408;stroke:#000000;stroke-width:0.2;stroke-linejoin:round"
       d="m 86.8251,89.1929 h 1.9906 v 4 h -1.9906 z"
       id="path1166" />
    <path
       style="fill:#d87408;stroke:#000000;stroke-width:0.2;stroke-linejoin:round"
       d="m 84.8346,89.1929 h 1.9905 v 4 h -1.9905 z"
       id="path1164" />
    <path
       style="fill:#d87408;stroke:#000000;stroke-width:0.2;stroke-linejoin:round"
       d="m 82.844,89.1929 h 1.9906 v 4 H 82.844 Z"
       id="path1162" />
    <path
       style="fill:#d87408;stroke:#000000;stroke-width:0.2;stroke-linejoin:round"
       d="m 80.8535,89.1929 h 1.9905 v 4 h -1.9905 z"
       id="path1160" />
    <path
       style="fill:#d87408;stroke:#000000;stroke-width:0.2;stroke-linejoin:round"
       d="m 78.8629,89.1929 h 1.9906 v 4 h -1.9906 z"
       id="path1158" />
    <path
       style="fill:#d87408;stroke:#000000;stroke-width:0.2;stroke-linejoin:round"
       d="m 76.8724,89.1929 h 1.9905 v 4 h -1.9905 z"
       id="path1156" />
    <path
       style="fill:#d87408;stroke:#000000;stroke-width:0.2;stroke-linejoin:round"
       d="m 74.8818,89.1929 h 1.9906 v 4 h -1.9906 z"
       id="path1154" />
    <path
       style="fill:#d87408;stroke:#000000;stroke-width:0.2;stroke-linejoin:round"
       d="m 72.8912,89.1929 h 1.9906 v 4 h -1.9906 z"
       id="path1152" />
    <path
       style="fill:#d87408;stroke:#000000;stroke-width:0.2;stroke-linejoin:round"
       d="m 70.9007,89.1929 h 1.9905 v 4 h -1.9905 z"
       id="path1150" />
    <path
       style="fill:#d87408;stroke:#000000;stroke-width:0.2;stroke-linejoin:round"
       d="m 68.9101,89.1929 h 1.9906 v 4 h -1.9906 z"
       id="path1148" />
    <path
       style="fill:#d87408;stroke:#000000;stroke-width:0.2;stroke-linejoin:round"
       d="m 66.9196,89.1929 h 1.9905 v 4 h -1.9905 z"
       id="path1146" />
    <path
       style="fill:#d87408;stroke:#000000;stroke-width:0.2;stroke-linejoin:round"
       d="m 64.929,89.1929 h 1.9906 v 4 H 64.929 Z"
       id="path1144" />
    <path
       style="fill:#d87408;stroke:#000000;stroke-width:0.2;stroke-linejoin:round"
       d="m 62.9385,89.1929 h 1.9905 v 4 h -1.9905 z"
       id="path1142" />
    <path
       style="fill:#d87408;stroke:#000000;stroke-width:0.2;stroke-linejoin:round"
       d="m 60.8822,89.2219 2.0563,-0.029 v 4 l -1.9236,0.026 z"
       id="path1140" />
    <path
       style="fill:#d87408;stroke:#000000;stroke-width:0.2;stroke-linejoin:round"
       d="m 58.7458,89.3803 2.1364,-0.1584 0.1327,3.997 -1.8299,0.136 z"
       id="path1138" />
    <path
       style="fill:#d87408;stroke:#000000;stroke-width:0.2;stroke-linejoin:round"
       d="m 56.4512,89.8144 2.2946,-0.4341 0.4392,3.9746 -1.6124,0.2985 z"
       id="path1136" />
    <path
       style="fill:#d87408;stroke:#000000;stroke-width:0.2;stroke-linejoin:round"
       d="m 54.2412,90.6822 2.21,-0.8678 1.1214,3.839 -1.4887,0.5782 z"
       id="path1134" />
    <path
       style="fill:#d87408;stroke:#000000;stroke-width:0.2;stroke-linejoin:round"
       d="m 52.1653,92.2482 2.0759,-1.566 1.8427,3.5494 -1.0777,0.831 z"
       id="path1132" />
    <path
       style="fill:#d87408;stroke:#000000;stroke-width:0.2;stroke-linejoin:round"
       d="m 50.6833,94.5369 1.482,-2.2887 2.8409,2.8144 -0.6468,1.0494 z"
       id="path1130" />
    <path
       style="fill:#d87408;stroke:#000000;stroke-width:0.2;stroke-linejoin:round"
       d="m 50.0254,96.9009 0.6579,-2.364 3.6761,1.5751 -0.3924,1.4635 z"
       id="path1128" />
    <path
       style="fill:#d87408;stroke:#000000;stroke-width:0.2;stroke-linejoin:round"
       d="m 49.8102,99.117 0.2152,-2.2161 3.9416,0.6746 -0.1621,1.7431 z"
       id="path1126" />
    <path
       style="fill:#d87408;stroke:#000000;stroke-width:0.2;stroke-linejoin:round"
       d="m 48.7685,99.1929 h 1.9905 v 4 h -1.9905 z"
       id="path998" />
    <path
       style="fill:#d87408;stroke:#000000;stroke-width:0.2;stroke-linejoin:round"
       d="m 50.759,99.1929 h 1.9906 v 4 H 50.759 Z"
       id="path1000" />
    <path
       style="fill:#d87408;stroke:#000000;stroke-width:0.2;stroke-linejoin:round"
       d="m 52.7496,99.1929 h 1.9905 v 4 h -1.9905 z"
       id="path1002" />
    <path
       style="fill:#d87408;stroke:#000000;stroke-width:0.2;stroke-linejoin:round"
       d="m 49.779,101.187 0.0312,-2.07 3.9947,0.2016 -0.0264,1.9102 z"
       id="path1124" />
    <path
       style="fill:#d87408;stroke:#000000;stroke-width:0.2;stroke-linejoin:round"
       d="m 49.8027,103.3 -0.0237,-2.113 3.9995,0.0418 0.0187,1.8675 z"
       id="path1122" />
    <path
       style="fill:#d87408;stroke:#000000;stroke-width:0.2;stroke-linejoin:round"
       d="m 50.0051,105.5219 -0.2024,-2.2219 3.9945,-0.2037 0.1476,1.7401 z"
       id="path1120" />
    <path
       style="fill:#d87408;stroke:#000000;stroke-width:0.2;stroke-linejoin:round"
       d="m 50.6542,107.8996 -0.6491,-2.3777 3.9397,-0.6855 0.3725,1.4581 z"
       id="path1118" />
    <path
       style="fill:#d87408;stroke:#000000;stroke-width:0.2;stroke-linejoin:round"
       d="m 52.0357,110.0757 -1.3815,-2.1761 3.6631,-1.6051 0.7425,1.1647 z"
       id="path1116" />
    <path
       style="fill:#d87408;stroke:#000000;stroke-width:0.2;stroke-linejoin:round"
       d="m 54.2336,111.7416 -2.1979,-1.6659 3.0241,-2.6165 0.9715,0.71 z"
       id="path1114" />
    <path
       style="fill:#d87408;stroke:#000000;stroke-width:0.2;stroke-linejoin:round"
       d="m 56.444,112.5881 -2.2104,-0.8465 1.7977,-3.5724 1.4999,0.5701 z"
       id="path1112" />
    <path
       style="fill:#d87408;stroke:#000000;stroke-width:0.2;stroke-linejoin:round"
       d="m 58.7307,113.0102 -2.2867,-0.4221 1.0872,-3.8488 1.6234,0.2945 z"
       id="path1110" />
    <path
       style="fill:#d87408;stroke:#000000;stroke-width:0.2;stroke-linejoin:round"
       d="m 60.8623,113.1643 -2.1316,-0.1541 0.4239,-3.9764 1.8355,0.1333 z"
       id="path1108" />
    <path
       style="fill:#d87408;stroke:#000000;stroke-width:0.2;stroke-linejoin:round"
       d="m 63.0657,113.148 -2.2034,0.0163 0.1278,-3.9972 1.7745,-0.007 z"
       id="path1106" />
    <path
       style="fill:#d87408;stroke:#000000;stroke-width:0.2;stroke-linejoin:round"
       d="m 65.2698,112.8561 -2.2041,0.2919 -0.3011,-3.9882 1.7381,-0.2287 z"
       id="path1104" />
    <path
       style="fill:#d87408;stroke:#000000;stroke-width:0.2;stroke-linejoin:round"
       d="m 67.5707,112.1302 -2.3009,0.7259 -0.7671,-3.925 1.4854,-0.4734 z"
       id="path1102" />
    <path
       style="fill:#d87408;stroke:#000000;stroke-width:0.2;stroke-linejoin:round"
       d="m 69.6917,110.852 -2.121,1.2782 -1.5826,-3.6725 1.2704,-0.779 z"
       id="path1100" />
    <path
       style="fill:#d87408;stroke:#000000;stroke-width:0.2;stroke-linejoin:round"
       d="m 71.4697,108.9104 -1.778,1.9416 -2.4332,-3.1733 0.8883,-0.9933 z"
       id="path1098" />
    <path
       style="fill:#d87408;stroke:#000000;stroke-width:0.2;stroke-linejoin:round"
       d="m 72.5714,106.7914 -1.1017,2.119 -3.3229,-2.225 0.7227,-1.4077 z"
       id="path1096" />
    <path
       style="fill:#d87408;stroke:#000000;stroke-width:0.2;stroke-linejoin:round"
       d="m 73.2386,104.477 -0.6672,2.3144 -3.7019,-1.5137 0.4327,-1.5062 z"
       id="path1094" />
    <path
       style="fill:#d87408;stroke:#000000;stroke-width:0.2;stroke-linejoin:round"
       d="m 73.5557,102.3861 -0.3171,2.0909 -3.9364,-0.7055 0.2803,-1.8425 z"
       id="path1092" />
    <path
       style="fill:#d87408;stroke:#000000;stroke-width:0.2;stroke-linejoin:round"
       d="m 73.7172,100.2409 -0.1615,2.1452 -3.9732,-0.4571 0.1371,-1.8233 z"
       id="path1090" />
    <path
       style="fill:#d87408;stroke:#000000;stroke-width:0.2;stroke-linejoin:round"
       d="m 73.7639,98.1974 -0.0467,2.0435 -3.9976,-0.1352 0.0445,-1.9362 z"
       id="path1088" />
    <path
       style="fill:#d87408;stroke:#000000;stroke-width:0.2;stroke-linejoin:round"
       d="m 73.7778,96.207 -0.0139,1.9904 -3.9998,-0.0279 0.0139,-1.9904 z"
       id="path1086" />
    <path
       style="fill:#d87408;stroke:#000000;stroke-width:0.2;stroke-linejoin:round"
       d="M 73.7917,94.2165 73.7778,96.207 69.778,96.1791 69.7919,94.1886 Z"
       id="path1084" />
    <path
       style="fill:#d87408;stroke:#000000;stroke-width:0.2;stroke-linejoin:round"
       d="m 73.8362,92.2804 -0.0445,1.9361 -3.9998,-0.0279 0.0467,-2.0434 z"
       id="path1082" />
    <path
       style="fill:#d87408;stroke:#000000;stroke-width:0.2;stroke-linejoin:round"
       d="M 73.9733,90.4571 73.8362,92.2804 69.8386,92.1452 70,90 Z"
       id="path1080" />
    <path
       style="fill:#d87408;stroke:#000000;stroke-width:0.2;stroke-linejoin:round"
       d="M 74.2536,88.6146 73.9733,90.4571 70,90 70.3171,87.9091 Z"
       id="path1078" />
    <path
       style="fill:#d87408;stroke:#000000;stroke-width:0.2;stroke-linejoin:round"
       d="m 74.6862,87.1083 -0.4326,1.5063 -3.9365,-0.7055 0.6672,-2.3145 z"
       id="path1076" />
    <path
       style="fill:#d87408;stroke:#000000;stroke-width:0.2;stroke-linejoin:round"
       d="m 75.4089,85.7006 -0.7227,1.4077 -3.7019,-1.5137 1.1017,-2.119 z"
       id="path1074" />
    <path
       style="fill:#d87408;stroke:#000000;stroke-width:0.2;stroke-linejoin:round"
       d="m 76.2971,84.7072 -0.8882,0.9934 -3.3229,-2.225 1.7778,-1.9416 z"
       id="path1072" />
    <path
       style="fill:#d87408;stroke:#000000;stroke-width:0.2;stroke-linejoin:round"
       d="m 77.5675,83.9282 -1.2704,0.779 -2.4333,-3.1732 2.1211,-1.2783 z"
       id="path1070" />
    <path
       style="fill:#d87408;stroke:#000000;stroke-width:0.2;stroke-linejoin:round"
       d="m 79.0528,83.4548 -1.4853,0.4734 -1.5826,-3.6725 2.3009,-0.726 z"
       id="path1068" />
    <path
       style="fill:#d87408;stroke:#000000;stroke-width:0.2;stroke-linejoin:round"
       d="m 80.791,83.226 -1.7382,0.2288 -0.767,-3.9251 2.204,-0.2918 z"
       id="path1066" />
    <path
       style="fill:#d87408;stroke:#000000;stroke-width:0.2;stroke-linejoin:round"
       d="M 82.5642,83.2192 80.791,83.226 80.4898,79.2379 82.6945,79.2221 Z"
       id="path1064" />
    <path
       style="fill:#d87408;stroke:#000000;stroke-width:0.2;stroke-linejoin:round"
       d="m 84.3968,83.3547 -1.8326,-0.1355 0.1303,-3.9971 2.1339,0.1571 z"
       id="path1062" />
    <path
       style="fill:#d87408;stroke:#000000;stroke-width:0.2;stroke-linejoin:round"
       d="m 86.0144,83.6531 -1.6176,-0.2984 0.4316,-3.9755 2.2903,0.4299 z"
       id="path1060" />
    <path
       style="fill:#d87408;stroke:#000000;stroke-width:0.2;stroke-linejoin:round"
       d="m 87.5078,84.2292 -1.4934,-0.5761 1.1043,-3.844 2.2094,0.8592 z"
       id="path1058" />
    <path
       style="fill:#d87408;stroke:#000000;stroke-width:0.2;stroke-linejoin:round"
       d="m 88.5864,85.0613 -1.0786,-0.8321 1.8203,-3.5609 2.0798,1.5591 z"
       id="path1056" />
    <path
       style="fill:#d87408;stroke:#000000;stroke-width:0.2;stroke-linejoin:round"
       d="m 89.2216,86.1117 -0.6352,-1.0504 2.8215,-2.8339 1.4834,2.2944 z"
       id="path1054" />
    <path
       style="fill:#d87408;stroke:#000000;stroke-width:0.2;stroke-linejoin:round"
       d="m 89.6017,87.5733 -0.3801,-1.4616 3.6697,-1.5899 0.651,2.3715 z"
       id="path1052" />
    <path
       style="fill:#d87408;stroke:#000000;stroke-width:0.2;stroke-linejoin:round"
       d="m 92.7968,89.1929 h 1.9905 v 4 h -1.9905 z"
       id="path1172" />
    <path
       style="fill:#d87408;stroke:#000000;stroke-width:0.2;stroke-linejoin:round"
       d="m 88.8157,89.1929 h 1.9905 v 4 h -1.9905 z"
       id="path1168" />
    <path
       style="fill:#d87408;stroke:#000000;stroke-width:0.2;stroke-linejoin:round"
       d="m 89.2129,96.2943 0.385,-1.4601 3.9407,0.68 -0.6561,2.37 z"
       id="path1042" />
    <path
       style="fill:#d87408;stroke:#000000;stroke-width:0.2;stroke-linejoin:round"
       d="m 88.5708,97.3401 0.6421,-1.0458 3.6696,1.5899 -1.4903,2.2897 z"
       id="path1040" />
    <path
       style="fill:#d87408;stroke:#000000;stroke-width:0.2;stroke-linejoin:round"
       d="m 87.4882,98.1667 1.0826,-0.8266 2.8214,2.8338 -2.0837,1.5536 z"
       id="path1038" />
    <path
       style="fill:#d87408;stroke:#000000;stroke-width:0.2;stroke-linejoin:round"
       d="m 85.9932,98.7388 1.495,-0.5721 1.8203,3.5608 -2.211,0.8553 z"
       id="path1036" />
    <path
       style="fill:#d87408;stroke:#000000;stroke-width:0.2;stroke-linejoin:round"
       d="m 84.3749,99.0335 1.6183,-0.2947 1.1043,3.844 -2.291,0.4262 z"
       id="path1034" />
    <path
       style="fill:#d87408;stroke:#000000;stroke-width:0.2;stroke-linejoin:round"
       d="m 82.5421,99.1673 1.8328,-0.1338 0.4316,3.9755 -2.1341,0.1554 z"
       id="path1032" />
    <path
       style="fill:#d87408;stroke:#000000;stroke-width:0.2;stroke-linejoin:round"
       d="m 80.6173,99.1929 1.9248,-0.0256 0.1303,3.9971 -2.0551,0.0285 z"
       id="path1030" />
    <path
       style="fill:#d87408;stroke:#000000;stroke-width:0.2;stroke-linejoin:round"
       d="m 78.6268,99.1929 h 1.9905 v 4 h -1.9905 z"
       id="path1028" />
    <path
       style="fill:#d87408;stroke:#000000;stroke-width:0.2;stroke-linejoin:round"
       d="m 76.6362,99.1929 h 1.9906 v 4 h -1.9906 z"
       id="path1026" />
    <path
       style="fill:#d87408;stroke:#000000;stroke-width:0.2;stroke-linejoin:round"
       d="m 74.6457,99.1929 h 1.9905 v 4 h -1.9905 z"
       id="path1024" />
    <path
       style="fill:#d87408;stroke:#000000;stroke-width:0.2;stroke-linejoin:round"
       d="m 72.6551,99.1929 h 1.9906 v 4 h -1.9906 z"
       id="path1022" />
    <path
       style="fill:#d87408;stroke:#000000;stroke-width:0.2;stroke-linejoin:round"
       d="m 70.6646,99.1929 h 1.9905 v 4 h -1.9905 z"
       id="path1020" />
    <path
       style="fill:#d87408;stroke:#000000;stroke-width:0.2;stroke-linejoin:round"
       d="m 68.674,99.1929 h 1.9906 v 4 H 68.674 Z"
       id="path1018" />
    <path
       style="fill:#d87408;stroke:#000000;stroke-width:0.2;stroke-linejoin:round"
       d="m 66.6834,99.1929 h 1.9906 v 4 h -1.9906 z"
       id="path1016" />
    <path
       style="fill:#d87408;stroke:#000000;stroke-width:0.2;stroke-linejoin:round"
       d="m 64.6929,99.1929 h 1.9905 v 4 h -1.9905 z"
       id="path1014" />
    <path
       style="fill:#d87408;stroke:#000000;stroke-width:0.2;stroke-linejoin:round"
       d="m 62.7023,99.1929 h 1.9906 v 4 h -1.9906 z"
       id="path1012" />
    <path
       style="fill:#d87408;stroke:#000000;stroke-width:0.2;stroke-linejoin:round"
       d="m 60.7118,99.1929 h 1.9905 v 4 h -1.9905 z"
       id="path1010" />
    <path
       style="fill:#d87408;stroke:#000000;stroke-width:0.2;stroke-linejoin:round"
       d="m 58.7212,99.1929 h 1.9906 v 4 h -1.9906 z"
       id="path1008" />
    <path
       style="fill:#d87408;stroke:#000000;stroke-width:0.2;stroke-linejoin:round"
       d="m 56.7307,99.1929 h 1.9905 v 4 h -1.9905 z"
       id="path1006" />
    <path
       style="fill:#d87408;stroke:#000000;stroke-width:0.2;stroke-linejoin:round"
       d="m 54.7401,99.1929 h 1.9906 v 4 h -1.9906 z"
       id="path1004" />
    <path
       style="fill:#d87408;stroke:#000000;stroke-width:0.2;stroke-linejoin:round"
       d="m 46.7779,99.1929 h 1.9906 v 4 h -1.9906 z"
       id="rect918" />
  </g>
</svg>
