<?xml version="1.0" encoding="UTF-8" standalone="no"?>
<svg
   xmlns:dc="http://purl.org/dc/elements/1.1/"
   xmlns:cc="http://creativecommons.org/ns#"
   xmlns:rdf="http://www.w3.org/1999/02/22-rdf-syntax-ns#"
   xmlns:svg="http://www.w3.org/2000/svg"
   xmlns="http://www.w3.org/2000/svg"
   xmlns:sodipodi="http://sodipodi.sourceforge.net/DTD/sodipodi-0.dtd"
   xmlns:inkscape="http://www.inkscape.org/namespaces/inkscape"
   sodipodi:docname="eight-like-1-2.svg"
   inkscape:version="1.0 (4035a4fb49, 2020-05-01)"
   width="210mm"
   height="297mm"
   viewBox="0 0 210 297"
   version="1.1"
   id="svg7276">
  <defs
     id="defs7270" />
  <sodipodi:namedview
     inkscape:window-maximized="0"
     inkscape:window-y="0"
     inkscape:window-x="100"
     inkscape:window-height="1040"
     inkscape:window-width="1648"
     showgrid="true"
     inkscape:document-rotation="0"
     inkscape:current-layer="layer1"
     inkscape:document-units="mm"
     inkscape:cy="255.51149"
     inkscape:cx="176.03927"
     inkscape:zoom="2.8"
     inkscape:pageshadow="2"
     inkscape:pageopacity="0.0"
     borderopacity="1.0"
     bordercolor="#666666"
     pagecolor="#ffffff"
     id="base">
    <inkscape:grid
       id="grid7839"
       type="xygrid" />
  </sodipodi:namedview>
  <metadata
     id="metadata7273">
    <rdf:RDF>
      <cc:Work
         rdf:about="">
        <dc:format>image/svg+xml</dc:format>
        <dc:type
           rdf:resource="http://purl.org/dc/dcmitype/StillImage" />
        <dc:title></dc:title>
      </cc:Work>
    </rdf:RDF>
  </metadata>
  <g
     id="layer1"
     inkscape:groupmode="layer"
     inkscape:label="Слой 1">
    <path
       id="path8176"
       d="m 91.4367,58.4412 h 2.0058 v 4 h -2.0058 z"
       style="fill:#d87408;stroke:#000000;stroke-width:0.2;stroke-linejoin:round" />
    <path
       id="path7996"
       d="m 90.3945,57.9662 0.0439,2.0854 -3.9995,0.0419 -0.039,-1.9246 z"
       style="fill:#d87408;stroke:#000000;stroke-width:0.2;stroke-linejoin:round" />
    <path
       id="path7998"
       d="m 90.4384,60.0516 -0.0133,2.0475 -3.9995,-0.0419 0.0133,-1.9637 z"
       style="fill:#d87408;stroke:#000000;stroke-width:0.2;stroke-linejoin:round" />
    <path
       id="path8000"
       d="m 90.4251,62.0991 -0.1458,2.1805 -3.979,-0.4028 0.1253,-1.8196 z"
       style="fill:#d87408;stroke:#000000;stroke-width:0.2;stroke-linejoin:round" />
    <path
       id="path8174"
       d="m 89.4309,58.4412 h 2.0058 v 4 h -2.0058 z"
       style="fill:#d87408;stroke:#000000;stroke-width:0.2;stroke-linejoin:round" />
    <path
       id="path8172"
       d="m 87.425,58.4412 h 2.0059 v 4 H 87.425 Z"
       style="fill:#d87408;stroke:#000000;stroke-width:0.2;stroke-linejoin:round" />
    <path
       id="path8170"
       d="m 85.4192,58.4412 h 2.0058 v 4 h -2.0058 z"
       style="fill:#d87408;stroke:#000000;stroke-width:0.2;stroke-linejoin:round" />
    <path
       id="path8168"
       d="m 83.4134,58.4412 h 2.0058 v 4 h -2.0058 z"
       style="fill:#d87408;stroke:#000000;stroke-width:0.2;stroke-linejoin:round" />
    <path
       id="path8166"
       d="m 81.4076,58.4412 h 2.0058 v 4 h -2.0058 z"
       style="fill:#d87408;stroke:#000000;stroke-width:0.2;stroke-linejoin:round" />
    <path
       id="path8164"
       d="m 79.4017,58.4412 h 2.0059 v 4 h -2.0059 z"
       style="fill:#d87408;stroke:#000000;stroke-width:0.2;stroke-linejoin:round" />
    <path
       id="path8162"
       d="m 78.0505,58.3849 1.3512,0.0563 v 4 L 76.777,62.1738 Z"
       style="fill:#d87408;stroke:#000000;stroke-width:0.2;stroke-linejoin:round" />
    <path
       id="path8160"
       d="m 77.246,57.861 0.8045,0.5239 -1.2735,3.7889 -2.5127,-1.6477 z"
       style="fill:#d87408;stroke:#000000;stroke-width:0.2;stroke-linejoin:round" />
    <path
       id="path8158"
       d="m 76.2876,56.5327 0.9584,1.3283 -2.9817,2.6651 -1.391,-1.9112 z"
       style="fill:#d87408;stroke:#000000;stroke-width:0.2;stroke-linejoin:round" />
    <path
       id="path8156"
       d="m 75.4064,54.8825 0.8812,1.6502 -3.4143,2.0822 -1.0134,-1.8837 z"
       style="fill:#d87408;stroke:#000000;stroke-width:0.2;stroke-linejoin:round" />
    <path
       id="path8154"
       d="m 74.4793,53.1041 0.9271,1.7784 -3.5465,1.8487 -0.9271,-1.7784 z"
       style="fill:#d87408;stroke:#000000;stroke-width:0.2;stroke-linejoin:round" />
    <path
       id="path8152"
       d="m 73.2582,51.1396 1.2211,1.9645 -3.5465,1.8487 -0.8904,-1.4377 z"
       style="fill:#d87408;stroke:#000000;stroke-width:0.2;stroke-linejoin:round" />
    <path
       id="path8150"
       d="m 71.2922,49.2585 1.966,1.8811 -3.2158,2.3755 -0.8979,-0.8845 z"
       style="fill:#d87408;stroke:#000000;stroke-width:0.2;stroke-linejoin:round" />
    <path
       id="path8148"
       d="m 68.1826,48.455 3.1096,0.8035 -2.1477,3.3721 -0.7101,-0.1863 z"
       style="fill:#d87408;stroke:#000000;stroke-width:0.2;stroke-linejoin:round" />
    <path
       id="path8146"
       d="m 65.3662,49.4028 2.8164,-0.9478 0.2518,3.9893 -0.9204,0.3306 z"
       style="fill:#d87408;stroke:#000000;stroke-width:0.2;stroke-linejoin:round" />
    <path
       id="path8144"
       d="m 63.4672,51.3556 1.899,-1.9528 2.1478,3.3721 -0.831,0.9562 z"
       style="fill:#d87408;stroke:#000000;stroke-width:0.2;stroke-linejoin:round" />
    <path
       id="path7956"
       d="m 63.4382,51.3832 1.1812,1.9897 -3.5465,1.8487 -0.8505,-1.4629 z"
       style="fill:#d87408;stroke:#000000;stroke-width:0.2;stroke-linejoin:round" />
    <path
       id="path7958"
       d="M 64.6194,53.3729 65.5465,55.1513 62,57 61.0729,55.2216 Z"
       style="fill:#d87408;stroke:#000000;stroke-width:0.2;stroke-linejoin:round" />
    <path
       id="path7960"
       d="M 65.5465,55.1513 66.4454,56.7915 63.031,58.8736 62,57 Z"
       style="fill:#d87408;stroke:#000000;stroke-width:0.2;stroke-linejoin:round" />
    <path
       id="path8142"
       d="m 62.2815,53.3424 1.1857,-1.9868 3.2158,2.3755 -0.855,1.46 z"
       style="fill:#d87408;stroke:#000000;stroke-width:0.2;stroke-linejoin:round" />
    <path
       id="path7954"
       d="m 61.7171,49.5442 1.7211,1.839 -3.2158,2.3755 -0.994,-1.0851 z"
       style="fill:#d87408;stroke:#000000;stroke-width:0.2;stroke-linejoin:round" />
    <path
       id="path8140"
       d="m 61.3544,55.1208 0.9271,-1.7784 3.5465,1.8487 -0.9271,1.7784 z"
       style="fill:#d87408;stroke:#000000;stroke-width:0.2;stroke-linejoin:round" />
    <path
       id="path7962"
       d="m 66.4454,56.7915 0.9092,1.1683 -2.7643,2.8895 -1.5593,-1.9757 z"
       style="fill:#d87408;stroke:#000000;stroke-width:0.2;stroke-linejoin:round" />
    <path
       id="path8138"
       d="m 60.4575,56.7621 0.8969,-1.6413 3.5465,1.8487 -1.0291,1.8748 z"
       style="fill:#d87408;stroke:#000000;stroke-width:0.2;stroke-linejoin:round" />
    <path
       id="path8136"
       d="m 59.5552,57.9361 0.9023,-1.174 3.4143,2.0822 -1.5523,1.9812 z"
       style="fill:#d87408;stroke:#000000;stroke-width:0.2;stroke-linejoin:round" />
    <path
       id="path8134"
       d="m 58.8288,58.3893 0.7264,-0.4532 2.7643,2.8894 -2.7225,1.4864 z"
       style="fill:#d87408;stroke:#000000;stroke-width:0.2;stroke-linejoin:round" />
    <path
       id="path8132"
       d="m 57.2145,58.4412 1.6143,-0.0519 0.7682,3.9226 -2.3825,0.1293 z"
       style="fill:#d87408;stroke:#000000;stroke-width:0.2;stroke-linejoin:round" />
    <path
       id="path8130"
       d="m 55.2087,58.4412 h 2.0058 v 4 h -2.0058 z"
       style="fill:#d87408;stroke:#000000;stroke-width:0.2;stroke-linejoin:round" />
    <path
       id="path8128"
       d="m 53.2029,58.4412 h 2.0058 v 4 h -2.0058 z"
       style="fill:#d87408;stroke:#000000;stroke-width:0.2;stroke-linejoin:round" />
    <path
       id="path8126"
       d="m 51.197,58.4412 h 2.0059 v 4 H 51.197 Z"
       style="fill:#d87408;stroke:#000000;stroke-width:0.2;stroke-linejoin:round" />
    <path
       id="path8124"
       d="m 49.1912,58.4412 h 2.0058 v 4 h -2.0058 z"
       style="fill:#d87408;stroke:#000000;stroke-width:0.2;stroke-linejoin:round" />
    <path
       id="path8122"
       d="m 47.1854,58.4412 h 2.0058 v 4 h -2.0058 z"
       style="fill:#d87408;stroke:#000000;stroke-width:0.2;stroke-linejoin:round" />
    <path
       id="path8120"
       d="m 45.1796,58.4412 h 2.0058 v 4 h -2.0058 z"
       style="fill:#d87408;stroke:#000000;stroke-width:0.2;stroke-linejoin:round" />
    <path
       id="path8118"
       d="m 43.1738,58.4412 h 2.0058 v 4 h -2.0058 z"
       style="fill:#d87408;stroke:#000000;stroke-width:0.2;stroke-linejoin:round" />
    <path
       id="path8116"
       d="m 41.1679,58.4412 h 2.0059 v 4 h -2.0059 z"
       style="fill:#d87408;stroke:#000000;stroke-width:0.2;stroke-linejoin:round" />
    <path
       id="path8114"
       d="m 39.1621,58.4412 h 2.0058 v 4 h -2.0058 z"
       style="fill:#d87408;stroke:#000000;stroke-width:0.2;stroke-linejoin:round" />
    <path
       id="path8112"
       d="m 37.1563,58.4412 h 2.0058 v 4 h -2.0058 z"
       style="fill:#d87408;stroke:#000000;stroke-width:0.2;stroke-linejoin:round" />
    <path
       id="path8110"
       d="m 35.1505,58.4412 h 2.0058 v 4 h -2.0058 z"
       style="fill:#d87408;stroke:#000000;stroke-width:0.2;stroke-linejoin:round" />
    <path
       id="path8108"
       d="m 33.1447,58.4412 h 2.0058 v 4 h -2.0058 z"
       style="fill:#d87408;stroke:#000000;stroke-width:0.2;stroke-linejoin:round" />
    <path
       id="path8106"
       d="m 31.1388,58.4412 h 2.0059 v 4 h -2.0059 z"
       style="fill:#d87408;stroke:#000000;stroke-width:0.2;stroke-linejoin:round" />
    <path
       id="path8104"
       d="m 29.133,58.4412 h 2.0058 v 4 H 29.133 Z"
       style="fill:#d87408;stroke:#000000;stroke-width:0.2;stroke-linejoin:round" />
    <path
       id="path8102"
       d="m 27.063,58.4855 2.07,-0.0443 v 4 l -1.9397,0.0414 z"
       style="fill:#d87408;stroke:#000000;stroke-width:0.2;stroke-linejoin:round" />
    <path
       id="path8100"
       d="m 24.7838,58.6983 2.2792,-0.2128 0.1303,3.9971 -1.7126,0.1541 z"
       style="fill:#d87408;stroke:#000000;stroke-width:0.2;stroke-linejoin:round" />
    <path
       id="path8098"
       d="m 22.5145,59.2318 2.2693,-0.5335 0.6969,3.9384 -1.6354,0.3666 z"
       style="fill:#d87408;stroke:#000000;stroke-width:0.2;stroke-linejoin:round" />
    <path
       id="path8096"
       d="m 20.3249,60.2444 2.1896,-1.0126 1.3308,3.7715 -1.4442,0.659 z"
       style="fill:#d87408;stroke:#000000;stroke-width:0.2;stroke-linejoin:round" />
    <path
       id="path8094"
       d="m 18.2694,62.1225 2.0555,-1.8781 2.0762,3.4179 -0.8935,0.8066 z"
       style="fill:#d87408;stroke:#000000;stroke-width:0.2;stroke-linejoin:round" />
    <path
       id="path8092"
       d="m 17.0922,64.3917 1.1772,-2.2692 3.2382,2.3464 -0.6528,1.2787 z"
       style="fill:#d87408;stroke:#000000;stroke-width:0.2;stroke-linejoin:round" />
    <path
       id="path8090"
       d="m 16.5828,66.8294 0.5094,-2.4377 3.7626,1.3559 -0.293,1.4846 z"
       style="fill:#d87408;stroke:#000000;stroke-width:0.2;stroke-linejoin:round" />
    <path
       id="path7882"
       d="m 15.4483,68.4412 h 2.0058 v 4 h -2.0058 z"
       style="fill:#d87408;stroke:#000000;stroke-width:0.2;stroke-linejoin:round" />
    <path
       id="path7884"
       d="M 17.4541,68.4412 H 19.46 v 4 h -2.0059 z"
       style="fill:#d87408;stroke:#000000;stroke-width:0.2;stroke-linejoin:round" />
    <path
       id="path7886"
       d="m 19.46,68.4412 h 2.0058 v 4 H 19.46 Z"
       style="fill:#d87408;stroke:#000000;stroke-width:0.2;stroke-linejoin:round" />
    <path
       id="path8088"
       d="m 16.4575,69.011 0.1253,-2.1816 3.979,0.4028 -0.1048,1.8207 z"
       style="fill:#d87408;stroke:#000000;stroke-width:0.2;stroke-linejoin:round" />
    <path
       id="path8086"
       d="m 16.449,71.0585 0.0085,-2.0475 3.9995,0.0419 -0.0085,1.9637 z"
       style="fill:#d87408;stroke:#000000;stroke-width:0.2;stroke-linejoin:round" />
    <path
       id="path8084"
       d="m 16.5021,73.1436 -0.0531,-2.0851 3.9995,-0.0419 0.0482,1.9243 z"
       style="fill:#d87408;stroke:#000000;stroke-width:0.2;stroke-linejoin:round" />
    <path
       id="path8082"
       d="m 16.8311,75.5473 -0.329,-2.4037 3.9946,-0.2027 0.1956,1.5684 z"
       style="fill:#d87408;stroke:#000000;stroke-width:0.2;stroke-linejoin:round" />
    <path
       id="path8080"
       d="m 17.6696,77.8244 -0.8385,-2.2771 3.8612,-1.038 0.5298,1.4784 z"
       style="fill:#d87408;stroke:#000000;stroke-width:0.2;stroke-linejoin:round" />
    <path
       id="path8078"
       d="m 19.4178,79.9741 -1.7482,-2.1497 3.5525,-1.8367 0.7788,0.9337 z"
       style="fill:#d87408;stroke:#000000;stroke-width:0.2;stroke-linejoin:round" />
    <path
       id="path8076"
       d="m 21.6343,81.3176 -2.2165,-1.3435 2.5831,-3.0527 1.2039,0.7182 z"
       style="fill:#d87408;stroke:#000000;stroke-width:0.2;stroke-linejoin:round" />
    <path
       id="path8074"
       d="m 23.8866,82.0168 -2.2523,-0.6992 1.5705,-3.678 1.5746,0.4785 z"
       style="fill:#d87408;stroke:#000000;stroke-width:0.2;stroke-linejoin:round" />
    <path
       id="path8072"
       d="m 26.102,82.332 -2.2154,-0.3152 0.8928,-3.8987 1.7541,0.2384 z"
       style="fill:#d87408;stroke:#000000;stroke-width:0.2;stroke-linejoin:round" />
    <path
       id="path8070"
       d="m 28.255,82.4358 -2.153,-0.1038 0.4315,-3.9755 1.8518,0.0822 z"
       style="fill:#d87408;stroke:#000000;stroke-width:0.2;stroke-linejoin:round" />
    <path
       id="path8068"
       d="m 31.3023,81.6175 -3.0473,0.8183 0.1303,-3.9971 0.7692,-0.1933 z"
       style="fill:#d87408;stroke:#000000;stroke-width:0.2;stroke-linejoin:round" />
    <path
       id="path8066"
       d="m 33.2653,79.7333 -1.963,1.8842 -2.1478,-3.3721 0.895,-0.8877 z"
       style="fill:#d87408;stroke:#000000;stroke-width:0.2;stroke-linejoin:round" />
    <path
       id="path8064"
       d="m 34.4848,77.7677 -1.2195,1.9656 -3.2158,-2.3756 0.8888,-1.4387 z"
       style="fill:#d87408;stroke:#000000;stroke-width:0.2;stroke-linejoin:round" />
    <path
       id="path8062"
       d="m 35.4119,75.9893 -0.9271,1.7784 -3.5465,-1.8487 0.9271,-1.7784 z"
       style="fill:#d87408;stroke:#000000;stroke-width:0.2;stroke-linejoin:round" />
    <path
       id="path8060"
       d="m 36.2938,74.3395 -0.8819,1.6498 -3.5465,-1.8487 1.0141,-1.8833 z"
       style="fill:#d87408;stroke:#000000;stroke-width:0.2;stroke-linejoin:round" />
    <path
       id="path8058"
       d="m 37.2539,73.0125 -0.9601,1.327 -3.4143,-2.0822 1.3928,-1.9099 z"
       style="fill:#d87408;stroke:#000000;stroke-width:0.2;stroke-linejoin:round" />
    <path
       id="path8056"
       d="m 38.0618,72.4937 -0.8079,0.5188 -2.9816,-2.6651 2.516,-1.6426 z"
       style="fill:#d87408;stroke:#000000;stroke-width:0.2;stroke-linejoin:round" />
    <path
       id="path8054"
       d="m 39.4137,72.4412 -1.3519,0.0525 -1.2735,-3.7889 2.6254,-0.2636 z"
       style="fill:#d87408;stroke:#000000;stroke-width:0.2;stroke-linejoin:round" />
    <path
       id="path8052"
       d="m 41.4195,72.4412 h -2.0058 v -4 h 2.0058 z"
       style="fill:#d87408;stroke:#000000;stroke-width:0.2;stroke-linejoin:round" />
    <path
       id="path8050"
       d="m 43.4253,72.4412 h -2.0058 v -4 h 2.0058 z"
       style="fill:#d87408;stroke:#000000;stroke-width:0.2;stroke-linejoin:round" />
    <path
       id="path8048"
       d="m 45.4311,72.4412 h -2.0058 v -4 h 2.0058 z"
       style="fill:#d87408;stroke:#000000;stroke-width:0.2;stroke-linejoin:round" />
    <path
       id="path7922"
       d="m 45.7779,73.7456 0.3817,-1.802 3.9365,0.7055 -0.4522,2.1178 z"
       style="fill:#d87408;stroke:#000000;stroke-width:0.2;stroke-linejoin:round" />
    <path
       id="path7924"
       d="m 46.1596,71.9436 0.175,-1.7766 3.9907,0.2693 -0.2292,2.2128 z"
       style="fill:#d87408;stroke:#000000;stroke-width:0.2;stroke-linejoin:round" />
    <path
       id="path7926"
       d="m 46.3346,70.167 0.0876,-1.9364 3.9976,0.1352 -0.0945,2.0705 z"
       style="fill:#d87408;stroke:#000000;stroke-width:0.2;stroke-linejoin:round" />
    <path
       id="path8046"
       d="m 47.437,72.4412 h -2.0059 v -4 h 2.0059 z"
       style="fill:#d87408;stroke:#000000;stroke-width:0.2;stroke-linejoin:round" />
    <path
       id="path8044"
       d="M 49.4428,72.4412 H 47.437 v -4 h 2.0058 z"
       style="fill:#d87408;stroke:#000000;stroke-width:0.2;stroke-linejoin:round" />
    <path
       id="path7928"
       d="m 46.4222,68.2306 0.0145,-1.952 3.9998,0.0279 -0.0167,2.0593 z"
       style="fill:#d87408;stroke:#000000;stroke-width:0.2;stroke-linejoin:round" />
    <path
       id="path8042"
       d="m 51.4486,72.4412 h -2.0058 v -4 h 2.0058 z"
       style="fill:#d87408;stroke:#000000;stroke-width:0.2;stroke-linejoin:round" />
    <path
       id="path8040"
       d="m 53.4544,72.4412 h -2.0058 v -4 h 2.0058 z"
       style="fill:#d87408;stroke:#000000;stroke-width:0.2;stroke-linejoin:round" />
    <path
       id="path8038"
       d="m 55.4602,72.4412 h -2.0058 v -4 h 2.0058 z"
       style="fill:#d87408;stroke:#000000;stroke-width:0.2;stroke-linejoin:round" />
    <path
       id="path8036"
       d="m 57.4661,72.4412 h -2.0059 v -4 h 2.0059 z"
       style="fill:#d87408;stroke:#000000;stroke-width:0.2;stroke-linejoin:round" />
    <path
       id="path8034"
       d="m 59.4719,72.4412 h -2.0058 v -4 h 2.0058 z"
       style="fill:#d87408;stroke:#000000;stroke-width:0.2;stroke-linejoin:round" />
    <path
       id="path8032"
       d="m 61.4777,72.4412 h -2.0058 v -4 h 2.0058 z"
       style="fill:#d87408;stroke:#000000;stroke-width:0.2;stroke-linejoin:round" />
    <path
       id="path8030"
       d="m 63.4835,72.4412 h -2.0058 v -4 h 2.0058 z"
       style="fill:#d87408;stroke:#000000;stroke-width:0.2;stroke-linejoin:round" />
    <path
       id="path8028"
       d="m 65.4894,72.4412 h -2.0059 v -4 h 2.0059 z"
       style="fill:#d87408;stroke:#000000;stroke-width:0.2;stroke-linejoin:round" />
    <path
       id="path8026"
       d="m 67.4952,72.4412 h -2.0058 v -4 h 2.0058 z"
       style="fill:#d87408;stroke:#000000;stroke-width:0.2;stroke-linejoin:round" />
    <path
       id="path8024"
       d="m 69.501,72.4412 h -2.0058 v -4 h 2.0058 z"
       style="fill:#d87408;stroke:#000000;stroke-width:0.2;stroke-linejoin:round" />
    <path
       id="path8022"
       d="M 71.5068,72.4412 H 69.501 v -4 h 2.0058 z"
       style="fill:#d87408;stroke:#000000;stroke-width:0.2;stroke-linejoin:round" />
    <path
       id="path8020"
       d="m 73.5126,72.4412 h -2.0058 v -4 h 2.0058 z"
       style="fill:#d87408;stroke:#000000;stroke-width:0.2;stroke-linejoin:round" />
    <path
       id="path8018"
       d="m 75.5185,72.4412 h -2.0059 v -4 h 2.0059 z"
       style="fill:#d87408;stroke:#000000;stroke-width:0.2;stroke-linejoin:round" />
    <path
       id="path8016"
       d="m 77.5243,72.4412 h -2.0058 v -4 h 2.0058 z"
       style="fill:#d87408;stroke:#000000;stroke-width:0.2;stroke-linejoin:round" />
    <path
       id="path8014"
       d="m 79.5945,72.4043 -2.0702,0.0369 v -4 l 1.9399,-0.034 z"
       style="fill:#d87408;stroke:#000000;stroke-width:0.2;stroke-linejoin:round" />
    <path
       id="path8012"
       d="m 81.7423,72.2279 -2.1478,0.1764 -0.1303,-3.9971 1.8465,-0.1548 z"
       style="fill:#d87408;stroke:#000000;stroke-width:0.2;stroke-linejoin:round" />
    <path
       id="path8010"
       d="m 84.039,71.7516 -2.2967,0.4763 -0.4316,-3.9755 1.624,-0.3448 z"
       style="fill:#d87408;stroke:#000000;stroke-width:0.2;stroke-linejoin:round" />
    <path
       id="path8008"
       d="m 86.3655,70.7562 -2.3265,0.9954 -1.1043,-3.844 1.3547,-0.5693 z"
       style="fill:#d87408;stroke:#000000;stroke-width:0.2;stroke-linejoin:round" />
    <path
       id="path8006"
       d="m 88.3751,69.0625 -2.0096,1.6937 -2.0761,-3.4179 1.0443,-0.8722 z"
       style="fill:#d87408;stroke:#000000;stroke-width:0.2;stroke-linejoin:round" />
    <path
       id="path8004"
       d="M 89.7156,66.7048 88.3751,69.0625 85.3337,66.4661 85.953,65.349 Z"
       style="fill:#d87408;stroke:#000000;stroke-width:0.2;stroke-linejoin:round" />
    <path
       id="path8002"
       d="M 90.2793,64.2796 89.7156,66.7048 85.953,65.349 86.3003,63.8768 Z"
       style="fill:#d87408;stroke:#000000;stroke-width:0.2;stroke-linejoin:round" />
    <path
       id="path7994"
       d="m 90.1372,55.7374 0.2573,2.2288 -3.9946,0.2027 -0.2034,-1.7515 z"
       style="fill:#d87408;stroke:#000000;stroke-width:0.2;stroke-linejoin:round" />
    <path
       id="path7992"
       d="m 89.3199,53.2603 0.8173,2.4771 -3.9407,0.68 -0.4291,-1.3205 z"
       style="fill:#d87408;stroke:#000000;stroke-width:0.2;stroke-linejoin:round" />
    <path
       id="path7990"
       d="m 87.7602,51.1648 1.5597,2.0955 -3.5525,1.8366 -0.8287,-1.0983 z"
       style="fill:#d87408;stroke:#000000;stroke-width:0.2;stroke-linejoin:round" />
    <path
       id="path7988"
       d="m 85.4601,49.6542 2.3001,1.5106 -2.8215,2.8338 -1.0491,-0.6664 z"
       style="fill:#d87408;stroke:#000000;stroke-width:0.2;stroke-linejoin:round" />
    <path
       id="path7986"
       d="m 83.2203,48.9165 2.2398,0.7377 -1.5705,3.678 -1.5621,-0.5171 z"
       style="fill:#d87408;stroke:#000000;stroke-width:0.2;stroke-linejoin:round" />
    <path
       id="path7984"
       d="m 81.0093,48.575 2.211,0.3415 -0.8928,3.8986 -1.7497,-0.2646 z"
       style="fill:#d87408;stroke:#000000;stroke-width:0.2;stroke-linejoin:round" />
    <path
       id="path7982"
       d="m 78.8575,48.4541 2.1518,0.1209 -0.4315,3.9755 -1.8505,-0.0993 z"
       style="fill:#d87408;stroke:#000000;stroke-width:0.2;stroke-linejoin:round" />
    <path
       id="path7980"
       d="m 75.9831,49.0372 2.8744,-0.5831 -0.1302,3.9971 -1.0043,0.185 z"
       style="fill:#d87408;stroke:#000000;stroke-width:0.2;stroke-linejoin:round" />
    <path
       id="path7978"
       d="m 73.755,50.9661 2.2281,-1.9289 1.7399,3.599 -0.7523,0.7054 z"
       style="fill:#d87408;stroke:#000000;stroke-width:0.2;stroke-linejoin:round" />
    <path
       id="path7976"
       d="m 72.5054,52.9128 1.2496,-1.9467 3.2157,2.3755 -0.9188,1.4199 z"
       style="fill:#d87408;stroke:#000000;stroke-width:0.2;stroke-linejoin:round" />
    <path
       id="path7974"
       d="m 71.5784,54.6912 0.927,-1.7784 3.5465,1.8487 -0.927,1.7784 z"
       style="fill:#d87408;stroke:#000000;stroke-width:0.2;stroke-linejoin:round" />
    <path
       id="path7972"
       d="m 70.7097,56.3485 0.8687,-1.6573 3.5465,1.8487 -1.0008,1.8908 z"
       style="fill:#d87408;stroke:#000000;stroke-width:0.2;stroke-linejoin:round" />
    <path
       id="path7970"
       d="m 69.7828,57.7001 0.9269,-1.3516 3.4144,2.0822 -1.3596,1.9345 z"
       style="fill:#d87408;stroke:#000000;stroke-width:0.2;stroke-linejoin:round" />
    <path
       id="path7968"
       d="m 69.0389,58.3162 0.7439,-0.6161 2.9817,2.6651 -2.4521,1.7399 z"
       style="fill:#d87408;stroke:#000000;stroke-width:0.2;stroke-linejoin:round" />
    <path
       id="path7966"
       d="m 68.09,58.3959 0.9489,-0.0797 1.2735,3.7889 -2.9907,0.2134 z"
       style="fill:#d87408;stroke:#000000;stroke-width:0.2;stroke-linejoin:round" />
    <path
       id="path7964"
       d="m 67.3546,57.9598 0.7354,0.4361 -0.7683,3.9226 -2.7314,-1.4692 z"
       style="fill:#d87408;stroke:#000000;stroke-width:0.2;stroke-linejoin:round" />
    <path
       id="path7952"
       d="m 58.7367,48.4572 2.9804,1.087 -2.4887,3.1294 -0.7435,-0.2271 z"
       style="fill:#d87408;stroke:#000000;stroke-width:0.2;stroke-linejoin:round" />
    <path
       id="path7950"
       d="m 56.3464,48.5546 2.3903,-0.0974 -0.2518,3.9893 -1.6134,0.0729 z"
       style="fill:#d87408;stroke:#000000;stroke-width:0.2;stroke-linejoin:round" />
    <path
       id="path7948"
       d="m 54.1282,48.9783 2.2182,-0.4237 0.5251,3.9648 -1.7173,0.3243 z"
       style="fill:#d87408;stroke:#000000;stroke-width:0.2;stroke-linejoin:round" />
    <path
       id="path7946"
       d="m 51.8525,49.8961 2.2757,-0.9178 1.026,3.8654 -1.431,0.5867 z"
       style="fill:#d87408;stroke:#000000;stroke-width:0.2;stroke-linejoin:round" />
    <path
       id="path7944"
       d="m 49.7322,51.5116 2.1203,-1.6155 1.8707,3.5343 -1.0604,0.8019 z"
       style="fill:#d87408;stroke:#000000;stroke-width:0.2;stroke-linejoin:round" />
    <path
       id="path7942"
       d="m 48.2775,53.4944 1.4547,-1.9828 2.9306,2.7207 -0.9096,1.2402 z"
       style="fill:#d87408;stroke:#000000;stroke-width:0.2;stroke-linejoin:round" />
    <path
       id="path7940"
       d="m 47.3184,55.8226 0.9591,-2.3282 3.4757,1.9781 -0.5688,1.3714 z"
       style="fill:#d87408;stroke:#000000;stroke-width:0.2;stroke-linejoin:round" />
    <path
       id="path7938"
       d="m 46.8424,57.935 0.476,-2.1124 3.866,1.0213 -0.4056,1.7966 z"
       style="fill:#d87408;stroke:#000000;stroke-width:0.2;stroke-linejoin:round" />
    <path
       id="path7936"
       d="m 46.5801,60.1437 0.2623,-2.2087 3.9364,0.7055 -0.208,1.7725 z"
       style="fill:#d87408;stroke:#000000;stroke-width:0.2;stroke-linejoin:round" />
    <path
       id="path7934"
       d="m 46.4755,62.2137 0.1046,-2.07 3.9907,0.2693 -0.0977,1.9359 z"
       style="fill:#d87408;stroke:#000000;stroke-width:0.2;stroke-linejoin:round" />
    <path
       id="path7932"
       d="m 46.4507,64.2728 0.0248,-2.0591 3.9976,0.1352 -0.0226,1.9519 z"
       style="fill:#d87408;stroke:#000000;stroke-width:0.2;stroke-linejoin:round" />
    <path
       id="path7930"
       d="m 46.4367,66.2786 0.014,-2.0058 3.9998,0.028 -0.014,2.0057 z"
       style="fill:#d87408;stroke:#000000;stroke-width:0.2;stroke-linejoin:round" />
    <path
       id="path7920"
       d="m 45.2098,75.2609 0.5681,-1.5153 3.866,1.0213 -0.833,2.2336 z"
       style="fill:#d87408;stroke:#000000;stroke-width:0.2;stroke-linejoin:round" />
    <path
       id="path7918"
       d="m 44.4283,76.428 0.7815,-1.1671 3.6011,1.7396 -1.452,2.1483 z"
       style="fill:#d87408;stroke:#000000;stroke-width:0.2;stroke-linejoin:round" />
    <path
       id="path7916"
       d="m 43.2799,77.3823 1.1484,-0.9543 2.9306,2.7208 -1.9223,1.6009 z"
       style="fill:#d87408;stroke:#000000;stroke-width:0.2;stroke-linejoin:round" />
    <path
       id="path7914"
       d="m 41.885,77.9955 1.3949,-0.6132 2.1567,3.3674 -2.2525,1.0279 z"
       style="fill:#d87408;stroke:#000000;stroke-width:0.2;stroke-linejoin:round" />
    <path
       id="path7912"
       d="m 40.314,78.3232 1.571,-0.3277 1.2991,3.7821 -2.3451,0.5105 z"
       style="fill:#d87408;stroke:#000000;stroke-width:0.2;stroke-linejoin:round" />
    <path
       id="path7910"
       d="m 38.529,78.4388 1.785,-0.1156 0.525,3.9649 -2.2143,0.1491 z"
       style="fill:#d87408;stroke:#000000;stroke-width:0.2;stroke-linejoin:round" />
    <path
       id="path7908"
       d="m 37.7405,78.2518 0.7885,0.187 0.0957,3.9984 -3.0319,-0.8133 z"
       style="fill:#d87408;stroke:#000000;stroke-width:0.2;stroke-linejoin:round" />
    <path
       id="path7906"
       d="m 36.8426,77.3673 0.8979,0.8845 -2.1477,3.3721 -1.966,-1.8811 z"
       style="fill:#d87408;stroke:#000000;stroke-width:0.2;stroke-linejoin:round" />
    <path
       id="path7904"
       d="m 35.9522,75.9296 0.8904,1.4377 -3.2158,2.3755 -1.2211,-1.9645 z"
       style="fill:#d87408;stroke:#000000;stroke-width:0.2;stroke-linejoin:round" />
    <path
       id="path7902"
       d="m 35.0251,74.1512 0.9271,1.7784 -3.5465,1.8487 -0.9271,-1.7784 z"
       style="fill:#d87408;stroke:#000000;stroke-width:0.2;stroke-linejoin:round" />
    <path
       id="path7900"
       d="m 34.0117,72.2675 1.0134,1.8837 -3.5465,1.8487 -0.8812,-1.6502 z"
       style="fill:#d87408;stroke:#000000;stroke-width:0.2;stroke-linejoin:round" />
    <path
       id="path7898"
       d="m 32.6207,70.3563 1.391,1.9112 -3.4143,2.0822 -0.9584,-1.3283 z"
       style="fill:#d87408;stroke:#000000;stroke-width:0.2;stroke-linejoin:round" />
    <path
       id="path7896"
       d="m 30.108,68.7086 2.5127,1.6477 -2.9817,2.6651 -0.8045,-0.5239 z"
       style="fill:#d87408;stroke:#000000;stroke-width:0.2;stroke-linejoin:round" />
    <path
       id="path7894"
       d="m 27.4833,68.4412 2.6247,0.2674 -1.2735,3.7889 -1.3512,-0.0563 z"
       style="fill:#d87408;stroke:#000000;stroke-width:0.2;stroke-linejoin:round" />
    <path
       id="path7892"
       d="m 25.4774,68.4412 h 2.0059 v 4 h -2.0059 z"
       style="fill:#d87408;stroke:#000000;stroke-width:0.2;stroke-linejoin:round" />
    <path
       id="path7890"
       d="m 23.4716,68.4412 h 2.0058 v 4 h -2.0058 z"
       style="fill:#d87408;stroke:#000000;stroke-width:0.2;stroke-linejoin:round" />
    <path
       id="path7888"
       d="m 21.4658,68.4412 h 2.0058 v 4 h -2.0058 z"
       style="fill:#d87408;stroke:#000000;stroke-width:0.2;stroke-linejoin:round" />
    <path
       id="rect7867"
       d="m 13.4425,68.4412 h 2.0058 v 4 h -2.0058 z"
       style="fill:#d87408;stroke:#000000;stroke-width:0.2;stroke-linejoin:round" />
  </g>
</svg>
