<?xml version="1.0" encoding="UTF-8" standalone="no"?>
<svg
   xmlns:dc="http://purl.org/dc/elements/1.1/"
   xmlns:cc="http://creativecommons.org/ns#"
   xmlns:rdf="http://www.w3.org/1999/02/22-rdf-syntax-ns#"
   xmlns:svg="http://www.w3.org/2000/svg"
   xmlns="http://www.w3.org/2000/svg"
   xmlns:sodipodi="http://sodipodi.sourceforge.net/DTD/sodipodi-0.dtd"
   xmlns:inkscape="http://www.inkscape.org/namespaces/inkscape"
   sodipodi:docname="eight-like-1-3.svg"
   inkscape:version="1.0 (4035a4fb49, 2020-05-01)"
   id="svg8184"
   version="1.1"
   viewBox="0 0 210 297"
   height="297mm"
   width="210mm">
  <defs
     id="defs8178" />
  <sodipodi:namedview
     inkscape:window-maximized="0"
     inkscape:window-y="85"
     inkscape:window-x="193"
     inkscape:window-height="1040"
     inkscape:window-width="1648"
     showgrid="true"
     inkscape:document-rotation="0"
     inkscape:current-layer="layer1"
     inkscape:document-units="mm"
     inkscape:cy="159.75338"
     inkscape:cx="269.49576"
     inkscape:zoom="2.8"
     inkscape:pageshadow="2"
     inkscape:pageopacity="0.0"
     borderopacity="1.0"
     bordercolor="#666666"
     pagecolor="#ffffff"
     id="base">
    <inkscape:grid
       id="grid8747"
       type="xygrid" />
  </sodipodi:namedview>
  <metadata
     id="metadata8181">
    <rdf:RDF>
      <cc:Work
         rdf:about="">
        <dc:format>image/svg+xml</dc:format>
        <dc:type
           rdf:resource="http://purl.org/dc/dcmitype/StillImage" />
        <dc:title></dc:title>
      </cc:Work>
    </rdf:RDF>
  </metadata>
  <g
     id="layer1"
     inkscape:groupmode="layer"
     inkscape:label="Слой 1">
    <path
       id="path9001"
       d="m 97.9929,39.3234 -0.0523,-1.9268 3.9944,-0.2027 0.057,2.0876 z"
       style="fill:#287c00;stroke:#000000;stroke-width:0.2;stroke-linejoin:round" />
    <path
       id="path8925"
       d="m 32.5877,55.3017 0.9282,-1.7808 3.5465,1.8487 -0.9282,1.7808 z"
       style="fill:#287c00;stroke:#000000;stroke-width:0.2;stroke-linejoin:round" />
    <path
       id="path8927"
       d="m 33.5159,53.5209 1.0273,-1.8789 3.4143,2.0822 -0.8951,1.6454 z"
       style="fill:#287c00;stroke:#000000;stroke-width:0.2;stroke-linejoin:round" />
    <path
       id="path8923"
       d="m 31.7234,56.759 0.8643,-1.4573 3.5465,1.8487 -1.195,1.9841 z"
       style="fill:#287c00;stroke:#000000;stroke-width:0.2;stroke-linejoin:round" />
    <path
       id="path8929"
       d="m 34.5432,51.642 1.5436,-1.9917 2.7643,2.8895 -0.8936,1.1844 z"
       style="fill:#287c00;stroke:#000000;stroke-width:0.2;stroke-linejoin:round" />
    <path
       id="path8863"
       d="m 52.6383,42 h -2.0084 v -4 h 2.0084 z"
       style="fill:#287c00;stroke:#000000;stroke-width:0.2;stroke-linejoin:round" />
    <path
       id="path8865"
       d="m 50.6299,42 h -2.0085 v -4 h 2.0085 z"
       style="fill:#287c00;stroke:#000000;stroke-width:0.2;stroke-linejoin:round" />
    <path
       id="path8867"
       d="m 48.6214,42 h -2.0085 v -4 h 2.0085 z"
       style="fill:#287c00;stroke:#000000;stroke-width:0.2;stroke-linejoin:round" />
    <path
       id="path8829"
       d="m 75.7745,40.032 -1.3821,-1.9212 3.4144,-2.0821 0.9494,1.3382 z"
       style="fill:#287c00;stroke:#000000;stroke-width:0.2;stroke-linejoin:round" />
    <path
       id="path8833"
       d="m 73.3821,36.2224 -0.9283,-1.7808 3.5465,-1.8487 0.9283,1.7808 z"
       style="fill:#287c00;stroke:#000000;stroke-width:0.2;stroke-linejoin:round" />
    <path
       id="path8831"
       d="m 74.3924,38.1108 -1.0103,-1.8884 3.5465,-1.8487 0.8782,1.655 z"
       style="fill:#287c00;stroke:#000000;stroke-width:0.2;stroke-linejoin:round" />
    <path
       id="path8835"
       d="m 72.4538,34.4416 -0.9024,-1.4334 3.2158,-2.3755 1.2331,1.9602 z"
       style="fill:#287c00;stroke:#000000;stroke-width:0.2;stroke-linejoin:round" />
    <path
       id="path8997"
       d="m 97.8903,43.1137 0.0962,-1.8239 3.9995,0.0419 -0.117,2.1848 z"
       style="fill:#287c00;stroke:#000000;stroke-width:0.2;stroke-linejoin:round" />
    <path
       id="path8999"
       d="m 97.9865,41.2898 0.0064,-1.9664 3.9991,-0.0419 -0.006,2.0502 z"
       style="fill:#287c00;stroke:#000000;stroke-width:0.2;stroke-linejoin:round" />
    <path
       id="path9015"
       d="m 91.7899,32.0718 -1.664,-0.0771 -0.2518,-3.9894 2.3474,0.091 z"
       style="fill:#287c00;stroke:#000000;stroke-width:0.2;stroke-linejoin:round" />
    <path
       d="M 15 48 L 16.9985 48 L 16.9985 52 L 15 52 Z M 16.9985 48 L 18.997 48 L 18.997 52 L 16.9985 52 Z M 18.997 48 L 20.9954 48 L 20.9954 52 L 18.997 52 Z M 20.9954 48 L 22.9939 48 L 22.9939 52 L 20.9954 52 Z M 22.9939 48 L 24.9924 48 L 24.9924 52 L 22.9939 52 Z M 24.9924 48 L 26.9909 48 L 26.9909 52 L 24.9924 52 Z M 26.9909 48 L 28.9894 48 L 28.9894 52 L 26.9909 52 Z M 28.9894 48 L 31.6099 48.2487 L 30.3363 52.0376 L 28.9894 52 Z M 31.6099 48.2487 L 34.0234 49.7557 L 31.2591 52.6452 L 30.3363 52.0376 Z M 34.0234 49.7557 L 35.531 51.7636 L 32.1167 53.8458 L 31.2591 52.6452 Z M 35.531 51.7636 L 36.5453 53.6384 L 32.9988 55.4871 L 32.1167 53.8458 Z M 36.5453 53.6384 L 37.4689 55.4103 L 33.9225 57.259 L 32.9988 55.4871 Z M 37.4689 55.4103 L 38.3434 56.8494 L 35.1276 59.2249 L 33.9225 57.259 Z M 38.3434 56.8494 L 39.2114 57.7554 L 37.0637 61.1275 L 35.1276 59.2249 Z M 39.2114 57.7554 L 39.9764 58.0002 L 40.0721 61.9986 L 37.0637 61.1275 Z M 39.9764 58.0002 L 41.7551 57.8975 L 42.2801 61.8623 L 40.0721 61.9986 Z M 41.7551 57.8975 L 43.4606 57.5518 L 44.4866 61.4172 L 42.2801 61.8623 Z M 43.4606 57.5518 L 44.7262 57.0123 L 46.8829 60.3797 L 44.4866 61.4172 Z M 44.7262 57.0123 L 45.891 56.089 L 48.8216 58.8098 L 46.8829 60.3797 Z M 45.891 56.089 L 46.7034 54.9519 L 50.3046 56.6915 L 48.8216 58.8098 Z M 46.7034 54.9519 L 47.2961 53.4534 L 51.1621 54.4747 L 50.3046 56.6915 Z M 47.2961 53.4534 L 47.6887 51.6614 L 51.6251 52.3669 L 51.1621 54.4747 Z M 47.6887 51.6614 L 47.8807 49.8942 L 51.8714 50.1635 L 51.6251 52.3669 Z M 47.8807 49.8942 L 47.9737 47.9655 L 51.9713 48.1007 L 51.8714 50.1635 Z M 47.9737 47.9655 L 47.9929 46.0209 L 51.9927 46.0488 L 51.9713 48.1007 Z M 47.9929 46.0209 L 48.0068 44.0225 L 52.0066 44.0504 L 51.9927 46.0488 Z M 48.0068 44.0225 L 48.0263 41.9706 L 52.0239 42.1058 L 52.0066 44.0504 Z M 48.0263 41.9706 L 48.1238 39.9076 L 52.1145 40.1769 L 52.0239 42.1058 Z M 48.1238 39.9076 L 48.3623 37.7033 L 52.2988 38.4088 L 52.1145 40.1769 Z M 48.3623 37.7033 L 48.8197 35.5942 L 52.6857 36.6155 L 52.2988 38.4088 Z M 48.8197 35.5942 L 49.6644 33.3727 L 53.2656 35.1123 L 52.6857 36.6155 Z M 49.6644 33.3727 L 51.1299 31.2425 L 54.0605 33.9632 L 53.2656 35.1123 Z M 51.1299 31.2425 L 53.0571 29.6587 L 55.2138 33.0261 L 54.0605 33.9632 Z M 53.0571 29.6587 L 55.309 28.6462 L 56.6081 32.4284 L 55.2138 33.0261 Z M 55.309 28.6462 L 57.6493 28.1471 L 58.1743 32.1119 L 56.6081 32.4284 Z M 57.6493 28.1471 L 59.8566 28.0031 L 59.9523 32.0015 L 58.1743 32.1119 Z M 59.8566 28.0031 L 62.8762 28.8342 L 60.7285 32.2063 L 59.9523 32.0015 Z M 62.8762 28.8342 L 64.83 30.7178 L 61.6143 33.0933 L 60.7285 32.2063 Z M 64.83 30.7178 L 66.0446 32.6778 L 62.4981 34.5265 L 61.6143 33.0933 Z M 66.0446 32.6778 L 66.9682 34.4497 L 63.4217 36.2984 L 62.4981 34.5265 Z M 66.9682 34.4497 L 67.8462 36.0933 L 64.4319 38.1755 L 63.4217 36.2984 Z M 67.8462 36.0933 L 68.8 37.4159 L 65.8183 40.081 L 64.4319 38.1755 Z M 68.8 37.4159 L 69.5961 37.9397 L 68.3226 41.7286 L 65.8183 40.081 Z M 69.5961 37.9397 L 70.2904 37.9778 L 71.5639 41.7668 L 68.3226 41.7286 Z M 70.2904 37.9778 L 71.224 37.3883 L 73.9884 40.2778 L 71.5639 41.7668 Z M 71.224 37.3883 L 72.0914 36.1956 L 75.5058 38.2778 L 73.9884 40.2778 Z M 72.0914 36.1956 L 72.9764 34.5559 L 76.5229 36.4046 L 75.5058 38.2778 Z M 72.9764 34.5559 L 73.9 32.784 L 77.4465 34.6327 L 76.5229 36.4046 Z M 73.9 32.784 L 75.0988 30.8141 L 78.3146 33.1896 L 77.4465 34.6327 Z M 75.0988 30.8141 L 77.0228 28.8986 L 79.1705 32.2706 L 78.3146 33.1896 Z M 77.0228 28.8986 L 79.8499 28.0069 L 80.1017 31.9962 L 79.1705 32.2706 Z M 79.8499 28.0069 L 82.9363 28.8725 L 80.7886 32.2446 L 80.1017 31.9962 Z M 82.9363 28.8725 L 84.8724 30.7751 L 81.6566 33.1506 L 80.7886 32.2446 Z M 84.8724 30.7751 L 86.0775 32.741 L 82.5311 34.5897 L 81.6566 33.1506 Z M 86.0775 32.741 L 87.0012 34.5129 L 83.4547 36.3616 L 82.5311 34.5897 Z M 87.0012 34.5129 L 87.8833 36.1542 L 84.469 38.2364 L 83.4547 36.3616 Z M 87.8833 36.1542 L 88.7409 37.3548 L 85.9766 40.2443 L 84.469 38.2364 Z M 88.7409 37.3548 L 89.6637 37.9624 L 88.3901 41.7513 L 85.9766 40.2443 Z M 89.6637 37.9624 L 91.0106 38 L 91.0106 42 L 88.3901 41.7513 Z M 91.0106 38 L 93.0091 38 L 93.0091 42 L 91.0106 42 Z M 93.0091 38 L 95.0076 38 L 95.0076 42 L 93.0091 42 Z M 95.0076 38 L 97.0061 38 L 97.0061 42 L 95.0076 42 Z M 97.0061 38 L 99.0046 38 L 99.0046 42 L 97.0061 42 Z M 99.0046 38 L 101.003 38 L 101.003 42 L 99.0046 42 Z M 101.003 38 L 103.002 38 L 103.002 42 L 101.003 42 Z M 103.002 38 L 105 38 L 105 42 L 103.002 42 Z"
       style="fill:#d87408;stroke:#000000;stroke-width:0.2;stroke-linejoin:round"
       id="rect8782" />
    <path
       id="path9013"
       d="m 93.5489,32.2969 -1.759,-0.2251 0.4316,-3.9755 2.2202,0.302 z"
       style="fill:#287c00;stroke:#000000;stroke-width:0.2;stroke-linejoin:round" />
    <path
       id="path9011"
       d="m 95.1325,32.7566 -1.5836,-0.4597 0.8928,-3.8986 2.2612,0.6803 z"
       style="fill:#287c00;stroke:#000000;stroke-width:0.2;stroke-linejoin:round" />
    <path
       id="path9009"
       d="m 96.3563,33.4476 -1.2238,-0.691 1.5704,-3.678 2.2365,1.3163 z"
       style="fill:#287c00;stroke:#000000;stroke-width:0.2;stroke-linejoin:round" />
    <path
       id="path9007"
       d="m 97.2388,34.4855 -0.8825,-1.0379 2.5831,-3.0527 1.7086,1.9997 z"
       style="fill:#287c00;stroke:#000000;stroke-width:0.2;stroke-linejoin:round" />
    <path
       id="path9005"
       d="m 97.7226,35.8291 -0.4838,-1.3436 3.4092,-2.0909 0.936,2.3965 z"
       style="fill:#287c00;stroke:#000000;stroke-width:0.2;stroke-linejoin:round" />
    <path
       id="path9003"
       d="m 97.9406,37.3966 -0.218,-1.5675 3.8614,-1.038 0.351,2.4028 z"
       style="fill:#287c00;stroke:#000000;stroke-width:0.2;stroke-linejoin:round" />
    <path
       id="path8995"
       d="m 97.5635,44.7628 0.3268,-1.6491 3.9787,0.4028 -0.444,2.2843 z"
       style="fill:#287c00;stroke:#000000;stroke-width:0.2;stroke-linejoin:round" />
    <path
       id="path8993"
       d="m 96.988,45.899 0.5755,-1.1362 3.8615,1.038 -1.199,2.4446 z"
       style="fill:#287c00;stroke:#000000;stroke-width:0.2;stroke-linejoin:round" />
    <path
       id="path8991"
       d="m 96.1165,46.7333 0.8715,-0.8343 3.238,2.3464 -2.0333,1.9058 z"
       style="fill:#287c00;stroke:#000000;stroke-width:0.2;stroke-linejoin:round" />
    <path
       id="path8989"
       d="m 94.6775,47.4096 1.439,-0.6763 2.0762,3.4179 -2.1844,1.0298 z"
       style="fill:#287c00;stroke:#000000;stroke-width:0.2;stroke-linejoin:round" />
    <path
       id="path8987"
       d="m 93.043,47.7901 1.6345,-0.3805 1.3308,3.7714 -2.2684,0.5476 z"
       style="fill:#287c00;stroke:#000000;stroke-width:0.2;stroke-linejoin:round" />
    <path
       id="path8985"
       d="m 91.329,47.956 1.714,-0.1659 0.6969,3.9385 -2.2806,0.2245 z"
       style="fill:#287c00;stroke:#000000;stroke-width:0.2;stroke-linejoin:round" />
    <path
       id="path8983"
       d="M 89.3867,48 91.329,47.956 91.4593,51.9531 89.3867,52 Z"
       style="fill:#287c00;stroke:#000000;stroke-width:0.2;stroke-linejoin:round" />
    <path
       id="path8981"
       d="m 87.3782,48 h 2.0085 v 4 h -2.0085 z"
       style="fill:#287c00;stroke:#000000;stroke-width:0.2;stroke-linejoin:round" />
    <path
       id="path8979"
       d="m 85.3697,48 h 2.0085 v 4 h -2.0085 z"
       style="fill:#287c00;stroke:#000000;stroke-width:0.2;stroke-linejoin:round" />
    <path
       id="path8977"
       d="m 83.3613,48 h 2.0084 v 4 h -2.0084 z"
       style="fill:#287c00;stroke:#000000;stroke-width:0.2;stroke-linejoin:round" />
    <path
       id="path8975"
       d="m 81.3528,48 h 2.0085 v 4 h -2.0085 z"
       style="fill:#287c00;stroke:#000000;stroke-width:0.2;stroke-linejoin:round" />
    <path
       id="path8973"
       d="m 79.3443,48 h 2.0085 v 4 h -2.0085 z"
       style="fill:#287c00;stroke:#000000;stroke-width:0.2;stroke-linejoin:round" />
    <path
       id="path8971"
       d="m 77.3358,48 h 2.0085 v 4 h -2.0085 z"
       style="fill:#287c00;stroke:#000000;stroke-width:0.2;stroke-linejoin:round" />
    <path
       id="path8969"
       d="m 75.3273,48 h 2.0085 v 4 h -2.0085 z"
       style="fill:#287c00;stroke:#000000;stroke-width:0.2;stroke-linejoin:round" />
    <path
       id="path8967"
       d="m 73.3189,48 h 2.0084 v 4 h -2.0084 z"
       style="fill:#287c00;stroke:#000000;stroke-width:0.2;stroke-linejoin:round" />
    <path
       id="path8965"
       d="m 71.3104,48 h 2.0085 v 4 h -2.0085 z"
       style="fill:#287c00;stroke:#000000;stroke-width:0.2;stroke-linejoin:round" />
    <path
       id="path8963"
       d="m 69.3019,48 h 2.0085 v 4 h -2.0085 z"
       style="fill:#287c00;stroke:#000000;stroke-width:0.2;stroke-linejoin:round" />
    <path
       id="path8961"
       d="m 67.2934,48 h 2.0085 v 4 h -2.0085 z"
       style="fill:#287c00;stroke:#000000;stroke-width:0.2;stroke-linejoin:round" />
    <path
       id="path8959"
       d="m 65.2849,48 h 2.0085 v 4 h -2.0085 z"
       style="fill:#287c00;stroke:#000000;stroke-width:0.2;stroke-linejoin:round" />
    <path
       id="path8957"
       d="m 63.2765,48 h 2.0084 v 4 h -2.0084 z"
       style="fill:#287c00;stroke:#000000;stroke-width:0.2;stroke-linejoin:round" />
    <path
       id="path8955"
       d="m 61.268,48 h 2.0085 v 4 H 61.268 Z"
       style="fill:#287c00;stroke:#000000;stroke-width:0.2;stroke-linejoin:round" />
    <path
       id="path8953"
       d="m 59.2595,48 h 2.0085 v 4 h -2.0085 z"
       style="fill:#287c00;stroke:#000000;stroke-width:0.2;stroke-linejoin:round" />
    <path
       id="path8951"
       d="m 57.251,48 h 2.0085 v 4 H 57.251 Z"
       style="fill:#287c00;stroke:#000000;stroke-width:0.2;stroke-linejoin:round" />
    <path
       id="path8949"
       d="m 55.2425,48 h 2.0085 v 4 h -2.0085 z"
       style="fill:#287c00;stroke:#000000;stroke-width:0.2;stroke-linejoin:round" />
    <path
       id="path8947"
       d="m 53.234,48 h 2.0085 v 4 H 53.234 Z"
       style="fill:#287c00;stroke:#000000;stroke-width:0.2;stroke-linejoin:round" />
    <path
       id="path8945"
       d="m 51.2256,48 h 2.0084 v 4 h -2.0084 z"
       style="fill:#287c00;stroke:#000000;stroke-width:0.2;stroke-linejoin:round" />
    <path
       id="path8943"
       d="m 49.2171,48 h 2.0085 v 4 h -2.0085 z"
       style="fill:#287c00;stroke:#000000;stroke-width:0.2;stroke-linejoin:round" />
    <path
       id="path8941"
       d="m 47.2086,48 h 2.0085 v 4 h -2.0085 z"
       style="fill:#287c00;stroke:#000000;stroke-width:0.2;stroke-linejoin:round" />
    <path
       id="path8939"
       d="m 45.2001,48 h 2.0085 v 4 h -2.0085 z"
       style="fill:#287c00;stroke:#000000;stroke-width:0.2;stroke-linejoin:round" />
    <path
       id="path8937"
       d="m 43.1916,48 h 2.0085 v 4 h -2.0085 z"
       style="fill:#287c00;stroke:#000000;stroke-width:0.2;stroke-linejoin:round" />
    <path
       id="path8935"
       d="m 41.1832,48 h 2.0084 v 4 h -2.0084 z"
       style="fill:#287c00;stroke:#000000;stroke-width:0.2;stroke-linejoin:round" />
    <path
       id="path8933"
       d="M 38.7989,48.1384 41.1832,48 v 4 l -1.616,0.061 z"
       style="fill:#287c00;stroke:#000000;stroke-width:0.2;stroke-linejoin:round" />
    <path
       id="path8931"
       d="m 36.0868,49.6503 2.7121,-1.5119 0.7683,3.9226 -0.7161,0.4788 z"
       style="fill:#287c00;stroke:#000000;stroke-width:0.2;stroke-linejoin:round" />
    <path
       id="path8921"
       d="m 30.8751,57.7004 0.8483,-0.9414 3.2158,2.3755 -1.9164,1.9379 z"
       style="fill:#287c00;stroke:#000000;stroke-width:0.2;stroke-linejoin:round" />
    <path
       id="path8919"
       d="m 29.9421,58.001 0.933,-0.3006 2.1477,3.372 -2.8288,0.918 z"
       style="fill:#287c00;stroke:#000000;stroke-width:0.2;stroke-linejoin:round" />
    <path
       id="path8917"
       d="m 28.2779,57.9356 1.6642,0.0654 0.2519,3.9894 -2.3476,-0.0793 z"
       style="fill:#287c00;stroke:#000000;stroke-width:0.2;stroke-linejoin:round" />
    <path
       id="path8915"
       d="m 26.4203,57.6952 1.8576,0.2404 -0.4315,3.9755 -2.123,-0.2775 z"
       style="fill:#287c00;stroke:#000000;stroke-width:0.2;stroke-linejoin:round" />
    <path
       id="path8913"
       d="m 24.9303,57.2701 1.49,0.4251 -0.6969,3.9384 -2.3636,-0.6854 z"
       style="fill:#287c00;stroke:#000000;stroke-width:0.2;stroke-linejoin:round" />
    <path
       id="path8911"
       d="m 23.6958,56.5965 1.2345,0.6736 -1.5705,3.6781 -2.2471,-1.299 z"
       style="fill:#287c00;stroke:#000000;stroke-width:0.2;stroke-linejoin:round" />
    <path
       id="path8909"
       d="m 22.7969,55.5727 0.8989,1.0238 -2.5831,3.0527 -1.7247,-1.9857 z"
       style="fill:#287c00;stroke:#000000;stroke-width:0.2;stroke-linejoin:round" />
    <path
       id="path8907"
       d="m 22.2951,54.2367 0.5018,1.336 -3.4089,2.0908 -0.954,-2.3888 z"
       style="fill:#287c00;stroke:#000000;stroke-width:0.2;stroke-linejoin:round" />
    <path
       id="path8905"
       d="m 22.0629,52.6716 0.2322,1.5651 -3.8611,1.038 -0.3657,-2.4005 z"
       style="fill:#287c00;stroke:#000000;stroke-width:0.2;stroke-linejoin:round" />
    <path
       id="path8903"
       d="m 22.0078,50.7448 0.0551,1.9268 -3.9946,0.2026 -0.0601,-2.0875 z"
       style="fill:#287c00;stroke:#000000;stroke-width:0.2;stroke-linejoin:round" />
    <path
       id="path8901"
       d="m 22.0128,48.7784 -0.005,1.9664 -3.9996,0.0419 0.005,-2.0501 z"
       style="fill:#287c00;stroke:#000000;stroke-width:0.2;stroke-linejoin:round" />
    <path
       id="path8899"
       d="m 22.1028,46.9542 -0.09,1.8242 -3.9996,-0.0418 0.1105,-2.1852 z"
       style="fill:#287c00;stroke:#000000;stroke-width:0.2;stroke-linejoin:round" />
    <path
       id="path8897"
       d="m 22.4188,45.303 -0.316,1.6512 -3.9791,-0.4028 0.434,-2.2864 z"
       style="fill:#287c00;stroke:#000000;stroke-width:0.2;stroke-linejoin:round" />
    <path
       id="path8895"
       d="m 22.972,44.1563 -0.5532,1.1467 -3.8611,-1.038 1.1761,-2.4552 z"
       style="fill:#287c00;stroke:#000000;stroke-width:0.2;stroke-linejoin:round" />
    <path
       id="path8893"
       d="m 23.9553,43.2202 -0.9833,0.9361 -3.2382,-2.3465 1.889,-1.8379 z"
       style="fill:#287c00;stroke:#000000;stroke-width:0.2;stroke-linejoin:round" />
    <path
       id="path8891"
       d="m 25.2581,42.6131 -1.3028,0.6071 -2.3325,-3.2483 2.3045,-1.1302 z"
       style="fill:#287c00;stroke:#000000;stroke-width:0.2;stroke-linejoin:round" />
    <path
       id="path8889"
       d="m 26.8898,42.2218 -1.6317,0.3913 -1.3308,-3.7714 2.2656,-0.5584 z"
       style="fill:#287c00;stroke:#000000;stroke-width:0.2;stroke-linejoin:round" />
    <path
       id="path8887"
       d="m 28.6028,42.0462 -1.713,0.1756 -0.6969,-3.9385 2.2796,-0.2342 z"
       style="fill:#287c00;stroke:#000000;stroke-width:0.2;stroke-linejoin:round" />
    <path
       id="path8885"
       d="M 30.545,42 28.6028,42.0462 28.4725,38.0491 30.545,38 Z"
       style="fill:#287c00;stroke:#000000;stroke-width:0.2;stroke-linejoin:round" />
    <path
       id="path8883"
       d="M 32.5535,42 H 30.545 v -4 h 2.0085 z"
       style="fill:#287c00;stroke:#000000;stroke-width:0.2;stroke-linejoin:round" />
    <path
       id="path8881"
       d="M 34.562,42 H 32.5535 V 38 H 34.562 Z"
       style="fill:#287c00;stroke:#000000;stroke-width:0.2;stroke-linejoin:round" />
    <path
       id="path8879"
       d="M 36.5705,42 H 34.562 v -4 h 2.0085 z"
       style="fill:#287c00;stroke:#000000;stroke-width:0.2;stroke-linejoin:round" />
    <path
       id="path8877"
       d="M 38.579,42 H 36.5705 V 38 H 38.579 Z"
       style="fill:#287c00;stroke:#000000;stroke-width:0.2;stroke-linejoin:round" />
    <path
       id="path8875"
       d="M 40.5874,42 H 38.579 v -4 h 2.0084 z"
       style="fill:#287c00;stroke:#000000;stroke-width:0.2;stroke-linejoin:round" />
    <path
       id="path8873"
       d="m 42.5959,42 h -2.0085 v -4 h 2.0085 z"
       style="fill:#287c00;stroke:#000000;stroke-width:0.2;stroke-linejoin:round" />
    <path
       id="path8871"
       d="m 44.6044,42 h -2.0085 v -4 h 2.0085 z"
       style="fill:#287c00;stroke:#000000;stroke-width:0.2;stroke-linejoin:round" />
    <path
       id="path8869"
       d="m 46.6129,42 h -2.0085 v -4 h 2.0085 z"
       style="fill:#287c00;stroke:#000000;stroke-width:0.2;stroke-linejoin:round" />
    <path
       id="path8861"
       d="m 54.6468,42 h -2.0085 v -4 h 2.0085 z"
       style="fill:#287c00;stroke:#000000;stroke-width:0.2;stroke-linejoin:round" />
    <path
       id="path8859"
       d="m 56.6553,42 h -2.0085 v -4 h 2.0085 z"
       style="fill:#287c00;stroke:#000000;stroke-width:0.2;stroke-linejoin:round" />
    <path
       id="path8857"
       d="m 58.6638,42 h -2.0085 v -4 h 2.0085 z"
       style="fill:#287c00;stroke:#000000;stroke-width:0.2;stroke-linejoin:round" />
    <path
       id="path8855"
       d="M 61.051,41.891 58.6638,42 v -4 l 1.6189,-0.0316 z"
       style="fill:#287c00;stroke:#000000;stroke-width:0.2;stroke-linejoin:round" />
    <path
       id="path8853"
       d="M 63.8027,40.4555 61.051,41.891 60.2827,37.9684 61.0383,37.566 Z"
       style="fill:#287c00;stroke:#000000;stroke-width:0.2;stroke-linejoin:round" />
    <path
       id="path8851"
       d="m 65.3772,38.4887 -1.5745,1.9668 -2.7644,-2.8895 0.9245,-1.1595 z"
       style="fill:#287c00;stroke:#000000;stroke-width:0.2;stroke-linejoin:round" />
    <path
       id="path8849"
       d="m 66.4133,36.6148 -1.0361,1.8739 -3.4144,-2.0822 0.904,-1.6404 z"
       style="fill:#287c00;stroke:#000000;stroke-width:0.2;stroke-linejoin:round" />
    <path
       id="path8847"
       d="m 67.3416,34.8341 -0.9283,1.7807 -3.5465,-1.8487 0.9283,-1.7807 z"
       style="fill:#287c00;stroke:#000000;stroke-width:0.2;stroke-linejoin:round" />
    <path
       id="path8845"
       d="m 68.1857,33.3641 -0.8441,1.47 -3.5465,-1.8487 1.1748,-1.9968 z"
       style="fill:#287c00;stroke:#000000;stroke-width:0.2;stroke-linejoin:round" />
    <path
       id="path8843"
       d="m 69.1709,32.2668 -0.9852,1.0973 -3.2158,-2.3755 1.7123,-1.8512 z"
       style="fill:#287c00;stroke:#000000;stroke-width:0.2;stroke-linejoin:round" />
    <path
       id="path8841"
       d="m 69.9052,32.0086 -0.7343,0.2582 -2.4887,-3.1294 2.9711,-1.1181 z"
       style="fill:#287c00;stroke:#000000;stroke-width:0.2;stroke-linejoin:round" />
    <path
       id="path8839"
       d="m 70.6309,32.1442 -0.7257,-0.1356 -0.2519,-3.9893 3.1253,0.7528 z"
       style="fill:#287c00;stroke:#000000;stroke-width:0.2;stroke-linejoin:round" />
    <path
       id="path8837"
       d="m 71.5514,33.0082 -0.9205,-0.864 2.1477,-3.3721 1.9886,1.8606 z"
       style="fill:#287c00;stroke:#000000;stroke-width:0.2;stroke-linejoin:round" />
    <path
       id="path8827"
       d="m 78.2698,41.7109 -2.4953,-1.6789 2.9817,-2.6651 0.7871,0.555 z"
       style="fill:#287c00;stroke:#000000;stroke-width:0.2;stroke-linejoin:round" />
    <path
       id="path8825"
       d="m 81.5206,41.7813 -3.2508,-0.0704 1.2735,-3.789 0.7037,0.0705 z"
       style="fill:#287c00;stroke:#000000;stroke-width:0.2;stroke-linejoin:round" />
    <path
       id="path8823"
       d="m 83.9625,40.3025 -2.4419,1.4788 -1.2736,-3.7889 0.9512,-0.5793 z"
       style="fill:#287c00;stroke:#000000;stroke-width:0.2;stroke-linejoin:round" />
    <path
       id="path8821"
       d="m 85.4924,38.2997 -1.5299,2.0028 -2.7643,-2.8894 0.8798,-1.1955 z"
       style="fill:#287c00;stroke:#000000;stroke-width:0.2;stroke-linejoin:round" />
    <path
       id="path8819"
       d="m 86.5156,36.4186 -1.0232,1.8811 -3.4144,-2.0821 0.8911,-1.6477 z"
       style="fill:#287c00;stroke:#000000;stroke-width:0.2;stroke-linejoin:round" />
    <path
       id="path8817"
       d="m 87.4439,34.6378 -0.9283,1.7808 -3.5465,-1.8487 0.9283,-1.7808 z"
       style="fill:#287c00;stroke:#000000;stroke-width:0.2;stroke-linejoin:round" />
    <path
       id="path8815"
       d="m 88.3171,33.1862 -0.8732,1.4516 -3.5465,-1.8487 1.204,-1.9784 z"
       style="fill:#287c00;stroke:#000000;stroke-width:0.2;stroke-linejoin:round" />
    <path
       id="path8813"
       d="m 89.1825,32.263 -0.8654,0.9232 -3.2157,-2.3755 1.9334,-1.9198 z"
       style="fill:#287c00;stroke:#000000;stroke-width:0.2;stroke-linejoin:round" />
    <path
       id="rect8796"
       d="m 90.1259,31.9947 -0.9434,0.2683 -2.1477,-3.3721 2.8393,-0.8856 z"
       style="fill:#287c00;stroke:#000000;stroke-width:0.2;stroke-linejoin:round" />
  </g>
</svg>
