<?xml version="1.0" encoding="UTF-8" standalone="no"?>
<svg
   xmlns:dc="http://purl.org/dc/elements/1.1/"
   xmlns:cc="http://creativecommons.org/ns#"
   xmlns:rdf="http://www.w3.org/1999/02/22-rdf-syntax-ns#"
   xmlns:svg="http://www.w3.org/2000/svg"
   xmlns="http://www.w3.org/2000/svg"
   xmlns:sodipodi="http://sodipodi.sourceforge.net/DTD/sodipodi-0.dtd"
   xmlns:inkscape="http://www.inkscape.org/namespaces/inkscape"
   sodipodi:docname="eight-like-0-1.svg"
   inkscape:version="1.0 (4035a4fb49, 2020-05-01)"
   width="210mm"
   height="297mm"
   viewBox="0 0 210 297"
   version="1.1"
   id="svg1182">
  <defs
     id="defs1176" />
  <sodipodi:namedview
     inkscape:window-maximized="0"
     inkscape:window-y="83"
     inkscape:window-x="984"
     inkscape:window-height="1040"
     inkscape:window-width="1648"
     showgrid="true"
     inkscape:document-rotation="0"
     inkscape:current-layer="layer1"
     inkscape:document-units="mm"
     inkscape:cy="246.73987"
     inkscape:cx="259.47372"
     inkscape:zoom="2.8"
     inkscape:pageshadow="2"
     inkscape:pageopacity="0.0"
     borderopacity="1.0"
     bordercolor="#666666"
     pagecolor="#ffffff"
     id="base">
    <inkscape:grid
       id="grid1831"
       type="xygrid" />
  </sodipodi:namedview>
  <metadata
     id="metadata1179">
    <rdf:RDF>
      <cc:Work
         rdf:about="">
        <dc:format>image/svg+xml</dc:format>
        <dc:type
           rdf:resource="http://purl.org/dc/dcmitype/StillImage" />
        <dc:title></dc:title>
      </cc:Work>
    </rdf:RDF>
  </metadata>
  <g
     id="layer1"
     inkscape:groupmode="layer"
     inkscape:label="Слой 1">
    <path
       d="m 31,46 c 5,0 0,0 5,0 40,0 0,0 40,0 10,0 10,-5 10,-10 0,-5 0,-10 -10,-10 -5,0 -5,10 -10,10 -5,0 -10,0 -20,0 -10,0 -10,5 -10,10 0,5 0,10 10,10 20,0 0,-30 20,-30 5,0 5,10 10,10 10,0 0,0 10,0 5,0 0,0 5,0"
       style="fill:none;stroke:#000000;stroke-width:0.292919px;stroke-linecap:butt;stroke-linejoin:miter;stroke-opacity:1"
       id="path1817" />
    <path
       id="path2825"
       d="m 95.9817,67.6439 h 1.9914 v 4 h -1.9914 z"
       style="fill:#d87408;stroke:#000000;stroke-width:0.2;stroke-linejoin:round" />
    <path
       id="path2667"
       d="m 90.9483,71.5652 0.0247,-1.9106 3.9995,0.0418 -0.0296,2.0714 z"
       style="fill:#d87408;stroke:#000000;stroke-width:0.2;stroke-linejoin:round" />
    <path
       id="path2669"
       d="m 90.973,69.6546 -0.0215,-1.8688 3.9946,-0.2027 0.0264,2.1133 z"
       style="fill:#d87408;stroke:#000000;stroke-width:0.2;stroke-linejoin:round" />
    <path
       id="path2823"
       d="m 93.9903,67.6439 h 1.9914 v 4 h -1.9914 z"
       style="fill:#d87408;stroke:#000000;stroke-width:0.2;stroke-linejoin:round" />
    <path
       id="path2665"
       d="m 90.7893,73.3072 0.159,-1.742 3.9946,0.2026 -0.2129,2.2194 z"
       style="fill:#d87408;stroke:#000000;stroke-width:0.2;stroke-linejoin:round" />
    <path
       id="path2673"
       d="m 90.8001,66.0429 -0.3761,-1.4636 3.6696,-1.59 0.6471,2.3736 z"
       style="fill:#d87408;stroke:#000000;stroke-width:0.2;stroke-linejoin:round" />
    <path
       id="path2671"
       d="m 90.9515,67.7858 -0.1514,-1.7429 3.9406,-0.68 0.2054,2.2202 z"
       style="fill:#d87408;stroke:#000000;stroke-width:0.2;stroke-linejoin:round" />
    <path
       id="path2821"
       d="m 91.9989,67.6439 h 1.9914 v 4 h -1.9914 z"
       style="fill:#d87408;stroke:#000000;stroke-width:0.2;stroke-linejoin:round" />
    <path
       id="path2819"
       d="m 90.0074,67.6439 h 1.9915 v 4 h -1.9915 z"
       style="fill:#d87408;stroke:#000000;stroke-width:0.2;stroke-linejoin:round" />
    <path
       id="path2817"
       d="m 88.016,67.6439 h 1.9914 v 4 H 88.016 Z"
       style="fill:#d87408;stroke:#000000;stroke-width:0.2;stroke-linejoin:round" />
    <path
       id="path2815"
       d="m 86.0246,67.6439 h 1.9914 v 4 h -1.9914 z"
       style="fill:#d87408;stroke:#000000;stroke-width:0.2;stroke-linejoin:round" />
    <path
       id="path2813"
       d="m 84.0332,67.6439 h 1.9914 v 4 h -1.9914 z"
       style="fill:#d87408;stroke:#000000;stroke-width:0.2;stroke-linejoin:round" />
    <path
       id="path2811"
       d="m 82.6903,67.6243 1.3429,0.0196 v 4 l -2.6164,-0.2307 z"
       style="fill:#d87408;stroke:#000000;stroke-width:0.2;stroke-linejoin:round" />
    <path
       id="path2809"
       d="m 81.76,67.0427 0.9303,0.5816 -1.2735,3.7889 -2.4212,-1.4811 z"
       style="fill:#d87408;stroke:#000000;stroke-width:0.2;stroke-linejoin:round" />
    <path
       id="path2807"
       d="m 80.8932,65.8584 0.8668,1.1843 -2.7644,2.8894 -1.5167,-1.9915 z"
       style="fill:#d87408;stroke:#000000;stroke-width:0.2;stroke-linejoin:round" />
    <path
       id="path2805"
       d="m 80.0102,64.2257 0.883,1.6327 -3.4143,2.0822 -1.0152,-1.8662 z"
       style="fill:#d87408;stroke:#000000;stroke-width:0.2;stroke-linejoin:round" />
    <path
       id="path2803"
       d="m 79.0898,62.4601 0.9204,1.7656 -3.5465,1.8487 -0.9204,-1.7656 z"
       style="fill:#d87408;stroke:#000000;stroke-width:0.2;stroke-linejoin:round" />
    <path
       id="path2801"
       d="m 77.9,60.4928 1.1898,1.9673 -3.5465,1.8487 -0.859,-1.4405 z"
       style="fill:#d87408;stroke:#000000;stroke-width:0.2;stroke-linejoin:round" />
    <path
       id="path2799"
       d="M 75.9928,58.5695 77.9,60.4928 74.6843,62.8683 73.8451,61.9416 Z"
       style="fill:#d87408;stroke:#000000;stroke-width:0.2;stroke-linejoin:round" />
    <path
       id="path2797"
       d="m 73.1805,57.6544 2.8123,0.9151 -2.1477,3.3721 -0.9164,-0.2979 z"
       style="fill:#d87408;stroke:#000000;stroke-width:0.2;stroke-linejoin:round" />
    <path
       id="path2795"
       d="m 70.8051,57.7668 2.3754,-0.1124 -0.2518,3.9893 -1.5986,0.0879 z"
       style="fill:#d87408;stroke:#000000;stroke-width:0.2;stroke-linejoin:round" />
    <path
       id="path2793"
       d="m 68.6026,58.1959 2.2025,-0.4291 0.525,3.9648 -1.7016,0.3297 z"
       style="fill:#d87408;stroke:#000000;stroke-width:0.2;stroke-linejoin:round" />
    <path
       id="path2791"
       d="m 66.3445,59.1192 2.2581,-0.9233 1.0259,3.8654 -1.4133,0.5923 z"
       style="fill:#d87408;stroke:#000000;stroke-width:0.2;stroke-linejoin:round" />
    <path
       id="path2789"
       d="m 64.2428,60.7358 2.1017,-1.6166 1.8707,3.5344 -1.0418,0.803 z"
       style="fill:#d87408;stroke:#000000;stroke-width:0.2;stroke-linejoin:round" />
    <path
       id="path2787"
       d="m 62.8007,62.7101 1.4421,-1.9743 2.9306,2.7208 -0.897,1.2316 z"
       style="fill:#d87408;stroke:#000000;stroke-width:0.2;stroke-linejoin:round" />
    <path
       id="path2785"
       d="m 61.8489,65.0258 0.9518,-2.3157 3.4757,1.9781 -0.5615,1.3589 z"
       style="fill:#d87408;stroke:#000000;stroke-width:0.2;stroke-linejoin:round" />
    <path
       id="path2783"
       d="m 61.3754,67.1241 0.4735,-2.0983 3.866,1.0213 -0.403,1.7825 z"
       style="fill:#d87408;stroke:#000000;stroke-width:0.2;stroke-linejoin:round" />
    <path
       id="path2711"
       d="M 62.9034,71.6439 H 60.912 v -4 h 1.9914 z"
       style="fill:#d87408;stroke:#000000;stroke-width:0.2;stroke-linejoin:round" />
    <path
       id="path2709"
       d="m 64.8948,71.6439 h -1.9914 v -4 h 1.9914 z"
       style="fill:#d87408;stroke:#000000;stroke-width:0.2;stroke-linejoin:round" />
    <path
       id="path2707"
       d="m 66.8862,71.6439 h -1.9914 v -4 h 1.9914 z"
       style="fill:#d87408;stroke:#000000;stroke-width:0.2;stroke-linejoin:round" />
    <path
       id="path2781"
       d="m 61.1126,69.3182 0.2628,-2.1941 3.9365,0.7055 -0.2086,1.758 z"
       style="fill:#d87408;stroke:#000000;stroke-width:0.2;stroke-linejoin:round" />
    <path
       id="path2779"
       d="m 61.0075,71.3737 0.1051,-2.0555 3.9907,0.2694 -0.0982,1.9213 z"
       style="fill:#d87408;stroke:#000000;stroke-width:0.2;stroke-linejoin:round" />
    <path
       id="path2777"
       d="m 60.9817,73.4185 0.0258,-2.0448 3.9976,0.1352 -0.0236,1.9375 z"
       style="fill:#d87408;stroke:#000000;stroke-width:0.2;stroke-linejoin:round" />
    <path
       id="path2775"
       d="m 60.9678,75.4098 0.0139,-1.9913 3.9998,0.0279 -0.0139,1.9913 z"
       style="fill:#d87408;stroke:#000000;stroke-width:0.2;stroke-linejoin:round" />
    <path
       id="path2773"
       d="m 60.9539,77.4011 0.0139,-1.9913 3.9998,0.0279 -0.0139,1.9913 z"
       style="fill:#d87408;stroke:#000000;stroke-width:0.2;stroke-linejoin:round" />
    <path
       id="path2771"
       d="m 60.872,79.2696 0.0819,-1.8685 3.9998,0.0279 -0.0911,2.1099 z"
       style="fill:#d87408;stroke:#000000;stroke-width:0.2;stroke-linejoin:round" />
    <path
       id="path2769"
       d="m 60.6883,81.1571 0.1837,-1.8875 3.9906,0.2693 -0.2011,2.0753 z"
       style="fill:#d87408;stroke:#000000;stroke-width:0.2;stroke-linejoin:round" />
    <path
       id="path2767"
       d="m 60.3415,82.8235 0.3468,-1.6664 3.9732,0.4571 -0.454,2.2306 z"
       style="fill:#d87408;stroke:#000000;stroke-width:0.2;stroke-linejoin:round" />
    <path
       id="path2765"
       d="m 59.8028,84.3344 0.5387,-1.5109 3.866,1.0213 -0.8036,2.2293 z"
       style="fill:#d87408;stroke:#000000;stroke-width:0.2;stroke-linejoin:round" />
    <path
       id="path2763"
       d="m 59.0664,85.515 0.7364,-1.1806 3.6011,1.7397 -1.4069,2.1617 z"
       style="fill:#d87408;stroke:#000000;stroke-width:0.2;stroke-linejoin:round" />
    <path
       id="path2761"
       d="m 57.9556,86.4921 1.1108,-0.9771 2.9306,2.7208 -1.8847,1.6237 z"
       style="fill:#d87408;stroke:#000000;stroke-width:0.2;stroke-linejoin:round" />
    <path
       id="path2759"
       d="m 56.5921,87.1375 1.3635,-0.6454 2.1567,3.3674 -2.221,1.0602 z"
       style="fill:#d87408;stroke:#000000;stroke-width:0.2;stroke-linejoin:round" />
    <path
       id="path2757"
       d="m 55.044,87.4995 1.5481,-0.362 1.2992,3.7822 -2.3223,0.5447 z"
       style="fill:#d87408;stroke:#000000;stroke-width:0.2;stroke-linejoin:round" />
    <path
       id="path2755"
       d="m 53.275,87.6363 1.769,-0.1368 0.525,3.9649 -2.1983,0.1704 z"
       style="fill:#d87408;stroke:#000000;stroke-width:0.2;stroke-linejoin:round" />
    <path
       id="path2753"
       d="m 51.3979,87.5919 1.8771,0.0444 0.0957,3.9985 -2.103,-0.0458 z"
       style="fill:#d87408;stroke:#000000;stroke-width:0.2;stroke-linejoin:round" />
    <path
       id="path2751"
       d="m 49.7044,87.3941 1.6935,0.1978 -0.1302,3.9971 -2.2602,-0.2565 z"
       style="fill:#d87408;stroke:#000000;stroke-width:0.2;stroke-linejoin:round" />
    <path
       id="path2749"
       d="m 48.0955,86.9829 1.6089,0.4112 -0.6969,3.9384 -2.2428,-0.5782 z"
       style="fill:#d87408;stroke:#000000;stroke-width:0.2;stroke-linejoin:round" />
    <path
       id="path2747"
       d="m 46.8254,86.3497 1.2701,0.6332 -1.3308,3.7714 -2.2718,-1.1563 z"
       style="fill:#d87408;stroke:#000000;stroke-width:0.2;stroke-linejoin:round" />
    <path
       id="path2745"
       d="m 45.8807,85.3988 0.9447,0.9509 -2.3325,3.2483 -1.8504,-1.8528 z"
       style="fill:#d87408;stroke:#000000;stroke-width:0.2;stroke-linejoin:round" />
    <path
       id="path2743"
       d="m 45.3679,84.2514 0.5128,1.1474 -3.2382,2.3464 -1.1358,-2.4558 z"
       style="fill:#d87408;stroke:#000000;stroke-width:0.2;stroke-linejoin:round" />
    <path
       id="path2741"
       d="m 45.0683,82.6144 0.2996,1.637 -3.8612,1.038 -0.4175,-2.2721 z"
       style="fill:#d87408;stroke:#000000;stroke-width:0.2;stroke-linejoin:round" />
    <path
       id="path2609"
       d="m 39.9645,77.6439 h 1.9914 v 4 h -1.9914 z"
       style="fill:#d87408;stroke:#000000;stroke-width:0.2;stroke-linejoin:round" />
    <path
       id="path2611"
       d="m 41.9559,77.6439 h 1.9914 v 4 h -1.9914 z"
       style="fill:#d87408;stroke:#000000;stroke-width:0.2;stroke-linejoin:round" />
    <path
       id="path2613"
       d="m 43.9473,77.6439 h 1.9915 v 4 h -1.9915 z"
       style="fill:#d87408;stroke:#000000;stroke-width:0.2;stroke-linejoin:round" />
    <path
       id="path2739"
       d="m 44.9853,80.8069 0.083,1.8075 -3.9791,0.4029 -0.1035,-2.1685 z"
       style="fill:#d87408;stroke:#000000;stroke-width:0.2;stroke-linejoin:round" />
    <path
       id="path2737"
       d="m 44.9813,78.8576 0.004,1.9493 -3.9996,0.0419 -0.0039,-2.0331 z"
       style="fill:#d87408;stroke:#000000;stroke-width:0.2;stroke-linejoin:round" />
    <path
       id="path2735"
       d="m 45.0303,77.0481 -0.049,1.8095 -3.9995,-0.0419 0.0695,-2.1704 z"
       style="fill:#d87408;stroke:#000000;stroke-width:0.2;stroke-linejoin:round" />
    <path
       id="path2733"
       d="m 45.2701,75.4 -0.2398,1.6481 -3.979,-0.4028 0.3577,-2.2833 z"
       style="fill:#d87408;stroke:#000000;stroke-width:0.2;stroke-linejoin:round" />
    <path
       id="path2731"
       d="M 45.7649,74.0795 45.2701,75.4 41.409,74.362 42.356,71.9886 Z"
       style="fill:#d87408;stroke:#000000;stroke-width:0.2;stroke-linejoin:round" />
    <path
       id="path2729"
       d="M 46.6485,73.0647 45.7649,74.0795 42.356,71.9886 44.0654,70.012 Z"
       style="fill:#d87408;stroke:#000000;stroke-width:0.2;stroke-linejoin:round" />
    <path
       id="path2727"
       d="m 47.8631,72.391 -1.2146,0.6737 -2.5831,-3.0527 2.2272,-1.2991 z"
       style="fill:#d87408;stroke:#000000;stroke-width:0.2;stroke-linejoin:round" />
    <path
       id="path2725"
       d="m 49.3335,71.9593 -1.4704,0.4317 -1.5705,-3.6781 2.344,-0.692 z"
       style="fill:#d87408;stroke:#000000;stroke-width:0.2;stroke-linejoin:round" />
    <path
       id="path2723"
       d="m 51.1736,71.7167 -1.8401,0.2426 -0.6969,-3.9384 2.1054,-0.2797 z"
       style="fill:#d87408;stroke:#000000;stroke-width:0.2;stroke-linejoin:round" />
    <path
       id="path2721"
       d="m 53.0115,71.6433 -1.8379,0.0734 -0.4316,-3.9755 2.1392,-0.095 z"
       style="fill:#d87408;stroke:#000000;stroke-width:0.2;stroke-linejoin:round" />
    <path
       id="path2719"
       d="m 54.9377,71.6439 -1.9262,-6e-4 -0.1303,-3.9971 2.0565,-0.0023 z"
       style="fill:#d87408;stroke:#000000;stroke-width:0.2;stroke-linejoin:round" />
    <path
       id="path2717"
       d="m 56.9292,71.6439 h -1.9915 v -4 h 1.9915 z"
       style="fill:#d87408;stroke:#000000;stroke-width:0.2;stroke-linejoin:round" />
    <path
       id="path2715"
       d="m 58.9206,71.6439 h -1.9914 v -4 h 1.9914 z"
       style="fill:#d87408;stroke:#000000;stroke-width:0.2;stroke-linejoin:round" />
    <path
       id="path2713"
       d="m 60.912,71.6439 h -1.9914 v -4 h 1.9914 z"
       style="fill:#d87408;stroke:#000000;stroke-width:0.2;stroke-linejoin:round" />
    <path
       id="path2705"
       d="m 68.8776,71.6439 h -1.9914 v -4 h 1.9914 z"
       style="fill:#d87408;stroke:#000000;stroke-width:0.2;stroke-linejoin:round" />
    <path
       id="path2703"
       d="m 70.8691,71.6439 h -1.9915 v -4 h 1.9915 z"
       style="fill:#d87408;stroke:#000000;stroke-width:0.2;stroke-linejoin:round" />
    <path
       id="path2701"
       d="m 72.8605,71.6439 h -1.9914 v -4 h 1.9914 z"
       style="fill:#d87408;stroke:#000000;stroke-width:0.2;stroke-linejoin:round" />
    <path
       id="path2699"
       d="m 75.829,70.8226 -2.9685,0.8213 v -4 l 0.8208,-0.1934 z"
       style="fill:#d87408;stroke:#000000;stroke-width:0.2;stroke-linejoin:round" />
    <path
       id="path2697"
       d="m 77.7846,68.9512 -1.9556,1.8714 -2.1477,-3.3721 0.8875,-0.8748 z"
       style="fill:#d87408;stroke:#000000;stroke-width:0.2;stroke-linejoin:round" />
    <path
       id="path2695"
       d="m 79,67 -1.2154,1.9512 -3.2158,-2.3755 0.8847,-1.4244 z"
       style="fill:#d87408;stroke:#000000;stroke-width:0.2;stroke-linejoin:round" />
    <path
       id="path2693"
       d="M 79.9204,65.2344 79,67 75.4535,65.1513 76.3739,63.3857 Z"
       style="fill:#d87408;stroke:#000000;stroke-width:0.2;stroke-linejoin:round" />
    <path
       id="path2691"
       d="m 80.7921,63.5953 -0.8717,1.6391 -3.5465,-1.8487 1.0038,-1.8726 z"
       style="fill:#d87408;stroke:#000000;stroke-width:0.2;stroke-linejoin:round" />
    <path
       id="path2689"
       d="m 81.7335,62.2724 -0.9414,1.3229 -3.4144,-2.0822 1.3741,-1.9059 z"
       style="fill:#d87408;stroke:#000000;stroke-width:0.2;stroke-linejoin:round" />
    <path
       id="path2687"
       d="m 82.5062,61.7254 -0.7727,0.547 -2.9817,-2.6652 2.4809,-1.6707 z"
       style="fill:#d87408;stroke:#000000;stroke-width:0.2;stroke-linejoin:round" />
    <path
       id="path2685"
       d="m 83.7731,61.6706 -1.2669,0.0548 -1.2735,-3.7889 2.6706,-0.2629 z"
       style="fill:#d87408;stroke:#000000;stroke-width:0.2;stroke-linejoin:round" />
    <path
       id="path2683"
       d="m 85.6065,61.8072 -1.8334,-0.1366 0.1302,-3.997 2.1347,0.1581 z"
       style="fill:#d87408;stroke:#000000;stroke-width:0.2;stroke-linejoin:round" />
    <path
       id="path2681"
       d="m 87.2244,62.1083 -1.6179,-0.3011 0.4315,-3.9755 2.2907,0.4326 z"
       style="fill:#d87408;stroke:#000000;stroke-width:0.2;stroke-linejoin:round" />
    <path
       id="path2679"
       d="m 88.7175,62.6876 -1.4931,-0.5793 1.1043,-3.844 2.2091,0.8624 z"
       style="fill:#d87408;stroke:#000000;stroke-width:0.2;stroke-linejoin:round" />
    <path
       id="path2677"
       d="m 89.6829,63.4065 -0.9654,-0.7189 1.8203,-3.5609 2.1864,1.6834 z"
       style="fill:#d87408;stroke:#000000;stroke-width:0.2;stroke-linejoin:round" />
    <path
       id="path2675"
       d="m 90.424,64.5793 -0.7411,-1.1728 3.0413,-2.5964 1.3694,2.1792 z"
       style="fill:#d87408;stroke:#000000;stroke-width:0.2;stroke-linejoin:round" />
    <path
       id="path2663"
       d="m 90.3989,74.7665 0.3904,-1.4593 3.9407,0.68 -0.6615,2.3693 z"
       style="fill:#d87408;stroke:#000000;stroke-width:0.2;stroke-linejoin:round" />
    <path
       id="path2661"
       d="m 89.749,75.808 0.6499,-1.0415 3.6696,1.59 -1.4981,2.2854 z"
       style="fill:#d87408;stroke:#000000;stroke-width:0.2;stroke-linejoin:round" />
    <path
       id="path2659"
       d="m 88.6613,76.629 1.0877,-0.821 2.8214,2.8339 -2.0888,1.548 z"
       style="fill:#d87408;stroke:#000000;stroke-width:0.2;stroke-linejoin:round" />
    <path
       id="path2657"
       d="m 87.1637,77.1969 1.4976,-0.5679 1.8203,3.5609 -2.2136,0.851 z"
       style="fill:#d87408;stroke:#000000;stroke-width:0.2;stroke-linejoin:round" />
    <path
       id="path2655"
       d="m 85.5437,77.4874 1.62,-0.2905 1.1043,3.844 -2.2928,0.422 z"
       style="fill:#d87408;stroke:#000000;stroke-width:0.2;stroke-linejoin:round" />
    <path
       id="path2653"
       d="m 83.7099,77.6192 1.8338,-0.1318 0.4315,3.9755 -2.135,0.1534 z"
       style="fill:#d87408;stroke:#000000;stroke-width:0.2;stroke-linejoin:round" />
    <path
       id="path2651"
       d="m 81.7842,77.6439 1.9257,-0.0247 0.1303,3.9971 -2.056,0.0276 z"
       style="fill:#d87408;stroke:#000000;stroke-width:0.2;stroke-linejoin:round" />
    <path
       id="path2649"
       d="m 79.7928,77.6439 h 1.9914 v 4 h -1.9914 z"
       style="fill:#d87408;stroke:#000000;stroke-width:0.2;stroke-linejoin:round" />
    <path
       id="path2647"
       d="m 77.8014,77.6439 h 1.9914 v 4 h -1.9914 z"
       style="fill:#d87408;stroke:#000000;stroke-width:0.2;stroke-linejoin:round" />
    <path
       id="path2645"
       d="m 75.81,77.6439 h 1.9914 v 4 H 75.81 Z"
       style="fill:#d87408;stroke:#000000;stroke-width:0.2;stroke-linejoin:round" />
    <path
       id="path2643"
       d="M 73.8186,77.6439 H 75.81 v 4 h -1.9914 z"
       style="fill:#d87408;stroke:#000000;stroke-width:0.2;stroke-linejoin:round" />
    <path
       id="path2641"
       d="m 71.8271,77.6439 h 1.9915 v 4 h -1.9915 z"
       style="fill:#d87408;stroke:#000000;stroke-width:0.2;stroke-linejoin:round" />
    <path
       id="path2639"
       d="m 69.8357,77.6439 h 1.9914 v 4 h -1.9914 z"
       style="fill:#d87408;stroke:#000000;stroke-width:0.2;stroke-linejoin:round" />
    <path
       id="path2637"
       d="m 67.8443,77.6439 h 1.9914 v 4 h -1.9914 z"
       style="fill:#d87408;stroke:#000000;stroke-width:0.2;stroke-linejoin:round" />
    <path
       id="path2635"
       d="m 65.8529,77.6439 h 1.9914 v 4 h -1.9914 z"
       style="fill:#d87408;stroke:#000000;stroke-width:0.2;stroke-linejoin:round" />
    <path
       id="path2633"
       d="m 63.8615,77.6439 h 1.9914 v 4 h -1.9914 z"
       style="fill:#d87408;stroke:#000000;stroke-width:0.2;stroke-linejoin:round" />
    <path
       id="path2631"
       d="m 61.8701,77.6439 h 1.9914 v 4 h -1.9914 z"
       style="fill:#d87408;stroke:#000000;stroke-width:0.2;stroke-linejoin:round" />
    <path
       id="path2629"
       d="m 59.8787,77.6439 h 1.9914 v 4 h -1.9914 z"
       style="fill:#d87408;stroke:#000000;stroke-width:0.2;stroke-linejoin:round" />
    <path
       id="path2627"
       d="m 57.8872,77.6439 h 1.9915 v 4 h -1.9915 z"
       style="fill:#d87408;stroke:#000000;stroke-width:0.2;stroke-linejoin:round" />
    <path
       id="path2625"
       d="m 55.8958,77.6439 h 1.9914 v 4 h -1.9914 z"
       style="fill:#d87408;stroke:#000000;stroke-width:0.2;stroke-linejoin:round" />
    <path
       id="path2623"
       d="m 53.9044,77.6439 h 1.9914 v 4 h -1.9914 z"
       style="fill:#d87408;stroke:#000000;stroke-width:0.2;stroke-linejoin:round" />
    <path
       id="path2621"
       d="m 51.913,77.6439 h 1.9914 v 4 H 51.913 Z"
       style="fill:#d87408;stroke:#000000;stroke-width:0.2;stroke-linejoin:round" />
    <path
       id="path2619"
       d="m 49.9216,77.6439 h 1.9914 v 4 h -1.9914 z"
       style="fill:#d87408;stroke:#000000;stroke-width:0.2;stroke-linejoin:round" />
    <path
       id="path2617"
       d="m 47.9302,77.6439 h 1.9914 v 4 h -1.9914 z"
       style="fill:#d87408;stroke:#000000;stroke-width:0.2;stroke-linejoin:round" />
    <path
       id="path2615"
       d="m 45.9388,77.6439 h 1.9914 v 4 h -1.9914 z"
       style="fill:#d87408;stroke:#000000;stroke-width:0.2;stroke-linejoin:round" />
    <path
       id="rect1833"
       d="m 37.9731,77.6439 h 1.9914 v 4 h -1.9914 z"
       style="fill:#d87408;stroke:#000000;stroke-width:0.2;stroke-linejoin:round" />
  </g>
</svg>
