<?xml version="1.0" encoding="UTF-8" standalone="no"?>
<svg
   xmlns:dc="http://purl.org/dc/elements/1.1/"
   xmlns:cc="http://creativecommons.org/ns#"
   xmlns:rdf="http://www.w3.org/1999/02/22-rdf-syntax-ns#"
   xmlns:svg="http://www.w3.org/2000/svg"
   xmlns="http://www.w3.org/2000/svg"
   xmlns:sodipodi="http://sodipodi.sourceforge.net/DTD/sodipodi-0.dtd"
   xmlns:inkscape="http://www.inkscape.org/namespaces/inkscape"
   sodipodi:docname="eight-like-4-4.svg"
   inkscape:version="1.0 (4035a4fb49, 2020-05-01)"
   width="210mm"
   height="297mm"
   viewBox="0 0 210 297"
   version="1.1"
   id="svg14842">
  <defs
     id="defs14836" />
  <sodipodi:namedview
     inkscape:window-maximized="0"
     inkscape:window-y="0"
     inkscape:window-x="200"
     inkscape:window-height="1040"
     inkscape:window-width="1648"
     showgrid="true"
     inkscape:document-rotation="0"
     inkscape:current-layer="layer1"
     inkscape:document-units="mm"
     inkscape:cy="145.05827"
     inkscape:cx="367.54255"
     inkscape:zoom="2.8"
     inkscape:pageshadow="2"
     inkscape:pageopacity="0.0"
     borderopacity="1.0"
     bordercolor="#666666"
     pagecolor="#ffffff"
     id="base">
    <inkscape:grid
       id="grid15405"
       type="xygrid" />
  </sodipodi:namedview>
  <metadata
     id="metadata14839">
    <rdf:RDF>
      <cc:Work
         rdf:about="">
        <dc:format>image/svg+xml</dc:format>
        <dc:type
           rdf:resource="http://purl.org/dc/dcmitype/StillImage" />
        <dc:title></dc:title>
      </cc:Work>
    </rdf:RDF>
  </metadata>
  <g
     id="layer1"
     inkscape:groupmode="layer"
     inkscape:label="Слой 1">
    <path
       id="path15942"
       d="m 133.9916,23 h 2.002 v 4 h -2.002 z"
       style="fill:#d87408;stroke:#000000;stroke-width:0.2;stroke-linejoin:round" />
    <path
       id="path15598"
       d="m 128.9886,24.4771 -0.046,-1.9201 3.994,-0.2027 0.051,2.0809 z"
       style="fill:#d87408;stroke:#000000;stroke-width:0.2;stroke-linejoin:round" />
    <path
       id="path15596"
       d="m 128.9786,26.4366 0.01,-1.9595 3.999,-0.0419 -0.009,2.0433 z"
       style="fill:#d87408;stroke:#000000;stroke-width:0.2;stroke-linejoin:round" />
    <path
       id="path15594"
       d="m 128.8696,28.2529 0.109,-1.8163 4,0.0419 -0.13,2.1772 z"
       style="fill:#d87408;stroke:#000000;stroke-width:0.2;stroke-linejoin:round" />
    <path
       id="path15940"
       d="m 131.9906,23 h 2.001 v 4 h -2.001 z"
       style="fill:#d87408;stroke:#000000;stroke-width:0.2;stroke-linejoin:round" />
    <path
       id="path15938"
       d="m 129.9886,23 h 2.002 v 4 h -2.002 z"
       style="fill:#d87408;stroke:#000000;stroke-width:0.2;stroke-linejoin:round" />
    <path
       id="path15936"
       d="m 127.9876,23 h 2.001 v 4 h -2.001 z"
       style="fill:#d87408;stroke:#000000;stroke-width:0.2;stroke-linejoin:round" />
    <path
       id="path15934"
       d="m 125.9856,23 h 2.002 v 4 h -2.002 z"
       style="fill:#d87408;stroke:#000000;stroke-width:0.2;stroke-linejoin:round" />
    <path
       id="path15932"
       d="m 123.9836,23 h 2.002 v 4 h -2.002 z"
       style="fill:#d87408;stroke:#000000;stroke-width:0.2;stroke-linejoin:round" />
    <path
       id="path15930"
       d="m 121.9826,23 h 2.001 v 4 h -2.001 z"
       style="fill:#d87408;stroke:#000000;stroke-width:0.2;stroke-linejoin:round" />
    <path
       id="path15928"
       d="M 120.6336,22.9545 121.9826,23 v 4 l -2.622,-0.2566 z"
       style="fill:#d87408;stroke:#000000;stroke-width:0.2;stroke-linejoin:round" />
    <path
       id="path15926"
       d="m 119.7146,22.3355 0.919,0.619 -1.273,3.7889 -2.411,-1.5185 z"
       style="fill:#d87408;stroke:#000000;stroke-width:0.2;stroke-linejoin:round" />
    <path
       id="path15924"
       d="m 118.8606,21.1276 0.854,1.2079 -2.765,2.8894 -1.503,-2.0151 z"
       style="fill:#d87408;stroke:#000000;stroke-width:0.2;stroke-linejoin:round" />
    <path
       id="path15922"
       d="m 117.9786,19.4826 0.882,1.645 -3.414,2.0822 -1.014,-1.8785 z"
       style="fill:#d87408;stroke:#000000;stroke-width:0.2;stroke-linejoin:round" />
    <path
       id="path15920"
       d="m 117.0536,17.7079 0.925,1.7747 -3.546,1.8487 -0.925,-1.7747 z"
       style="fill:#d87408;stroke:#000000;stroke-width:0.2;stroke-linejoin:round" />
    <path
       id="path15918"
       d="m 115.8416,15.7425 1.212,1.9654 -3.546,1.8487 -0.881,-1.4386 z"
       style="fill:#d87408;stroke:#000000;stroke-width:0.2;stroke-linejoin:round" />
    <path
       id="path15916"
       d="m 113.8936,13.8491 1.948,1.8934 -3.215,2.3755 -0.881,-0.8968 z"
       style="fill:#d87408;stroke:#000000;stroke-width:0.2;stroke-linejoin:round" />
    <path
       id="path15914"
       d="m 110.7966,13.0098 3.097,0.8393 -2.148,3.3721 -0.697,-0.2221 z"
       style="fill:#d87408;stroke:#000000;stroke-width:0.2;stroke-linejoin:round" />
    <path
       id="path15912"
       d="m 107.9746,13.9253 2.822,-0.9155 0.252,3.9893 -0.927,0.2983 z"
       style="fill:#d87408;stroke:#000000;stroke-width:0.2;stroke-linejoin:round" />
    <path
       id="path15636"
       d="m 104.5076,21.4747 -0.925,-1.7747 3.546,-1.8487 0.925,1.7747 z"
       style="fill:#d87408;stroke:#000000;stroke-width:0.2;stroke-linejoin:round" />
    <path
       id="path15638"
       d="m 103.5826,19.7 -0.86,-1.4519 3.215,-2.3755 1.191,1.9787 z"
       style="fill:#d87408;stroke:#000000;stroke-width:0.2;stroke-linejoin:round" />
    <path
       id="path15910"
       d="m 106.0606,15.8566 1.914,-1.9313 2.147,3.3721 -0.845,0.9347 z"
       style="fill:#d87408;stroke:#000000;stroke-width:0.2;stroke-linejoin:round" />
    <path
       id="path15634"
       d="m 105.5306,23.3479 -1.023,-1.8732 3.546,-1.8487 0.891,1.6397 z"
       style="fill:#d87408;stroke:#000000;stroke-width:0.2;stroke-linejoin:round" />
    <path
       id="path15908"
       d="m 104.8676,17.8337 1.193,-1.9771 3.216,2.3755 -0.862,1.4503 z"
       style="fill:#d87408;stroke:#000000;stroke-width:0.2;stroke-linejoin:round" />
    <path
       id="path15632"
       d="m 107.0666,25.3367 -1.536,-1.9888 3.414,-2.0822 0.887,1.1815 z"
       style="fill:#d87408;stroke:#000000;stroke-width:0.2;stroke-linejoin:round" />
    <path
       id="path15906"
       d="m 103.9426,19.6084 0.925,-1.7747 3.547,1.8487 -0.925,1.7747 z"
       style="fill:#d87408;stroke:#000000;stroke-width:0.2;stroke-linejoin:round" />
    <path
       id="path15904"
       d="m 103.0526,21.2487 0.89,-1.6403 3.547,1.8487 -1.023,1.8738 z"
       style="fill:#d87408;stroke:#000000;stroke-width:0.2;stroke-linejoin:round" />
    <path
       id="path15902"
       d="m 102.1706,22.4335 0.882,-1.1848 3.414,2.0822 -1.532,1.9921 z"
       style="fill:#d87408;stroke:#000000;stroke-width:0.2;stroke-linejoin:round" />
    <path
       id="path15900"
       d="m 101.4706,22.9303 0.7,-0.4968 2.764,2.8895 -2.695,1.5299 z"
       style="fill:#d87408;stroke:#000000;stroke-width:0.2;stroke-linejoin:round" />
    <path
       id="path15898"
       d="m 100.5216,22.9169 0.949,0.0134 0.769,3.9226 -2.991,-0.1471 z"
       style="fill:#d87408;stroke:#000000;stroke-width:0.2;stroke-linejoin:round" />
    <path
       id="path15896"
       d="m 99.7436,22.3602 0.778,0.5567 -1.273,3.7889 -2.486,-1.6805 z"
       style="fill:#d87408;stroke:#000000;stroke-width:0.2;stroke-linejoin:round" />
    <path
       id="path15894"
       d="m 98.7996,21.0269 0.944,1.3333 -2.981,2.6651 -1.3777,-1.9163 z"
       style="fill:#d87408;stroke:#000000;stroke-width:0.2;stroke-linejoin:round" />
    <path
       id="path15892"
       d="m 97.9246,19.3779 0.875,1.649 -3.4147,2.0821 -1.007,-1.8824 z"
       style="fill:#d87408;stroke:#000000;stroke-width:0.2;stroke-linejoin:round" />
    <path
       id="path15890"
       d="m 96.9996,17.6033 0.925,1.7746 -3.5467,1.8487 -0.9251,-1.7746 z"
       style="fill:#d87408;stroke:#000000;stroke-width:0.2;stroke-linejoin:round" />
    <path
       id="path15888"
       d="m 95.7718,15.6477 1.2278,1.9556 -3.5468,1.8487 -0.8967,-1.4288 z"
       style="fill:#d87408;stroke:#000000;stroke-width:0.2;stroke-linejoin:round" />
    <path
       id="path15886"
       d="m 93.7937,13.7858 1.9781,1.8619 -3.2157,2.3755 -0.9101,-0.8654 z"
       style="fill:#d87408;stroke:#000000;stroke-width:0.2;stroke-linejoin:round" />
    <path
       id="path15884"
       d="m 90.6792,13.0172 3.1145,0.7686 -2.1477,3.372 -0.7149,-0.1512 z"
       style="fill:#d87408;stroke:#000000;stroke-width:0.2;stroke-linejoin:round" />
    <path
       id="path15882"
       d="m 87.7065,14.1129 2.9727,-1.0957 0.2519,3.9894 -0.7359,0.2358 z"
       style="fill:#d87408;stroke:#000000;stroke-width:0.2;stroke-linejoin:round" />
    <path
       id="path15668"
       d="m 83.5276,19.5954 -0.8754,-1.4422 3.2157,-2.3755 1.2062,1.969 z"
       style="fill:#d87408;stroke:#000000;stroke-width:0.2;stroke-linejoin:round" />
    <path
       id="path15880"
       d="m 85.9909,15.9515 1.7156,-1.8386 2.4887,3.1295 -0.9885,1.0846 z"
       style="fill:#d87408;stroke:#000000;stroke-width:0.2;stroke-linejoin:round" />
    <path
       id="path15666"
       d="m 84.4527,21.3701 -0.9251,-1.7747 3.5465,-1.8487 0.9251,1.7747 z"
       style="fill:#d87408;stroke:#000000;stroke-width:0.2;stroke-linejoin:round" />
    <path
       id="path15664"
       d="m 85.4691,23.2471 -1.0164,-1.877 3.5465,-1.8487 0.8843,1.6436 z"
       style="fill:#d87408;stroke:#000000;stroke-width:0.2;stroke-linejoin:round" />
    <path
       id="path15878"
       d="m 84.8132,17.9384 1.1777,-1.9869 3.2158,2.3755 -0.847,1.4601 z"
       style="fill:#d87408;stroke:#000000;stroke-width:0.2;stroke-linejoin:round" />
    <path
       id="path15876"
       d="m 83.8881,19.713 0.9251,-1.7746 3.5465,1.8487 -0.9251,1.7746 z"
       style="fill:#d87408;stroke:#000000;stroke-width:0.2;stroke-linejoin:round" />
    <path
       id="path15662"
       d="m 86.9816,25.2552 -1.5125,-2.0081 3.4144,-2.0821 0.8624,1.2007 z"
       style="fill:#d87408;stroke:#000000;stroke-width:0.2;stroke-linejoin:round" />
    <path
       id="path15874"
       d="m 82.9912,21.3495 0.8969,-1.6365 3.5465,1.8487 -1.0291,1.8699 z"
       style="fill:#d87408;stroke:#000000;stroke-width:0.2;stroke-linejoin:round" />
    <path
       id="path15872"
       d="m 82.0852,22.5151 0.906,-1.1656 3.4143,2.0821 -1.556,1.9729 z"
       style="fill:#d87408;stroke:#000000;stroke-width:0.2;stroke-linejoin:round" />
    <path
       id="path15870"
       d="m 81.3553,22.9529 0.7299,-0.4378 2.7643,2.8894 -2.7259,1.471 z"
       style="fill:#d87408;stroke:#000000;stroke-width:0.2;stroke-linejoin:round" />
    <path
       id="path15868"
       d="m 79.7448,23 1.6105,-0.0471 0.7683,3.9226 L 79.7448,27 Z"
       style="fill:#d87408;stroke:#000000;stroke-width:0.2;stroke-linejoin:round" />
    <path
       id="path15866"
       d="m 77.7432,23 h 2.0016 v 4 h -2.0016 z"
       style="fill:#d87408;stroke:#000000;stroke-width:0.2;stroke-linejoin:round" />
    <path
       id="path15864"
       d="m 75.7416,23 h 2.0016 v 4 h -2.0016 z"
       style="fill:#d87408;stroke:#000000;stroke-width:0.2;stroke-linejoin:round" />
    <path
       id="path15862"
       d="m 73.7401,23 h 2.0015 v 4 h -2.0015 z"
       style="fill:#d87408;stroke:#000000;stroke-width:0.2;stroke-linejoin:round" />
    <path
       id="path15860"
       d="m 71.7385,23 h 2.0016 v 4 h -2.0016 z"
       style="fill:#d87408;stroke:#000000;stroke-width:0.2;stroke-linejoin:round" />
    <path
       id="path15858"
       d="m 69.7369,23 h 2.0016 v 4 h -2.0016 z"
       style="fill:#d87408;stroke:#000000;stroke-width:0.2;stroke-linejoin:round" />
    <path
       id="path15856"
       d="m 67.7353,23 h 2.0016 v 4 h -2.0016 z"
       style="fill:#d87408;stroke:#000000;stroke-width:0.2;stroke-linejoin:round" />
    <path
       id="path15854"
       d="m 65.7337,23 h 2.0016 v 4 h -2.0016 z"
       style="fill:#d87408;stroke:#000000;stroke-width:0.2;stroke-linejoin:round" />
    <path
       id="path15852"
       d="m 63.7321,23 h 2.0016 v 4 h -2.0016 z"
       style="fill:#d87408;stroke:#000000;stroke-width:0.2;stroke-linejoin:round" />
    <path
       id="path15850"
       d="m 61.7305,23 h 2.0016 v 4 h -2.0016 z"
       style="fill:#d87408;stroke:#000000;stroke-width:0.2;stroke-linejoin:round" />
    <path
       id="path15848"
       d="m 59.7289,23 h 2.0016 v 4 h -2.0016 z"
       style="fill:#d87408;stroke:#000000;stroke-width:0.2;stroke-linejoin:round" />
    <path
       id="path15846"
       d="m 57.7273,23 h 2.0016 v 4 h -2.0016 z"
       style="fill:#d87408;stroke:#000000;stroke-width:0.2;stroke-linejoin:round" />
    <path
       id="path15844"
       d="m 55.7257,23 h 2.0016 v 4 h -2.0016 z"
       style="fill:#d87408;stroke:#000000;stroke-width:0.2;stroke-linejoin:round" />
    <path
       id="path15842"
       d="m 53.7241,23 h 2.0016 v 4 h -2.0016 z"
       style="fill:#d87408;stroke:#000000;stroke-width:0.2;stroke-linejoin:round" />
    <path
       id="path15840"
       d="m 51.7225,23 h 2.0016 v 4 h -2.0016 z"
       style="fill:#d87408;stroke:#000000;stroke-width:0.2;stroke-linejoin:round" />
    <path
       id="path15838"
       d="m 49.7209,23 h 2.0016 v 4 h -2.0016 z"
       style="fill:#d87408;stroke:#000000;stroke-width:0.2;stroke-linejoin:round" />
    <path
       id="path15836"
       d="m 47.7193,23 h 2.0016 v 4 h -2.0016 z"
       style="fill:#d87408;stroke:#000000;stroke-width:0.2;stroke-linejoin:round" />
    <path
       id="path15834"
       d="m 45.7177,23 h 2.0016 v 4 h -2.0016 z"
       style="fill:#d87408;stroke:#000000;stroke-width:0.2;stroke-linejoin:round" />
    <path
       id="path15832"
       d="m 43.7161,23 h 2.0016 v 4 h -2.0016 z"
       style="fill:#d87408;stroke:#000000;stroke-width:0.2;stroke-linejoin:round" />
    <path
       id="path15830"
       d="m 41.7145,23 h 2.0016 v 4 h -2.0016 z"
       style="fill:#d87408;stroke:#000000;stroke-width:0.2;stroke-linejoin:round" />
    <path
       id="path15828"
       d="m 39.713,23 h 2.0015 v 4 H 39.713 Z"
       style="fill:#d87408;stroke:#000000;stroke-width:0.2;stroke-linejoin:round" />
    <path
       id="path15826"
       d="m 37.7114,23 h 2.0016 v 4 h -2.0016 z"
       style="fill:#d87408;stroke:#000000;stroke-width:0.2;stroke-linejoin:round" />
    <path
       id="path15824"
       d="m 35.7098,23 h 2.0016 v 4 h -2.0016 z"
       style="fill:#d87408;stroke:#000000;stroke-width:0.2;stroke-linejoin:round" />
    <path
       id="path15822"
       d="m 33.7082,23 h 2.0016 v 4 h -2.0016 z"
       style="fill:#d87408;stroke:#000000;stroke-width:0.2;stroke-linejoin:round" />
    <path
       id="path15820"
       d="m 31.7066,23 h 2.0016 v 4 h -2.0016 z"
       style="fill:#d87408;stroke:#000000;stroke-width:0.2;stroke-linejoin:round" />
    <path
       id="path15818"
       d="m 29.705,23 h 2.0016 v 4 H 29.705 Z"
       style="fill:#d87408;stroke:#000000;stroke-width:0.2;stroke-linejoin:round" />
    <path
       id="path15816"
       d="m 27.7034,23 h 2.0016 v 4 h -2.0016 z"
       style="fill:#d87408;stroke:#000000;stroke-width:0.2;stroke-linejoin:round" />
    <path
       id="path15814"
       d="m 25.7018,23 h 2.0016 v 4 h -2.0016 z"
       style="fill:#d87408;stroke:#000000;stroke-width:0.2;stroke-linejoin:round" />
    <path
       id="path15812"
       d="m 23.7002,23 h 2.0016 v 4 h -2.0016 z"
       style="fill:#d87408;stroke:#000000;stroke-width:0.2;stroke-linejoin:round" />
    <path
       id="path15810"
       d="m 21.6986,23 h 2.0016 v 4 h -2.0016 z"
       style="fill:#d87408;stroke:#000000;stroke-width:0.2;stroke-linejoin:round" />
    <path
       id="path15808"
       d="M 19.6328,23.0437 21.6986,23 v 4 l -1.9355,0.0408 z"
       style="fill:#d87408;stroke:#000000;stroke-width:0.2;stroke-linejoin:round" />
    <path
       id="path15806"
       d="m 17.4903,23.2354 2.1425,-0.1917 0.1303,3.9971 -1.8412,0.1701 z"
       style="fill:#d87408;stroke:#000000;stroke-width:0.2;stroke-linejoin:round" />
    <path
       id="path15804"
       d="m 15.0912,23.7816 2.3991,-0.5462 0.4316,3.9755 -1.4999,0.3421 z"
       style="fill:#d87408;stroke:#000000;stroke-width:0.2;stroke-linejoin:round" />
    <path
       id="path15802"
       d="m 12.9029,24.7869 2.1883,-1.0053 1.3308,3.7714 -1.443,0.6518 z"
       style="fill:#d87408;stroke:#000000;stroke-width:0.2;stroke-linejoin:round" />
    <path
       id="path15800"
       d="m 10.8414,26.6524 2.0615,-1.8655 2.0761,3.4179 -0.8994,0.7941 z"
       style="fill:#d87408;stroke:#000000;stroke-width:0.2;stroke-linejoin:round" />
    <path
       id="path15798"
       d="m 9.6569,28.913 1.1845,-2.2606 3.2382,2.3465 -0.6602,1.27 z"
       style="fill:#d87408;stroke:#000000;stroke-width:0.2;stroke-linejoin:round" />
    <path
       id="path15796"
       d="m 9.1383,31.3443 0.5186,-2.4313 3.7625,1.3559 -0.302,1.4782 z"
       style="fill:#d87408;stroke:#000000;stroke-width:0.2;stroke-linejoin:round" />
    <path
       id="path15448"
       d="m 7.9952,33 h 2.0016 v 4 H 7.9952 Z"
       style="fill:#d87408;stroke:#000000;stroke-width:0.2;stroke-linejoin:round" />
    <path
       id="path15450"
       d="m 9.9968,33 h 2.0016 v 4 H 9.9968 Z"
       style="fill:#d87408;stroke:#000000;stroke-width:0.2;stroke-linejoin:round" />
    <path
       id="path15452"
       d="M 11.9984,33 H 14 v 4 h -2.0016 z"
       style="fill:#d87408;stroke:#000000;stroke-width:0.2;stroke-linejoin:round" />
    <path
       id="path15794"
       d="m 9.0091,33.5215 0.1292,-2.1772 3.9791,0.4028 -0.1088,1.8163 z"
       style="fill:#d87408;stroke:#000000;stroke-width:0.2;stroke-linejoin:round" />
    <path
       id="path15792"
       d="m 8.9995,35.5648 0.0096,-2.0433 3.9995,0.0419 -0.0095,1.9595 z"
       style="fill:#d87408;stroke:#000000;stroke-width:0.2;stroke-linejoin:round" />
    <path
       id="path15790"
       d="m 9.0503,37.6457 -0.0508,-2.0809 3.9996,-0.0419 0.0458,1.9201 z"
       style="fill:#d87408;stroke:#000000;stroke-width:0.2;stroke-linejoin:round" />
    <path
       id="path15788"
       d="m 9.3273,39.868 -0.277,-2.2223 3.9946,-0.2027 0.223,1.745 z"
       style="fill:#d87408;stroke:#000000;stroke-width:0.2;stroke-linejoin:round" />
    <path
       id="path15786"
       d="m 10.1908,42.3252 -0.8635,-2.4572 3.9406,-0.68 0.4754,1.3006 z"
       style="fill:#d87408;stroke:#000000;stroke-width:0.2;stroke-linejoin:round" />
    <path
       id="path15784"
       d="m 11.9159,44.488 -1.7251,-2.1628 3.5525,-1.8366 0.7557,0.9468 z"
       style="fill:#d87408;stroke:#000000;stroke-width:0.2;stroke-linejoin:round" />
    <path
       id="path15782"
       d="m 14.1177,45.8475 -2.2018,-1.3595 2.5831,-3.0526 1.1891,0.7341 z"
       style="fill:#d87408;stroke:#000000;stroke-width:0.2;stroke-linejoin:round" />
    <path
       id="path15780"
       d="m 16.3618,46.5582 -2.2441,-0.7107 1.5704,-3.678 1.5665,0.49 z"
       style="fill:#d87408;stroke:#000000;stroke-width:0.2;stroke-linejoin:round" />
    <path
       id="path15778"
       d="m 18.5714,46.8819 -2.2096,-0.3237 0.8928,-3.8987 1.7484,0.2469 z"
       style="fill:#d87408;stroke:#000000;stroke-width:0.2;stroke-linejoin:round" />
    <path
       id="path15776"
       d="m 20.7198,46.9917 -2.1484,-0.1098 0.4316,-3.9755 1.8471,0.0883 z"
       style="fill:#d87408;stroke:#000000;stroke-width:0.2;stroke-linejoin:round" />
    <path
       id="path15774"
       d="m 23.777,46.2249 -3.0572,0.7668 0.1303,-3.997 0.7792,-0.1419 z"
       style="fill:#d87408;stroke:#000000;stroke-width:0.2;stroke-linejoin:round" />
    <path
       id="path15772"
       d="m 25.7601,44.3683 -1.9831,1.8566 -2.1477,-3.3721 0.915,-0.86 z"
       style="fill:#d87408;stroke:#000000;stroke-width:0.2;stroke-linejoin:round" />
    <path
       id="path15770"
       d="m 26.9902,42.4143 -1.2301,1.954 -3.2158,-2.3755 0.8994,-1.4272 z"
       style="fill:#d87408;stroke:#000000;stroke-width:0.2;stroke-linejoin:round" />
    <path
       id="path15768"
       d="m 27.9152,40.6397 -0.925,1.7746 -3.5465,-1.8487 0.9251,-1.7746 z"
       style="fill:#d87408;stroke:#000000;stroke-width:0.2;stroke-linejoin:round" />
    <path
       id="path15766"
       d="m 28.789,38.9901 -0.8738,1.6496 -3.5464,-1.8487 1.0058,-1.8831 z"
       style="fill:#d87408;stroke:#000000;stroke-width:0.2;stroke-linejoin:round" />
    <path
       id="path15764"
       d="m 29.7306,37.6546 -0.9416,1.3355 -3.4144,-2.0822 1.3743,-1.9184 z"
       style="fill:#d87408;stroke:#000000;stroke-width:0.2;stroke-linejoin:round" />
    <path
       id="path15762"
       d="m 30.5031,37.0894 -0.7725,0.5652 -2.9817,-2.6651 2.4807,-1.689 z"
       style="fill:#d87408;stroke:#000000;stroke-width:0.2;stroke-linejoin:round" />
    <path
       id="path15760"
       d="m 31.4516,37.0659 -0.9485,0.0235 -1.2735,-3.7889 2.9903,-0.1572 z"
       style="fill:#d87408;stroke:#000000;stroke-width:0.2;stroke-linejoin:round" />
    <path
       id="path15758"
       d="m 32.1561,37.5528 -0.7045,-0.4869 0.7683,-3.9226 2.7005,1.52 z"
       style="fill:#d87408;stroke:#000000;stroke-width:0.2;stroke-linejoin:round" />
    <path
       id="path15484"
       d="m 34.4981,38.5429 1.0221,-1.8738 3.4144,2.0822 -0.8901,1.6403 z"
       style="fill:#d87408;stroke:#000000;stroke-width:0.2;stroke-linejoin:round" />
    <path
       id="path15482"
       d="m 33.573,40.3176 0.9251,-1.7747 3.5464,1.8487 -0.925,1.7747 z"
       style="fill:#d87408;stroke:#000000;stroke-width:0.2;stroke-linejoin:round" />
    <path
       id="path15486"
       d="m 35.5202,36.6691 1.5323,-1.9921 2.7643,2.8895 -0.8822,1.1848 z"
       style="fill:#d87408;stroke:#000000;stroke-width:0.2;stroke-linejoin:round" />
    <path
       id="path15756"
       d="m 33.0423,38.7343 -0.8862,-1.1815 2.7643,-2.8895 1.5362,1.9888 z"
       style="fill:#d87408;stroke:#000000;stroke-width:0.2;stroke-linejoin:round" />
    <path
       id="path15754"
       d="m 33.9335,40.374 -0.8912,-1.6397 3.4143,-2.0822 1.0234,1.8732 z"
       style="fill:#d87408;stroke:#000000;stroke-width:0.2;stroke-linejoin:round" />
    <path
       id="path15480"
       d="m 32.7104,41.7679 0.8626,-1.4503 3.5465,1.8487 -1.1933,1.9771 z"
       style="fill:#d87408;stroke:#000000;stroke-width:0.2;stroke-linejoin:round" />
    <path
       id="path15752"
       d="M 34.8586,42.1487 33.9335,40.374 37.48,38.5253 38.4051,40.3 Z"
       style="fill:#d87408;stroke:#000000;stroke-width:0.2;stroke-linejoin:round" />
    <path
       id="path15750"
       d="M 36.0492,44.1274 34.8586,42.1487 38.4051,40.3 39.265,41.7519 Z"
       style="fill:#d87408;stroke:#000000;stroke-width:0.2;stroke-linejoin:round" />
    <path
       id="path15748"
       d="m 37.9576,46.064 -1.9084,-1.9366 3.2158,-2.3755 0.8403,0.9401 z"
       style="fill:#d87408;stroke:#000000;stroke-width:0.2;stroke-linejoin:round" />
    <path
       id="path15746"
       d="m 40.7771,46.9889 -2.8195,-0.9249 2.1477,-3.372 0.9237,0.3076 z"
       style="fill:#d87408;stroke:#000000;stroke-width:0.2;stroke-linejoin:round" />
    <path
       id="path15744"
       d="m 43.8765,46.1615 -3.0994,0.8274 0.2519,-3.9893 0.6998,-0.2101 z"
       style="fill:#d87408;stroke:#000000;stroke-width:0.2;stroke-linejoin:round" />
    <path
       id="path15742"
       d="m 45.8301,44.2734 -1.9536,1.8881 -2.1477,-3.372 0.8856,-0.8916 z"
       style="fill:#d87408;stroke:#000000;stroke-width:0.2;stroke-linejoin:round" />
    <path
       id="path15740"
       d="m 47.0447,42.3097 -1.2146,1.9637 -3.2157,-2.3755 0.8838,-1.4369 z"
       style="fill:#d87408;stroke:#000000;stroke-width:0.2;stroke-linejoin:round" />
    <path
       id="path15738"
       d="m 47.9698,40.535 -0.9251,1.7747 -3.5465,-1.8487 0.9251,-1.7747 z"
       style="fill:#d87408;stroke:#000000;stroke-width:0.2;stroke-linejoin:round" />
    <path
       id="path15736"
       d="M 48.8504,38.8893 47.9698,40.535 44.4233,38.6863 45.436,36.8072 Z"
       style="fill:#d87408;stroke:#000000;stroke-width:0.2;stroke-linejoin:round" />
    <path
       id="path15734"
       d="m 49.8092,37.5667 -0.9588,1.3226 -3.4144,-2.0821 1.3915,-1.9056 z"
       style="fill:#d87408;stroke:#000000;stroke-width:0.2;stroke-linejoin:round" />
    <path
       id="path15732"
       d="m 50.6149,37.0518 -0.8057,0.5149 -2.9817,-2.6651 2.5138,-1.6387 z"
       style="fill:#d87408;stroke:#000000;stroke-width:0.2;stroke-linejoin:round" />
    <path
       id="path15730"
       d="m 51.3121,37.0316 -0.6972,0.0202 -1.2736,-3.7889 3.2443,-0.0202 z"
       style="fill:#d87408;stroke:#000000;stroke-width:0.2;stroke-linejoin:round" />
    <path
       id="path15728"
       d="m 52.2413,37.6343 -0.9292,-0.6027 1.2735,-3.7889 2.42,1.5021 z"
       style="fill:#d87408;stroke:#000000;stroke-width:0.2;stroke-linejoin:round" />
    <path
       id="path15516"
       d="m 55.5817,36.5684 1.556,-1.9729 2.7643,2.8894 -0.906,1.1656 z"
       style="fill:#d87408;stroke:#000000;stroke-width:0.2;stroke-linejoin:round" />
    <path
       id="path15514"
       d="m 54.5526,38.4383 1.0291,-1.8699 3.4143,2.0821 -0.8969,1.6365 z"
       style="fill:#d87408;stroke:#000000;stroke-width:0.2;stroke-linejoin:round" />
    <path
       id="path15726"
       d="m 53.1037,38.835 -0.8624,-1.2007 2.7643,-2.8895 1.5125,2.0081 z"
       style="fill:#d87408;stroke:#000000;stroke-width:0.2;stroke-linejoin:round" />
    <path
       id="path15510"
       d="m 52.7805,41.673 0.847,-1.4601 3.5465,1.8487 -1.1777,1.9869 z"
       style="fill:#d87408;stroke:#000000;stroke-width:0.2;stroke-linejoin:round" />
    <path
       id="path15512"
       d="m 53.6275,40.2129 0.9251,-1.7746 3.5465,1.8487 -0.9251,1.7746 z"
       style="fill:#d87408;stroke:#000000;stroke-width:0.2;stroke-linejoin:round" />
    <path
       id="path15724"
       d="m 53.988,40.4786 -0.8843,-1.6436 3.4144,-2.0821 1.0164,1.877 z"
       style="fill:#d87408;stroke:#000000;stroke-width:0.2;stroke-linejoin:round" />
    <path
       id="path15722"
       d="m 54.9131,42.2533 -0.9251,-1.7747 3.5465,-1.8487 0.9251,1.7747 z"
       style="fill:#d87408;stroke:#000000;stroke-width:0.2;stroke-linejoin:round" />
    <path
       id="path15720"
       d="m 56.1193,44.2223 -1.2062,-1.969 3.5465,-1.8487 0.8754,1.4422 z"
       style="fill:#d87408;stroke:#000000;stroke-width:0.2;stroke-linejoin:round" />
    <path
       id="path15718"
       d="m 58.0571,46.1274 -1.9378,-1.9051 3.2157,-2.3755 0.8698,0.9085 z"
       style="fill:#d87408;stroke:#000000;stroke-width:0.2;stroke-linejoin:round" />
    <path
       id="path15716"
       d="m 61.0686,46.9986 -3.0115,-0.8712 2.1477,-3.3721 0.7681,0.2448 z"
       style="fill:#d87408;stroke:#000000;stroke-width:0.2;stroke-linejoin:round" />
    <path
       id="path15714"
       d="m 63.2797,46.8615 -2.2111,0.1371 -0.0957,-3.9985 1.7818,-0.1034 z"
       style="fill:#d87408;stroke:#000000;stroke-width:0.2;stroke-linejoin:round" />
    <path
       id="path15712"
       d="m 65.4891,46.4148 -2.2094,0.4467 -0.525,-3.9648 1.7084,-0.3472 z"
       style="fill:#d87408;stroke:#000000;stroke-width:0.2;stroke-linejoin:round" />
    <path
       id="path15710"
       d="m 67.8868,45.3731 -2.3977,1.0417 -1.026,-3.8653 1.267,-0.5438 z"
       style="fill:#d87408;stroke:#000000;stroke-width:0.2;stroke-linejoin:round" />
    <path
       id="path15708"
       d="m 69.8256,43.7985 -1.9388,1.5746 -2.1567,-3.3674 1.165,-0.928 z"
       style="fill:#d87408;stroke:#000000;stroke-width:0.2;stroke-linejoin:round" />
    <path
       id="path15706"
       d="m 71.3062,41.6749 -1.4806,2.1236 -2.9305,-2.7208 0.81,-1.1425 z"
       style="fill:#d87408;stroke:#000000;stroke-width:0.2;stroke-linejoin:round" />
    <path
       id="path15704"
       d="m 72.1612,39.4538 -0.855,2.2211 -3.6011,-1.7397 0.5901,-1.5027 z"
       style="fill:#d87408;stroke:#000000;stroke-width:0.2;stroke-linejoin:round" />
    <path
       id="path15702"
       d="m 72.6231,37.3425 -0.4619,2.1113 -3.866,-1.0213 0.3914,-1.7955 z"
       style="fill:#d87408;stroke:#000000;stroke-width:0.2;stroke-linejoin:round" />
    <path
       id="path15700"
       d="m 72.8669,35.1357 -0.2438,2.2068 -3.9365,-0.7055 0.1896,-1.7706 z"
       style="fill:#d87408;stroke:#000000;stroke-width:0.2;stroke-linejoin:round" />
    <path
       id="path15698"
       d="m 72.966,33.0697 -0.0991,2.066 -3.9907,-0.2693 0.0922,-1.9319 z"
       style="fill:#d87408;stroke:#000000;stroke-width:0.2;stroke-linejoin:round" />
    <path
       id="path15696"
       d="m 72.9865,31.0147 -0.0205,2.055 -3.9976,-0.1352 0.0183,-1.9477 z"
       style="fill:#d87408;stroke:#000000;stroke-width:0.2;stroke-linejoin:round" />
    <path
       id="path15694"
       d="m 73.0005,29.0132 -0.014,2.0015 -3.9998,-0.0279 0.014,-2.0015 z"
       style="fill:#d87408;stroke:#000000;stroke-width:0.2;stroke-linejoin:round" />
    <path
       id="path15692"
       d="m 73.0188,27.0655 -0.0183,1.9477 -3.9998,-0.0279 0.0205,-2.055 z"
       style="fill:#d87408;stroke:#000000;stroke-width:0.2;stroke-linejoin:round" />
    <path
       id="path15690"
       d="m 73.111,25.1336 -0.0922,1.9319 -3.9976,-0.1352 0.0991,-2.066 z"
       style="fill:#d87408;stroke:#000000;stroke-width:0.2;stroke-linejoin:round" />
    <path
       id="path15688"
       d="m 73.3006,23.363 -0.1896,1.7706 -3.9907,-0.2693 0.2438,-2.2068 z"
       style="fill:#d87408;stroke:#000000;stroke-width:0.2;stroke-linejoin:round" />
    <path
       id="path15686"
       d="M 73.692,21.5675 73.3006,23.363 69.3641,22.6575 69.826,20.5462 Z"
       style="fill:#d87408;stroke:#000000;stroke-width:0.2;stroke-linejoin:round" />
    <path
       id="path15684"
       d="m 74.2821,20.0648 -0.5901,1.5027 -3.866,-1.0213 0.855,-2.2211 z"
       style="fill:#d87408;stroke:#000000;stroke-width:0.2;stroke-linejoin:round" />
    <path
       id="path15682"
       d="m 75.0921,18.9223 -0.81,1.1425 -3.6011,-1.7397 1.4806,-2.1236 z"
       style="fill:#d87408;stroke:#000000;stroke-width:0.2;stroke-linejoin:round" />
    <path
       id="path15680"
       d="m 76.2571,17.9943 -1.165,0.928 -2.9305,-2.7208 1.9388,-1.5746 z"
       style="fill:#d87408;stroke:#000000;stroke-width:0.2;stroke-linejoin:round" />
    <path
       id="path15678"
       d="m 77.5241,17.4505 -1.267,0.5438 -2.1567,-3.3674 2.3977,-1.0417 z"
       style="fill:#d87408;stroke:#000000;stroke-width:0.2;stroke-linejoin:round" />
    <path
       id="path15676"
       d="m 79.2325,17.1033 -1.7084,0.3472 -1.026,-3.8653 2.2094,-0.4467 z"
       style="fill:#d87408;stroke:#000000;stroke-width:0.2;stroke-linejoin:round" />
    <path
       id="path15674"
       d="m 81.0143,16.9999 -1.7818,0.1034 -0.525,-3.9648 2.2111,-0.1371 z"
       style="fill:#d87408;stroke:#000000;stroke-width:0.2;stroke-linejoin:round" />
    <path
       id="path15672"
       d="m 81.7824,17.2447 -0.7681,-0.2448 -0.0957,-3.9985 3.0115,0.8712 z"
       style="fill:#d87408;stroke:#000000;stroke-width:0.2;stroke-linejoin:round" />
    <path
       id="path15670"
       d="m 82.6522,18.1532 -0.8698,-0.9085 2.1477,-3.3721 1.9378,1.9051 z"
       style="fill:#d87408;stroke:#000000;stroke-width:0.2;stroke-linejoin:round" />
    <path
       id="path15660"
       d="m 89.4016,26.7573 -2.42,-1.5021 2.7643,-2.8895 0.9292,0.6027 z"
       style="fill:#d87408;stroke:#000000;stroke-width:0.2;stroke-linejoin:round" />
    <path
       id="path15658"
       d="m 92.6459,26.7371 -3.2443,0.0202 1.2735,-3.7889 0.6972,-0.0202 z"
       style="fill:#d87408;stroke:#000000;stroke-width:0.2;stroke-linejoin:round" />
    <path
       id="path15656"
       d="m 95.1597,25.0984 -2.5138,1.6387 -1.2736,-3.7889 0.8057,-0.5149 z"
       style="fill:#d87408;stroke:#000000;stroke-width:0.2;stroke-linejoin:round" />
    <path
       id="path15654"
       d="m 96.5516,23.1928 -1.3919,1.9056 -2.9817,-2.6651 0.9588,-1.3226 z"
       style="fill:#d87408;stroke:#000000;stroke-width:0.2;stroke-linejoin:round" />
    <path
       id="path15652"
       d="m 97.5636,21.3137 -1.012,1.8791 -3.4148,-2.0821 0.8806,-1.6457 z"
       style="fill:#d87408;stroke:#000000;stroke-width:0.2;stroke-linejoin:round" />
    <path
       id="path15650"
       d="m 98.4886,19.539 -0.925,1.7747 -3.5462,-1.8487 0.9251,-1.7747 z"
       style="fill:#d87408;stroke:#000000;stroke-width:0.2;stroke-linejoin:round" />
    <path
       id="path15648"
       d="m 99.3726,18.1021 -0.884,1.4369 -3.5461,-1.8487 1.2141,-1.9637 z"
       style="fill:#d87408;stroke:#000000;stroke-width:0.2;stroke-linejoin:round" />
    <path
       id="path15646"
       d="m 100.2586,17.2105 -0.886,0.8916 -3.216,-2.3755 1.954,-1.8881 z"
       style="fill:#d87408;stroke:#000000;stroke-width:0.2;stroke-linejoin:round" />
    <path
       id="path15644"
       d="m 100.9586,17.0004 -0.7,0.2101 -2.148,-3.372 3.099,-0.8274 z"
       style="fill:#d87408;stroke:#000000;stroke-width:0.2;stroke-linejoin:round" />
    <path
       id="path15642"
       d="m 101.8816,17.308 -0.923,-0.3076 0.251,-3.9893 2.82,0.9249 z"
       style="fill:#d87408;stroke:#000000;stroke-width:0.2;stroke-linejoin:round" />
    <path
       id="path15640"
       d="m 102.7226,18.2481 -0.841,-0.9401 2.148,-3.372 1.908,1.9366 z"
       style="fill:#d87408;stroke:#000000;stroke-width:0.2;stroke-linejoin:round" />
    <path
       id="path15630"
       d="m 109.7676,26.8567 -2.701,-1.52 2.765,-2.8895 0.704,0.4869 z"
       style="fill:#d87408;stroke:#000000;stroke-width:0.2;stroke-linejoin:round" />
    <path
       id="path15628"
       d="m 112.7576,26.6995 -2.99,0.1572 0.768,-3.9226 0.948,-0.0235 z"
       style="fill:#d87408;stroke:#000000;stroke-width:0.2;stroke-linejoin:round" />
    <path
       id="path15626"
       d="m 115.2386,25.0105 -2.481,1.689 -1.274,-3.7889 0.773,-0.5652 z"
       style="fill:#d87408;stroke:#000000;stroke-width:0.2;stroke-linejoin:round" />
    <path
       id="path15624"
       d="m 116.6126,23.0921 -1.374,1.9184 -2.982,-2.6651 0.942,-1.3355 z"
       style="fill:#d87408;stroke:#000000;stroke-width:0.2;stroke-linejoin:round" />
    <path
       id="path15622"
       d="m 117.6186,21.209 -1.006,1.8831 -3.414,-2.0822 0.873,-1.6496 z"
       style="fill:#d87408;stroke:#000000;stroke-width:0.2;stroke-linejoin:round" />
    <path
       id="path15620"
       d="m 118.5436,19.4344 -0.925,1.7746 -3.547,-1.8487 0.925,-1.7746 z"
       style="fill:#d87408;stroke:#000000;stroke-width:0.2;stroke-linejoin:round" />
    <path
       id="path15618"
       d="m 119.4426,18.0072 -0.899,1.4272 -3.547,-1.8487 1.231,-1.954 z"
       style="fill:#d87408;stroke:#000000;stroke-width:0.2;stroke-linejoin:round" />
    <path
       id="path15616"
       d="m 120.3576,17.1472 -0.915,0.86 -3.215,-2.3755 1.983,-1.8566 z"
       style="fill:#d87408;stroke:#000000;stroke-width:0.2;stroke-linejoin:round" />
    <path
       id="path15614"
       d="m 121.1376,17.0053 -0.78,0.1419 -2.147,-3.3721 3.057,-0.7668 z"
       style="fill:#d87408;stroke:#000000;stroke-width:0.2;stroke-linejoin:round" />
    <path
       id="path15612"
       d="m 122.9846,17.0936 -1.847,-0.0883 0.13,-3.997 2.148,0.1098 z"
       style="fill:#d87408;stroke:#000000;stroke-width:0.2;stroke-linejoin:round" />
    <path
       id="path15610"
       d="m 124.7326,17.3405 -1.748,-0.2469 0.431,-3.9755 2.21,0.3237 z"
       style="fill:#d87408;stroke:#000000;stroke-width:0.2;stroke-linejoin:round" />
    <path
       id="path15608"
       d="m 126.2986,17.8305 -1.566,-0.49 0.893,-3.8987 2.244,0.7107 z"
       style="fill:#d87408;stroke:#000000;stroke-width:0.2;stroke-linejoin:round" />
    <path
       id="path15606"
       d="m 127.4886,18.5646 -1.19,-0.7341 1.571,-3.678 2.202,1.3595 z"
       style="fill:#d87408;stroke:#000000;stroke-width:0.2;stroke-linejoin:round" />
    <path
       id="path15604"
       d="m 128.2436,19.5114 -0.755,-0.9468 2.583,-3.0526 1.725,2.1628 z"
       style="fill:#d87408;stroke:#000000;stroke-width:0.2;stroke-linejoin:round" />
    <path
       id="path15602"
       d="m 128.7196,20.812 -0.476,-1.3006 3.553,-1.8366 0.863,2.4572 z"
       style="fill:#d87408;stroke:#000000;stroke-width:0.2;stroke-linejoin:round" />
    <path
       id="path15600"
       d="m 128.9426,22.557 -0.223,-1.745 3.94,-0.68 0.277,2.2223 z"
       style="fill:#d87408;stroke:#000000;stroke-width:0.2;stroke-linejoin:round" />
    <path
       id="path15592"
       d="m 128.5676,29.7311 0.302,-1.4782 3.979,0.4028 -0.518,2.4313 z"
       style="fill:#d87408;stroke:#000000;stroke-width:0.2;stroke-linejoin:round" />
    <path
       id="path15590"
       d="m 127.9076,31.0011 0.66,-1.27 3.763,1.3559 -1.185,2.2606 z"
       style="fill:#d87408;stroke:#000000;stroke-width:0.2;stroke-linejoin:round" />
    <path
       id="path15588"
       d="m 127.0086,31.7952 0.899,-0.7941 3.238,2.3465 -2.061,1.8655 z"
       style="fill:#d87408;stroke:#000000;stroke-width:0.2;stroke-linejoin:round" />
    <path
       id="path15586"
       d="m 125.5656,32.447 1.443,-0.6518 2.076,3.4179 -2.189,1.0053 z"
       style="fill:#d87408;stroke:#000000;stroke-width:0.2;stroke-linejoin:round" />
    <path
       id="path15584"
       d="m 124.0656,32.7891 1.5,-0.3421 1.33,3.7714 -2.399,0.5462 z"
       style="fill:#d87408;stroke:#000000;stroke-width:0.2;stroke-linejoin:round" />
    <path
       id="path15582"
       d="m 122.2246,32.9592 1.841,-0.1701 0.431,3.9755 -2.142,0.1917 z"
       style="fill:#d87408;stroke:#000000;stroke-width:0.2;stroke-linejoin:round" />
    <path
       id="path15580"
       d="m 120.2886,33 1.936,-0.0408 0.13,3.9971 -2.066,0.0437 z"
       style="fill:#d87408;stroke:#000000;stroke-width:0.2;stroke-linejoin:round" />
    <path
       id="path15578"
       d="m 118.2866,33 h 2.002 v 4 h -2.002 z"
       style="fill:#d87408;stroke:#000000;stroke-width:0.2;stroke-linejoin:round" />
    <path
       id="path15576"
       d="m 116.2856,33 h 2.001 v 4 h -2.001 z"
       style="fill:#d87408;stroke:#000000;stroke-width:0.2;stroke-linejoin:round" />
    <path
       id="path15574"
       d="m 114.2836,33 h 2.002 v 4 h -2.002 z"
       style="fill:#d87408;stroke:#000000;stroke-width:0.2;stroke-linejoin:round" />
    <path
       id="path15572"
       d="m 112.2826,33 h 2.001 v 4 h -2.001 z"
       style="fill:#d87408;stroke:#000000;stroke-width:0.2;stroke-linejoin:round" />
    <path
       id="path15570"
       d="m 110.2806,33 h 2.002 v 4 h -2.002 z"
       style="fill:#d87408;stroke:#000000;stroke-width:0.2;stroke-linejoin:round" />
    <path
       id="path15568"
       d="m 108.2786,33 h 2.002 v 4 h -2.002 z"
       style="fill:#d87408;stroke:#000000;stroke-width:0.2;stroke-linejoin:round" />
    <path
       id="path15566"
       d="m 106.2776,33 h 2.001 v 4 h -2.001 z"
       style="fill:#d87408;stroke:#000000;stroke-width:0.2;stroke-linejoin:round" />
    <path
       id="path15564"
       d="m 104.2756,33 h 2.002 v 4 h -2.002 z"
       style="fill:#d87408;stroke:#000000;stroke-width:0.2;stroke-linejoin:round" />
    <path
       id="path15562"
       d="m 102.2746,33 h 2.001 v 4 h -2.001 z"
       style="fill:#d87408;stroke:#000000;stroke-width:0.2;stroke-linejoin:round" />
    <path
       id="path15560"
       d="m 100.2726,33 h 2.002 v 4 h -2.002 z"
       style="fill:#d87408;stroke:#000000;stroke-width:0.2;stroke-linejoin:round" />
    <path
       id="path15558"
       d="m 98.2706,33 h 2.002 v 4 h -2.002 z"
       style="fill:#d87408;stroke:#000000;stroke-width:0.2;stroke-linejoin:round" />
    <path
       id="path15556"
       d="m 96.2696,33 h 2.001 v 4 h -2.001 z"
       style="fill:#d87408;stroke:#000000;stroke-width:0.2;stroke-linejoin:round" />
    <path
       id="path15554"
       d="m 94.2679,33 h 2.0017 v 4 h -2.0017 z"
       style="fill:#d87408;stroke:#000000;stroke-width:0.2;stroke-linejoin:round" />
    <path
       id="path15552"
       d="m 92.2663,33 h 2.0016 v 4 h -2.0016 z"
       style="fill:#d87408;stroke:#000000;stroke-width:0.2;stroke-linejoin:round" />
    <path
       id="path15550"
       d="m 90.2647,33 h 2.0016 v 4 h -2.0016 z"
       style="fill:#d87408;stroke:#000000;stroke-width:0.2;stroke-linejoin:round" />
    <path
       id="path15548"
       d="m 88.2631,33 h 2.0016 v 4 h -2.0016 z"
       style="fill:#d87408;stroke:#000000;stroke-width:0.2;stroke-linejoin:round" />
    <path
       id="path15546"
       d="m 86.2615,33 h 2.0016 v 4 h -2.0016 z"
       style="fill:#d87408;stroke:#000000;stroke-width:0.2;stroke-linejoin:round" />
    <path
       id="path15544"
       d="m 84.2599,33 h 2.0016 v 4 h -2.0016 z"
       style="fill:#d87408;stroke:#000000;stroke-width:0.2;stroke-linejoin:round" />
    <path
       id="path15542"
       d="m 82.2583,33 h 2.0016 v 4 h -2.0016 z"
       style="fill:#d87408;stroke:#000000;stroke-width:0.2;stroke-linejoin:round" />
    <path
       id="path15540"
       d="m 80.2567,33 h 2.0016 v 4 h -2.0016 z"
       style="fill:#d87408;stroke:#000000;stroke-width:0.2;stroke-linejoin:round" />
    <path
       id="path15538"
       d="m 78.2551,33 h 2.0016 v 4 h -2.0016 z"
       style="fill:#d87408;stroke:#000000;stroke-width:0.2;stroke-linejoin:round" />
    <path
       id="path15536"
       d="m 76.2535,33 h 2.0016 v 4 h -2.0016 z"
       style="fill:#d87408;stroke:#000000;stroke-width:0.2;stroke-linejoin:round" />
    <path
       id="path15534"
       d="m 74.2519,33 h 2.0016 v 4 h -2.0016 z"
       style="fill:#d87408;stroke:#000000;stroke-width:0.2;stroke-linejoin:round" />
    <path
       id="path15532"
       d="m 72.2503,33 h 2.0016 v 4 h -2.0016 z"
       style="fill:#d87408;stroke:#000000;stroke-width:0.2;stroke-linejoin:round" />
    <path
       id="path15530"
       d="m 70.2487,33 h 2.0016 v 4 h -2.0016 z"
       style="fill:#d87408;stroke:#000000;stroke-width:0.2;stroke-linejoin:round" />
    <path
       id="path15528"
       d="m 68.2471,33 h 2.0016 v 4 h -2.0016 z"
       style="fill:#d87408;stroke:#000000;stroke-width:0.2;stroke-linejoin:round" />
    <path
       id="path15526"
       d="m 66.2456,33 h 2.0015 v 4 h -2.0015 z"
       style="fill:#d87408;stroke:#000000;stroke-width:0.2;stroke-linejoin:round" />
    <path
       id="path15524"
       d="m 64.244,33 h 2.0016 v 4 H 64.244 Z"
       style="fill:#d87408;stroke:#000000;stroke-width:0.2;stroke-linejoin:round" />
    <path
       id="path15522"
       d="m 62.2424,33 h 2.0016 v 4 h -2.0016 z"
       style="fill:#d87408;stroke:#000000;stroke-width:0.2;stroke-linejoin:round" />
    <path
       id="path15520"
       d="M 59.8636,33.1245 62.2424,33 v 4 l -1.6105,0.0471 z"
       style="fill:#d87408;stroke:#000000;stroke-width:0.2;stroke-linejoin:round" />
    <path
       id="path15518"
       d="m 57.1377,34.5955 2.7259,-1.471 0.7683,3.9226 -0.7299,0.4378 z"
       style="fill:#d87408;stroke:#000000;stroke-width:0.2;stroke-linejoin:round" />
    <path
       id="path15508"
       d="m 51.792,42.7576 0.9885,-1.0846 3.2158,2.3755 -1.7156,1.8386 z"
       style="fill:#d87408;stroke:#000000;stroke-width:0.2;stroke-linejoin:round" />
    <path
       id="path15506"
       d="m 51.0561,42.9934 0.7359,-0.2358 2.4887,3.1295 -2.9727,1.0957 z"
       style="fill:#d87408;stroke:#000000;stroke-width:0.2;stroke-linejoin:round" />
    <path
       id="path15504"
       d="m 50.3412,42.8422 0.7149,0.1512 0.2519,3.9894 -3.1145,-0.7686 z"
       style="fill:#d87408;stroke:#000000;stroke-width:0.2;stroke-linejoin:round" />
    <path
       id="path15502"
       d="m 49.4311,41.9768 0.9101,0.8654 -2.1477,3.372 -1.9781,-1.8619 z"
       style="fill:#d87408;stroke:#000000;stroke-width:0.2;stroke-linejoin:round" />
    <path
       id="path15500"
       d="m 48.5344,40.548 0.8967,1.4288 -3.2157,2.3755 -1.2275,-1.9556 z"
       style="fill:#d87408;stroke:#000000;stroke-width:0.2;stroke-linejoin:round" />
    <path
       id="path15498"
       d="m 47.6093,38.7734 0.9251,1.7746 -3.5465,1.8487 -0.9251,-1.7746 z"
       style="fill:#d87408;stroke:#000000;stroke-width:0.2;stroke-linejoin:round" />
    <path
       id="path15496"
       d="m 46.6023,36.891 1.007,1.8824 -3.5465,1.8487 -0.8749,-1.649 z"
       style="fill:#d87408;stroke:#000000;stroke-width:0.2;stroke-linejoin:round" />
    <path
       id="path15494"
       d="m 45.2251,34.9747 1.3772,1.9163 -3.4144,2.0821 -0.9445,-1.3333 z"
       style="fill:#d87408;stroke:#000000;stroke-width:0.2;stroke-linejoin:round" />
    <path
       id="path15492"
       d="m 42.7388,33.2942 2.4863,1.6805 -2.9817,2.6651 -0.7781,-0.5567 z"
       style="fill:#d87408;stroke:#000000;stroke-width:0.2;stroke-linejoin:round" />
    <path
       id="path15490"
       d="m 39.7479,33.1471 2.9909,0.1471 -1.2735,3.7889 -0.9492,-0.0134 z"
       style="fill:#d87408;stroke:#000000;stroke-width:0.2;stroke-linejoin:round" />
    <path
       id="path15488"
       d="m 37.0525,34.677 2.6954,-1.5299 0.7682,3.9226 -0.6993,0.4968 z"
       style="fill:#d87408;stroke:#000000;stroke-width:0.2;stroke-linejoin:round" />
    <path
       id="path15478"
       d="m 31.8651,42.7026 0.8453,-0.9347 3.2158,2.3755 -1.9134,1.9313 z"
       style="fill:#d87408;stroke:#000000;stroke-width:0.2;stroke-linejoin:round" />
    <path
       id="path15476"
       d="m 30.9384,43.0009 0.9267,-0.2983 2.1477,3.3721 -2.8225,0.9155 z"
       style="fill:#d87408;stroke:#000000;stroke-width:0.2;stroke-linejoin:round" />
    <path
       id="path15474"
       d="m 30.2417,42.7788 0.6967,0.2221 0.2519,3.9893 -3.0963,-0.8393 z"
       style="fill:#d87408;stroke:#000000;stroke-width:0.2;stroke-linejoin:round" />
    <path
       id="path15472"
       d="m 29.361,41.882 0.8807,0.8968 -2.1477,3.3721 -1.9487,-1.8934 z"
       style="fill:#d87408;stroke:#000000;stroke-width:0.2;stroke-linejoin:round" />
    <path
       id="path15470"
       d="m 28.4798,40.4434 0.8812,1.4386 -3.2157,2.3755 -1.212,-1.9654 z"
       style="fill:#d87408;stroke:#000000;stroke-width:0.2;stroke-linejoin:round" />
    <path
       id="path15468"
       d="m 27.5547,38.6687 0.9251,1.7747 -3.5465,1.8487 -0.9251,-1.7747 z"
       style="fill:#d87408;stroke:#000000;stroke-width:0.2;stroke-linejoin:round" />
    <path
       id="path15466"
       d="m 26.5408,36.7902 1.0139,1.8785 -3.5465,1.8487 -0.8817,-1.645 z"
       style="fill:#d87408;stroke:#000000;stroke-width:0.2;stroke-linejoin:round" />
    <path
       id="path15464"
       d="m 25.0372,34.7751 1.5036,2.0151 -3.4143,2.0822 -0.8536,-1.2079 z"
       style="fill:#d87408;stroke:#000000;stroke-width:0.2;stroke-linejoin:round" />
    <path
       id="path15462"
       d="m 22.6271,33.2566 2.4101,1.5185 -2.7643,2.8894 -0.9194,-0.619 z"
       style="fill:#d87408;stroke:#000000;stroke-width:0.2;stroke-linejoin:round" />
    <path
       id="path15460"
       d="m 20.0048,33 2.6223,0.2566 -1.2736,3.7889 L 20.0048,37 Z"
       style="fill:#d87408;stroke:#000000;stroke-width:0.2;stroke-linejoin:round" />
    <path
       id="path15458"
       d="m 18.0032,33 h 2.0016 v 4 h -2.0016 z"
       style="fill:#d87408;stroke:#000000;stroke-width:0.2;stroke-linejoin:round" />
    <path
       id="path15456"
       d="m 16.0016,33 h 2.0016 v 4 h -2.0016 z"
       style="fill:#d87408;stroke:#000000;stroke-width:0.2;stroke-linejoin:round" />
    <path
       id="path15454"
       d="m 14,33 h 2.0016 v 4 H 14 Z"
       style="fill:#d87408;stroke:#000000;stroke-width:0.2;stroke-linejoin:round" />
    <path
       id="rect15433"
       d="m 5.9936,33 h 2.0016 v 4 H 5.9936 Z"
       style="fill:#d87408;stroke:#000000;stroke-width:0.2;stroke-linejoin:round" />
  </g>
</svg>
