<?xml version="1.0" encoding="UTF-8" standalone="no"?>
<svg
   xmlns:dc="http://purl.org/dc/elements/1.1/"
   xmlns:cc="http://creativecommons.org/ns#"
   xmlns:rdf="http://www.w3.org/1999/02/22-rdf-syntax-ns#"
   xmlns:svg="http://www.w3.org/2000/svg"
   xmlns="http://www.w3.org/2000/svg"
   xmlns:sodipodi="http://sodipodi.sourceforge.net/DTD/sodipodi-0.dtd"
   xmlns:inkscape="http://www.inkscape.org/namespaces/inkscape"
   sodipodi:docname="eight-like-2-1.svg"
   inkscape:version="1.0 (4035a4fb49, 2020-05-01)"
   width="210mm"
   height="297mm"
   viewBox="0 0 210 297"
   version="1.1"
   id="svg1138">
  <defs
     id="defs1132" />
  <sodipodi:namedview
     inkscape:window-maximized="0"
     inkscape:window-y="0"
     inkscape:window-x="125"
     inkscape:window-height="1040"
     inkscape:window-width="1648"
     showgrid="true"
     inkscape:document-rotation="0"
     inkscape:current-layer="layer1"
     inkscape:document-units="mm"
     inkscape:cy="168.31787"
     inkscape:cx="171.40548"
     inkscape:zoom="2.8"
     inkscape:pageshadow="2"
     inkscape:pageopacity="0.0"
     borderopacity="1.0"
     bordercolor="#666666"
     pagecolor="#ffffff"
     id="base">
    <inkscape:grid
       id="grid1701"
       type="xygrid" />
  </sodipodi:namedview>
  <metadata
     id="metadata1135">
    <rdf:RDF>
      <cc:Work
         rdf:about="">
        <dc:format>image/svg+xml</dc:format>
        <dc:type
           rdf:resource="http://purl.org/dc/dcmitype/StillImage" />
        <dc:title></dc:title>
      </cc:Work>
    </rdf:RDF>
  </metadata>
  <g
     id="layer1"
     inkscape:groupmode="layer"
     inkscape:label="Слой 1">
    <path
       id="path2038"
       d="m 92.7662,33 h 2.0058 v 4 h -2.0058 z"
       style="fill:#d87408;stroke:#000000;stroke-width:0.2;stroke-linejoin:round" />
    <path
       id="path1834"
       d="m 87.766,34.4246 -0.0482,-1.9243 3.9946,-0.2027 0.0531,2.0851 z"
       style="fill:#d87408;stroke:#000000;stroke-width:0.2;stroke-linejoin:round" />
    <path
       id="path1830"
       d="m 87.6527,38.209 0.1048,-1.8207 3.9995,0.0419 -0.1253,2.1816 z"
       style="fill:#d87408;stroke:#000000;stroke-width:0.2;stroke-linejoin:round" />
    <path
       id="path1832"
       d="m 87.7575,36.3883 0.0085,-1.9637 3.9995,-0.0419 -0.0085,2.0475 z"
       style="fill:#d87408;stroke:#000000;stroke-width:0.2;stroke-linejoin:round" />
    <path
       id="path2036"
       d="m 90.7604,33 h 2.0058 v 4 h -2.0058 z"
       style="fill:#d87408;stroke:#000000;stroke-width:0.2;stroke-linejoin:round" />
    <path
       id="path2034"
       d="m 88.7545,33 h 2.0059 v 4 h -2.0059 z"
       style="fill:#d87408;stroke:#000000;stroke-width:0.2;stroke-linejoin:round" />
    <path
       id="path2032"
       d="m 86.7487,33 h 2.0058 v 4 h -2.0058 z"
       style="fill:#d87408;stroke:#000000;stroke-width:0.2;stroke-linejoin:round" />
    <path
       id="path2030"
       d="m 84.7429,33 h 2.0058 v 4 h -2.0058 z"
       style="fill:#d87408;stroke:#000000;stroke-width:0.2;stroke-linejoin:round" />
    <path
       id="path2028"
       d="m 82.7371,33 h 2.0058 v 4 h -2.0058 z"
       style="fill:#d87408;stroke:#000000;stroke-width:0.2;stroke-linejoin:round" />
    <path
       id="path2026"
       d="m 80.7312,33 h 2.0059 v 4 h -2.0059 z"
       style="fill:#d87408;stroke:#000000;stroke-width:0.2;stroke-linejoin:round" />
    <path
       id="path2024"
       d="M 79.38,32.9437 80.7312,33 v 4 l -2.6247,-0.2674 z"
       style="fill:#d87408;stroke:#000000;stroke-width:0.2;stroke-linejoin:round" />
    <path
       id="path2022"
       d="m 78.5755,32.4198 0.8045,0.5239 -1.2735,3.7889 -2.5127,-1.6477 z"
       style="fill:#d87408;stroke:#000000;stroke-width:0.2;stroke-linejoin:round" />
    <path
       id="path2020"
       d="m 77.6171,31.0915 0.9584,1.3283 -2.9817,2.6651 -1.391,-1.9112 z"
       style="fill:#d87408;stroke:#000000;stroke-width:0.2;stroke-linejoin:round" />
    <path
       id="path2018"
       d="m 76.7359,29.4413 0.8812,1.6502 -3.4143,2.0822 -1.0134,-1.8837 z"
       style="fill:#d87408;stroke:#000000;stroke-width:0.2;stroke-linejoin:round" />
    <path
       id="path2016"
       d="m 75.8088,27.6629 0.9271,1.7784 -3.5465,1.8487 -0.9271,-1.7784 z"
       style="fill:#d87408;stroke:#000000;stroke-width:0.2;stroke-linejoin:round" />
    <path
       id="path2014"
       d="m 74.5877,25.6984 1.2211,1.9645 -3.5465,1.8487 -0.8904,-1.4377 z"
       style="fill:#d87408;stroke:#000000;stroke-width:0.2;stroke-linejoin:round" />
    <path
       id="path2012"
       d="m 72.6217,23.8173 1.966,1.8811 -3.2158,2.3755 -0.8979,-0.8845 z"
       style="fill:#d87408;stroke:#000000;stroke-width:0.2;stroke-linejoin:round" />
    <path
       id="path2010"
       d="m 69.5898,23.004 3.0319,0.8133 -2.1477,3.3721 -0.7885,-0.187 z"
       style="fill:#d87408;stroke:#000000;stroke-width:0.2;stroke-linejoin:round" />
    <path
       id="path2008"
       d="m 67.3755,23.1531 2.2143,-0.1491 0.0957,3.9984 -1.785,0.1156 z"
       style="fill:#d87408;stroke:#000000;stroke-width:0.2;stroke-linejoin:round" />
    <path
       id="path2006"
       d="m 65.0304,23.6636 2.3451,-0.5105 0.525,3.9649 -1.571,0.3277 z"
       style="fill:#d87408;stroke:#000000;stroke-width:0.2;stroke-linejoin:round" />
    <path
       id="path2004"
       d="m 62.7779,24.6915 2.2525,-1.0279 1.2991,3.7821 -1.3949,0.6132 z"
       style="fill:#d87408;stroke:#000000;stroke-width:0.2;stroke-linejoin:round" />
    <path
       id="path2002"
       d="m 60.8556,26.2924 1.9223,-1.6009 2.1567,3.3674 -1.1484,0.9543 z"
       style="fill:#d87408;stroke:#000000;stroke-width:0.2;stroke-linejoin:round" />
    <path
       id="path2000"
       d="m 59.4036,28.4407 1.452,-2.1483 2.9306,2.7208 -0.7815,1.1671 z"
       style="fill:#d87408;stroke:#000000;stroke-width:0.2;stroke-linejoin:round" />
    <path
       id="path1998"
       d="m 58.5706,30.6743 0.833,-2.2336 3.6011,1.7396 -0.5681,1.5153 z"
       style="fill:#d87408;stroke:#000000;stroke-width:0.2;stroke-linejoin:round" />
    <path
       id="path1876"
       d="m 58.7717,37 h -2.0058 v -4 h 2.0058 z"
       style="fill:#d87408;stroke:#000000;stroke-width:0.2;stroke-linejoin:round" />
    <path
       id="path1872"
       d="m 62.7834,37 h -2.0059 v -4 h 2.0059 z"
       style="fill:#d87408;stroke:#000000;stroke-width:0.2;stroke-linejoin:round" />
    <path
       id="path1874"
       d="m 60.7775,37 h -2.0058 v -4 h 2.0058 z"
       style="fill:#d87408;stroke:#000000;stroke-width:0.2;stroke-linejoin:round" />
    <path
       id="path1996"
       d="m 58.1184,32.7921 0.4522,-2.1178 3.866,1.0213 -0.3817,1.802 z"
       style="fill:#d87408;stroke:#000000;stroke-width:0.2;stroke-linejoin:round" />
    <path
       id="path1994"
       d="m 57.8892,35.0049 0.2292,-2.2128 3.9365,0.7055 -0.175,1.7766 z"
       style="fill:#d87408;stroke:#000000;stroke-width:0.2;stroke-linejoin:round" />
    <path
       id="path1992"
       d="m 57.7947,37.0754 0.0945,-2.0705 3.9907,0.2693 -0.0876,1.9364 z"
       style="fill:#d87408;stroke:#000000;stroke-width:0.2;stroke-linejoin:round" />
    <path
       id="path1990"
       d="m 57.778,39.1347 0.0167,-2.0593 3.9976,0.1352 -0.0145,1.952 z"
       style="fill:#d87408;stroke:#000000;stroke-width:0.2;stroke-linejoin:round" />
    <path
       id="path1988"
       d="m 57.764,41.1404 0.014,-2.0057 3.9998,0.0279 -0.014,2.0058 z"
       style="fill:#d87408;stroke:#000000;stroke-width:0.2;stroke-linejoin:round" />
    <path
       id="path1986"
       d="m 57.7414,43.0923 0.0226,-1.9519 3.9998,0.028 -0.0248,2.0591 z"
       style="fill:#d87408;stroke:#000000;stroke-width:0.2;stroke-linejoin:round" />
    <path
       id="path1984"
       d="m 57.6437,45.0282 0.0977,-1.9359 3.9976,0.1352 -0.1046,2.07 z"
       style="fill:#d87408;stroke:#000000;stroke-width:0.2;stroke-linejoin:round" />
    <path
       id="path1982"
       d="m 57.4357,46.8007 0.208,-1.7725 3.9907,0.2693 -0.2623,2.2087 z"
       style="fill:#d87408;stroke:#000000;stroke-width:0.2;stroke-linejoin:round" />
    <path
       id="path1980"
       d="m 57.0301,48.5973 0.4056,-1.7966 3.9364,0.7055 -0.476,2.1124 z"
       style="fill:#d87408;stroke:#000000;stroke-width:0.2;stroke-linejoin:round" />
    <path
       id="path1978"
       d="m 56.4613,49.9687 0.5688,-1.3714 3.866,1.0213 -0.9591,2.3282 z"
       style="fill:#d87408;stroke:#000000;stroke-width:0.2;stroke-linejoin:round" />
    <path
       id="path1976"
       d="m 55.5517,51.2089 0.9096,-1.2402 3.4757,1.9781 -1.4547,1.9828 z"
       style="fill:#d87408;stroke:#000000;stroke-width:0.2;stroke-linejoin:round" />
    <path
       id="path1974"
       d="m 54.4913,52.0108 1.0604,-0.8019 2.9306,2.7207 -2.1203,1.6155 z"
       style="fill:#d87408;stroke:#000000;stroke-width:0.2;stroke-linejoin:round" />
    <path
       id="path1972"
       d="m 53.0603,52.5975 1.431,-0.5867 1.8707,3.5343 -2.2757,0.9178 z"
       style="fill:#d87408;stroke:#000000;stroke-width:0.2;stroke-linejoin:round" />
    <path
       id="path1970"
       d="m 51.343,52.9218 1.7173,-0.3243 1.026,3.8654 -2.2182,0.4237 z"
       style="fill:#d87408;stroke:#000000;stroke-width:0.2;stroke-linejoin:round" />
    <path
       id="path1968"
       d="m 49.7296,52.9947 1.6134,-0.0729 0.5251,3.9648 -2.3903,0.0974 z"
       style="fill:#d87408;stroke:#000000;stroke-width:0.2;stroke-linejoin:round" />
    <path
       id="path1966"
       d="m 48.9861,52.7676 0.7435,0.2271 -0.2518,3.9893 -2.9804,-1.087 z"
       style="fill:#d87408;stroke:#000000;stroke-width:0.2;stroke-linejoin:round" />
    <path
       id="path1964"
       d="m 47.9921,51.6825 0.994,1.0851 -2.4887,3.1294 -1.7211,-1.839 z"
       style="fill:#d87408;stroke:#000000;stroke-width:0.2;stroke-linejoin:round" />
    <path
       id="path1776"
       d="m 41.5315,51.7101 0.855,-1.46 3.5465,1.8487 -1.1857,1.9868 z"
       style="fill:#d87408;stroke:#000000;stroke-width:0.2;stroke-linejoin:round" />
    <path
       id="path1778"
       d="m 42.3865,50.2501 0.9271,-1.7784 3.5465,1.8487 -0.9271,1.7784 z"
       style="fill:#d87408;stroke:#000000;stroke-width:0.2;stroke-linejoin:round" />
    <path
       id="path1962"
       d="m 47.1416,50.2196 0.8505,1.4629 -3.2158,2.3755 -1.1812,-1.9897 z"
       style="fill:#d87408;stroke:#000000;stroke-width:0.2;stroke-linejoin:round" />
    <path
       id="path1780"
       d="m 43.3136,48.4717 1.0291,-1.8748 3.4143,2.0822 -0.8969,1.6413 z"
       style="fill:#d87408;stroke:#000000;stroke-width:0.2;stroke-linejoin:round" />
    <path
       id="path1782"
       d="m 44.3427,46.5969 1.5523,-1.9812 2.7643,2.8894 -0.9023,1.174 z"
       style="fill:#d87408;stroke:#000000;stroke-width:0.2;stroke-linejoin:round" />
    <path
       id="path1960"
       d="m 46.2145,48.4412 0.9271,1.7784 -3.5465,1.8487 -0.9271,-1.7784 z"
       style="fill:#d87408;stroke:#000000;stroke-width:0.2;stroke-linejoin:round" />
    <path
       id="path1958"
       d="m 45.1835,46.5676 1.031,1.8736 -3.5465,1.8487 -0.8989,-1.6402 z"
       style="fill:#d87408;stroke:#000000;stroke-width:0.2;stroke-linejoin:round" />
    <path
       id="path1956"
       d="m 43.6242,44.5919 1.5593,1.9757 -3.4144,2.0821 -0.9092,-1.1683 z"
       style="fill:#d87408;stroke:#000000;stroke-width:0.2;stroke-linejoin:round" />
    <path
       id="path1954"
       d="m 40.8928,43.1227 2.7314,1.4692 -2.7643,2.8895 -0.7354,-0.4361 z"
       style="fill:#d87408;stroke:#000000;stroke-width:0.2;stroke-linejoin:round" />
    <path
       id="path1952"
       d="m 37.9021,43.3361 2.9907,-0.2134 -0.7683,3.9226 -0.9489,0.0797 z"
       style="fill:#d87408;stroke:#000000;stroke-width:0.2;stroke-linejoin:round" />
    <path
       id="path1950"
       d="m 35.45,45.076 2.4521,-1.7399 1.2735,3.7889 -0.7439,0.6161 z"
       style="fill:#d87408;stroke:#000000;stroke-width:0.2;stroke-linejoin:round" />
    <path
       id="path1948"
       d="m 34.0904,47.0105 1.3596,-1.9345 2.9817,2.6651 -0.9269,1.3516 z"
       style="fill:#d87408;stroke:#000000;stroke-width:0.2;stroke-linejoin:round" />
    <path
       id="path1946"
       d="m 33.0896,48.9013 1.0008,-1.8908 3.4144,2.0822 -0.8687,1.6573 z"
       style="fill:#d87408;stroke:#000000;stroke-width:0.2;stroke-linejoin:round" />
    <path
       id="path1944"
       d="m 32.1626,50.6797 0.927,-1.7784 3.5465,1.8487 -0.927,1.7784 z"
       style="fill:#d87408;stroke:#000000;stroke-width:0.2;stroke-linejoin:round" />
    <path
       id="path1942"
       d="m 31.2438,52.0996 0.9188,-1.4199 3.5465,1.8487 -1.2496,1.9467 z"
       style="fill:#d87408;stroke:#000000;stroke-width:0.2;stroke-linejoin:round" />
    <path
       id="path1940"
       d="m 30.4915,52.805 0.7523,-0.7054 3.2157,2.3755 -2.2281,1.9289 z"
       style="fill:#d87408;stroke:#000000;stroke-width:0.2;stroke-linejoin:round" />
    <path
       id="path1938"
       d="m 29.4872,52.99 1.0043,-0.185 1.7399,3.599 -2.8744,0.5831 z"
       style="fill:#d87408;stroke:#000000;stroke-width:0.2;stroke-linejoin:round" />
    <path
       id="path1936"
       d="M 27.6367,52.8907 29.4872,52.99 29.357,56.9871 27.2052,56.8662 Z"
       style="fill:#d87408;stroke:#000000;stroke-width:0.2;stroke-linejoin:round" />
    <path
       id="path1934"
       d="m 25.887,52.6261 1.7497,0.2646 -0.4315,3.9755 -2.211,-0.3415 z"
       style="fill:#d87408;stroke:#000000;stroke-width:0.2;stroke-linejoin:round" />
    <path
       id="path1932"
       d="m 24.3249,52.109 1.5621,0.5171 -0.8928,3.8986 -2.2398,-0.7377 z"
       style="fill:#d87408;stroke:#000000;stroke-width:0.2;stroke-linejoin:round" />
    <path
       id="path1930"
       d="m 23.2758,51.4426 1.0491,0.6664 -1.5705,3.678 -2.3001,-1.5106 z"
       style="fill:#d87408;stroke:#000000;stroke-width:0.2;stroke-linejoin:round" />
    <path
       id="path1928"
       d="m 22.4471,50.3443 0.8287,1.0983 -2.8215,2.8338 -1.5597,-2.0955 z"
       style="fill:#d87408;stroke:#000000;stroke-width:0.2;stroke-linejoin:round" />
    <path
       id="path1926"
       d="m 22.018,49.0238 0.4291,1.3205 -3.5525,1.8366 -0.8173,-2.4771 z"
       style="fill:#d87408;stroke:#000000;stroke-width:0.2;stroke-linejoin:round" />
    <path
       id="path1924"
       d="m 21.8146,47.2723 0.2034,1.7515 -3.9407,0.68 L 17.82,47.475 Z"
       style="fill:#d87408;stroke:#000000;stroke-width:0.2;stroke-linejoin:round" />
    <path
       id="path1744"
       d="m 16.7778,43 h 2.0058 v 4 h -2.0058 z"
       style="fill:#d87408;stroke:#000000;stroke-width:0.2;stroke-linejoin:round" />
    <path
       id="path1746"
       d="m 18.7836,43 h 2.0059 v 4 h -2.0059 z"
       style="fill:#d87408;stroke:#000000;stroke-width:0.2;stroke-linejoin:round" />
    <path
       id="path1748"
       d="m 20.7895,43 h 2.0058 v 4 h -2.0058 z"
       style="fill:#d87408;stroke:#000000;stroke-width:0.2;stroke-linejoin:round" />
    <path
       id="path1922"
       d="m 21.7756,45.3477 0.039,1.9246 -3.9946,0.2027 -0.0439,-2.0854 z"
       style="fill:#d87408;stroke:#000000;stroke-width:0.2;stroke-linejoin:round" />
    <path
       id="path1920"
       d="m 21.7889,43.384 -0.0133,1.9637 -3.9995,0.0419 0.0133,-2.0475 z"
       style="fill:#d87408;stroke:#000000;stroke-width:0.2;stroke-linejoin:round" />
    <path
       id="path1918"
       d="m 21.9142,41.5644 -0.1253,1.8196 -3.9995,-0.0419 0.1458,-2.1805 z"
       style="fill:#d87408;stroke:#000000;stroke-width:0.2;stroke-linejoin:round" />
    <path
       id="path1916"
       d="m 22.2615,40.0922 -0.3473,1.4722 -3.979,-0.4028 0.5637,-2.4252 z"
       style="fill:#d87408;stroke:#000000;stroke-width:0.2;stroke-linejoin:round" />
    <path
       id="path1914"
       d="m 22.8808,38.9751 -0.6193,1.1171 -3.7626,-1.3558 1.3405,-2.3577 z"
       style="fill:#d87408;stroke:#000000;stroke-width:0.2;stroke-linejoin:round" />
    <path
       id="path1912"
       d="M 23.9251,38.1029 22.8808,38.9751 19.8394,36.3787 21.849,34.685 Z"
       style="fill:#d87408;stroke:#000000;stroke-width:0.2;stroke-linejoin:round" />
    <path
       id="path1910"
       d="M 25.2798,37.5336 23.9251,38.1029 21.849,34.685 24.1755,33.6896 Z"
       style="fill:#d87408;stroke:#000000;stroke-width:0.2;stroke-linejoin:round" />
    <path
       id="path1908"
       d="m 26.9038,37.1888 -1.624,0.3448 -1.1043,-3.844 2.2967,-0.4763 z"
       style="fill:#d87408;stroke:#000000;stroke-width:0.2;stroke-linejoin:round" />
    <path
       id="path1906"
       d="M 28.7503,37.034 26.9038,37.1888 26.4722,33.2133 28.62,33.0369 Z"
       style="fill:#d87408;stroke:#000000;stroke-width:0.2;stroke-linejoin:round" />
    <path
       id="path1904"
       d="M 30.6902,37 28.7503,37.034 28.62,33.0369 30.6902,33 Z"
       style="fill:#d87408;stroke:#000000;stroke-width:0.2;stroke-linejoin:round" />
    <path
       id="path1902"
       d="M 32.696,37 H 30.6902 V 33 H 32.696 Z"
       style="fill:#d87408;stroke:#000000;stroke-width:0.2;stroke-linejoin:round" />
    <path
       id="path1900"
       d="M 34.7019,37 H 32.696 v -4 h 2.0059 z"
       style="fill:#d87408;stroke:#000000;stroke-width:0.2;stroke-linejoin:round" />
    <path
       id="path1898"
       d="m 36.7077,37 h -2.0058 v -4 h 2.0058 z"
       style="fill:#d87408;stroke:#000000;stroke-width:0.2;stroke-linejoin:round" />
    <path
       id="path1896"
       d="m 38.7135,37 h -2.0058 v -4 h 2.0058 z"
       style="fill:#d87408;stroke:#000000;stroke-width:0.2;stroke-linejoin:round" />
    <path
       id="path1894"
       d="m 40.7193,37 h -2.0058 v -4 h 2.0058 z"
       style="fill:#d87408;stroke:#000000;stroke-width:0.2;stroke-linejoin:round" />
    <path
       id="path1892"
       d="m 42.7251,37 h -2.0058 v -4 h 2.0058 z"
       style="fill:#d87408;stroke:#000000;stroke-width:0.2;stroke-linejoin:round" />
    <path
       id="path1890"
       d="M 44.731,37 H 42.7251 V 33 H 44.731 Z"
       style="fill:#d87408;stroke:#000000;stroke-width:0.2;stroke-linejoin:round" />
    <path
       id="path1888"
       d="M 46.7368,37 H 44.731 v -4 h 2.0058 z"
       style="fill:#d87408;stroke:#000000;stroke-width:0.2;stroke-linejoin:round" />
    <path
       id="path1886"
       d="m 48.7426,37 h -2.0058 v -4 h 2.0058 z"
       style="fill:#d87408;stroke:#000000;stroke-width:0.2;stroke-linejoin:round" />
    <path
       id="path1884"
       d="m 50.7484,37 h -2.0058 v -4 h 2.0058 z"
       style="fill:#d87408;stroke:#000000;stroke-width:0.2;stroke-linejoin:round" />
    <path
       id="path1882"
       d="m 52.7543,37 h -2.0059 v -4 h 2.0059 z"
       style="fill:#d87408;stroke:#000000;stroke-width:0.2;stroke-linejoin:round" />
    <path
       id="path1880"
       d="m 54.7601,37 h -2.0058 v -4 h 2.0058 z"
       style="fill:#d87408;stroke:#000000;stroke-width:0.2;stroke-linejoin:round" />
    <path
       id="path1878"
       d="m 56.7659,37 h -2.0058 v -4 h 2.0058 z"
       style="fill:#d87408;stroke:#000000;stroke-width:0.2;stroke-linejoin:round" />
    <path
       id="path1870"
       d="m 64.7892,37 h -2.0058 v -4 h 2.0058 z"
       style="fill:#d87408;stroke:#000000;stroke-width:0.2;stroke-linejoin:round" />
    <path
       id="path1868"
       d="M 66.795,37 H 64.7892 V 33 H 66.795 Z"
       style="fill:#d87408;stroke:#000000;stroke-width:0.2;stroke-linejoin:round" />
    <path
       id="path1866"
       d="M 68.8008,37 H 66.795 v -4 h 2.0058 z"
       style="fill:#d87408;stroke:#000000;stroke-width:0.2;stroke-linejoin:round" />
    <path
       id="path1864"
       d="M 71.4262,36.7364 68.8008,37 v -4 l 1.3519,-0.0525 z"
       style="fill:#d87408;stroke:#000000;stroke-width:0.2;stroke-linejoin:round" />
    <path
       id="path1862"
       d="m 73.9422,35.0938 -2.516,1.6426 -1.2735,-3.7889 0.8079,-0.5188 z"
       style="fill:#d87408;stroke:#000000;stroke-width:0.2;stroke-linejoin:round" />
    <path
       id="path1860"
       d="m 75.335,33.1839 -1.3928,1.9099 -2.9816,-2.6651 0.9601,-1.327 z"
       style="fill:#d87408;stroke:#000000;stroke-width:0.2;stroke-linejoin:round" />
    <path
       id="path1858"
       d="m 76.3491,31.3006 -1.0141,1.8833 -3.4143,-2.0822 0.8819,-1.6498 z"
       style="fill:#d87408;stroke:#000000;stroke-width:0.2;stroke-linejoin:round" />
    <path
       id="path1856"
       d="m 77.2762,29.5222 -0.9271,1.7784 -3.5465,-1.8487 0.9271,-1.7784 z"
       style="fill:#d87408;stroke:#000000;stroke-width:0.2;stroke-linejoin:round" />
    <path
       id="path1854"
       d="m 78.165,28.0835 -0.8888,1.4387 -3.5465,-1.8487 1.2195,-1.9656 z"
       style="fill:#d87408;stroke:#000000;stroke-width:0.2;stroke-linejoin:round" />
    <path
       id="path1852"
       d="m 79.06,27.1958 -0.895,0.8877 -3.2158,-2.3756 1.963,-1.8842 z"
       style="fill:#d87408;stroke:#000000;stroke-width:0.2;stroke-linejoin:round" />
    <path
       id="path1850"
       d="M 79.8292,27.0025 79.06,27.1958 76.9122,23.8237 79.9595,23.0054 Z"
       style="fill:#d87408;stroke:#000000;stroke-width:0.2;stroke-linejoin:round" />
    <path
       id="path1848"
       d="m 81.681,27.0847 -1.8518,-0.0822 0.1303,-3.9971 2.153,0.1038 z"
       style="fill:#d87408;stroke:#000000;stroke-width:0.2;stroke-linejoin:round" />
    <path
       id="path1846"
       d="m 83.4351,27.3231 -1.7541,-0.2384 0.4315,-3.9755 2.2154,0.3152 z"
       style="fill:#d87408;stroke:#000000;stroke-width:0.2;stroke-linejoin:round" />
    <path
       id="path1844"
       d="m 85.0097,27.8016 -1.5746,-0.4785 0.8928,-3.8987 2.2523,0.6992 z"
       style="fill:#d87408;stroke:#000000;stroke-width:0.2;stroke-linejoin:round" />
    <path
       id="path1842"
       d="m 86.2136,28.5198 -1.2039,-0.7182 1.5705,-3.678 2.2165,1.3435 z"
       style="fill:#d87408;stroke:#000000;stroke-width:0.2;stroke-linejoin:round" />
    <path
       id="path1840"
       d="m 86.9924,29.4535 -0.7788,-0.9337 2.5831,-3.0527 1.7482,2.1497 z"
       style="fill:#d87408;stroke:#000000;stroke-width:0.2;stroke-linejoin:round" />
    <path
       id="path1838"
       d="m 87.5222,30.9319 -0.5298,-1.4784 3.5525,-1.8367 0.8385,2.2771 z"
       style="fill:#d87408;stroke:#000000;stroke-width:0.2;stroke-linejoin:round" />
    <path
       id="path1836"
       d="m 87.7178,32.5003 -0.1956,-1.5684 3.8612,-1.038 0.329,2.4037 z"
       style="fill:#d87408;stroke:#000000;stroke-width:0.2;stroke-linejoin:round" />
    <path
       id="path1828"
       d="m 87.3597,39.6936 0.293,-1.4846 3.979,0.4028 -0.5094,2.4377 z"
       style="fill:#d87408;stroke:#000000;stroke-width:0.2;stroke-linejoin:round" />
    <path
       id="path1826"
       d="m 86.7069,40.9723 0.6528,-1.2787 3.7626,1.3559 -1.1772,2.2692 z"
       style="fill:#d87408;stroke:#000000;stroke-width:0.2;stroke-linejoin:round" />
    <path
       id="path1824"
       d="m 85.8134,41.7789 0.8935,-0.8066 3.2382,2.3464 -2.0555,1.8781 z"
       style="fill:#d87408;stroke:#000000;stroke-width:0.2;stroke-linejoin:round" />
    <path
       id="path1822"
       d="m 84.3692,42.4379 1.4442,-0.659 2.0762,3.4179 -2.1896,1.0126 z"
       style="fill:#d87408;stroke:#000000;stroke-width:0.2;stroke-linejoin:round" />
    <path
       id="path1820"
       d="m 82.7338,42.8045 1.6354,-0.3666 1.3308,3.7715 -2.2693,0.5335 z"
       style="fill:#d87408;stroke:#000000;stroke-width:0.2;stroke-linejoin:round" />
    <path
       id="path1818"
       d="m 81.0212,42.9586 1.7126,-0.1541 0.6969,3.9384 -2.2792,0.2128 z"
       style="fill:#d87408;stroke:#000000;stroke-width:0.2;stroke-linejoin:round" />
    <path
       id="path1816"
       d="m 79.0815,43 1.9397,-0.0414 0.1303,3.9971 -2.07,0.0443 z"
       style="fill:#d87408;stroke:#000000;stroke-width:0.2;stroke-linejoin:round" />
    <path
       id="path1814"
       d="m 77.0757,43 h 2.0058 v 4 h -2.0058 z"
       style="fill:#d87408;stroke:#000000;stroke-width:0.2;stroke-linejoin:round" />
    <path
       id="path1812"
       d="m 75.0698,43 h 2.0059 v 4 h -2.0059 z"
       style="fill:#d87408;stroke:#000000;stroke-width:0.2;stroke-linejoin:round" />
    <path
       id="path1810"
       d="m 73.064,43 h 2.0058 v 4 H 73.064 Z"
       style="fill:#d87408;stroke:#000000;stroke-width:0.2;stroke-linejoin:round" />
    <path
       id="path1808"
       d="m 71.0582,43 h 2.0058 v 4 h -2.0058 z"
       style="fill:#d87408;stroke:#000000;stroke-width:0.2;stroke-linejoin:round" />
    <path
       id="path1806"
       d="m 69.0524,43 h 2.0058 v 4 h -2.0058 z"
       style="fill:#d87408;stroke:#000000;stroke-width:0.2;stroke-linejoin:round" />
    <path
       id="path1804"
       d="m 67.0466,43 h 2.0058 v 4 h -2.0058 z"
       style="fill:#d87408;stroke:#000000;stroke-width:0.2;stroke-linejoin:round" />
    <path
       id="path1802"
       d="m 65.0407,43 h 2.0059 v 4 h -2.0059 z"
       style="fill:#d87408;stroke:#000000;stroke-width:0.2;stroke-linejoin:round" />
    <path
       id="path1800"
       d="m 63.0349,43 h 2.0058 v 4 h -2.0058 z"
       style="fill:#d87408;stroke:#000000;stroke-width:0.2;stroke-linejoin:round" />
    <path
       id="path1798"
       d="m 61.0291,43 h 2.0058 v 4 h -2.0058 z"
       style="fill:#d87408;stroke:#000000;stroke-width:0.2;stroke-linejoin:round" />
    <path
       id="path1796"
       d="m 59.0233,43 h 2.0058 v 4 h -2.0058 z"
       style="fill:#d87408;stroke:#000000;stroke-width:0.2;stroke-linejoin:round" />
    <path
       id="path1794"
       d="m 57.0175,43 h 2.0058 v 4 h -2.0058 z"
       style="fill:#d87408;stroke:#000000;stroke-width:0.2;stroke-linejoin:round" />
    <path
       id="path1792"
       d="m 55.0116,43 h 2.0059 v 4 h -2.0059 z"
       style="fill:#d87408;stroke:#000000;stroke-width:0.2;stroke-linejoin:round" />
    <path
       id="path1790"
       d="m 53.0058,43 h 2.0058 v 4 h -2.0058 z"
       style="fill:#d87408;stroke:#000000;stroke-width:0.2;stroke-linejoin:round" />
    <path
       id="path1788"
       d="m 51,43 h 2.0058 v 4 H 51 Z"
       style="fill:#d87408;stroke:#000000;stroke-width:0.2;stroke-linejoin:round" />
    <path
       id="path1786"
       d="M 48.6175,43.1293 51,43 v 4 l -1.6143,0.0519 z"
       style="fill:#d87408;stroke:#000000;stroke-width:0.2;stroke-linejoin:round" />
    <path
       id="path1784"
       d="m 45.895,44.6157 2.7225,-1.4864 0.7682,3.9226 -0.7264,0.4532 z"
       style="fill:#d87408;stroke:#000000;stroke-width:0.2;stroke-linejoin:round" />
    <path
       id="path1774"
       d="m 40.7005,52.6663 0.831,-0.9562 3.2158,2.3755 -1.899,1.9528 z"
       style="fill:#d87408;stroke:#000000;stroke-width:0.2;stroke-linejoin:round" />
    <path
       id="path1772"
       d="m 39.7801,52.9969 0.9204,-0.3306 2.1478,3.3721 -2.8164,0.9478 z"
       style="fill:#d87408;stroke:#000000;stroke-width:0.2;stroke-linejoin:round" />
    <path
       id="path1770"
       d="m 39.07,52.8106 0.7101,0.1863 0.2518,3.9893 -3.1096,-0.8035 z"
       style="fill:#d87408;stroke:#000000;stroke-width:0.2;stroke-linejoin:round" />
    <path
       id="path1768"
       d="m 38.1721,51.9261 0.8979,0.8845 -2.1477,3.3721 -1.966,-1.8811 z"
       style="fill:#d87408;stroke:#000000;stroke-width:0.2;stroke-linejoin:round" />
    <path
       id="path1766"
       d="m 37.2817,50.4884 0.8904,1.4377 -3.2158,2.3755 -1.2211,-1.9645 z"
       style="fill:#d87408;stroke:#000000;stroke-width:0.2;stroke-linejoin:round" />
    <path
       id="path1764"
       d="m 36.3546,48.71 0.9271,1.7784 -3.5465,1.8487 -0.9271,-1.7784 z"
       style="fill:#d87408;stroke:#000000;stroke-width:0.2;stroke-linejoin:round" />
    <path
       id="path1762"
       d="m 35.3412,46.8263 1.0134,1.8837 -3.5465,1.8487 -0.8812,-1.6502 z"
       style="fill:#d87408;stroke:#000000;stroke-width:0.2;stroke-linejoin:round" />
    <path
       id="path1760"
       d="m 33.9502,44.9151 1.391,1.9112 -3.4143,2.0822 -0.9584,-1.3283 z"
       style="fill:#d87408;stroke:#000000;stroke-width:0.2;stroke-linejoin:round" />
    <path
       id="path1758"
       d="m 31.4375,43.2674 2.5127,1.6477 -2.9817,2.6651 -0.8045,-0.5239 z"
       style="fill:#d87408;stroke:#000000;stroke-width:0.2;stroke-linejoin:round" />
    <path
       id="path1756"
       d="M 28.8128,43 31.4375,43.2674 30.164,47.0563 28.8128,47 Z"
       style="fill:#d87408;stroke:#000000;stroke-width:0.2;stroke-linejoin:round" />
    <path
       id="path1754"
       d="m 26.8069,43 h 2.0059 v 4 h -2.0059 z"
       style="fill:#d87408;stroke:#000000;stroke-width:0.2;stroke-linejoin:round" />
    <path
       id="path1752"
       d="m 24.8011,43 h 2.0058 v 4 h -2.0058 z"
       style="fill:#d87408;stroke:#000000;stroke-width:0.2;stroke-linejoin:round" />
    <path
       id="path1750"
       d="m 22.7953,43 h 2.0058 v 4 h -2.0058 z"
       style="fill:#d87408;stroke:#000000;stroke-width:0.2;stroke-linejoin:round" />
    <path
       id="rect1729"
       d="m 14.772,43 h 2.0058 v 4 H 14.772 Z"
       style="fill:#d87408;stroke:#000000;stroke-width:0.2;stroke-linejoin:round" />
  </g>
</svg>
